/* XPM */
static char *result[] = {
/* columns rows colors chars-per-pixel */
"60 60 227 2 ",
"   c #040203",
".  c #0C0202",
"X  c #05030A",
"o  c #180606",
"O  c #1D120D",
"+  c #0D0D12",
"@  c #150F15",
"#  c #0F1115",
"$  c #0E131A",
"%  c #111216",
"&  c #191214",
"*  c #13151A",
"=  c #16181C",
"-  c #191A1E",
";  c #19171B",
":  c #240C08",
">  c #340F0B",
",  c #36130C",
"<  c #271818",
"1  c #3B1917",
"2  c #2A1012",
"3  c #1C1D22",
"4  c #161820",
"5  c #251D24",
"6  c #1E2124",
"7  c #1D2329",
"8  c #172126",
"9  c #212226",
"0  c #24262A",
"q  c #26282D",
"w  c #292A2E",
"e  c #282529",
"r  c #3E2B24",
"t  c #2C2D32",
"y  c #2F3035",
"u  c #313236",
"i  c #34353A",
"p  c #37383C",
"a  c #393A3E",
"s  c #3C373A",
"d  c #302E35",
"f  c #48140F",
"g  c #59170D",
"h  c #451B13",
"j  c #4A1917",
"k  c #5A1814",
"l  c #63130A",
"z  c #631608",
"x  c #641B13",
"c  c #681A12",
"v  c #741F15",
"b  c #57230D",
"n  c #4A231A",
"m  c #55261B",
"M  c #5A2917",
"N  c #5A3816",
"B  c #6B240B",
"V  c #792C0A",
"C  c #682518",
"Z  c #7B2513",
"A  c #7B2D14",
"S  c #782A16",
"D  c #65351A",
"F  c #7B361A",
"G  c #7F3009",
"H  c #4A2A23",
"J  c #5B2B24",
"K  c #48342A",
"L  c #5B3A2D",
"P  c #56372A",
"I  c #4B3934",
"U  c #5D3D34",
"Y  c #593C38",
"T  c #622E29",
"R  c #6A3525",
"E  c #62312B",
"W  c #653B2C",
"Q  c #683828",
"!  c #713323",
"~  c #74392B",
"^  c #653D31",
"/  c #693D32",
"(  c #603F3C",
")  c #56481F",
"_  c #644317",
"`  c #7A561B",
"'  c #71481B",
"]  c #5C4135",
"[  c #59423B",
"{  c #594628",
"}  c #69462D",
"|  c #75442A",
" . c #624133",
".. c #6A4534",
"X. c #744A33",
"o. c #794935",
"O. c #7E523F",
"+. c #3B3C41",
"@. c #373C42",
"#. c #453D45",
"$. c #563A41",
"%. c #3D4345",
"&. c #434852",
"*. c #414549",
"=. c #745342",
"-. c #77574A",
";. c #784F42",
":. c #5E5F68",
">. c #5D6870",
",. c #6E747E",
"<. c #786854",
"1. c #86320C",
"2. c #852A17",
"3. c #922D1C",
"4. c #873218",
"5. c #973618",
"6. c #812E0A",
"7. c #A3391B",
"8. c #9B3725",
"9. c #823124",
"0. c #B23C25",
"q. c #AA3E2A",
"w. c #9A460D",
"e. c #8D4D17",
"r. c #A7460C",
"t. c #A7451A",
"y. c #B64A1A",
"u. c #B85616",
"i. c #A9570C",
"p. c #B7610F",
"a. c #864528",
"s. c #99462C",
"d. c #844332",
"f. c #885537",
"g. c #925836",
"h. c #AB432B",
"j. c #AD4421",
"k. c #BD4424",
"l. c #B3462C",
"z. c #B9492A",
"x. c #B84731",
"c. c #AE5033",
"v. c #99633F",
"b. c #946933",
"n. c #B26B30",
"m. c #C34A19",
"M. c #C65716",
"N. c #C95A0E",
"B. c #CD641B",
"V. c #D96716",
"C. c #DB7415",
"Z. c #CF610E",
"A. c #E27719",
"S. c #C34323",
"D. c #C34827",
"F. c #C14835",
"G. c #C76727",
"H. c #D86A22",
"J. c #DC7926",
"K. c #D57832",
"L. c #E27527",
"P. c #965D44",
"I. c #835843",
"U. c #8A634B",
"Y. c #986649",
"T. c #976A53",
"R. c #9F745F",
"E. c #A26C4D",
"W. c #A76548",
"Q. c #BA794D",
"!. c #A97557",
"~. c #BB7C55",
"^. c #B67958",
"/. c #AC7050",
"(. c #BB7F65",
"). c #C45A42",
"_. c #C17D55",
"`. c #F4990E",
"'. c #E9921E",
"]. c #F4931C",
"[. c #F59A1B",
"{. c #F69917",
"}. c #EC8F1D",
"|. c #F4A11B",
" X c #D9992B",
".X c #D18A28",
"XX c #E68828",
"oX c #EA9425",
"OX c #F59624",
"+X c #EA8C32",
"@X c #EC9129",
"#X c #F4A129",
"$X c #B8815B",
"%X c #BA814E",
"&X c #A78163",
"*X c #B88265",
"=X c #C8865A",
"-X c #DB9045",
";X c #C68963",
":X c #CF9367",
">X c #D59767",
",X c #D39870",
"<X c #D7A27A",
"1X c #E6A778",
"2X c #EFB67E",
"3X c #777C85",
"4X c #7B8185",
"5X c #81899A",
"6X c #878F95",
"7X c #919CA2",
"8X c #9FB4BF",
"9X c #A9A8B8",
"0X c #AAB1BC",
"qX c #DAA885",
"wX c #D4AF97",
"eX c #F3BE98",
"rX c #E9B088",
"tX c #F5C29C",
"yX c #EBC3A4",
"uX c #FFD4B3",
"iX c #B5BCC6",
"pX c #C5CBD5",
"aX c #CAC8D6",
"sX c #C8D4D9",
"dX c #EDEBF7",
"fX c #D3D5E3",
"gX c None",
/* pixels */
"gXgXgXgXgXgXgXgXgXgXgXgXgXgXgXgXgXgXgXgXgXgXgXgXgXgXgXgXgXgXgXgXgXgXgXgXgXgXgXgXgXgXgXgXgXgXgXgXgXgXgXgXgXgXgXgXgXgXgXgX",
"gXgXgXgXgXgXgXgXgXgXgXgXgXgXgXgXgXgXgXgXgXgXgXgXgXgXgXgXgXgXgXgXgXgXgXgX% % % gXgXgXgXgXgXgXgXgXgXgXgXgXgXgXgXgXgXgXgXgX",
"gXgXgXgXgXgXgXgXgXgXgXgXgXgXgXgXgXgXgXgXgXgXgXgXgXgXgXgXgXgXgXgXgXgXgX& % * % gXgXgXgXgXgXgXgXgXgXgXgXgXgXgXgXgXgXgXgXgX",
"gXgXgXgXgXgXgXgXgXgXgXgXgXgXgXgXgXgXgXgXgXgXgXgXgXgXgXgXgXgXgX# # # e u 3 % % gXgXgXgXgXgXgXgXgXgXgXgXgXgXgXgXgXgXgXgXgX",
"gXgXgXgXgXgXgXgXgXgXgXgXgXgXgXgXgXgXgXgXgXgXgXgXgXgXgXgXgX* = = 3 6 u +.9 % gXgXgXgXgXgXgXgXgXgXgXgXgXgXgXgXgXgXgXgXgXgX",
"gXgXgXgXgXgXgXgXgXgXgXgXgXgXgXgXgXgXgXgXgXgXgXgXgXgXgXgX% - q w p p p p 9 # % gXgXgXgXgXgXgXgXgXgXgXgXgXgXgXgXgXgXgXgXgX",
"gXgXgXgXgXgXgXgXgXgXgXgXgXgXgXgXgXgXgXgXgXgXgXgXgXgXgX- 5 q u i a a a a 0 % % gXgXgXgXgXgXgXgXgXgXgXgXgXgXgXgXgXgXgXgXgX",
"gXgXgXgXgXgXgXgXgXgXgXgXgXgXgXgXgXgXgXgXgXgXgXgXgX- 3 9 t u a +.a a u w 3 % # gXgXgXgXgXgXgXgXgXgXgXgXgXgXgXgXgXgXgXgXgX",
"gXgXgXgXgXgXgXgXgXgXgXgXgXgXgXgX% % % % gXgXgXgX* 9 9 u a p p p a a 3 # * % * % * * * * % ; ; ; * * & * gXgXgXgXgXgXgXgX",
"gXgXgXgXgXgXgXgXgXgXgXgXgXgXgXgXgXgX+ % % * * 9 0 0 e y a p a a @.i 3 % * + - 7 q u i i i u u u p t 9 9 % % gXgXgXgXgXgX",
"gXgXgXgXgXgXgXgXgXgXgXgXgXgXgXgXgX+ * 3 = * * 9 q e q u a a u u a a 9 3 3 4 e u u a a p a a p p u u u t 6 - % # gXgXgXgX",
"gXgXgXgXgXgXgXgXgXgXgXgXgXgXgXgX% * 3 q 9 % * 3 0 0 q y a u w w a a q 9 e q t a p i i p p p p u 9 w i i q e - % gXgXgXgX",
"gXgXgXgXgXgXgXgXgXgXgXgXgXgXgX% 3 q q q 7 % * * * 5 q q q y a i w q = % w a u w e = ; 0 w w w q 0 0 gXgXgXgXgXgXgXgXgXgX",
"gXgXgXgXgXgXgXgXgXgXgXgXgXgX% % 6 e e q 5 % # * * 9 0 t u u y t 6 - * * 3 0 9 - - w w 6 - - - - 9 gXgXgXgXgXgXgXgXgXgXgX",
"gXgXgXgXgXgXgXgXgXgXgXgXgXgX= = 7 q 9 9 3 = = % $ 3 3 t u t 7 9 - - = % % % * - 9 i i - % % % + gXgXgXgXgXgXgXgXgXgXgXgX",
"gXgXgXgXgXgXgXgXgXgXgXgXgX* 9 q q w 3 * 4 q 9 * * * * * = * * - p p 6 # % % 9 a u w 0 * % % % % % ; % gXgXgXgXgXgXgXgXgX",
"gXgXgXgXgXgXgX5 e 9 9 0 t t q 9 3 4 = + 3 u u 9 9 * % * # 3 w t t t 4 * 4 9 3 3 9 q 9 9 9 q t y t t y y = # gXgXgXgXgXgX",
"gXgXgXgX% % $ 3 6 e w t u p t t 3 + * % 6 a p w e - % = 3 q +.i 0 3 * @ 3 9 7 3 6 q q t w p p a a a i u 7 6 = % $ gXgXgX",
"gXgXgXgXgX% % * * 9 i i t w p a 5 * % + - a p w e = % q i +.a u = % * * * * 5 @.i q q i p p p p a y 0 0 y a 6 % * % gXgX",
"gXgXgXgXgXgXgX9 9 q t t u p a a u u 9 % = w w q 9 y y a +.i t q * % % % 0 d t t t i y y w w w w y 0 = = - 6 % gXgXgXgXgX",
"gXgXgXgXgXgXgX- 6 3 3 9 t u +.+.@.a q % = 3 3 e e p a p u t 3 3 3 4 * % 3 t q 3 7 y i q 0 w y q 6 - % gXgXgXgXgXgXgXgXgX",
"gXgXgXgXgXgX% % * % % = 6 e u i p a e % # = = 9 e t p t 0 3 * 4 q q ; * % * * * = 7 0 7 0 y p q # # gXgXgXgXgXgXgXgXgXgX",
"gXgXgXgXgXgXgXgXgXgX% * * * = = 9 t 6 % 3 p y - $ = - - * 3 9 q i i q e 3 + = 7 7 = $ = = = - % gXgXgXgXgXgXgXgXgXgXgXgX",
"gXgXgXgXgXgXgXgXgXgXgXgX% % * * = 3 = % - u y q e = + % $ 3 d d @.+.9 - = $ = 6 = $ $ $ # # # gXgXgXgXgXgXgXgXgXgXgXgXgX",
"gXgXgXgXgXgXgXgXgXgXgXgXgX* + * = $ $ $ 4 0 q i a 9 - = # 6 a p s i - # * = = $ $ * # * % # # gXgXgXgXgXgXgXgXgXgXgXgXgX",
"gXgXgXgXgXgXgXgXgXgXgXgXgXgX% % 8 e 3 # = e t i a a i 0 # 8 s i t q ; & 3 9 q 9 9 * + X X X gXgXgXgXgXgXgXgXgXgXgXgXgXgX",
"gXgXgXgXgXgXgXgXgXgXgXgXgXgX% * 4 4 3 9 3 = 6 p @.@.a w 3 9 u t 8 4 3 3 7 q 9 = - * % + + gXgXgXgXgXgXgXgXgXgXgXgXgXgXgX",
"gXgXgXgXgXgXgXgXgXgXgXgXgXgXgXgXgX$ = 7 6 # % w y u i y e e 7 8 $ $ 8 7 7 9 3 + + # # % % gXgXgXgXgXgXgXgXgXgXgXgXgXgXgX",
"gXgXgXgXgXgXgXgXgXgXgXgXgXgXgXgXgXgXO O & * & @ & 6 0 q 0 9 % $ # * @ & O & & X .   gXgXgXgXgXgXgXgXgXgXgXgXgXgXgXgXgXgX",
"gXgXgXgXgXgXgXgXgXgXgXgXgXgXgXgXP D M b b M H 2 @ 4 = = = % % % @ O n J j h h h , o gXgXgXgXgXgXgXgXgXgXgXgXgXgXgXgXgXgX",
"gXgXgXgXgXgXgXgXgXgXgXgXgXgXgXD F 5.r.u.i.i.e.g 1 5 3 6 8 4 6 < 1 h C 4.2.A Z c C , > gXgXgXgXgXgXgXgXgXgXgXgXgXgXgXgXgX",
"gXgXgXgXgXgXgXgXgXgXgXgXgXgXR A j.D.V.}.{.|..Xe.T $.@.%.%.%.%.[ L R 4.1.7.z.0.2.S g n gXgXgXgXgXgXgXgXgXgXgXgXgXgXgXgXgX",
"gXgXgXgXgXgXgXgXgXgXgXgXgXgXD 6.G.+XA.N.V.OX X' K 3X5X9XsXiX4X3X#.P n.XXB.y.S.0.8.l g J [ gXgXgXgXgXgXgXgXgXgXgXgXgXgXgX",
"gXgXgXgXgXgXgXgXgXgXgXgXgXgXD F n.-Xn.3.j.L.n.L +.7XpXaXpXaXsXiX%.K n.J.M.7.l.).).s.d.Q ^ gXgXgXgXgXgXgXgXgXgXgXgXgXgXgX",
"gXgXgXgXgXgXgXgXgXgXgXgXgXgX..~ W._.s.l Z z.s.I @.iXdXaX9XiXdXaX&.K a.l.3.Z s.^.^._.^.f.} K gXgXgXgXgXgXgXgXgXgXgXgXgXgX",
"gXgXgXgXgXgXgXgXgXgXgXgX]  .T.Q.>X2XW.l v k.h.K +.4X9XaXdXfX8X7X%.K ! 4.v x ~ Q.=X1X1X<X<XU.P gXgXgXgXgXgXgXgXgXgXgXgXgX",
"gXgXgXgXgXgXgXgXgXgXgXgX] } /.~.>X2XQ.c 2.z.j.n.v.<.>.3X6X4X>.:.$.T B B c k ! g.v.:X>XrXtXT.L gXgXgXgXgXgXgXgXgXgXgXgXgX",
"gXgXgXgXgXgXgXgXgXgXgXgX] ..^.;X>X1XQ.V 4.j.y.XX+Xe.) { ) ) L E 9.4.B c c k m n J T.Q.tXuXR.L gXgXgXgXgXgXgXgXgXgXgXgXgX",
"gXgXgXgXgXgXgXgXgXgXgXgX^ } :X1X=X_.v.S A 2.4.l.M..X X X XK.h.c.x.x.! S c k 1 . o  .X.wXuXR.L gXgXgXgXgXgXgXgXgXgXgXgXgX",
"gXgXgXgXgXgXgXgXgXgXgXgXU } (.:X_.^.g.R M , > M J ' e.` ` ' J J J M , , 1 2 o . o L } qXtXT.L gXgXgXgXgXgXgXgXgXgXgXgXgX",
"gXgXgXgXgXgXgXgXgXgXgXgX[  .T.E./.^.W.v.} : : N D R E E E J m M N ) > : .   . o 2 X.f.;X<XY.L gXgXgXgXgXgXgXgXgXgXgXgXgX",
"gXgXgXgXgXgXgXgXgXgXgXgXgXgX^ / W.~.:X1X(.x B .X@XG.q.q.x.x.l.u.@X@X6.g 1 . O Y ..!.~.Q.%Xf.U gXgXgXgXgXgXgXgXgXgXgXgXgX",
"gXgXgXgXgXgXgXgXgXgXgXgXgXgXU ^ *XrX$Xf.s.8.r.oX#XB.S.S.m.S.0.M.OXOXw.B x f j ^ I.<X1X1X1XU.Y gXgXgXgXgXgXgXgXgXgXgXgXgX",
"gXgXgXgXgXgXgXgXgXgXgXgXgXgXgXP T.*XY.D e.G.C.].`.A.V.V.V.V.V.V.A.J.t.5.v k H r K &X*X_.;XU.I gXgXgXgXgXgXgXgXgXgXgXgXgX",
"gXgXgXgXgXgXgXgXgXgXgXgXgXgXgXgXK L Q V w.@X|.`.`.].oX}.oX'.'.XXm.S.D.x.2.k j o o L ^ W W gXgXgXgXgXgXgXgXgXgXgXgXgXgXgX",
"gXgXgXgXgXgXgXgXgXgXgXgXgXgXgXgXgXo M V r.oXOXZ.M.r.5.1.V V V 6.t.S.S.D.7.Z v k j gXgXgXgXgXgXgXgXgXgXgXgXgXgXgXgXgXgXgX",
"gXgXgXgXgXgXgXgXgXgXgXgXgXgXgXgXH n 4.5.p.OX{.C.V.y.5.V l x c 6.H.H.D.S.y.8.9.l k gXgXgXgXgXgXgXgXgXgXgXgXgXgXgXgXgXgXgX",
"gXgXgXgXgXgXgXgXgXgXgXgXgXgXgXgXQ S 7.D.B.{.`.[.OXB.z.3.l v 4.w.@X[.V.M.D.x.8.z k gXgXgXgXgXgXgXgXgXgXgXgXgXgXgXgXgXgXgX",
"gXgXgXgXgXgXgXgXgXgXgXgXgXgXgXgXQ A 5.k.M.].{.{.OXB.x.3.l Z j.M.@X[.].OXH.D.8.l k gXgXgXgXgXgXgXgXgXgXgXgXgXgXgXgXgXgXgX",
"gXgXgXgXgXgXgXgXgXgXgXgXgXgXgXgXQ S y.J.L.V.V.A.B.y.7.2.l 2.z.u.u.u.u.u.z.x.8.z j gXgXgXgXgXgXgXgXgXgXgXgXgXgXgXgXgXgXgX",
"gXgXgXgXgXgXgXgXgXgXgXgXgXgXgXgXQ S p.#XXXy.j.h.s.4.A B l v q.5.2.2.Z V 5.q.9.f h gXgXgXgXgXgXgXgXgXgXgXgXgXgXgXgXgXgXgX",
"gXgXgXgXgXgXgXgXgXgXgXgXgXgXgXgXQ V p.#X.XF ~ ~ ~ ! S v k c 4.A 4.Z 6.G B l j o . gXgXgXgXgXgXgXgXgXgXgXgXgXgXgXgXgXgXgX",
"gXgXgXgXgXgXgXgXgXgXgXgXgXgXgXgXgXgXa.g.f.Y.W.Y.Y.o.! C g C ! ~ c.W.W.W.d.J H . gXgXgXgXgXgXgXgXgXgXgXgXgXgXgXgXgXgXgXgX",
"gXgXgXgXgXgXgXgXgXgXgXgXgXgXgXgXgXgX[ L X.Q.=X=X;Xf./ T m T / o.!.~._.~.E.Y.-.h K gXgXgXgXgXgXgXgXgXgXgXgXgXgXgXgXgXgXgX",
"gXgXgXgXgXgXgXgXgXgXgXgXgXgXgXgXgXgXgXU O.!.~.1X1XY.W ^ ^ ^ / | !.~.~.Q.:XrX(.( [ gXgXgXgXgXgXgXgXgXgXgXgXgXgXgXgXgXgXgX",
"gXgXgXgXgXgXgXgXgXgXgXgXgXgXgXgXgXgXgXgX} | f.<XrX$XE.f.W / / o.,XrX1X1X:X;XE.^ [ gXgXgXgXgXgXgXgXgXgXgXgXgXgXgXgXgXgXgX",
"gXgXgXgXgXgXgXgXgXgXgXgXgXgXgXgXgXgXgXgX[ L X.qXtXqX<XE.W } ^ o.!.$X^.(.E.U.f.] gXgXgXgXgXgXgXgXgXgXgXgXgXgXgXgXgXgXgXgX",
"gXgXgXgXgXgXgXgXgXgXgXgXgXgXgXgXgXgXgXgXgX[ =.wXyXyXyX&XL U ( U L  .L L  .] ] gXgXgXgXgXgXgXgXgXgXgXgXgXgXgXgXgXgXgXgXgX",
"gXgXgXgXgXgXgXgXgXgXgXgXgXgXgXgXgXgXgXgXgXgXgX-.=.O.-.=.gXgXgXgXgXgXgXgXgXgXgXgXgXgXgXgXgXgXgXgXgXgXgXgXgXgXgXgXgXgXgXgX",
"gXgXgXgXgXgXgXgXgXgXgXgXgXgXgXgXgXgXgXgXgXgXgXgX[ [ [ gXgXgXgXgXgXgXgXgXgXgXgXgXgXgXgXgXgXgXgXgXgXgXgXgXgXgXgXgXgXgXgXgX"
};
