/* XPM */
static char *result[] = {
/* columns rows colors chars-per-pixel */
"60 60 221 2 ",
"   c #030305",
".  c #0C0303",
"X  c #050509",
"o  c #0A0B0E",
"O  c #09080A",
"+  c #170806",
"@  c #0D0E12",
"#  c #110F13",
"$  c #0F1215",
"%  c #0E1319",
"&  c #111216",
"*  c #131519",
"=  c #16191C",
"-  c #181A1E",
";  c #1C1418",
":  c #12100C",
">  c #260C0B",
",  c #2A160A",
"<  c #39150F",
"1  c #291413",
"2  c #371916",
"3  c #320F0C",
"4  c #3B2314",
"5  c #1C1D22",
"6  c #1A1421",
"7  c #1E2125",
"8  c #212226",
"9  c #24262A",
"0  c #27292C",
"q  c #292A2E",
"w  c #372926",
"e  c #252B33",
"r  c #2C2D32",
"t  c #342E32",
"y  c #2E3134",
"u  c #313236",
"i  c #34363A",
"p  c #36393C",
"a  c #393A3E",
"s  c #34322A",
"d  c #451507",
"f  c #571B0D",
"g  c #4A1917",
"h  c #5B1A12",
"j  c #561A16",
"k  c #6C1A0C",
"l  c #64180A",
"z  c #731A09",
"x  c #671815",
"c  c #721912",
"v  c #5C220C",
"b  c #482319",
"n  c #582417",
"m  c #4F250F",
"M  c #6B2309",
"N  c #7B290E",
"B  c #6D2413",
"V  c #662817",
"C  c #732D1B",
"Z  c #782916",
"A  c #6D301B",
"S  c #73321D",
"D  c #7A3416",
"F  c #73340F",
"G  c #4A2422",
"H  c #4C3222",
"J  c #5D3C2D",
"K  c #593628",
"L  c #4A3938",
"P  c #5B3C34",
"I  c #573D34",
"U  c #742D20",
"Y  c #7E2E20",
"T  c #643324",
"R  c #6C3C25",
"E  c #683B28",
"W  c #743927",
"Q  c #613E33",
"!  c #683B35",
"~  c #6C2B25",
"^  c #7A4219",
"/  c #78531F",
"(  c #5B4138",
")  c #484235",
"_  c #6D432C",
"`  c #764528",
"'  c #644233",
"]  c #6B4532",
"[  c #744935",
"{  c #75503B",
"}  c #7C513F",
"|  c #725137",
" . c #7B6A37",
".. c #3A3B40",
"X. c #3E4445",
"o. c #534F53",
"O. c #7A5646",
"+. c #6A534E",
"@. c #576066",
"#. c #6F7479",
"$. c #696A73",
"%. c #84290A",
"&. c #8B3509",
"*. c #842C14",
"=. c #852B17",
"-. c #912D19",
";. c #873516",
":. c #94331C",
">. c #973518",
",. c #943C07",
"<. c #A63B19",
"1. c #B73A1F",
"2. c #863728",
"3. c #9A3D28",
"4. c #9D3E30",
"5. c #AA3D23",
"6. c #A63D26",
"7. c #C43F17",
"8. c #C63F2A",
"9. c #994919",
"0. c #954C12",
"q. c #BA481B",
"w. c #A85813",
"e. c #B95319",
"r. c #A9510E",
"t. c #9D620E",
"y. c #B7610E",
"u. c #B9671E",
"i. c #97432A",
"p. c #8C4E30",
"a. c #AB4228",
"s. c #B54628",
"d. c #A55825",
"f. c #B85928",
"g. c #AD4B38",
"h. c #956A31",
"j. c #A97926",
"k. c #B1752D",
"l. c #C54A1A",
"z. c #C55517",
"x. c #CB5416",
"c. c #C46611",
"v. c #D86818",
"b. c #C37A1B",
"n. c #D97619",
"m. c #DA720C",
"M. c #E1711C",
"N. c #C4442B",
"B. c #C64724",
"V. c #C85621",
"C. c #C04332",
"Z. c #D76A27",
"A. c #CA7526",
"S. c #DA7824",
"D. c #D47D31",
"F. c #E37923",
"G. c #855741",
"H. c #995E44",
"J. c #9D6A4C",
"K. c #9B6046",
"L. c #976B52",
"P. c #A66A4C",
"I. c #B8784E",
"U. c #A16F51",
"Y. c #A87454",
"T. c #BB7B54",
"R. c #B47A59",
"E. c #B2684A",
"W. c #B07E65",
"Q. c #C27450",
"!. c #C27F61",
"~. c #DB8B18",
"^. c #E5841B",
"/. c #ED931B",
"(. c #F3941B",
"). c #F89B17",
"_. c #F59516",
"`. c #F6A118",
"'. c #C38327",
"]. c #C38232",
"[. c #DB9430",
"{. c #E78826",
"}. c #E89627",
"|. c #FC9D21",
" X c #F59627",
".X c #F4A429",
"XX c #BA815D",
"oX c #BB8767",
"OX c #CA8A5D",
"+X c #C88C67",
"@X c #CE9265",
"#X c #D3946B",
"$X c #C89777",
"%X c #D99E75",
"&X c #D8A17D",
"*X c #E7A87D",
"=X c #7C8385",
"-X c #868E97",
";X c #BE9984",
":X c #999CA8",
">X c #9CA3AC",
",X c #9FA7B2",
"<X c #B0B1BC",
"1X c #C89D80",
"2X c #DDA886",
"3X c #D6AA8A",
"4X c #E2A983",
"5X c #E8B38A",
"6X c #F4BF94",
"7X c #ECB890",
"8X c #FAC99D",
"9X c #F6C9A7",
"0X c #FFD4A9",
"qX c #FFD7B0",
"wX c #ABAFC6",
"eX c #C5C9D7",
"rX c #CDD2DA",
"tX c #D4D8E6",
"yX c #E2E7EC",
"uX c #E9E9F0",
"iX c None",
/* pixels */
"iXiXiXiXiXiXiXiXiXiXiXiXiXiXiXiXiXiXiXiXiXiXiXiXiXiXiXiXiXiXiXiXiXiXiXiXiXiXiXiXiXiXiXiXiXiXiXiXiXiXiXiXiXiXiXiXiXiXiXiX",
"iXiXiXiXiXiXiXiXiXiXiXiXiXiXiXiXiXiXiXiXiXiXiXiXiXiXiXiX& & @ $ & & & # & & % % iXiXiXiXiXiXiXiXiXiXiXiXiXiXiXiXiXiXiXiX",
"iXiXiXiXiXiXiXiXiXiXiXiXiXiXiXiXiXiXiXiXiXiXiXiXiXiXiX5 5 5 5 5 5 5 5 5 5 & & % $ o iXiXiXiXiXiXiXiXiXiXiXiXiXiXiXiXiXiX",
"iXiXiXiXiXiXiXiXiXiXiXiXiXiXiXiXiXiXiXiXiXiXiXiXiX* * u p p p p p i p p r 9 5 $ @ & & iXiXiXiXiXiXiXiXiXiXiXiXiXiXiXiXiX",
"iXiXiXiXiXiXiXiXiXiXiXiXiXiXiX$ & iXiXiXiXiXiX& * u t p ..p ..i r q r q 5 * #         iXiXiXiXiXiXiXiXiXiXiXiXiXiXiXiXiX",
"iXiXiXiXiXiXiXiXiXiXiXiXiXiXiX@ & & iXiXiXiX* 9 9 u u p ..i u r 5 5 5 5 * & @ O o o @ o o $ & iXiXiXiXiXiXiXiXiXiXiXiXiX",
"iXiXiXiXiXiXiXiXiXiXiXiXiXiXiXo & & iXiXiX= 8 p p q 0 p p t 8 5 & * # & * * = = = * = * * * * & iXiXiXiXiXiXiXiXiXiXiXiX",
"iXiXiXiXiXiXiXiXiXiXiXiXiXiXiXo & & $ iX0 i y q q i p ..p 9 * & & & & & 5 9 q p i i i i i q 9 5 $ & $ & & & iXiXiXiXiXiX",
"iXiXiXiXiXiXiXiXiXiXiXiXiXiXiX& 7 7 & $ 7 u y 9 q a p u u q q 0 5 5 7 5 r t u a a a a a p i u e 5 7 7 5 & & $ o iXiXiXiX",
"iXiXiXiXiXiXiXiXiXiXiXiXiX& * - 7 9 = & 7 7 7 7 0 i i y q r u q 9 8 8 9 r u u u t i i i i p p r 8 7 7 7 & & & & iXiXiXiX",
"iXiXiXiXiXiXiXiXiXiXiXiX& - 9 9 9 9 * & % % 5 9 9 0 q u p 9 * * & * * * * * * * 5 9 0 q 0 0 0 5 = & & & iXiXiXiXiXiXiXiX",
"iXiXiXiXiXiXiXiXiXiXiXiX@ 5 q 9 0 9 * $ & & - 0 0 u i 9 - = & * & % * # * # - 8 5 - - = = - - * X iXiXiXiXiXiXiXiXiXiXiX",
"iXiXiXiXiXiXiXiXiXiXiX= 5 5 9 9 7 7 7 7 - & ; 8 8 r r 8 8 - - = & * 6 5 5 8 9 r 9 * & & & $ o O iXiXiXiXiXiXiXiXiXiXiXiX",
"iXiXiXiX5 9 9 & & = 6 7 e 9 9 8 & = u p 9 * & & & * * t a u 9 8 & * 9 9 u p p p t = * ; & X X X X X iXiXiXiXiXiXiXiXiXiX",
"iX& & & & = = 7 9 u i r 0 7 * ; & * 9 q r p 0 & = u u s q q 9 8 & * 9 0 7 = 8 q r u u i i - # & & & $ & & * iXiXiXiXiXiX",
"iX@ & & & & * 5 5 r r u u 8 & & & * 8 9 r u r 9 9 t u 0 9 0 9 8 # * 5 5 8 9 q r i ..p u t 8 5 - 7 - & & @ o iXiXiXiXiXiX",
"iXiX& & % = = = 5 7 0 u p r = = & * 8 9 9 9 r ..i 9 9 9 9 9 9 5 @ * 6 5 r a a i i i i r q q q q 8 5 * & X X iXiXiXiXiXiX",
"iXiXiXiX7 7 0 u p p p y 9 y i y = & 8 9 9 0 r ....9 9 9 9 5 & ; % 6 y p r 0 0 9 0 0 0 i p p p q * * # & @ & iXiXiXiXiXiX",
"iXiXiX7 7 0 q y y y y y u p a y = & - - 8 9 r ....0 9 5 6 ; & 5 r r r r e 0 9 9 9 0 0 y r 9 9 - * & @ iXiXiXiXiXiXiXiXiX",
"iXiX9 7 7 7 7 7 7 7 7 0 y y i y ; * - 5 5 8 9 r r 8 8 6 % % & 5 u r 9 8 8 7 7 7 7 7 8 8 8 * $ & & iXiXiXiXiXiXiXiXiXiXiX",
"iXiXiXiXiXiXiX= % * % & $ 5 0 7 * * t ..9 * * * * * * & * * * * & * * * * & & & $ * & & & o iXiXiXiXiXiXiXiXiXiXiXiXiXiX",
"iXiXiXiXiXiXiXiXiX$ % $ $ $ = = * * 0 e r u 0 & % # * 5 8 0 u r 7 7 9 8 = % % $ $ $ & & & & & iXiXiXiXiXiXiXiXiXiXiXiXiX",
"iXiXiXiXiXiXiXiXiXiX: $ % * 5 6 * * 5 9 r i r 9 8 * * 8 9 y ....r r 7 5 * * % $ $ @ $ $ & & & iXiXiXiXiXiXiXiXiXiXiXiXiX",
"iXiXiXiXiXiXiXiXiXiXiXo % = 9 8 * * 8 9 9 9 e ..i 6 * 8 e y i i a i 6 # & % $ % $ iXiXiXiXiXiXiXiXiXiXiXiXiXiXiXiXiXiXiX",
"iXiXiXiXiXiXiXiXiXiX# # * * & 5 9 7 5 & 7 7 y p i 9 9 u p 9 * 5 0 9 = % $ % * & * @ iXiXiXiXiXiXiXiXiXiXiXiXiXiXiXiXiXiX",
"iXiXiXiXiXiXiXiXiXiXiX* @ o X $ = = % & 6 5 7 7 0 9 9 9 9 5 * * 5 = % % @ O o @ @ iXiXiXiXiXiXiXiXiXiXiXiXiXiXiXiXiXiXiX",
"iXiXiXiXiXiXiXiXiXiXiXiXiX+ + > , , < 1 * $ % % ; 8 5 ; % % % ; 1 , 1 1 > + . iXiXiXiXiXiXiXiXiXiXiXiXiXiXiXiXiXiXiXiXiX",
"iXiXiXiXiXiXiXiXiXiXiXiXiXb A C U S C A 4 : % % * & & & * * # < A C v m j m < iXiXiXiXiXiXiXiXiXiXiXiXiXiXiXiXiXiXiXiXiX",
"iXiXiXiXiXiXiXiXiXiXiXiX~ 2.a.a.a.5.1.<.Y n G w y e e y q G G B %.&.u.u.b.b.0.g 2 iXiXiXiXiXiXiXiXiXiXiXiXiXiXiXiXiXiXiX",
"iXiXiXiXiXiXiXiXiXiX2 n c :.s.B.v.c.v.Z.i.V ( @.@.#.#.@.@.( T W i.f.^.^.n.b.0.f G iXiXiXiXiXiXiXiXiXiXiXiXiXiXiXiXiXiXiX",
"iXiXiXiXiXiXiXiXiXG b n k =.s.V.{.(._. Xh.w @.>X<XyXuX<X,X$.s / [.}.e.s.>.&.V j G iXiXiXiXiXiXiXiXiXiXiXiXiXiXiXiXiXiXiX",
"iXiXiXiXiXiXiXiXiXK T p.P.E.Q.E.;.F ~..X .w #.yXtXwXwXtXyX-Xt W f.q.=.c H.E.p.T P iXiXiXiXiXiXiXiXiXiXiXiXiXiXiXiXiXiXiX",
"iXiXiXiXiXiXiXiX( L.Y.XX#XOXOXE.v l u.D./ t #.rXeXeXeXeXrX=Xt ! 6.1.c x XX2XXXG.O.iXiXiXiXiXiXiXiXiXiXiXiXiXiXiXiXiXiXiX",
"iXiXiXiXiXiXiXP ] $X7X*X*X@XE.h.V k 6.s.i.K +.-X>XrXrX>X-X@.L 2.6.6.c n $XqX2XXXU._ ' iXiXiXiXiXiXiXiXiXiXiXiXiXiXiXiXiX",
"iXiXiXiXiXiXiXK [ 3X0X&XT.J.! W U =.5.B.A.OXj.) X.o.o.X.X.O.g.3.c c x h $X0X6X4XoX_ ' iXiXiXiXiXiXiXiXiXiXiXiXiXiXiXiXiX",
"iXiXiXiXiXiXiXI | 5XqXoXp.J 2 b U Z 3.>.e.Z.A.j.j.j.h.p.2.2.=.C x j h k Y.&X*X9X1X[ J iXiXiXiXiXiXiXiXiXiXiXiXiXiXiXiXiX",
"iXiXiXiXiXiXiXI ] 3X9XY.I w   + n n v l C p.p.].'.'.].d.3.V g g < g j V K.R.#X8X$XR J iXiXiXiXiXiXiXiXiXiXiXiXiXiXiXiXiX",
"iXiXiXiXiXiXiX( [ $X7XU.Q 4 .   . . + . , 4 H H H H H b 4 2 4 , . + K W J.R.R.T.J._ ( iXiXiXiXiXiXiXiXiXiXiXiXiXiXiXiXiX",
"iXiXiXiXiXiXiX( ] Y.XXI.U.p.K b . . 1 d 0.'.u.i.i.4.i.3.>.d.].d.d b XX#X!.T.K.[ O.iXiXiXiXiXiXiXiXiXiXiXiXiXiXiXiXiXiXiX",
"iXiXiXiXiXiXiX( _ R.@X@X#XP._ K > > ~ %.c..X^.q.s.B.N.N.q.M..Xb.z S R.oX+X#XP.T I iXiXiXiXiXiXiXiXiXiXiXiXiXiXiXiXiXiXiX",
"iXiXiXiXiXiXiX( ] $X*X&X2XW.! ! j l 6.l.m.|.^.z.l.l.x.l.z.M..Xn.&.*.S W oX3XY.' ( iXiXiXiXiXiXiXiXiXiXiXiXiXiXiXiXiXiXiX",
"iXiXiXiXiXiXiXiXiX| { { { O.iXg f l 3.q.m.|.(./.(.(.}.{.(.).|.F.q.a.;.S ` { O.iXiXiXiXiXiXiXiXiXiXiXiXiXiXiXiXiXiXiXiXiX",
"iXiXiXiXiXiXiXiXiXiXiXiXiXiXiX3 f z f.F.M.v.v.y.y.w.r.r.r.c.v.n.m.Z.&.U E iXiXiXiXiXiXiXiXiXiXiXiXiXiXiXiXiXiXiXiXiXiXiX",
"iXiXiXiXiXiXiXiXiXiXiXiXiXiXiX> f z S.).n.z.q.-.=.l h z z <.z.m.).{.,.C iXiXiXiXiXiXiXiXiXiXiXiXiXiXiXiXiXiXiXiXiXiXiXiX",
"iXiXiXiXiXiXiXiXiXiXiXiXiXiXiX> f M A.).(. XF.s.6.c l 3.s.Z. X_.)./.&.A iXiXiXiXiXiXiXiXiXiXiXiXiXiXiXiXiXiXiXiXiXiXiXiX",
"iXiXiXiXiXiXiXiXiXiXiXiXiXiXg f M Z f.Z.v.v.V.N.6.c l <.l.Z.|._.`.~.0.A n iXiXiXiXiXiXiXiXiXiXiXiXiXiXiXiXiXiXiXiXiXiXiX",
"iXiXiXiXiXiXiXiXiXiXiXiXiXiXj x ;.>.6.5.<.1.1.C.s.c c 6.l.v.F.^.^.S.r.0.F m iXiXiXiXiXiXiXiXiXiXiXiXiXiXiXiXiXiXiXiXiXiX",
"iXiXiXiXiXiXiXiXiXiXiXiXiXiXg B a.s.-.N N %.>.s.a.&.=.1.N.B.l.s.q.z.}.}.0.F T iXiXiXiXiXiXiXiXiXiXiXiXiXiXiXiXiXiXiXiXiX",
"iXiXiXiXiXiXiXiXiXiXiXiXiXiXb k -.:.*.D N *.*.&.0.n.^.x.B.C.8.8.7.l.(. Xr.N D iXiXiXiXiXiXiXiXiXiXiXiXiXiXiXiXiXiXiXiXiX",
"iXiXiXiXiXiXiXiXiXiXiXiXiXiXg j c c B M B B B k N Z.F.v.v.Z.n.m.M.v.n.S.>.N A iXiXiXiXiXiXiXiXiXiXiXiXiXiXiXiXiXiXiXiXiX",
"iXiXiXiXiXiXiXiXiXiXiXiXiXiXiXiXG h h v B U U U N a.s.S.}.[.~./.).(.x.s.:.*.S iXiXiXiXiXiXiXiXiXiXiXiXiXiXiXiXiXiXiXiXiX",
"iXiXiXiXiXiXiXiXiXiXiXiXiXiXiXiXiXiXJ E P.4X%X%X+X0.;.D ^ ` ^ t.}.(.z.s.>.C R iXiXiXiXiXiXiXiXiXiXiXiXiXiXiXiXiXiXiXiXiX",
"iXiXiXiXiXiXiXiXiXiXiXiXiXiXiXiXiXiXiXiXL.L.U.L.L.W E L.oXE.H.h.h.d.>.2.D iXiXiXiXiXiXiXiXiXiXiXiXiXiXiXiXiXiXiXiXiXiXiX",
"iXiXiXiXiXiXiXiXiXiXiXiXiXiXiXiXiXiXiXiXiXiXP P P ' ! +X*XOXT.J.R E T E iXiXiXiXiXiXiXiXiXiXiXiXiXiXiXiXiXiXiXiXiXiXiXiX",
"iXiXiXiXiXiXiXiXiXiXiXiXiXiXiXiXiXiXiXiXiXiXiXiXiX( ' P.T.Q.T.L._ Q iXiXiXiXiXiXiXiXiXiXiXiXiXiXiXiXiXiXiXiXiXiXiXiXiXiX",
"iXiXiXiXiXiXiXiXiXiXiXiXiXiXiXiXiXiXiXiXiXiXiXiXiX( ' $X8X*X&XoX' P iXiXiXiXiXiXiXiXiXiXiXiXiXiXiXiXiXiXiXiXiXiXiXiXiXiX",
"iXiXiXiXiXiXiXiXiXiXiXiXiXiXiXiXiXiXiXiXiXiXiXiXiXP E &X8X6X6XoX' Q iXiXiXiXiXiXiXiXiXiXiXiXiXiXiXiXiXiXiXiXiXiXiXiXiXiX",
"iXiXiXiXiXiXiXiXiXiXiXiXiXiXiXiXiXiXiXiXiXiXiXiXiXo.' oX2X5X9X;X' P iXiXiXiXiXiXiXiXiXiXiXiXiXiXiXiXiXiXiXiXiXiXiXiXiXiX",
"iXiXiXiXiXiXiXiXiXiXiXiXiXiXiXiXiXiXiXiXiXiXiXiXiXiXiXO.} } O.O.iXiXiXiXiXiXiXiXiXiXiXiXiXiXiXiXiXiXiXiXiXiXiXiXiXiXiXiX",
"iXiXiXiXiXiXiXiXiXiXiXiXiXiXiXiXiXiXiXiXiXiXiXiXiXiXiXiX( P ( iXiXiXiXiXiXiXiXiXiXiXiXiXiXiXiXiXiXiXiXiXiXiXiXiXiXiXiXiX"
};
