/* XPM */
static char *result[] = {
/* columns rows colors chars-per-pixel */
"60 60 228 2 ",
"   c #0C0202",
".  c #0B0C0E",
"X  c #060709",
"o  c #160706",
"O  c #1B110D",
"+  c #0C0D12",
"@  c #140F18",
"#  c #0E1215",
"$  c #0E131A",
"%  c #111216",
"&  c #13151A",
"*  c #19151B",
"=  c #17191C",
"-  c #191A1E",
";  c #1D1412",
":  c #210E0A",
">  c #2B120B",
",  c #37130D",
"<  c #221418",
"1  c #3A191B",
"2  c #310A07",
"3  c #3B2315",
"4  c #3E2B0D",
"5  c #1C1D22",
"6  c #1F1E2A",
"7  c #211F24",
"8  c #1E2125",
"9  c #1E2729",
"0  c #212226",
"q  c #24262A",
"w  c #26282C",
"e  c #292A2E",
"r  c #242929",
"t  c #392A24",
"y  c #2C2D32",
"u  c #292533",
"i  c #2E3135",
"p  c #313236",
"a  c #35363B",
"s  c #37383D",
"d  c #393A3E",
"f  c #393539",
"g  c #2E3126",
"h  c #42120A",
"j  c #5B150C",
"k  c #5C1A0B",
"l  c #581708",
"z  c #4D1A12",
"x  c #4D1D1D",
"c  c #571B16",
"v  c #641A0D",
"b  c #681709",
"n  c #631A13",
"m  c #7A1F12",
"M  c #6E1607",
"N  c #492519",
"B  c #592517",
"V  c #48321C",
"C  c #5A210F",
"Z  c #69210F",
"A  c #79280C",
"S  c #75310C",
"D  c #682412",
"F  c #6B2D1B",
"G  c #682818",
"H  c #732313",
"J  c #7B2B13",
"K  c #752B18",
"L  c #6B341C",
"P  c #783516",
"I  c #64300F",
"U  c #4C3025",
"Y  c #593729",
"T  c #463A39",
"R  c #5C3C34",
"E  c #5D3D3A",
"W  c #573D36",
"Q  c #4D2E26",
"!  c #762D23",
"~  c #633C2D",
"^  c #6A3D2C",
"/  c #6A3726",
"(  c #723A29",
")  c #633C33",
"_  c #683D35",
"`  c #76322C",
"'  c #5D4033",
"]  c #5C413A",
"[  c #57403B",
"{  c #464439",
"}  c #68432B",
"|  c #72422A",
" . c #624133",
".. c #654139",
"X. c #784535",
"o. c #754518",
"O. c #393A40",
"+. c #474848",
"@. c #504D52",
"#. c #614F41",
"$. c #525660",
"%. c #5C6467",
"&. c #646E6B",
"*. c #86290C",
"=. c #842D13",
"-. c #8A2917",
";. c #883718",
":. c #9A361D",
">. c #9B381B",
",. c #963418",
"<. c #912F10",
"1. c #A4391B",
"2. c #893924",
"3. c #9D3D24",
"4. c #973B29",
"5. c #9D3F33",
"6. c #A33A23",
"7. c #AA3C23",
"8. c #A63827",
"9. c #A03E31",
"0. c #9C490F",
"q. c #984815",
"w. c #8E4915",
"e. c #B84B14",
"r. c #A85216",
"t. c #BC5816",
"y. c #AA4B11",
"u. c #BD6813",
"i. c #894328",
"p. c #974528",
"a. c #8F4E35",
"s. c #A94529",
"d. c #BC452C",
"f. c #B94725",
"g. c #BB582B",
"h. c #AC4632",
"j. c #BA4831",
"k. c #976535",
"l. c #B86A2A",
"z. c #A37B28",
"x. c #B17030",
"c. c #C54C1F",
"v. c #C65419",
"b. c #D35E1A",
"n. c #C8550C",
"m. c #CC6419",
"M. c #D5671A",
"N. c #CE791B",
"B. c #E67C1F",
"V. c #C5422A",
"C. c #C44824",
"Z. c #CD5824",
"A. c #C9612A",
"S. c #D36923",
"D. c #D2782B",
"F. c #E57C28",
"G. c #8B5D47",
"H. c #955A45",
"J. c #9C6547",
"K. c #9C6D53",
"L. c #A56849",
"P. c #AB7857",
"I. c #BC7C5B",
"U. c #B67955",
"Y. c #B07050",
"T. c #AB7F66",
"R. c #927562",
"E. c #C37855",
"W. c #B9852A",
"Q. c #BB8431",
"!. c #ED8C1D",
"~. c #F38E1C",
"^. c #F5991A",
"/. c #F6991B",
"(. c #F09713",
"). c #F5A31D",
"_. c #D08434",
"`. c #E98828",
"'. c #F59725",
"]. c #EB9436",
"[. c #F5A330",
"{. c #B78359",
"}. c #A9805F",
"|. c #A9876B",
" X c #BE8964",
".X c #B58665",
"XX c #B48E75",
"oX c #C48159",
"OX c #D38458",
"+X c #CD8A64",
"@X c #C88B68",
"#X c #D18C6A",
"$X c #C89067",
"%X c #D49668",
"&X c #C59578",
"*X c #D99C75",
"=X c #D28C72",
"-X c #E7986B",
";X c #CAA27E",
":X c #DEA375",
">X c #DDA069",
",X c #E1A66E",
"<X c #E6A877",
"1X c #F2B27B",
"2X c #898A91",
"3X c #8D92A3",
"4X c #9EA3B4",
"5X c #A3A9BC",
"6X c #CC9F82",
"7X c #CCA288",
"8X c #D7AE8A",
"9X c #EDB582",
"0X c #EEB78A",
"qX c #EBAD88",
"wX c #F9C99C",
"eX c #FDCFA5",
"rX c #FDD0A9",
"tX c #B7BECB",
"yX c #C3BFCA",
"uX c #BBC5CF",
"iX c #BEC2D3",
"pX c #C4C9CE",
"aX c #C6CCD7",
"sX c #CED2DE",
"dX c #D5D8E4",
"fX c #E2E3EE",
"gX c #E5EEF2",
"hX c None",
/* pixels */
"hXhXhXhXhXhXhXhXhXhXhXhXhXhXhXhXhXhXhXhXhXhXhXhXhXhXhXhXhXhXhXhXhXhXhXhXhXhXhXhXhXhXhXhXhXhXhXhXhXhXhXhXhXhXhXhXhXhXhXhX",
"hXhXhXhXhXhXhXhXhXhXhXhXhXhXhXhXhXhXhXhXhXhXhXhXhXhXhXhXhXhXhXhXhXhXhXhXhXhXhXhXhXhXhXhXhXhXhXhXhXhXhXhXhXhXhXhXhXhXhXhX",
"hXhXhXhXhXhXhXhXhXhXhXhXhXhXhXhXhXhXhXhXhXhXhXhXhXhXhXhXhXhX% & % & & % % % % % % % % hXhXhXhXhXhXhXhXhXhXhXhXhXhXhXhXhX",
"hXhXhXhXhXhXhXhXhXhXhXhXhXhXhXhXhXhXhXhXhXhXhXhXhXhX% @ % - p p e i y y i i i * % + hXhXhXhXhXhXhXhXhXhXhXhXhXhXhXhXhXhX",
"hXhXhXhXhXhXhXhXhXhXhXhXhXhXhXhXhXhXhXhXhXhXhX. . % % 7 0 e d d d d d d f i e & hXhXhXhXhXhXhXhXhXhXhXhXhXhXhXhXhXhXhXhX",
"hXhXhXhXhXhXhXhXhXhXhXhXhXhXhX% % + hXhXhXhXhX% % % - e d s d d d d d a y & % hXhXhXhXhXhXhXhXhXhXhXhXhXhXhXhXhXhXhXhXhX",
"hXhXhXhXhXhXhXhXhXhXhXhXhXhXhXhXhX. % + hXhXhX+ - i a e w p d d d d w = = % % + % % # # % % % % % hXhXhXhXhXhXhXhXhXhXhX",
"hXhXhXhXhXhXhXhXhXhXhXhXhXhXhXhXhXhX% + & . 7 q e p y i i a d f w 0 - % % % & 5 8 8 5 0 w w e e w e e 0 hXhXhXhXhXhXhXhX",
"hXhXhXhXhXhXhXhXhXhXhXhXhXhXhXhXhX+ & & & + 5 s f e 0 a d d s p 5 - - & & & - 0 9 r y i O.d d d d d s e w < 0 = hXhXhXhX",
"hXhXhXhXhXhXhXhXhXhXhXhXhXhXhX+ & & q w - & - w w w w f O.p w e s O.y w w w q q r i s s s d d d d d d s d f d r % hXhXhX",
"hXhXhXhXhXhXhXhXhXhXhXhXhXhXhX* 7 0 q w - % & = - q w e u p p p y y 5 = - - = = = 8 5 8 u y y y e e w 7 q hXhXhXhXhXhXhX",
"hXhXhXhXhXhXhXhXhXhXhXhXhXhX& - w w q q = & + & & 0 w u y p p p 5 5 = & @ # % & $ $ - - 8 8 5 5 0 q hXhXhXhXhXhXhXhXhXhX",
"hXhXhXhXhX% hXhXhXhXhXhXhXhX& 5 u w w 0 - & & @ & 0 q y s i w 7 - = & # & & & & & 8 w 8 & # % % hXhXhXhXhXhXhXhXhXhXhXhX",
"hXhXhXhXhX& 5 w 5 % % hX& 5 q q e 0 - & 5 w 5 & & = & = = = & = p s 0 @ = w 0 q r 9 w 8 & % % % hXhXhXhXhXhXhXhXhXhXhXhX",
"hXhXhXhXhX% = - 5 5 0 w e w q 0 5 5 & @ 0 w q 5 5 & % + # - e u y p 9 + = w q 5 5 8 w 9 0 5 & + % . hXhXhXhXhXhXhXhXhXhX",
"hXhXhXhXhXhX% % - 0 w p a p e 0 @ + & # 5 w w u 0 & % = 5 w s a u q 5 @ = 5 9 = = 9 e w e u 0 5 5 5 5 5 5 hXhXhXhXhXhXhX",
"hXhXhXhXhXhX% & $ $ = r r p d w & % % % 7 w q w q & % e d a w r w w 5 @ & & = 0 w p d s s f s d s d s d a 5 % hXhXhXhXhX",
"hXhXhXhX& + 5 0 w i i a a i e y i u = % 0 w q q q p p y e e w w = = & + 5 5 0 p s y e u e e e y u y e 5 5 & % # & hXhXhX",
"hXhXhX% - - 0 q i i i i p i i i d p - % - 0 7 r w f d i w w 5 7 & # = - 5 i i i p y r w q q q r 0 5 5 + hXhXhXhXhXhXhXhX",
"hXhXhX% q w w r q r r 9 9 i a a s p - # & = 5 0 q p f e 0 5 & % & % 5 q u a a w q 0 w 0 q q q r - % hXhXhXhXhXhXhXhXhXhX",
"hXhXhXhXhXhXhXhXhXhX& & & & & 5 e r & % e d w & & = = & & & % # & $ @ & & = = & & $ $ & & & & & hXhXhXhXhXhXhXhXhXhXhXhX",
"hXhXhXhXhXhXhXhXhXhXhX& % # $ & - - & + w y i e w & + @ @ & 5 0 y w u y w 8 5 & & # # # # # # hXhXhXhXhXhXhXhXhXhXhXhXhX",
"hXhXhXhXhXhXhXhXhXhXhXhX% # # $ & - % & 7 w u a p 7 5 = @ 5 u y a a p i y 0 8 & # # # $ # % hXhXhXhXhXhXhXhXhXhXhXhXhXhX",
"hXhXhXhXhXhXhXhXhXhXhXhXhX+ $ 5 w 0 = $ 8 w r w u s O.0 % 7 O.s u u 5 $ & & & & $ & # + hXhXhXhXhXhXhXhXhXhXhXhXhXhXhXhX",
"hXhXhXhXhXhXhXhXhXhXhXhX. % # & & = 0 9 - - - r w f O.y 9 9 y w - & # # # # # $ & # # # + hXhXhXhXhXhXhXhXhXhXhXhXhXhXhX",
"hXhXhXhXhXhXhXhXhXhXhXhXhX% + + . + 5 8 & % & 5 5 r r 9 9 w 5 - O % % $ $ # # + . . . # + hXhXhXhXhXhXhXhXhXhXhXhXhXhXhX",
"hXhXhXhXhXhXhXhXhXhXhXhXhXhXhXhXo O > ; ; < - % & @ & 5 q 6 & % @ @ * < - < O o o   hXhXhXhXhXhXhXhXhXhXhXhXhXhXhXhXhXhX",
"hXhXhXhXhXhXhXhXhXhXhXhXhXhXhXhXF J J K F L N : O & @ & & $ # % + O C I D k l l z , hXhXhXhXhXhXhXhXhXhXhXhXhXhXhXhXhXhX",
"hXhXhXhXhXhXhXhXhXhXhXhXhXhXG 2.4.6.1.7.1.1.2.C x t u 6 9 w w t 3 N I I 2.l.g.q.;.K z 1 hXhXhXhXhXhXhXhXhXhXhXhXhXhXhXhX",
"hXhXhXhXhXhXhXhXhXhXhXhXhX/ K ,.j.C.b.b.b.m.p.L R @.$.%.&.%.$.@.W / w.0.t.`.F.v.C.2.j x hXhXhXhXhXhXhXhXhXhXhXhXhXhXhXhX",
"hXhXhXhXhXhXhXhXhXhXhXhXhXL =.3.g.v.`.~.(.[.x.V +.3X4XaXgXsX5X3X+.t x.].F.e.d.g.V.-.v N hXhXhXhXhXhXhXhXhXhXhXhXhXhXhXhX",
"hXhXhXhXhXhXhXhXhXhXhXhXR G.k.E.-XOXw.<._.[.x.t +.yXfXtXtXyXfXaX$.t p.A.v.<.6.E.-XE.L.G.R [ hXhXhXhXhXhXhXhXhXhXhXhXhXhX",
"hXhXhXhXhXhXhXhXhXhXhX]  .P.%X-X1X*XK l y.`.k.t +.tXsXuXuXpXsXtX@.f ` 3.,.M J %X1X*X%XP. .) hXhXhXhXhXhXhXhXhXhXhXhXhXhX",
"hXhXhXhXhXhXhXhXhXhXhXR ..{.<X,X<X=XK b :.j.a.Y ] 2X3XuXfXpX3X2X+.f Y K H j F =X<X,X<X X| ) hXhXhXhXhXhXhXhXhXhXhXhXhXhX",
"hXhXhXhXhXhXhXhXhXhXhXE  .J.oXoXE.U.;.A 6.V.A.]._.} { { +.+.{ W / ` D k v n n Y.oXE.oXL.} R hXhXhXhXhXhXhXhXhXhXhXhXhXhX",
"hXhXhXhXhXhXhXhXhXhXhXE _ P.>X$XE.Y.;.A ,.,.y.S.N.u.z.z.z.k.i.4.9.7.=.A n v D L.E.#X*X{.} E hXhXhXhXhXhXhXhXhXhXhXhXhXhX",
"hXhXhXhXhXhXhXhXhXhXhXE .. X9X%XL.k.G C B C F 2.i.x.W.W.W.x.p.2.4.4.K C C , z H.L.$X0X$X| R hXhXhXhXhXhXhXhXhXhXhXhXhXhX",
"hXhXhXhXhXhXhXhXhXhXhXR ^ @X1X{./ U     o o : 4 4 V U U V N 3 1 3 3 > o   X o Q } {.9XoX| ) hXhXhXhXhXhXhXhXhXhXhXhXhXhX",
"hXhXhXhXhXhXhXhXhXhXhXR ^ .X0X.X/ Q X   1 h S W.W.p.p.h.p.5.5.p.x.W.o., ,     t ' .X0X$X| R hXhXhXhXhXhXhXhXhXhXhXhXhXhX",
"hXhXhXhXhXhXhXhXhXhXhX] ~ P.*XP.~ Y > 2 ! -.t.'.^.v.C.V.V.V.V.v.(.).r.Z D 2 > Y ~ K.;XP./ E hXhXhXhXhXhXhXhXhXhXhXhXhXhX",
"hXhXhXhXhXhXhXhXhXhXhX] _ k.U.L.X.X.B l ,.f.M.'.~.m.v.C.c.c.v.n.~.'.t.*.=.j c _ X.L.I.L./ R hXhXhXhXhXhXhXhXhXhXhXhXhXhX",
"hXhXhXhXhXhXhXhXhXhXhX] ^ L.U.@XqX=X! M :.c.b.[./.~.'.'.'.'./.(./.'.S.f.3.b D @X:XOXU.L.} } hXhXhXhXhXhXhXhXhXhXhXhXhXhX",
"hXhXhXhXhXhXhXhXhXhXhXW  .U.:XE.a.a.K H 8.V.v.S.m.0.0.w.q.0.q.y.(.).M.f.8.j G I.$X%X*X.X} ' hXhXhXhXhXhXhXhXhXhXhXhXhXhX",
"hXhXhXhXhXhXhXhXhXhXhXhXhXT.&XJ.j j J =.:.7.7.7.6.-.m v j n v A A.N.v.V.:.b n H.K.{.&XT. .hXhXhXhXhXhXhXhXhXhXhXhXhXhXhX",
"hXhXhXhXhXhXhXhXhXhXhXhXhXhX} Y c v J J -.,.<.<.<.7.j.=.v n J =.=.*.1.V.8.b c /  .~ ..hXhXhXhXhXhXhXhXhXhXhXhXhXhXhXhXhX",
"hXhXhXhXhXhXhXhXhXhXhXhXhXhXhXx c n J *.3.7.7.7.7.:.;.H j n J =.J =.1.g.8.b c hXhXhXhXhXhXhXhXhXhXhXhXhXhXhXhXhXhXhXhXhX",
"hXhXhXhXhXhXhXhXhXhXhXhXhXhXhXhXc v 3.:.3.4.9.h.5.P K M j m 4.4.:.1.1.s.,.n x hXhXhXhXhXhXhXhXhXhXhXhXhXhXhXhXhXhXhXhXhX",
"hXhXhXhXhXhXhXhXhXhXhXhXhXhXhXhXx M 9.h.a.( #.( ( ( K H b -.7.V.7.e.,.A A J L hXhXhXhXhXhXhXhXhXhXhXhXhXhXhXhXhXhXhXhXhX",
"hXhXhXhXhXhXhXhXhXhXhXhXhXhXhXhXx n ( ( J.P.Y.Y.L...^ B k H -.-.<.-.-.*.0.`._.S z hXhXhXhXhXhXhXhXhXhXhXhXhXhXhXhXhXhXhX",
"hXhXhXhXhXhXhXhXhXhXhXhXhXhXhXhXhXx R  .J.I.E.E.P.X.^ B l H 6.1.7.1.7.1.v./.].S j hXhXhXhXhXhXhXhXhXhXhXhXhXhXhXhXhXhXhX",
"hXhXhXhXhXhXhXhXhXhXhXhXhXhXhXhXhXhX' ^ K.#XOX+XI.( F P ;.y.d.C.b.M.b.b.M.`._.S j hXhXhXhXhXhXhXhXhXhXhXhXhXhXhXhXhXhXhX",
"hXhXhXhXhXhXhXhXhXhXhXhXhXhXhXhXhXhX . ..X<X1X9X*XI b g.].B.n.v.`./././.B.e.s.Z x hXhXhXhXhXhXhXhXhXhXhXhXhXhXhXhXhXhXhX",
"hXhXhXhXhXhXhXhXhXhXhXhXhXhXhXhXhXhX] ~ 6XrXwXrX0X/ l 3.A.M.`.(.).(./.).N.A G hXhXhXhXhXhXhXhXhXhXhXhXhXhXhXhXhXhXhXhXhX",
"hXhXhXhXhXhXhXhXhXhXhXhXhXhXhXhXhXhXhXhXR.XXXXXXT.~ G 2.3.y.u.u.m.u.m.u.0.hXhXhXhXhXhXhXhXhXhXhXhXhXhXhXhXhXhXhXhXhXhXhX",
"hXhXhXhXhXhXhXhXhXhXhXhXhXhXhXhXhXhXhXhXE R ~ Y R _ _ / K =.i.;.w.;.;.K ! hXhXhXhXhXhXhXhXhXhXhXhXhXhXhXhXhXhXhXhXhXhXhX",
"hXhXhXhXhXhXhXhXhXhXhXhXhXhXhXhXhXhXhXhXhXhXhXhXhXhXhX) ~ H.;X:X,X,XH./ ) E #.hXhXhXhXhXhXhXhXhXhXhXhXhXhXhXhXhXhXhXhXhX",
"hXhXhXhXhXhXhXhXhXhXhXhXhXhXhXhXhXhXhXhXhXhXhXhXhXhXhX[ R K.wXeXwXwX8X;X|. .) hXhXhXhXhXhXhXhXhXhXhXhXhXhXhXhXhXhXhXhXhX",
"hXhXhXhXhXhXhXhXhXhXhXhXhXhXhXhXhXhXhXhXhXhXhXhXhXhXhX[ E G.7X7X;X;X7X8X|.' ] hXhXhXhXhXhXhXhXhXhXhXhXhXhXhXhXhXhXhXhXhX",
"hXhXhXhXhXhXhXhXhXhXhXhXhXhXhXhXhXhXhXhXhXhXhXhXhXhXhXhX . . ... . . ...E hXhXhXhXhXhXhXhXhXhXhXhXhXhXhXhXhXhXhXhXhXhXhX",
"hXhXhXhXhXhXhXhXhXhXhXhXhXhXhXhXhXhXhXhXhXhXhXhXhXhXhXhXhXhXhXhXhXhXhXhXhXhXhXhXhXhXhXhXhXhXhXhXhXhXhXhXhXhXhXhXhXhXhXhX"
};
