/* XPM */
static char *result[] = {
/* columns rows colors chars-per-pixel */
"60 60 224 2 ",
"   c #0A0201",
".  c #0A0C0D",
"X  c #040304",
"o  c #150807",
"O  c #10140F",
"+  c #0D0E12",
"@  c #160F18",
"#  c #0E1215",
"$  c #0E131A",
"%  c #111216",
"&  c #1B1213",
"*  c #131419",
"=  c #1A141C",
"-  c #16181C",
";  c #191A1E",
":  c #111913",
">  c #0C100F",
",  c #2A130E",
"<  c #38120D",
"1  c #361B15",
"2  c #2C1410",
"3  c #39261A",
"4  c #302A1B",
"5  c #1C1D22",
"6  c #161921",
"7  c #201C25",
"8  c #241D2C",
"9  c #1E2125",
"0  c #1E2129",
"q  c #212226",
"w  c #24262A",
"e  c #26292C",
"r  c #292A2E",
"t  c #272727",
"y  c #2C2D32",
"u  c #3B2D35",
"i  c #2E3034",
"p  c #313236",
"a  c #34353A",
"s  c #36393D",
"d  c #393A3E",
"f  c #38373C",
"g  c #332F2B",
"h  c #46170C",
"j  c #5A150B",
"k  c #5A170B",
"l  c #481A15",
"z  c #551A13",
"x  c #591713",
"c  c #68180A",
"v  c #691C14",
"b  c #731E12",
"n  c #6D1708",
"m  c #442418",
"M  c #5A261A",
"N  c #4C311A",
"B  c #6C220B",
"V  c #7B2C0D",
"C  c #76240C",
"Z  c #6E2213",
"A  c #672818",
"S  c #7C2B13",
"D  c #7C2D1B",
"F  c #772918",
"G  c #6B331C",
"H  c #73331D",
"J  c #7D3418",
"K  c #472F21",
"L  c #4B3826",
"P  c #5A3629",
"I  c #543A31",
"U  c #5D3C33",
"Y  c #5A3E39",
"T  c #4D3731",
"R  c #612D25",
"E  c #643B2D",
"W  c #6A3C2C",
"Q  c #673626",
"!  c #753525",
"~  c #633D34",
"^  c #673D37",
"/  c #763D39",
"(  c #714219",
")  c #584139",
"_  c #6C432D",
"`  c #74452C",
"'  c #7A4529",
"]  c #634233",
"[  c #6C4432",
"{  c #67463A",
"}  c #754937",
"|  c #71513E",
" . c #3A3C40",
".. c #363940",
"X. c #433B41",
"o. c #3F414A",
"O. c #3B4754",
"+. c #434348",
"@. c #464D57",
"#. c #545052",
"$. c #735142",
"%. c #5F6365",
"&. c #6F6E71",
"*. c #852B0B",
"=. c #88310B",
"-. c #963A0D",
";. c #842B14",
":. c #832A19",
">. c #892A16",
",. c #89351C",
"<. c #963918",
"1. c #9A2E1C",
"2. c #A53A1B",
"3. c #AA3C17",
"4. c #893924",
"5. c #9A3A25",
"6. c #863F35",
"7. c #AB3D24",
"8. c #A73A25",
"9. c #BC3A24",
"0. c #94440C",
"q. c #92481A",
"w. c #B84917",
"e. c #A95818",
"r. c #B95617",
"t. c #A74615",
"y. c #B66216",
"u. c #B5650E",
"i. c #87563B",
"p. c #90512F",
"a. c #AC432E",
"s. c #AA4823",
"d. c #B84628",
"f. c #A65929",
"g. c #BA5125",
"h. c #AA4931",
"j. c #B64732",
"k. c #B75536",
"l. c #9A6C24",
"z. c #926038",
"x. c #B36F2D",
"c. c #C64A1B",
"v. c #C75518",
"b. c #CC5310",
"n. c #C96718",
"m. c #D5691D",
"M. c #D67618",
"N. c #E57C1A",
"B. c #C34624",
"V. c #C45232",
"C. c #D07129",
"Z. c #895944",
"A. c #915A42",
"S. c #B15B44",
"D. c #9A6747",
"F. c #9D6D53",
"G. c #9E735B",
"H. c #8E684E",
"J. c #B36F4C",
"K. c #A77555",
"L. c #BB7C54",
"P. c #B57955",
"I. c #AA6E4B",
"U. c #9B7F6B",
"Y. c #AA7E65",
"T. c #C87D59",
"R. c #C07F61",
"E. c #DD8215",
"W. c #E9891A",
"Q. c #F79918",
"!. c #F59112",
"~. c #F7A11B",
"^. c #CB8B32",
"/. c #D19237",
"(. c #D2842E",
"). c #EA882B",
"_. c #F48E25",
"`. c #F49222",
"'. c #F79926",
"]. c #E98932",
"[. c #EC932C",
"{. c #FAA228",
"}. c #BD825B",
"|. c #BC8866",
" X c #C7845B",
".X c #C78B68",
"XX c #CC966B",
"oX c #D69A69",
"OX c #C48B71",
"+X c #CF9B77",
"@X c #D69B73",
"#X c #E89F75",
"$X c #E4A778",
"%X c #EBB07F",
"&X c #7A7C8A",
"*X c #7F8C95",
"=X c #888F99",
"-X c #9DA3AD",
";X c #AFB3BD",
":X c #A5A9B5",
">X c #909EAE",
",X c #DAA887",
"<X c #D9B393",
"1X c #D4B28D",
"2X c #E7A583",
"3X c #E8B78C",
"4X c #E6B595",
"5X c #F3AE85",
"6X c #E4BFA6",
"7X c #F7C698",
"8X c #F8C58F",
"9X c #EDC3A3",
"0X c #FBCBA4",
"qX c #FFD6AC",
"wX c #FFD5B4",
"eX c #B5B7C4",
"rX c #BEC5D1",
"tX c #B2C0C5",
"yX c #C6CCD9",
"uX c #C9D1DD",
"iX c #D0D5D8",
"pX c #E7ECF4",
"aX c #D5DAE5",
"sX c None",
/* pixels */
"sXsXsXsXsXsXsXsXsXsXsXsXsXsXsXsXsXsXsXsXsXsXsXsXsXsXsXsXsXsXsXsXsXsXsXsXsXsXsXsXsXsXsXsXsXsXsXsXsXsXsXsXsXsXsXsXsXsXsXsX",
"sXsXsXsXsXsXsXsXsXsXsXsXsXsXsXsXsXsXsXsXsXsXsXsXsXsXsXsXsXsXsXsXsXsXsXsXsXsXsX# % % sXsXsXsXsXsXsXsXsXsXsXsXsXsXsXsXsXsX",
"sXsXsXsXsXsXsXsXsXsXsXsXsXsXsXsXsXsXsXsXsXsXsXsXsXsXsXsXsXsXsXsXsXsXsXsXsXsXw y 7 % # sXsXsXsXsXsXsXsXsXsXsXsXsXsXsXsXsX",
"sXsXsXsXsXsXsXsXsXsXsXsXsXsXsXsXsXsXsXsXsXsXsXsXsXsXsXsXsXsX- ; ; ; ; 5 ; 5 p s w % % sXsXsXsXsXsXsXsXsXsXsXsXsXsXsXsXsX",
"sXsXsXsXsXsXsXsXsXsXsXsXsXsXsX* sXsXsXsXsXsXsXsXsXsX% % ; w r a f a a a a a y e ; % % sXsXsXsXsXsXsXsXsXsXsXsXsXsXsXsXsX",
"sXsXsXsXsXsXsXsXsXsXsXsXsXsX> % sXsXsXsXsXsXsXsXsX% t r y p p s  . . .f i y 5 5 * sXsXsXsXsXsXsXsXsXsXsXsXsXsXsXsXsXsXsX",
"sXsXsXsXsXsXsXsXsXsXsXsXsXsXsX% . sXsXsXsXsXsXsX; ; p f s s s a p p p y q q * % . sXsXsXsXsXsXsXsXsXsXsXsXsXsXsXsXsXsXsX",
"sXsXsXsXsXsXsXsXsXsXsXsXsXsXsXsX. % + sXsXsXsX7 a f y t p s f r e 5 - * % - % % % % % * % % % % % % sXsXsXsXsXsXsXsXsXsX",
"sXsXsXsXsXsXsXsXsXsXsXsXsXsXsXsX. % % sXsXw y y g y p p a d a 7 ; % % % % % 5 9 t y r r r r y r y t # + + sXsXsXsXsXsXsX",
"sXsXsXsXsXsXsXsXsXsXsXsXsXsXsX. . * ; * % w f p t t a  .f a p ; * 6 5 - - 5 e y p d d s d d d d X.f 7 6 = - * sXsXsXsXsX",
"sXsXsXsXsXsXsXsXsXsXsXsXsXsX$ * ; t w * # 5 r t e e a s p r t w q a f a q w a f s s f s d d d s s f f f y e 7 % % sXsXsX",
"sXsXsXsXsXsXsXsXsXsXsXsXsX@ 6 5 q w w * + 5 w w e w q 9 q e e a a e 5 5 5 6 7 9 9 q t y y i y y i r t 7 5 - ; * % + % sX",
"sXsXsXsXsXsXsXsXsXsXsXsXsX% 5 r r w q * % ; q q e w = # - q e a  .e - * # * # # * : - 9 q q 9 q q 7 % # sXsX% % % % sXsX",
"sXsXsXsXsX% % sXsXsXsXsXsX% 5 e t w w - % * % ; w e ; % % # 6 a  .y w 7 % * # : 9 w 9 - % * % * % % sXsXsXsXsXsXsXsXsXsX",
"sXsXsX# * 9 9 - # # sXsXq 5 w r q ; ; 5 q ; % * = ; r y q # * 7 5 6 ; ; % * 9 9 9 e 9 $ + % # + + sXsXsXsXsXsXsXsXsXsXsX",
"sXsXsX% * q 0 5 - ; 5 9 w e w 5 5 % % r y 5 % * * 5 p  .y - - * % % % * - - 0 9 e e 0 ; - * # + sXsXsXsXsXsXsXsXsXsXsXsX",
"sXsXsX* $ # $ 9 w i f a e w 5 % * + - p s w % - w w p  .p w 8 * % * * 5 w w * * 9 e w w w - % * % * sXsXsXsXsXsXsXsXsXsX",
"sXsXsXsX# * # $ : 9 r i a i 5 # % % - r y i i p p p i y y e w * % 5 q 5 - 6 y y i i a a a i i t 9 5 % sXsXsXsXsXsXsXsXsX",
"sXsXsXsX# - - 5 0 w r y a a w 9 5 # % t w y a a s d i w w w w * % 5 w 8 5 8 a  .d d s s  . .f a y e 9 9 - # # sXsXsXsXsX",
"sX% # # - w w p f a  .a e w a  .y % % t e w t r s d r t w w w * % % $ 5 ..f f f s s s s f ..f f f f s s 9 # * % sXsXsXsX",
"sXsX; q q w t y y y y y f a f f y * % - - 7 t r s s y e 7 ; - % % w i i i y y y y y y y y q 5 5 9 9 5 9 - sXsXsXsXsXsXsX",
"sXsXsXsXsXsXw w 9 9 5 9 y y i a e % * ; q q q q y y q 7 5 % % % * w i r 8 q 5 5 8 q 5 9 5 - $ % # # + sXsXsXsXsXsXsXsXsX",
"sXsXsXsXsXsXsXsXsX* % % * # 5 e 7 % * p f t % % * % % * * * % - % % % % $ % % * # * % * % % % % % % sXsXsXsXsXsXsXsXsXsX",
"sXsXsXsXsXsXsXsXsXsX% # # $ * * - % * r r p p r % % % % 6 q q i a e 5 q e 9 * $ $ % $ % % + sXsXsXsXsXsXsXsXsXsXsXsXsXsX",
"sXsXsXsXsXsXsXsXsXsX% % % # - 6 - % : 0 q p  .p 5 * : # 9 p y p a e e 0 0 0 * $ # # # # sXsXsXsXsXsXsXsXsXsXsXsXsXsXsXsX",
"sXsXsXsXsXsXsXsXsXsXsXX # % 5 w 0 * : 9 w i ....r w - : q d a e w w e 9 $ * $ $ * # + sXsXsXsXsXsXsXsXsXsXsXsXsXsXsXsXsX",
"sXsXsXsXsXsXsXsXsXsXsX> % $ * 6 5 w 9 - 6 9 y y a a t 9 i  .a 6 * 8 t 7 # # : $ $ # # > sXsXsXsXsXsXsXsXsXsXsXsXsXsXsXsX",
"sXsXsXsXsXsXsXsXsXsXsXsXsX+ + . % 5 9 * % - 7 8 y e t t e r t : & 8 8 7 % % > > + # > # sXsXsXsXsXsXsXsXsXsXsXsXsXsXsXsX",
"sXsXsXsXsXsXsXsXsXsXsXsXsXX     o & - = 6 * @ * * $ 7 w 5 # O O : * - = @ & .   sXsXsXsXsXsXsXsXsXsXsXsXsXsXsXsXsXsXsXsX",
"sXsXsXsXsXsXsXsXsXsXsXsXsXsXl A Z A M A M 1 + % $ @ = 6 : # $ : o m M M z l z l 2 sXsXsXsXsXsXsXsXsXsXsXsXsXsXsXsXsXsXsX",
"sXsXsXsXsXsXsXsXsXsXsXsXsXM ! 5.t.e.e.0.<.A h 3 5 9 9 5 0 0 q 1 h A D >.:.:.b A l < 1 sXsXsXsXsXsXsXsXsXsXsXsXsXsXsXsXsX",
"sXsXsXsXsXsXsXsXsXsXsXsXQ S 8.B.m._.[.b.c.<.! I T o.+.+.O.+.T P G J =.-.d.9.1.>.Z z m sXsXsXsXsXsXsXsXsXsXsXsXsXsXsXsXsX",
"sXsXsXsXsXsXsXsXsXsXsXsXH *.3.B.B.v.n.W.].p.L #.*X=XrXiXeX=X&XX.N l.].C.w.g.d.9.:.j l sXsXsXsXsXsXsXsXsXsXsXsXsXsXsXsXsX",
"sXsXsXsXsXsXsXsXsXsXsXsXi.p.k.V.a.1.3.m.(.p.u @.eXrXuXuXyXyX:X@.K f.C.n.3.8.k.S.p.p.[ sXsXsXsXsXsXsXsXsXsXsXsXsXsXsXsXsX",
"sXsXsXsXsXsXsXsXsXsX) { Y.R.R.T.S.x n 8.g./ u %.pXpXeX-XeXpXuX@.u 6.k.s.C J J.T.T.R.G.^ ) sXsXsXsXsXsXsXsXsXsXsXsXsXsXsX",
"sXsXsXsXsXsXsXsXsXsXI $.4X0X4X0X|.v b 7.k./ y #.-X;XaXpXyXeX>XO.u ! ,.S j ! $X8X$X#X|.[ U sXsXsXsXsXsXsXsXsXsXsXsXsXsXsX",
"sXsXsXsXsXsXsXsXsX$.i.D.3X8X8X8X.XC C 7.V.f.z.$.&.&.*X-X=X&.%.I P A Z c j G 4XqX7X7X+X_ U sXsXsXsXsXsXsXsXsXsXsXsXsXsXsX",
"sXsXsXsXsXsXsXsX~ Z.T.T.#X%X$X$XL.;.;.8.w.C.{.^.( ) L ) ) L R ! 4.v c v x Q <XwX0X0X,X[ U sXsXsXsXsXsXsXsXsXsXsXsXsXsXsX",
"sXsXsXsXsXsXsXsXE D.2X#XT..Xz.p.' H D ;.=.t.v.n.(.^.^./.x.f.s.j.a.,.F Z j R <XwX,X|.K._ ^ sXsXsXsXsXsXsXsXsXsXsXsXsXsXsX",
"sXsXsXsXsXsXsXsXP D.@X.XD.Z.[ E P < l l h A ! ( l.l.l.l.q.( W Q ! M h z M W OX2X.XP.D._ Y sXsXsXsXsXsXsXsXsXsXsXsXsXsXsX",
"sXsXsXsXsXsXsXsXE i.P.I.' ~ ~ ^ 1 X   o o < m 3 K K L K m l 3 m m , o 2 ] ` I.}.}.L.I.Q ] sXsXsXsXsXsXsXsXsXsXsXsXsXsXsX",
"sXsXsXsXsXsXsXsXE i.}.I.` U 1 & o X o l k q./.(.s.j.7.a.a.s.f.(./.J h M W ` XX%XXXL.F.W ) sXsXsXsXsXsXsXsXsXsXsXsXsXsXsX",
"sXsXsXsXsXsXsXsXE z.+X.X_ I & X o , < R B u.{.W.c.B.B.B.B.c.b._.{.r.=.,.Q ` +X3X}.z.Z.P ) sXsXsXsXsXsXsXsXsXsXsXsXsXsXsX",
"sXsXsXsXsXsXsXsXP F.3X,X| | 1   < l v D =.u.{.!.b.c.v.c.c.c.v.)._.n.v.s.H ` XX2XD.Q I sXsXsXsXsXsXsXsXsXsXsXsXsXsXsXsXsX",
"sXsXsXsXsXsXsXsXP K.0X0X0X9XH.K R x v 8.w.M.'.Q.`.'.Q._._.`.].v.b.M.`.n.V ,.P.L.Z.U ) sXsXsXsXsXsXsXsXsXsXsXsXsXsXsXsXsX",
"sXsXsXsXsXsXsXsXP Y.wX0X,X,XA.M A B b 7.w.r.v.u.r.y.e.e.e.e.w.d.w.N.~.M.*.! i.A.} sXsXsXsXsXsXsXsXsXsXsXsXsXsXsXsXsXsXsX",
"sXsXsXsXsXsXsXsXI |.6X<XK.K.! z B -.-.d.V.1.*.C V S n k c c V d.b.E.~.M.=.,.H ! sXsXsXsXsXsXsXsXsXsXsXsXsXsXsXsXsXsXsXsX",
"sXsXsXsXsXsXsXsXsXsX$.} { [ M j 0.[.W.v.9.8.>.S S V n n >.s.r.].Q.Q.~.E.w.s.>.! E sXsXsXsXsXsXsXsXsXsXsXsXsXsXsXsXsXsXsX",
"sXsXsXsXsXsXsXsXsXsXsXsXsXsXM x <.'.`.b.B.9.8.5.2.8.b c >.d.v.'.~.Q.Q.W.c.d.>.D A sXsXsXsXsXsXsXsXsXsXsXsXsXsXsXsXsXsXsX",
"sXsXsXsXsXsXsXsXsXsXsXsXsXsXm z -.].).v.3.d.j.7.B.j.b j :.7.c.N.W.!.).N.b.r.>.D Q sXsXsXsXsXsXsXsXsXsXsXsXsXsXsXsXsXsXsX",
"sXsXsXsXsXsXsXsXsXsXsXsXsXsXm x S g.g.=.*.>.>.1.d.j.:.j C *.-.g.v.c.c.m.'.(.0.V G sXsXsXsXsXsXsXsXsXsXsXsXsXsXsXsXsXsXsX",
"sXsXsXsXsXsXsXsXsXsXsXsXsXsXsX< z D ;.S V S >.>.<.1.b x Z D S 4.6.5.q.e.{.[.0.V Q sXsXsXsXsXsXsXsXsXsXsXsXsXsXsXsXsXsXsX",
"sXsXsXsXsXsXsXsXsXsXsXsXsXsXsXsXl ! ! 4.,.q.,.,.H H v j A J H } } } ' p./.C.( G sXsXsXsXsXsXsXsXsXsXsXsXsXsXsXsXsXsXsXsX",
"sXsXsXsXsXsXsXsXsXsXsXsXsXsXY I Z.,X2XL.J.J.P.D.W W M k A ! ` K.K.P.P.D.( ' sXsXsXsXsXsXsXsXsXsXsXsXsXsXsXsXsXsXsXsXsXsX",
"sXsXsXsXsXsXsXsXsXsXsXsXsXsX) Y Z..XoXoXoXoX@X.X[ ^ Q R E Q } OXoX XL.D.W ~ sXsXsXsXsXsXsXsXsXsXsXsXsXsXsXsXsXsXsXsXsXsX",
"sXsXsXsXsXsXsXsXsXsXsXsXsXsXsXY } F.K..X@XXX+X|.W W W ^ [ } i.$X5X.XF.H.~ #.sXsXsXsXsXsXsXsXsXsXsXsXsXsXsXsXsXsXsXsXsXsX",
"sXsXsXsXsXsXsXsXsXsXsXsXsXsXsXsXI { ] [ ` [ _ ] ] ] ~ ~ Z.K.}.%X%XD.E ] sXsXsXsXsXsXsXsXsXsXsXsXsXsXsXsXsXsXsXsXsXsXsXsX",
"sXsXsXsXsXsXsXsXsXsXsXsXsXsXsXsXsXsXsXsXsXsXsXsXsXsXY E K.<X3X7X7XF.E ~ sXsXsXsXsXsXsXsXsXsXsXsXsXsXsXsXsXsXsXsXsXsXsXsX",
"sXsXsXsXsXsXsXsXsXsXsXsXsXsXsXsXsXsXsXsXsXsXsXsXsXsXsXU G.<X1X1X<XH.U sXsXsXsXsXsXsXsXsXsXsXsXsXsXsXsXsXsXsXsXsXsXsXsXsX",
"sXsXsXsXsXsXsXsXsXsXsXsXsXsXsXsXsXsXsXsXsXsXsXsXsXsXsXsX] { { { { sXsXsXsXsXsXsXsXsXsXsXsXsXsXsXsXsXsXsXsXsXsXsXsXsXsXsX"
};
