/* XPM */
static char *result[] = {
/* columns rows colors chars-per-pixel */
"60 60 234 2 ",
"   c #030101",
".  c #060609",
"X  c #0B0C0E",
"o  c #0B0303",
"O  c #1C0B0B",
"+  c #180705",
"@  c #0D0E11",
"#  c #130C14",
"$  c #0E1215",
"%  c #0E1319",
"&  c #111216",
"*  c #1D1313",
"=  c #131519",
"-  c #16191D",
";  c #191A1E",
":  c #19161C",
">  c #13110E",
",  c #250B07",
"<  c #24110C",
"1  c #32140B",
"2  c #221412",
"3  c #201319",
"4  c #3C1512",
"5  c #381816",
"6  c #2E0F0F",
"7  c #1B201F",
"8  c #39201B",
"9  c #1C1D21",
"0  c #181923",
"q  c #251F21",
"w  c #1E2125",
"e  c #192324",
"r  c #212226",
"t  c #24262A",
"y  c #26292C",
"u  c #292A2E",
"i  c #282828",
"p  c #372A2A",
"a  c #2D312F",
"s  c #2C2D32",
"d  c #292730",
"f  c #2E3134",
"g  c #313236",
"h  c #34353A",
"j  c #36383C",
"k  c #393A3E",
"l  c #393537",
"z  c #362E31",
"x  c #5C1A0E",
"c  c #59180D",
"v  c #4D1A16",
"b  c #4B1E1A",
"n  c #5B1A14",
"m  c #551913",
"M  c #4A140F",
"N  c #6C1D04",
"B  c #641B0A",
"V  c #66180A",
"C  c #741B0E",
"Z  c #671A16",
"A  c #761A15",
"S  c #4B2719",
"D  c #5D2A19",
"F  c #56231B",
"G  c #553519",
"H  c #7C2C0B",
"J  c #772A0A",
"K  c #6A2816",
"L  c #752D14",
"P  c #7D2D13",
"I  c #752617",
"U  c #6B3719",
"Y  c #783517",
"T  c #712B08",
"R  c #452A22",
"E  c #5A2B22",
"W  c #5C352C",
"Q  c #5D3B2D",
"!  c #583727",
"~  c #4D3C34",
"^  c #5C3D32",
"/  c #593835",
"(  c #4E3229",
")  c #6A2D22",
"_  c #7A2722",
"`  c #6B3424",
"'  c #62322B",
"]  c #6B3529",
"[  c #6D3D2B",
"{  c #653828",
"}  c #743223",
"|  c #763C2C",
" . c #613D35",
".. c #733E31",
"X. c #5C451F",
"o. c #4A422E",
"O. c #594137",
"+. c #6D422D",
"@. c #77462A",
"#. c #654236",
"$. c #774A35",
"%. c #7D5238",
"&. c #6D552E",
"*. c #3B3C40",
"=. c #312E42",
"-. c #5A4C4C",
";. c #7C5542",
":. c #734D40",
">. c #7B604B",
",. c #5B5C65",
"<. c #645961",
"1. c #5E646F",
"2. c #6D6F74",
"3. c #852D0D",
"4. c #853308",
"5. c #832C13",
"6. c #882B19",
"7. c #942E17",
"8. c #8B3419",
"9. c #95351B",
"0. c #9A351C",
"q. c #953417",
"w. c #92360D",
"e. c #A33919",
"r. c #B63E1A",
"t. c #873526",
"y. c #97372A",
"u. c #812E21",
"i. c #AB3C26",
"p. c #B73F27",
"a. c #AC3F33",
"s. c #C33E1F",
"d. c #C93E2A",
"f. c #954810",
"g. c #BA481A",
"h. c #BC581A",
"j. c #A74910",
"k. c #90631E",
"l. c #BE6614",
"z. c #88552B",
"x. c #93583A",
"c. c #8E5031",
"v. c #AB4428",
"b. c #B24324",
"n. c #B2432B",
"m. c #B84729",
"M. c #A94631",
"N. c #B64934",
"B. c #B05427",
"V. c #8B642E",
"C. c #BA7025",
"Z. c #B66A30",
"A. c #C44718",
"S. c #CD5D1C",
"D. c #CC5E13",
"F. c #D05B14",
"G. c #D76B18",
"H. c #CB751C",
"J. c #DE731C",
"K. c #DC7919",
"L. c #D56E13",
"P. c #C34324",
"I. c #C4462A",
"U. c #C95C22",
"Y. c #C24632",
"T. c #CA6C22",
"R. c #CB7823",
"E. c #D77A25",
"W. c #CE7F36",
"Q. c #E17924",
"!. c #E57419",
"~. c #895D45",
"^. c #925D4B",
"/. c #8D6449",
"(. c #976246",
"). c #936B55",
"_. c #A76948",
"`. c #B9764A",
"'. c #A96F55",
"]. c #A87458",
"[. c #B77957",
"{. c #B16B47",
"}. c #B67F64",
"|. c #C27E57",
" X c #D3841D",
".X c #E88619",
"XX c #EB981B",
"oX c #F89917",
"OX c #F59E0A",
"+X c #F8A31A",
"@X c #CB8C33",
"#X c #E88628",
"$X c #EE992A",
"%X c #FB9926",
"&X c #EA9B30",
"*X c #F28E29",
"=X c #FEA326",
"-X c #B8805B",
";X c #BC8866",
":X c #A88D76",
">X c #C6855B",
",X c #C88149",
"<X c #C68963",
"1X c #D8976A",
"2X c #DA9B71",
"3X c #C8936F",
"4X c #E29F74",
"5X c #DDA378",
"6X c #E6A577",
"7X c #E8AE77",
"8X c #757A86",
"9X c #7D818F",
"0X c #86899A",
"qX c #9797A1",
"wX c #9EA8B7",
"eX c #A3ABB9",
"rX c #C39F80",
"tX c #D7A986",
"yX c #CEA081",
"uX c #E4A981",
"iX c #EEB78C",
"pX c #F5BFA0",
"aX c #F9C797",
"sX c #EFC396",
"dX c #EFC4A2",
"fX c #FAD2AE",
"gX c #B7B7C4",
"hX c #BEC8D4",
"jX c #C8C8D8",
"kX c #D0D5E1",
"lX c #DBE4EC",
"zX c #DEEAF0",
"xX c #ECECF3",
"cX c None",
/* pixels */
"cXcXcXcXcXcXcXcXcXcXcXcXcXcXcXcXcXcXcXcXcXcXcXcXcXcXcXcXcXcXcXcXcXcXcXcXcXcXcXcXcXcXcXcXcXcXcXcXcXcXcXcXcXcXcXcXcXcXcXcX",
"cXcXcXcXcXcXcXcXcXcXcXcXcXcXcXcXcXcXcXcXcXcXcXcXcXcXcXcXcXcXcXcXcXcXcXcXcXcXcXcXcXcXcXcXcXcXcXcXcXcXcXcXcXcXcXcXcXcXcXcX",
"cXcXcXcXcXcXcXcXcXcXcXcXcXcXcXcXcXcXcXcXcXcXcXcXcXcXcXcXcXcXcXcXcXcXcXcXcXcXcXcXcXcXcXcXcXcXcXcXcXcXcXcXcXcXcXcXcXcXcXcX",
"cXcXcXcXcXcXcXcXcXcXcXcXcXcXcXcXcXcXcXcXcXcXcXcXcXcXcXcXcXcXcXcXcXcXcXcXcXcXcXcX& cXcXcXcXcXcXcXcXcXcXcXcXcXcXcXcXcXcXcX",
"cXcXcXcXcXcXcXcXcXcXcXcXcXcXcXcXcXcXcXcXcXcXcXcXcXcXcXcXcXcXcXcXcXcXcXcXcXcXcX& & > cXcXcXcXcXcXcXcXcXcXcXcXcXcXcXcXcXcX",
"cXcXcXcXcXcXcXcXcXcXcXcXcXcXcXcXcXcXcXcXcXcXcXcXcXcXcXcXcXcX- - = = : : - - & & & > cXcXcXcXcXcXcXcXcXcXcXcXcXcXcXcXcXcX",
"cXcXcXcXcXcXcXcXcXcXcXcXcXcXcXcXcXcXcXcXcXcXcXcXcXcX& & # - s h g g g g g g h 9 & cXcXcXcXcXcXcXcXcXcXcXcXcXcXcXcXcXcXcX",
"cXcXcXcXcXcXcXcXcXcXcXcXcXcXcXcXcXcXcXcXcXcXcXcXX & & : u u j k k k k k j u t - cXcXcXcXcXcXcXcXcXcXcXcXcXcXcXcXcXcXcXcX",
"cXcXcXcXcXcXcXcXcXcXcXcXcXcXcXcXcXcXcXcXcXcXcX@ & : ; t h h k k j j j g s - $ @ cXcXcXcXcXcXcXcXcXcXcXcXcXcXcXcXcXcXcXcX",
"cXcXcXcXcXcXcXcXcXcXcXcXcXcXcXcX@ $ & $ cXcXcX@ - i k g y u k k j j s - & & # - = $ = = = - - & - & : cXcXcXcXcXcXcXcXcX",
"cXcXcXcXcXcXcXcXcXcXcXcXcXcXcXcXcXcX& > & $ : s g g u f h h k k y : : = & & = 9 w y w y f g g g g f g i r : & & = cXcXcX",
"cXcXcXcXcXcXcXcXcXcXcXcXcXcXcXcXcXX : ; ; & : d g u t s k k h u s t r 9 9 9 9 r e s f h j k k k k *.j f g u u 3 X cXcXcX",
"cXcXcXcXcXcXcXcXcXcXcXcXcXcXcXX - : 9 u r = & 9 r t t s h h s d f j s r r t t r t u f g h h h h h h h h j j j a cXcXcXcX",
"cXcXcXcXcXcXcXcXcXcXcXcXcXcX& = w t t y r = = = = 9 t y i u h j s y r = = = = = $ = % 7 t t t t t t i cXcXcXcXcXcXcXcXcX",
"cXcXcXcXcXcXcXcXcXcXcXcXcXcX& & r y y y 9 = & & & 9 t s h h s s 9 : : @ $ & & & % ; e w ; - - - & . cXcXcXcXcXcXcXcXcXcX",
"cXcXcXcXcX& - t y cXcXcXcX= 9 9 t d r 9 9 9 0 = & 9 9 r u d 9 9 9 0 9 9 9 = % - 7 e y t & @ & $ @ . @ cXcXcXcXcXcXcXcXcX",
"cXcXcX& & & = w r ; & - 0 9 y u t r 0 & : u u ; - = & & & = = = r s d y y = $ 9 r t w y 9 - 9 9 ; ; ; cXcXcXcXcXcXcXcXcX",
"cXcXcXcX$ & % = = e t f j h y w 9 & = @ 9 j j d t 9 & = = = r t g j g y t = & = = 9 w u h h h h j j g : cXcXcXcXcXcXcXcX",
"cXcXcXcXcXcX@ % % & - w f f j j 0 & & & 9 j j s y ; & ; s g h h f s r : : = @ 9 w y j j *.*.*.k k k k g g ; > $ & # cXcX",
"cXcXcXX cXcX$ ; e r e y s s f f y r 9 & ; g g u t t w d g h g g t 0 9 % = 0 9 y f f f g g g s g g g f u u ; % $ @ cXcXcX",
"cXcXcX& & = ; r t g j j j f u y h *.d & - r r t t g *.h t t t t 0 & & : = t s g j f i t t y y y t i r & & $ $ cXcXcXcXcX",
"cXcXcXcXr i i y t u y y y y j j j j t & & = - r t s k h d r 0 = = & : t d h j s y t t y t y t t 7 & & & & cXcXcXcXcXcXcX",
"cXcXcXcXcXcXcXcXcX; - ; : - w 9 y s w & ; s s 9 : ; 9 9 : : & & & = = 0 : 9 9 9 - - = - - ; - : & X cXcXcXcXcXcXcXcXcXcX",
"cXcXcXcXcXcXcXcXcXcXcX$ & $ % $ 0 9 ; & ; g g i r ; & & $ & : 0 9 r r r r 9 9 = % % % $ $ & & = cXcXcXcXcXcXcXcXcXcXcXcX",
"cXcXcXcXcXcXcXcXcXcXcXcX& & $ $ = = = & : t i h j t - - % = y u f h j j g y t 0 % $ $ $ @ & & & cXcXcXcXcXcXcXcXcXcXcXcX",
"cXcXcXcXcXcXcXcXcXcXcXcXcX. $ = e r 9 = : t d i i f h f = = h j f y w 0 0 % = = = $ = @ . . cXcXcXcXcXcXcXcXcXcXcXcXcXcX",
"cXcXcXcXcXcXcXcXcXcXcXcX@ @ & $ ; : e e e 0 : r t f *.g r q u s r = : % % % $ & = % $ $ X X cXcXcXcXcXcXcXcXcXcXcXcXcXcX",
"cXcXcXcXcXcXcXcXcXcXcXcXcX& $ X . # : w ; @ : 9 w t s y r i 7 w - $ % % % $ & @ X $ X $ @ cXcXcXcXcXcXcXcXcXcXcXcXcXcXcX",
"cXcXcXcXcXcXcXcXcXcXcXcXcXcXcX  + + 2 2 * * 3 = $ % % : r t - % % % & 2 * * * + o o   cXcXcXcXcXcXcXcXcXcXcXcXcXcXcXcXcX",
"cXcXcXcXcXcXcXcXcXcXcXcXcXcXcX, E I L K T K D 1 > % $ & = = % % = O 4 ) ) c m m v 4 + + cXcXcXcXcXcXcXcXcXcXcXcXcXcXcXcX",
"cXcXcXcXcXcXcXcXcXcXcXcXcXcX{ K 8.0.h.R.H.H.C.L S p d s u u y i b b D L 5.9.i.9.y.} M 5 cXcXcXcXcXcXcXcXcXcXcXcXcXcXcXcX",
"cXcXcXcXcXcXcXcXcXcXcXcXcXcXU H S.G..X%XoX.X@Xf.D -.,.1.2.2.,.<.-.W } 9.0.i.i.i.v.6.c b cXcXcXcXcXcXcXcXcXcXcXcXcXcXcXcX",
"cXcXcXcXcXcXcXcXcXcXcXcXcXcXU H W.$X$XXX!.A.B.W l 2.eXgXzXlXgXwX1.z [ N.b.7.I u.t.5.K S + cXcXcXcXcXcXcXcXcXcXcXcXcXcXcX",
"cXcXcXcXcXcXcXcXcXcXcXcXcXcX` @.Z.|.c.J w.m.M.! l qXxXkXwXgXkXzX8Xz [ N.p.C B c.{.{.'.(.! ^ cXcXcXcXcXcXcXcXcXcXcXcXcXcX",
"cXcXcXcXcXcXcXcXcXcXcXcXcX#.(.(.>X4X^.c A p.M.~ h 0XjXjXkXkXhXhX8Xh ] N.a.A n Z.2X4X4X;X+.^ cXcXcXcXcXcXcXcXcXcXcXcXcXcX",
"cXcXcXcXcXcXcXcXcXcXcXcXO.$.<X>X6XuXZ.V 6.N.M.z.&.2.8X0XgXgX0X9X,./ t.y.y.Z n [.7X7X4X1Xx.$.^ cXcXcXcXcXcXcXcXcXcXcXcXcX",
"cXcXcXcXcXcXcXcXcXcXcXcXO.%.5X7X6X6X{.H 8.b.g.#X&Xk.! o.o.o.~ ( | N.y.V V c x '.7X1X`.`.[.[.;./ cXcXcXcXcXcXcXcXcXcXcXcX",
"cXcXcXcXcXcXcXcXcXcXcXcXO.$.-X>X~.c.| L 4.Y w.g.U.T.@X@X@X@XB.M.u.A Z B V c c +.%.(.[.|.6X5X/.Q cXcXcXcXcXcXcXcXcXcXcXcX",
"cXcXcXcXcXcXcXcXcXcXcXcX^ $.`.[.@.Q S 1 4 5 M D ) @.k.k.k.z.Y ` S 5 5 < , , O 2 O R ~./.iXpX/.^ cXcXcXcXcXcXcXcXcXcXcXcX",
"cXcXcXcXcXcXcXcXcXcXcXcXQ $.;X;Xx.$.( + 2 O + G U ! ! ! ! ( ( S G X.S O + o       * / %.dXfX)./ cXcXcXcXcXcXcXcXcXcXcXcX",
"cXcXcXcXcXcXcXcXcXcXcXcX^ ;.yXuX|.[.~.W ' n T H.$XH.m.m.m.m.n.g.E.$XC.B v , o     * ^ z.dXfX).~ cXcXcXcXcXcXcXcXcXcXcXcX",
"cXcXcXcXcXcXcXcXcXcXcXcXcXR %.x.3XuX'.] t.c.j..X%XG.m.P.A.s.P.s.E.=XH.3.K M 5 ,   O ' %.dXfX)./ cXcXcXcXcXcXcXcXcXcXcXcX",
"cXcXcXcXcXcXcXcXcXcXcXcXcXcX^ [ ;X2X_.K f.H.K.oXoX.X!.J.!.J.E.E.J.J.S.e.y.N m S 5 Q ].-XsXsX/.O.cXcXcXcXcXcXcXcXcXcXcXcX",
"cXcXcXcXcXcXcXcXcXcXcXcXcXcXO.O./._.z.J f.*XoX.X.X.X X XH.E.E.E.h.r.r.I.a.C x ' #.(.5X6X7XuXV.Q cXcXcXcXcXcXcXcXcXcXcXcX",
"cXcXcXcXcXcXcXcXcXcXcXcXcXcXcXcXO.+.Y 5.e.$XoXF.P.e.4.H N N B N J 7.7.I.n.C x E W %.[.>X5XtX/.O.cXcXcXcXcXcXcXcXcXcXcXcX",
"cXcXcXcXcXcXcXcXcXcXcXcXcXcXcXcXcXcXD H f.XXoXF.A.m.b.y.V V I J 0.i.p.Y.a.C n 4 O 8 :.$.%.>.cXcXcXcXcXcXcXcXcXcXcXcXcXcX",
"cXcXcXcXcXcXcXcXcXcXcXcXcXcXcXcXcXcXG T f.XXoX!.G.G.K.B.N V I 6.i.P.P.I.n.I K v 1 4 cXcXcXcXcXcXcXcXcXcXcXcXcXcXcXcXcXcX",
"cXcXcXcXcXcXcXcXcXcXcXcXcXcXcXcXcX4 K 4.j.oXOXoXoXOX+XR.N V u.7.e.b.b.b.i.9.6.A Z b cXcXcXcXcXcXcXcXcXcXcXcXcXcXcXcXcXcX",
"cXcXcXcXcXcXcXcXcXcXcXcXcXcXcXcX' K 0.g.F.*XOXoXoXXXoXK.H Y n.N.e.6.5.5.7.b.v.P n v cXcXcXcXcXcXcXcXcXcXcXcXcXcXcXcXcXcX",
"cXcXcXcXcXcXcXcXcXcXcXcXcXcXcXcX{ P h.#XQ.S.S.F.S.U.D.T. XK.e.q.3.H P 5.5.7.9.K n b cXcXcXcXcXcXcXcXcXcXcXcXcXcXcXcXcXcX",
"cXcXcXcXcXcXcXcXcXcXcXcXcXcXcXcX] L l.=X.Xg.I.d.d.P.m.h.T.C.3.B K K K I I I K n v cXcXcXcXcXcXcXcXcXcXcXcXcXcXcXcXcXcXcX",
"cXcXcXcXcXcXcXcXcXcXcXcXcXcXcXcX] L h.*XK.g.i.p.n.n.n.e.H T I Y } U K n n m b cXcXcXcXcXcXcXcXcXcXcXcXcXcXcXcXcXcXcXcXcX",
"cXcXcXcXcXcXcXcXcXcXcXcXcXcXcXcX{ L v.N.v.C Z ] ....| ] c K <X4X4XtX;X{ ^ cXcXcXcXcXcXcXcXcXcXcXcXcXcXcXcXcXcXcXcXcXcXcX",
"cXcXcXcXcXcXcXcXcXcXcXcXcXcXcXcXcXcXI _ I ) { /._.[.3X].` ] ~./.~./.~.cXcXcXcXcXcXcXcXcXcXcXcXcXcXcXcXcXcXcXcXcXcXcXcXcX",
"cXcXcXcXcXcXcXcXcXcXcXcXcXcXcXcXcXcXcXcXF Q +.'.|.>X5X[.[  .( ! cXcXcXcXcXcXcXcXcXcXcXcXcXcXcXcXcXcXcXcXcXcXcXcXcXcXcXcX",
"cXcXcXcXcXcXcXcXcXcXcXcXcXcXcXcXcXcXcXcXcX#.+.'.|.>X;X].#./ cXcXcXcXcXcXcXcXcXcXcXcXcXcXcXcXcXcXcXcXcXcXcXcXcXcXcXcXcXcX",
"cXcXcXcXcXcXcXcXcXcXcXcXcXcXcXcXcXcXcXcXcX .+.3XuXiXaXyX+. .cXcXcXcXcXcXcXcXcXcXcXcXcXcXcXcXcXcXcXcXcXcXcXcXcXcXcXcXcXcX",
"cXcXcXcXcXcXcXcXcXcXcXcXcXcXcXcXcXcXcXcXcXO.$.tXfXaXaX3X+.#.cXcXcXcXcXcXcXcXcXcXcXcXcXcXcXcXcXcXcXcXcXcXcXcXcXcXcXcXcXcX",
"cXcXcXcXcXcXcXcXcXcXcXcXcXcXcXcXcXcXcXcXcXcX#.:XrX;X;X].#.cXcXcXcXcXcXcXcXcXcXcXcXcXcXcXcXcXcXcXcXcXcXcXcXcXcXcXcXcXcXcX",
"cXcXcXcXcXcXcXcXcXcXcXcXcXcXcXcXcXcXcXcXcXcXcX~ O. .O./ cXcXcXcXcXcXcXcXcXcXcXcXcXcXcXcXcXcXcXcXcXcXcXcXcXcXcXcXcXcXcXcX"
};
