/* XPM */
static char *result[] = {
/* columns rows colors chars-per-pixel */
"60 60 224 2 ",
"   c #030204",
".  c #0C0606",
"X  c #120504",
"o  c #180A06",
"O  c #0C120E",
"+  c #15130F",
"@  c #0C0E11",
"#  c #160E17",
"$  c #0E1215",
"%  c #0F1319",
"&  c #111216",
"*  c #13151A",
"=  c #16191D",
"-  c #191A1E",
";  c #1B1317",
":  c #280A08",
">  c #310D04",
",  c #2A1919",
"<  c #3A1C15",
"1  c #20110D",
"2  c #161A21",
"3  c #1C1D22",
"4  c #221E26",
"5  c #1E2125",
"6  c #1D2229",
"7  c #212226",
"8  c #24252A",
"9  c #26282D",
"0  c #292A2E",
"q  c #29272B",
"w  c #392F22",
"e  c #2C2D32",
"r  c #2E3034",
"t  c #313236",
"y  c #34353A",
"u  c #37383C",
"i  c #393A3E",
"p  c #39373B",
"a  c #322D33",
"s  c #46160C",
"d  c #5C190B",
"f  c #57180B",
"g  c #4B1E1C",
"h  c #441716",
"j  c #561814",
"k  c #64180B",
"l  c #721A0D",
"z  c #72170D",
"x  c #621B13",
"c  c #671911",
"v  c #7B1E10",
"b  c #492419",
"n  c #572718",
"m  c #553210",
"M  c #6B2409",
"N  c #79270A",
"B  c #672717",
"V  c #7B2C14",
"C  c #7A2B1C",
"Z  c #762715",
"A  c #69341B",
"S  c #78321B",
"D  c #7E3A08",
"F  c #472C27",
"G  c #562821",
"H  c #5A382A",
"J  c #553D34",
"K  c #5D3B32",
"L  c #5A3C38",
"P  c #4C3633",
"I  c #652B21",
"U  c #64342B",
"Y  c #6C3C2C",
"T  c #673829",
"R  c #753523",
"E  c #783827",
"W  c #623D33",
"Q  c #683A34",
"!  c #6A4B1B",
"~  c #764C1A",
"^  c #5C423B",
"/  c #584139",
"(  c #6C412B",
")  c #674828",
"_  c #7B4129",
"`  c #695124",
"'  c #6C4432",
"]  c #68463A",
"[  c #784735",
"{  c #77503B",
"}  c #3B3C41",
"|  c #453E41",
" . c #3B444D",
".. c #43484C",
"X. c #564144",
"o. c #515358",
"O. c #704E42",
"+. c #5B5A68",
"@. c #645B6B",
"#. c #6C717C",
"$. c #636360",
"%. c #842B0D",
"&. c #883709",
"*. c #8B2C15",
"=. c #852C17",
"-. c #952E19",
";. c #893417",
":. c #93361A",
">. c #9B331B",
",. c #983617",
"<. c #A93919",
"1. c #873D2B",
"2. c #963C2A",
"3. c #A93B27",
"4. c #B93F2C",
"5. c #984514",
"6. c #884B13",
"7. c #B84919",
"8. c #A55C13",
"9. c #AE530F",
"0. c #9A442A",
"q. c #844C35",
"w. c #875439",
"e. c #965537",
"r. c #924D27",
"t. c #AC432A",
"y. c #AA4328",
"u. c #BD4524",
"i. c #BC452D",
"p. c #B64828",
"a. c #BA5728",
"s. c #B84533",
"d. c #A55033",
"f. c #956735",
"g. c #926E35",
"h. c #AE6F29",
"j. c #B7680F",
"k. c #C4441B",
"l. c #C75818",
"z. c #C8520E",
"x. c #DE711D",
"c. c #D1791A",
"v. c #CF6B1C",
"b. c #E47618",
"n. c #C34C22",
"m. c #C24726",
"M. c #C65425",
"N. c #C04732",
"B. c #C9782B",
"V. c #DB7528",
"C. c #CB692C",
"Z. c #E37B27",
"A. c #875945",
"S. c #935645",
"D. c #A65F40",
"F. c #8A644A",
"G. c #976649",
"H. c #8C6754",
"J. c #996B52",
"K. c #A26B4C",
"L. c #AC6A4B",
"P. c #BB7B4B",
"I. c #A76950",
"U. c #AC7454",
"Y. c #A37756",
"T. c #B97856",
"R. c #AC6E4D",
"E. c #B87360",
"W. c #C47D53",
"Q. c #CF7850",
"!. c #DF8E18",
"~. c #E58B17",
"^. c #F18F1C",
"/. c #F69716",
"(. c #ED990F",
"). c #FAA212",
"_. c #D88625",
"`. c #D98A36",
"'. c #D9962F",
"]. c #E68826",
"[. c #F28C23",
"{. c #EB9328",
"}. c #F2962F",
"|. c #F4A32C",
" X c #BE8255",
".X c #BE885F",
"XX c #BD8765",
"oX c #C48355",
"OX c #C5875B",
"+X c #CC905D",
"@X c #C68A65",
"#X c #CC9163",
"$X c #DD9D73",
"%X c #D08E61",
"&X c #DFA77B",
"*X c #CFA17E",
"=X c #E4AA7D",
"-X c #EAAC7B",
";X c #E6A876",
":X c #EBAD78",
">X c #757E84",
",X c #848B90",
"<X c #8E97A3",
"1X c #9EA8B5",
"2X c #A2A8B8",
"3X c #B1B9BE",
"4X c #C19E83",
"5X c #DBAF91",
"6X c #E7AD81",
"7X c #EDB386",
"8X c #F5B787",
"9X c #E6BA99",
"0X c #F4BB94",
"qX c #F6C699",
"wX c #F1CDA7",
"eX c #AFB2C8",
"rX c #BFC6D4",
"tX c #C8CBD7",
"yX c #CDD2DB",
"uX c #D2DBE1",
"iX c #E0DCF0",
"pX c #D7E2E5",
"aX c #E8EBF4",
"sX c None",
/* pixels */
"sXsXsXsXsXsXsXsXsXsXsXsXsXsXsXsXsXsXsXsXsXsXsXsXsXsXsXsXsXsXsXsXsXsXsXsXsXsXsXsXsXsXsXsXsXsXsXsXsXsXsXsXsXsXsXsXsXsXsXsX",
"sXsXsXsXsXsXsXsXsXsXsXsXsXsXsXsXsXsXsXsXsXsXsXsXsXsXsXsXsXsXsXsXsXsXsXsXsX& & & & & & sXsXsXsXsXsXsXsXsXsXsXsXsXsXsXsXsX",
"sXsXsXsXsXsXsXsXsXsXsXsXsXsXsXsXsXsXsXsXsXsXsXsXsXsXsXsXsX3 - - = = = = - - * & & & & sXsXsXsXsXsXsXsXsXsXsXsXsXsXsXsXsX",
"sXsXsXsXsXsXsXsXsXsXsXsXsXsXsXsXsXsXsXsXsXsXsXsX& & & & - t u u u u t u u u e & O @ sXsXsXsXsXsXsXsXsXsXsXsXsXsXsXsXsXsX",
"sXsXsXsXsXsXsXsXsXsXsXsXsXsXsXsXsXsXsXsXsXsXsX& & & 3 e e u i i i } i } e 7 3 & sXsXsXsXsXsXsXsXsXsXsXsXsXsXsXsXsXsXsXsX",
"sXsXsXsXsXsXsXsXsXsXsXsX& & O $ @ sXsXsXsXsX& & = 3 e u u i u } i u r a 3 & & sXsXsXsXsXsXsXsXsXsXsXsXsXsXsXsXsXsXsXsXsX",
"sXsXsXsXsXsXsXsXsXsXsXsXsXsXsX  @ & sXsXsXsX& - t p a 9 e i i u i a = & * & * & & * & * * * * & * sXsXsXsXsXsXsXsXsXsXsX",
"sXsXsXsXsXsXsXsXsXsXsXsXsXsXsXsX@ & & & & 9 t t e 0 t y y i } 8 3 - & @ % * * 7 7 5 5 8 r r r t t t t 0 9 5 sXsXsXsXsXsX",
"sXsXsXsXsXsXsXsXsXsXsXsXsXsXsX@ * 3 = * * 7 y t q 9 t } } t t 9 3 3 3 3 2 2 3 q q 0 e t i } i i i i p r e 0 4 4 & sXsXsX",
"sXsXsXsXsXsXsXsXsXsXsXsXsXsX* & 3 q 8 * & 3 8 8 9 9 e } t e 9 t } y 8 8 8 q 8 7 8 t u u u i p p i u u u u p p t - & sXsX",
"sXsXsXsXsXsXsXsXsXsXsXsX* * 4 8 7 8 7 = * * * * 8 8 q q e y y t q 8 = * * * * * * = = 3 0 e 0 0 0 q 9 - - 3 sXsXsXsXsXsX",
"sXsXsXsXsXsXsXsXsXsXsXsX* % 8 9 9 9 4 * * @ & * 8 8 e e e t y 4 3 = * * & * # * & - 3 = 3 3 - 3 3 - 7 = sXsXsXsXsXsXsXsX",
"sXsX& & sXsXsXsXsXsXsXsX* = 8 9 8 8 4 = = * % * 7 4 t y t 8 3 3 2 = * & * * * * * 7 9 7 $ & & $ sXsXsXsXsXsXsXsXsXsXsXsX",
"sXsX& & 7 9 7 sXsXsXsX3 7 9 8 8 3 * 2 4 0 3 * * * * * * 2 * * e } e * @ 4 8 8 8 9 9 8 7 * * * & sXsXsXsXsXsXsXsXsXsXsXsX",
"sXsXsX@ = = - 7 7 q e e 9 8 3 3 = @ * 8 8 8 4 3 * * * @ * 9 e e a 9 * & 3 e 8 3 3 7 9 7 5 5 = O & $ @ O sXsXsXsXsXsXsXsX",
"sXsXsXsX& & * 7 8 t u t e q - @ * * = 7 8 0 8 4 * % 2 3 4 t } e 8 3 * * 3 7 3 * = 9 e e 0 e 5 3 3 5 - 5 5 = sXsXsXsXsXsX",
"sXsXsXsX& & * & = 7 8 a i u 3 % * @ * 8 8 9 8 8 * * e } y 8 9 8 q 3 * * & * 2 8 q y } y u u u u u u u u u 9 $ $ sXsXsXsX",
"sXsX% $ 3 5 9 e a a y y q e e e 4 & * 8 8 9 9 q e e e e e 8 9 3 = * * * 3 3 8 y y e 9 e 0 e e e 0 e e 5 5 = & * & % sXsX",
"sX& - - 5 9 e t y t t t e e u } q & * 3 5 7 9 9 u } e 8 8 3 3 3 & * - 3 8 e e y t e 6 9 8 9 8 9 7 5 5 * sXsXsXsXsXsXsXsX",
"& - 7 9 9 8 7 9 7 9 8 e y i y } 9 * * * * 3 8 9 t } e 8 4 & * * & = 8 7 t } t 8 6 6 9 6 8 7 8 9 5 O * sXsXsXsXsXsXsXsXsX",
"sXsXsXsXsXsXsX* * * * = 2 3 9 e 3 * = e u 8 * * 2 2 = * * * @ % * & * * = - - * 2 * * * * * * * & sXsXsXsXsXsXsXsXsXsXsX",
"sXsXsXsXsXsXsXsXsX% & % % % 2 3 = % * r t e 9 8 * @ * * * 3 3 7 8 8 9 9 7 - - % % % % % % % $ sXsXsXsXsXsXsXsXsXsXsXsXsX",
"sXsXsXsXsXsXsXsXsXsX* % % % % * # @ * 6 6 r u y 3 2 * % = 9 e a i u y y q 8 3 % % * $ $ $ $ sXsXsXsXsXsXsXsXsXsXsXsXsXsX",
"sXsXsXsXsXsXsXsXsXsXsX. * * 6 9 3 * * 7 0 9 9 0 t p 6 @ 2 u i a q 6 = % * * * & % % % $   sXsXsXsXsXsXsXsXsXsXsXsXsXsXsX",
"sXsXsXsXsXsXsXsXsXsXsX& & & = 2 3 5 4 - = 7 0 0 p p 0 - 8 t e 6 = = $ * O & % % * % % % @ sXsXsXsXsXsXsXsXsXsXsXsXsXsXsX",
"sXsXsXsXsXsXsXsXsXsXsXsXsX* @ O * 7 7 & & 3 5 5 r t e q q 4 6 = $ $ $ $ + O % % @ $ $ % % sXsXsXsXsXsXsXsXsXsXsXsXsXsXsX",
"sXsXsXsXsXsXsXsXsXsXsXsXsXsXsXX o 1 ; ; & & & & % * 3 9 5 * % * # # & ; ; ; ; X X sXsXsXsXsXsXsXsXsXsXsXsXsXsXsXsXsXsXsX",
"sXsXsXsXsXsXsXsXsXsXsXsXsXsXH B B B B n G < o + & & 2 # & $ @ 2 # , G n b h h s s sXsXsXsXsXsXsXsXsXsXsXsXsXsXsXsXsXsXsX",
"sXsXsXsXsXsXsXsXsXsXsXsXsXA ;.:.,.>.>.>.2.B s < , 5 6 6 5 4 4 , < f V V 5.y.5.N V d g sXsXsXsXsXsXsXsXsXsXsXsXsXsXsXsXsX",
"sXsXsXsXsXsXsXsXsXsXsXsXR =.t.k.n.l.n.n.a.5.A U /  . . ... .| K I V &.&.v.}.].k.s.C h g sXsXsXsXsXsXsXsXsXsXsXsXsXsXsXsX",
"sXsXsXsXsXsXsXsXsXsXsXsXZ %.3.4.v./.^.[.'.g.b / >X,X3XyXtX<X,X+.p ~ _.].v.M.M.m.p.V f < sXsXsXsXsXsXsXsXsXsXsXsXsXsXsXsX",
"sXsXsXsXsXsXsXsXsXsXsX' e.d.Q.%XC.8.j.~.|.g.w o.3XyXtXtXtXtXtX#.e ) B.V.7.,.p.Q.Q.d.q.Q F sXsXsXsXsXsXsXsXsXsXsXsXsXsXsX",
"sXsXsXsXsXsXsXsXsX] L A.W.oX;X-XR.d N c.{.f.w o.yXaXrX2XeXiXaX>Xr ) 0.y.-.v 0.:X:X%X@XJ.Y / sXsXsXsXsXsXsXsXsXsXsXsXsXsX",
"sXsXsXsXsXsXsXsXsX] W J.6X=X:X8XR.x z y.M._ w  .<X2XyXaXpX2X1X+.y P A V M d q.-X:X;X6XXXY W sXsXsXsXsXsXsXsXsXsXsXsXsXsX",
"sXsXsXsXsXsXsXsXsXW W A.+X+X+X+Xd.V N t.p.a.h.g.$.+.>X>X#.@.@.X.H I B B d d E @X%X%X#XR.Y L sXsXsXsXsXsXsXsXsXsXsXsXsXsX",
"sXsXsXsXsXsXsXsXsX^ K w.OXoXP.P.d.V ;.2.y.v.'.`.~ ` ) ) ' U Q E ;.=.l k x j C U.Q.W.OXJ.Y W sXsXsXsXsXsXsXsXsXsXsXsXsXsX",
"sXsXsXsXsXsXsXsXsX/ K G.-X:XoXT.e.V Z C V ,.p.a.'.'.'.'.`.a.t.s.s.0.C C B s R E.T.$X6X.X( K sXsXsXsXsXsXsXsXsXsXsXsXsXsX",
"sXsXsXsXsXsXsXsXsX/ K G.-X&Xf.[ n o 1 > > < n n ` ! ! ! ! n n n n b : : : X < { q.#X7X@X( W sXsXsXsXsXsXsXsXsXsXsXsXsXsX",
"sXsXsXsXsXsXsXsXsX/ W G.6X&Xw.W ,     : > s ` ! T T T U U I n ! ~ m > : X   X H ( @X7XXXY K sXsXsXsXsXsXsXsXsXsXsXsXsXsX",
"sXsXsXsXsXsXsXsXsX/ K G.=X&Xq.W ,   : n k 8.|.[.M.N.m.i.s.i.p.V.|.B.V M h X X P ' XX7XXX( K sXsXsXsXsXsXsXsXsXsXsXsXsXsX",
"sXsXsXsXsXsXsXsXsX^ W w. X X[ Y G h j B N 9.|.[.l.u.k.k.k.k.7.V.|.].7.3.v s j U T K.@XK.Y L sXsXsXsXsXsXsXsXsXsXsXsXsXsX",
"sXsXsXsXsXsXsXsXsX^ W w.P.U.U.U.q.j z -.,.l.V.x.x.x.x.x.x.b.x.x.x.C.u.u.*.M E U.Y. XT.G.Y W sXsXsXsXsXsXsXsXsXsXsXsXsXsX",
"sXsXsXsXsXsXsXsXsX^ W w. XoX;X-XI.c v 3.n.4.<.9.V.~.~._._.~.].l.<.m.p.4.-.M r.6X=XOXoXK.Y W sXsXsXsXsXsXsXsXsXsXsXsXsXsX",
"sXsXsXsXsXsXsXsXsXsXK G.=X&X@XW.e.d z 3.N.3.-.&.&.;.Z M M l M N *.*.=.=.l d C E. X$X-XXX] L sXsXsXsXsXsXsXsXsXsXsXsXsXsX",
"sXsXsXsXsXsXsXsXsXsXsXsXH.G.w.w.E d z 3.i.>.%.V V V l d x M N :.3.2.3.0.v f B A.w.G.J.H.sXsXsXsXsXsXsXsXsXsXsXsXsXsXsXsX",
"sXsXsXsXsXsXsXsXsXsXsXsX/ T T T B d c 2.y.<.-.-.:.;.Z d x R C 2.t.s.N.4.=.f G U K K J sXsXsXsXsXsXsXsXsXsXsXsXsXsXsXsXsX",
"sXsXsXsXsXsXsXsXsXsXsXsXsXsXb f d k M C *.<.N.N.i.t.=.k x Y Q Y Q 1.s.s.%.f b sXsXsXsXsXsXsXsXsXsXsXsXsXsXsXsXsXsXsXsXsX",
"sXsXsXsXsXsXsXsXsXsXsXsXsXsXg d 5.B.h.&.N &.*.-.>.2.=.I Y J.K.K.I.G.1.1.B d g sXsXsXsXsXsXsXsXsXsXsXsXsXsXsXsXsXsXsXsXsX",
"sXsXsXsXsXsXsXsXsXsXsXsXsXsXg j 9.|.[.9.-.:.:.:.:.2.E T [ U.W.P.T.I.' K n j g sXsXsXsXsXsXsXsXsXsXsXsXsXsXsXsXsXsXsXsXsX",
"sXsXsXsXsXsXsXsXsXsXsXsXsXsXg f 5.{.[.l.k.m.n.n.p.p.0.T q.T.W.P.T.Y.( T I j G sXsXsXsXsXsXsXsXsXsXsXsXsXsXsXsXsXsXsXsXsX",
"sXsXsXsXsXsXsXsXsXsXsXsXsXsXG f *.l.l.].^.(.^.b.z.p.0.T { $X;X;X-X@X' Q K sXsXsXsXsXsXsXsXsXsXsXsXsXsXsXsXsXsXsXsXsXsXsX",
"sXsXsXsXsXsXsXsXsXsXsXsXsXsXg j *.m.l.[./.).)./.b.V.r.A w.9X0X0XqX*X' W X.sXsXsXsXsXsXsXsXsXsXsXsXsXsXsXsXsXsXsXsXsXsXsX",
"sXsXsXsXsXsXsXsXsXsXsXsXsXsXh s C t.p.V.^.~.!.!.].`.8.A O.5X9X9X9X4X] L sXsXsXsXsXsXsXsXsXsXsXsXsXsXsXsXsXsXsXsXsXsXsXsX",
"sXsXsXsXsXsXsXsXsXsXsXsXsXsXsXX h n l &.&.&.&.D 6.;.E Q ] ] [ ] ] { sXsXsXsXsXsXsXsXsXsXsXsXsXsXsXsXsXsXsXsXsXsXsXsXsXsX",
"sXsXsXsXsXsXsXsXsXsXsXsXsXsXsXF b B T R.W.P. XR.E R Y sXsXX./ / / sXsXsXsXsXsXsXsXsXsXsXsXsXsXsXsXsXsXsXsXsXsXsXsXsXsXsX",
"sXsXsXsXsXsXsXsXsXsXsXsXsXsX/ ^ { F.J.6X8X8X0X6X{ Q sXsXsXsXsXsXsXsXsXsXsXsXsXsXsXsXsXsXsXsXsXsXsXsXsXsXsXsXsXsXsXsXsXsX",
"sXsXsXsXsXsXsXsXsXsXsXsXsXsXX.K Y.wXwXwXwXqXwX5XO.L sXsXsXsXsXsXsXsXsXsXsXsXsXsXsXsXsXsXsXsXsXsXsXsXsXsXsXsXsXsXsXsXsXsX",
"sXsXsXsXsXsXsXsXsXsXsXsXsXsXsXsXO.H.H.F.F.F.H.H.O.L sXsXsXsXsXsXsXsXsXsXsXsXsXsXsXsXsXsXsXsXsXsXsXsXsXsXsXsXsXsXsXsXsXsX",
"sXsXsXsXsXsXsXsXsXsXsXsXsXsXsXsXsXJ J J L L J / ^ X.sXsXsXsXsXsXsXsXsXsXsXsXsXsXsXsXsXsXsXsXsXsXsXsXsXsXsXsXsXsXsXsXsXsX",
"sXsXsXsXsXsXsXsXsXsXsXsXsXsXsXsXsXsXsXsXsXsXsXsXsXsXsXsXsXsXsXsXsXsXsXsXsXsXsXsXsXsXsXsXsXsXsXsXsXsXsXsXsXsXsXsXsXsXsXsX"
};
