/* XPM */
static char *_3abe740460748e5de32c8c588ccce9czgvML7tCTR71qSHI[] = {
/* columns rows colors chars-per-pixel */
"60 60 124 2 ",
"   c #080607",
".  c #070609",
"X  c #08070C",
"o  c #0C0B0D",
"O  c #100F0B",
"+  c #12100F",
"@  c #0E0D11",
"#  c #141314",
"$  c #191615",
"%  c #1B1916",
"&  c #161619",
"*  c #18171B",
"=  c #1C1B1C",
"-  c #211E1E",
";  c #23211F",
":  c #1E1E21",
">  c #201F22",
",  c #1F2024",
"<  c #242324",
"1  c #292625",
"2  c #2A2926",
"3  c #262629",
"4  c #29272A",
"5  c #2C2B2C",
"6  c #312E2D",
"7  c #32312E",
"8  c #2E2E31",
"9  c #312F32",
"0  c #2F3035",
"q  c #343334",
"w  c #393635",
"e  c #3A3936",
"r  c #363639",
"t  c #38373A",
"y  c #37383D",
"u  c #3C3B3C",
"i  c #413E3D",
"p  c #43413E",
"a  c #3E3E41",
"s  c #413F41",
"d  c #3F4045",
"f  c #444344",
"g  c #494645",
"h  c #4B4946",
"j  c #464649",
"k  c #49474A",
"l  c #4C4B4B",
"z  c #514E4D",
"x  c #53514D",
"c  c #4E4D51",
"v  c #514F51",
"b  c #535253",
"n  c #5A5655",
"m  c #5B5956",
"M  c #565559",
"N  c #595759",
"B  c #5C5A5C",
"V  c #615E5C",
"C  c #63615F",
"Z  c #5E5D61",
"A  c #615F62",
"S  c #676664",
"D  c #666465",
"F  c #646363",
"G  c #686765",
"H  c #696666",
"J  c #696866",
"K  c #646368",
"L  c #656469",
"P  c #656568",
"I  c #68676C",
"U  c #67686C",
"Y  c #6C6B69",
"T  c #6C6A6B",
"R  c #6D6C6A",
"E  c #6E6D6B",
"W  c #6A696E",
"Q  c #6D6B6C",
"!  c #6B6A6B",
"~  c #706F6D",
"^  c #706F6D",
"/  c #6D6C71",
"(  c #6E6D72",
")  c #6E6D70",
"_  c #706F74",
"`  c #707072",
"'  c #757472",
"]  c #737375",
"[  c #757577",
"{  c #737273",
"}  c #787677",
"|  c #7A7977",
" . c #747378",
".. c #76757A",
"X. c #767678",
"o. c #78777C",
"O. c #7B797A",
"+. c #7D7C7A",
"@. c #7A7A7C",
"#. c #79787E",
"$. c #7A797E",
"%. c #7D7D7F",
"&. c #7D7C7D",
"*. c #7C7B80",
"=. c #7F7F81",
"-. c #817F80",
";. c #838182",
":. c #848283",
">. c #868583",
",. c #858384",
"<. c #858587",
"1. c #828284",
"2. c #848388",
"3. c #858489",
"4. c #868688",
"5. c #878789",
"6. c #88878C",
"7. c #89898B",
"8. c #8C8A8B",
"9. c #8D8B8C",
"0. c #8E8E90",
"q. c #929091",
"w. c #939290",
"e. c #A4A2A3",
/* pixels */
"Z M Z N B $.W < @ Z  ./ c 2.*.Z t = l v B D B T } O.q.8.,.O.q B B F F h 1 q m F D B F B u q ' q.7.4.<.4.` ] 4.A 3 8 Z o.",
"6.o.../ A _ W y 5 a b K j j a f u < v j k b k v l N N z :.:.A e.>.| R l 1 6 h x x l B B h e F R $.=.%.[ M c P M 8 3 s c ",
"K c c c y a j q : 8 f c f f j j q > k i f b z b j u l u j q f Q x f f u 5 w z b B x z f q 5 l l B B M b j a j f f 8 y k ",
"M l b M j j b l > r c f k b Z j s 3 j s j l g j j t j j 5 # 9 u f e t q < 1 p h x l l j p w l f l b k c M l j c f < q c ",
"b c v c f j l f 3 5 f j b l M l j < t s k f f f s j 4 q f u t l b k h u < 5 b R F V m h f q l g j b M b M j f N a : 5 f ",
"c k j f f l c j < > y j M v B b f = 9 s l f f f t f q f u f u i p p h p 6 i J +.~ J n p w 1 f x j j j a j j y c f < 8 f ",
"f a y a f j j f 3 8 f f l c b f j 4 t i i 6 q 6 5 t b M t u s q f f l p 1 5 p p p h l h h 5 p z l u u t k b a f q = 5 a ",
"j a y f f y q q = = 5 u f f j f 5 = 9 q q 5 q 5 3 f b q j u 5 q u e u 7 < 7 p e l x l j f < q j f t j u u f q q 3 # 3 q ",
"k q r r a 5 5 < . # < 8 q q q r - o 4 9 & < 5 = = < < < < 6 - q 5 < q $ + + < p 7 7 w q < % = 5 4 5 q 4 q 4 < = o # = < ",
"5 < < < = : < < < < 3 4 4 4 3 3 = > = = l N s k j f q i f u & = q - ; % 4 q 5 3 < - = 1 4 < < < < < 5 < = # 5 t a u y t ",
"u k f t # 1 f N M b l b b M b l f l w < %.%.N J H N z F Q F q t %.T m h f l t 7 f u u l M n x l h j D D k 1 t j b b l l ",
"l F Q D u 5 q t u u f j l l j u j u u < M b l g g f u k z l 6 i R ~ B z w f u p t u u f g f j k z b R { F 7 < q q q t u ",
"B l l f q < q t q u f k k j u e f q f 5 j l B z b b k g j j 6 u u h p f w f p p f f g g f p h x l z l f l < = u u f j l ",
"l f b j u < q u u f j j j f f f u t q - j v z b b M k f j k 4 5 j x g h u u f h h f p i p f k l x N b p h 1 < u u u a f ",
"F N b u < & 4 t u u f f f f j j s f q < f b g z z z g l l l 4 q e f f p q < p z f i u t i f h l h z n j s 4 < = u u u u ",
"b k t f q f q < q t t u d f d u t q q 5 q z v v v z k b k u - q t p g l k 1 u p u p p u u i h x m f x f e p b 7 q q q q ",
"M j f t 5 f j < r q 8 q a y q r r r 8 < q k j b l j j j k t < q u t u j l q < k f i i u i i u h g p i p e q t g < q q q ",
"k q q q 4 5 q < & 8 q 3 8 a a r 3 4 < = 5 u r u a a f u a q : 3 t t t r u q < u s f i e u i i f p i i u 6 3 5 q < = = 5 ",
"j 5 q t 5 < q q : < 3 3 8 q 9 r y q 5 = 3 r q y 5 8 r q r q : : 4 q q 8 q 3 # = 4 q w u e u w w w w q q 5 1 4 q u < = < ",
"q < < < = & < 3 < = * : 8 3 < 5 5 4 4 = : 4 < 5 q 4 5 4 4 < o o 4 4 5 5 8 4 $ - < < 3 6 1 - 3 5 1 < < - = $ = < < - < & ",
"k u q 5 4 4 8 q : q y q y f a q = < a f a a q q < # 4 l D ..%.0.1.Q Z b l k f b B b g l w 3 g n m b z g i u s j 4 5 l c ",
"D F M j j k l j < f M B N b c c 8 r M B M b l k q = 5 l Z W ` 1.1.J Z b k j f v N b z n i 6 z m V V n z g g j l t < f N ",
"x b j u u f f a < q j M M j a c r q f j y f a u k 4 8 a f j j k c j l l l M M N l b z V g u m z g g g g f f g k f = q f ",
"j j f f k j j l = q y a l M c k a q j l j l j a f 5 q f k N N M b b M j f b b z b N h g 6 q n i f f g g g h k k q = u u ",
"x j f j k f u f < 8 y f l c c l j q u f l l y l f 3 5 a f j c c l c j a j l k k l z i h e 3 f p l l g g h f i g w 4 t a ",
"l f u f j f f f 3 q a f j k k k j q q q f c a u f = < a u t f f j f u y a j j f f l i g w 1 i i g g g h h g f g q 4 t a ",
"b l f f s u t q < q y y y y a a y 8 q q r j j j f & < k f u j f j a f k j f u q u j i g w 3 i f z g g l f i i t q 4 r a ",
"f f f f j j f a < 8 y y r r y a r 5 8 8 5 q y y q @ < j f a k a f q q q 5 5 9 6 6 w w u 5 ; u f f p g z l z l f 5 < q u ",
"t u f f f u t q : 5 r r r r r r j q < 5 q q 5 < < # < u t a j r q 8 q q q 5 6 6 5 6 6 6 1 < e i e e e e u i t 5 < = 5 q ",
"u q 5 q 0 < = & # = < 3 5 5 3 < < 3 & = : & & # & # = < < 4 5 < = < = & = : * = = = = % # $ < 3 7 w 5 - 2 6 < = # o = : ",
"s < = < q q 8 q < 4 8 r a y 9 < : b l y u q q y j j f f a y a k M c < X 3 f k B l f f p i f g f e g 6 ; i l f l g s l l ",
"D u < q l b b b b M B F I P M f 5 ` K j b l j u M M k j f t u M P Q j q K 1.-.9.Q V C V V F V b B H f 3 g z g b M l N M ",
"l t q q t u j b l l l k j k j t < r t f k a u u s s f f f u u w u g t > j B V z h l l x x l f p p p 6 w f i g x m n x z ",
"k t 8 q u u j l M b x l l b k q 5 a f k l f f f k j g g g f u e 4 t t < q u l n z l h g f f f f p g q w p i p z m n x x ",
"l t 5 q f f j l b k j k l b k q 5 a f l k u i s l l l l l g f i q 5 > = w t f v b x h g f f f g p h w 7 p p g h h h g p ",
"l w 4 q u f f j j u u u j l j q 3 a f j f r t i k k l l z l g g f 5 * # i j j j l l l l h g f p i h 7 6 i p g g h g p p ",
"l q < 5 w t u u j u u u s k j t 4 a f j f q u f j j g h l l l g u q < * w u f j p g h h h f p p i g 6 1 w e p p h g g p ",
"l q 1 5 t u u s j f f u u f f t 3 y y u y q t s j f g g g g g f t u q = q u f f f h h g f p p g g h 6 5 e i p p g f p p ",
"k r 5 q a d a f f a f u t a u q < q 8 q q 5 q u s i i i i i i i u e 4 = u p p u p f f p p i p p p f 5 q f p f g g f f f ",
"d 0 5 q a a u a y t u u y f u 5 : 8 5 5 8 4 q u t t e e u u e e q 6 < = e w e t w u p u e q 7 q 7 q < 7 f i i f e e w w ",
"q < < 4 q r q 5 4 < 3 4 3 3 < & & # 4 = & & < < 3 5 5 1 5 < 6 < ; 5 1 $ % 7 q 1 7 1 1 1 5 = 7 1 1 1 1 5 5 7 q q 1 7 q 5 ",
"a q q t y a a t f c l 5 & 3 y y l b j < o u l f T T D h 6 + w x g x l p g b m x m m m h u 1 f x p p p p f h h h l N F C ",
"f y y a a s f s l Z Z s 3 q c M D ] B j 4 J H A M N H T m 6 f n h x x l h x x x B b z p w 1 f h f u u u f j j j f l M b ",
"s r r a a a s a y y a r 3 3 y f a j u a 4 l u f l f g b n 7 i g h h x x h g g h x f p p u 2 i u f u t u f j j f f j f t ",
"f r q r y a f a j a r r 8 q a j l j j y q t w g l k g p u ; w g x x n m x g h x z l x h u 3 u p f u t t u j j j j f p u ",
"f q 8 8 q y a r 8 r r 4 : 8 a a f f k < q 8 t i q t i i u 2 i f h x x x x g h x x g g p u 1 u u u t q q q w t t q q q t ",
"s q 5 5 4 8 q 9 3 r a r 5 r f f q t f : q q w w i w 6 5 7 1 u i h h h h g p p g h p u u u 7 p u f u t q q q q q e e t u ",
"f r 8 5 < 3 8 8 y 9 q 9 3 < 9 a t q q : q q 8 w q 6 9 q w < w u f p p u w q q q w u f p q = q t p u y q 4 < 4 5 t e e t ",
"r 8 8 4 : : 3 3 8 < 8 5 > > < 5 a r 4 = = 3 8 q a 5 4 q 9 > 4 f k q u t 5 5 q w t 5 q u q = = q q 5 3 3 : & & > q 4 5 < ",
"r 3 : : : = & X & = 5 : o # = 4 3 > * # * : : = # 3 8 : o @ : 4 < o = 3 < < < = < q q 5 4 8 q q 4 q r y y y 4 &     u f ",
"b c M K U K b a * y D N f f f u l l v N K A v a = l ` W N b j t 4 & 8 j b B N b l Z Z l l Z P B B F D D / O.] J u 4 H ' ",
"Z b b M M Z / / 4 f P B l b b v N N B D / Q B l 4 w g l l k s t q < q k l M b l c c l k l c b b B b c b b M J -.N ; b m ",
"B c c f a j Z P 3 8 l v l b v v g p t e u u u u t 5 < 5 w e u f f 8 a b b M b b b l l b M b M B M l l l j f x C z % z m ",
"j a a f a d a r 3 5 j B Z Z b b f f f f p u u p 5 7 7 q e i u e q < y c c b b M k l l l c b b b k l l f f k k p w $ x V ",
"c a r r r a f a 5 3 u j f l l b p p h x l f u e 5 7 7 6 7 w u p u 3 y l j j f j j l l j j j j j j k h p p h h f 7 ; h x ",
"j a d f a a a a : 5 j v j j a i f p p g g p i i 5 1 5 w e w u g u < q j f j k l l j j l k f j l f f k l f e u h 7 2 p z ",
"c d j f r y a r : 3 j j j a s u u p f h h h f p 2 5 7 7 7 7 7 q 5 4 q j j j l l l l k j j j j j j k l j h p q g 5 % p x ",
"c a f f r r a y > < f s s y u u f p p p p p p i 1 2 7 q q q q q q 4 q f f f j j j f f a a a a f f f h f h p 7 f 5 % p z ",
"d r r a r 5 8 8 : : u t t q t t u e e q q q q q ; 1 7 q q q q q q < < q t r r r y y t r r r t t q t u e u q < q 1 # 7 i ",
"r 8 8 r 8 , : 4 * * q 9 q 8 q q 6 5 5 5 4 5 5 5 % < 5 7 7 q q q 8 = & 4 8 8 5 5 q q q q q q q r q q w 7 7 < # < = + 1 7 "
};
