/* XPM */
static char *_c65cd3d28e549f5a1b2a6b03c42b69cBZsi4223GK7SJOkD[] = {
/* columns rows colors chars-per-pixel */
"60 60 239 2 ",
"   c None",
".  c #0B0B0D",
"X  c #070506",
"o  c #0D0E12",
"O  c #0E1115",
"+  c #0B1318",
"@  c #111215",
"#  c #1B1316",
"$  c #14151A",
"%  c #17181C",
"&  c #191A1E",
"*  c #1A1719",
"=  c #140C0D",
"-  c #29130F",
";  c #39140A",
":  c #251617",
">  c #31130F",
",  c #1E2118",
"<  c #2F231B",
"1  c #33201B",
"2  c #1C1D22",
"3  c #1A1E27",
"4  c #321F22",
"5  c #1F2024",
"6  c #1D212B",
"7  c #212226",
"8  c #24252A",
"9  c #26282C",
"0  c #292A2E",
"q  c #292927",
"w  c #332726",
"e  c #2B2D30",
"r  c #2D2E32",
"t  c #2C2D32",
"y  c #262730",
"u  c #382F32",
"i  c #2E3134",
"p  c #2E383A",
"a  c #313236",
"s  c #313234",
"d  c #35363A",
"f  c #333539",
"g  c #37383D",
"h  c #343939",
"j  c #393A3E",
"k  c #383C3D",
"l  c #3B3839",
"z  c #46150B",
"x  c #54190C",
"c  c #5B1809",
"v  c #4B1C16",
"b  c #541C14",
"n  c #5A1B14",
"m  c #551719",
"M  c #620F04",
"N  c #641909",
"B  c #631C16",
"V  c #7F1F19",
"C  c #4B261A",
"Z  c #562416",
"A  c #5A391F",
"S  c #5B2D0D",
"D  c #66250B",
"F  c #7C2C0E",
"G  c #772509",
"H  c #7A330B",
"J  c #662718",
"K  c #7C2D13",
"L  c #782917",
"P  c #67341C",
"I  c #773215",
"U  c #462B26",
"Y  c #5A382B",
"T  c #5D3C33",
"R  c #5B3D3B",
"E  c #533A33",
"W  c #49352D",
"Q  c #623A2B",
"!  c #6B3C2C",
"~  c #673626",
"^  c #753824",
"/  c #633C35",
"(  c #653933",
")  c #73362C",
"_  c #79551C",
"`  c #774B16",
"'  c #584339",
"]  c #764627",
"[  c #6A4334",
"{  c #63423A",
"}  c #674639",
"|  c #774935",
" . c #755528",
".. c #3B3A41",
"X. c #333641",
"o. c #584948",
"O. c #72574C",
"+. c #605F63",
"@. c #78695A",
"#. c #8A2C0E",
"$. c #84290C",
"%. c #953B0B",
"&. c #852915",
"*. c #942E15",
"=. c #883417",
"-. c #94331A",
";. c #99351A",
":. c #8F300D",
">. c #A4391B",
",. c #B13A1E",
"<. c #8B3A26",
"1. c #993624",
"2. c #8B2E20",
"3. c #A73D24",
"4. c #B43C24",
"5. c #994309",
"6. c #8A4618",
"7. c #994615",
"8. c #934B0D",
"9. c #A84516",
"0. c #B94C1B",
"q. c #AA591A",
"w. c #B75919",
"e. c #A85309",
"r. c #B86619",
"t. c #984728",
"y. c #844C37",
"u. c #88583A",
"i. c #965738",
"p. c #8F4B2A",
"a. c #A5452A",
"s. c #B4432A",
"d. c #BE4529",
"f. c #B84727",
"g. c #A95A23",
"h. c #BD5426",
"j. c #B84732",
"k. c #B7593B",
"l. c #B76924",
"z. c #C34919",
"x. c #C65814",
"c. c #D35E1B",
"v. c #CE5F0D",
"b. c #D96D17",
"n. c #CA7C1A",
"m. c #DA731D",
"M. c #CE6815",
"N. c #E37B15",
"B. c #C3442A",
"V. c #C44727",
"C. c #C75520",
"Z. c #CD512A",
"A. c #C96028",
"S. c #D86723",
"D. c #CA7424",
"F. c #E57C24",
"G. c #855C45",
"H. c #8A5944",
"J. c #895647",
"K. c #975D47",
"L. c #8E634D",
"P. c #99664A",
"I. c #896452",
"U. c #9B6C57",
"Y. c #9A7358",
"T. c #A66A4A",
"R. c #AC734D",
"E. c #B7774E",
"W. c #A76C55",
"Q. c #A97657",
"!. c #B47A54",
"~. c #BC7C54",
"^. c #B37B5A",
"/. c #BB7A58",
"(. c #AA7C66",
"). c #B17D61",
"_. c #CD7749",
"`. c #C27B58",
"'. c #D77C54",
"]. c #DD8018",
"[. c #E6861A",
"{. c #F28D1B",
"}. c #EC961C",
"|. c #F39C14",
" X c #FB9A1B",
".X c #F69919",
"XX c #F4970D",
"oX c #F6A10E",
"OX c #F5A215",
"+X c #DB892C",
"@X c #EA8725",
"#X c #F18A26",
"$X c #EB9728",
"%X c #F79924",
"&X c #F59E30",
"*X c #E98D33",
"=X c #F6A026",
"-X c #B98357",
";X c #A98267",
":X c #B98663",
">X c #B98E73",
",X c #A28270",
"<X c #C48557",
"1X c #C0814E",
"2X c #C58A64",
"3X c #C8926B",
"4X c #D89769",
"5X c #C89876",
"6X c #D69975",
"7X c #D6896C",
"8X c #E39B78",
"9X c #DDA374",
"0X c #D8A67C",
"qX c #E7AA7A",
"wX c #EEAD77",
"eX c #9FA1A3",
"rX c #A6A3A7",
"tX c #A89081",
"yX c #D9A785",
"uX c #DCB796",
"iX c #E7AD83",
"pX c #EBB283",
"aX c #EAB68B",
"sX c #F2BA8A",
"dX c #E5B895",
"fX c #F3BB93",
"gX c #F0A887",
"hX c #F4C597",
"jX c #EEC096",
"kX c #E9C2A5",
"lX c #FDCDA3",
"zX c #F5CBA7",
"xX c #FED4AA",
"cX c #FDD4A9",
"vX c #EED2BB",
"bX c #F9D4B5",
"nX c #F3CEB5",
"mX c #FFEEDE",
"MX c #EBE9E8",
/* pixels */
"                                                                                                                        ",
"                                                                                                                        ",
"                                                          O O @ @ @ @ @ @ @ @ @ @ @ @                                   ",
"                                                        $ 8 8 8 8 8 8 8 8 8 5 $ @ . .                                   ",
"                                                    % % 7 d d d g g d g f f 0 @ @                                       ",
"                                  @ @ @ @       @ $ 0 j a 9 9 8 0 9 0 9 2 $ $                                           ",
"                                    . @ @ @ . % r i r r 0 9 8 2 $ % % % $ @ @       @ O @ @ @ @ @ @ @ @ @               ",
"                                      @ @ @ O 2 d ..r 8 7 5 2 7 8 2 @ @ @ @ @ .   % 2 2 8 5 7 7 7 7 7 2 % $             ",
"                                      % $ % $ 2 f j e 8 7 % $ e ..r % $ @ @ $ @ $ 8 0 r g g j j j j d e 9 2 $ $         ",
"                                    % a d f d f 0 0 2 @ % d d r 0 9 9 8 % @ % 7 8 a g a 0 0 d j a 9 0 d j r 8 7 @ @     ",
"                                8 r r r r 0 8 7 2 % 8 e r j j r 8 8 % % 2 2 8 a a 8 5 9 f f r r e 8 9 r i 9 %           ",
"                            @ @ 9 ..g 9 8 2 @ @ @ @ 0 ..j j j r 8 7 @ @ 8 r r r r 2 $ 7 d f 8 7 2 5 7 7 7               ",
"                            @ @ 8 g d 9 8 2 @ @ @ @ 9 j g j g e 8 7 $ $ r j r @ $ 5 0 8 8 8 % @ $ @ @                   ",
"              o @ @ @ @ @ @ @ @ $ % % $ % $ @ @ @ @ 7 e 0 0 0 2 $ % 8 8 2 % % O $ 5 0 2 $ $ $ @ o                       ",
"      @ @ o $ 2 2 2 2 8 0 e e 9 8 2 2 $ O @ @ $ 2 2 2 % 5 i i 0 9 8 2 % $ o % 8 0 r a 0 2 2 $ @ o o                     ",
"      @ @ @ % 8 7 7 5 0 g f g f f e 9 % $ $ @ $ 7 8 2 % 7 j j j ..r $ @ % 2 8 j j j j d e 0 2 $ $ @ @ .                 ",
"              $ $ $ $ 2 9 8 9 8 a j d 0 8 2 @ @ $ $ 0 j g j j j j r $ $ r g g g j j j j g g 0 8 2 @ @ @ @               ",
"    @ @ @ o 7 a a i i e 9 8 % $ 7 r r f d 8 O % r r d ....j l s e 8 + @ * % 5 0 t d ..d 0 0 2 % 2 7 7 @                 ",
"      o @ @ % 0 0 i a i i e & * & 3 3 y 9 & o 2 h g j ..X.0 q q 9 6 + # W ' E U u u r s s e $ o 2 8                     ",
"        O @ @ @ @ 5 8 0 h f 0 q , O $ * : - : 7 p p h h a $ @ 3 8 2 $ - H.2XT.| } U w u d f                             ",
"                    $ 2 9 0 f h q @ : E / Q / E w 9 i k s # # # # & 7 1 H.`.`.E.Q.| Y W                                 ",
"                        % % 5 7 w U Q ).2X!.P.W.(.,X} < U O.J.Q U o.eXrXO.W I.dXaX!.P.I.                                ",
"                            @ @ w { | 9XsX4XE.<XwXpXQ.| G.^.`.T.L.tXMXMX+.= O.bXlX9X2X>X                                ",
"                            @ @ w E | 5X0X<XR.~.9XqXqXpXqX<X1X9XaXkXmXMX@.< @.zXhXpXqX5X(.,X                            ",
"                          @ @ @ * # 1 [ | | | y.!.-X4XwXwXhXhXhXlXlXbXbXkXuXdXaXpX2X-X:X                                ",
"                                @ O $ 4 w w 1 C O.J.K.P.R.sXfXlXcXcXcXxXxXxXjX3X2X:X                                    ",
"                                    + O + $ - ; Q ! | u.P.6X8XiXdXdXaXaXaXsXyX^.(.                                      ",
"                                          > x N L I !.pX9X<X`././.`.~.~.~.^.;X                                          ",
"                                      v x D G K L I 2XxXlXjXjXqX9X4X~.^.(.                                              ",
"                                      b c 6.l.r.r.r._.7X8XlXxXhXhXsXyXyXU.E                                             ",
"                                      m c q.%X.X{.#Xx.>.k.gXfXaXaXaXaXyXL.~ /                                           ",
"                                      n N q.&X@Xx.0.>.&.1.j.h.h.h.f.-.=.&.L ^                                           ",
"                                      n c H 7.7.:.:.;.a.3.*.%.M.@XS.9.>.,.,.;.L ~                                       ",
"                                      J Z y.T.T.W.R.a.-.-.$.$.r.F.m.b.b.b.S.h.F P                                       ",
"                                      { ~ Q.qXqXhXzXP.n B L $.9.x.M.%X X X%Xm.H P                                       ",
"                                      { Q L.<X`.`.2XJ.T ( ) I D.$X}.%X%X}.=Xn.H ~                                       ",
"                                      T Q K.!.~.4X6XP.Q Y ; ; S ` ` _ _ _ _ ] ! (                                       ",
"                                          L.!.<XaXsX^.y.[ ; ; Z Z A  . .Y C Y J.y.[                                     ",
"                                            Q.:XhXlX0X:XW.I K a.f.A.*X$X8.D y.!.Q.| / R                                 ",
"                                            } u.0XpXfXzXyX] P t.0.c.%X%Xe.G t.~.!.| Q Y                                 ",
"                                                Y.T.2XyX6X>X>Xi.=.q.$X%Xw.>.3.t.i.i.L.G.                                ",
"                                                E Q U.3X0XxXbXY.P p.+X@XC.V.4.F I K.W.L./ R                             ",
"                                                ' Q >XzXzXzXzXY.P <.h.z.d.B.,.$.I ^ ! / { o.                            ",
"                                                U Z | J.J.G.G.i.7.w.@X@Xc.V.4.$.K D Z C                                 ",
"                                            v m m c 6.l.g.6.6.h.m.N..X%Xw.*.1.;.>.*.2.L x                               ",
"                                          v n B B N r.#XF.x.x.[. X.XoX}.8.M V j.B.B.j.1.N b                             ",
"                                      x c D K F K F 9.x.v.#X.X|.|..X|.$X7.M &.j.B.B.B.3.&.L B n                         ",
"                                  z D r.D.9.G %.n.n.].[.[..X|.OX X[.e.7.=.G K *.;.4.d.3.&.&.1.1.^ z b                   ",
"                                P 6.e.D.+Xq.G 5.}.OXoXoXoXoX|.n.r.q.G G -.1.1.;.>.>.3.-.K $.f.B.-.N b                   ",
"                            v x g.&X#Xx.0.>.#.5.@X{.{.{.{.[.+X6.x x n N 1.j.s.f.s.-.:.#.#.*.4.j.2.x v                   ",
"                            b c q.%X{.x.z.f.f.f.C.z.C.C.0.%.=.    m m c F =.=.#.*.3.d.d.s.s.*.=.                        ",
"                            J G w.=X|.[.F.c.z.B.d.d.>.-.=.          b c G K K K &.s.V.V.B.s.$.B                         ",
"                            ~ I g.*X[.[.@Xb.c.c.S.A.9.F ~           C Z J L L L L 1.3.>.a.t.J v                         ",
"                            ! ^ t.f.z.z.z.m.#X}.}.*Xq.J Q                 b n n n J B J ! /     T } [ / { '             ",
"                        R [ P.R.k.f.B.j.j.9.%.5.8.6.]                         ( ) K.W.J./ T / ~ y.Q.U.| T '             ",
"                        / | 5XiX4X'._.t.<.^ z b Z Z                           / ) T./.R.i.u.Q.Q.T.i.G.}                 ",
"                        R | kXxXhXaX0X| ~ Y = = X                             / [ Q.<X<X<X<X3X5XQ.Q Y                   ",
"                            vXbXzXxXdX| ! ! / R                               T [ 5XiXqXqX9Xu.[                         ",
"                                nXbXzX5X3X^.U.I.{ '                                                                     ",
"                                  vXnXdXdX5X;XY.} '                                                                     "
};
