/* XPM */
static char *result[] = {
/* columns rows colors chars-per-pixel */
"60 60 241 2 ",
"   c #060608",
".  c #1A0A0A",
"X  c #14110D",
"o  c #0E0E13",
"O  c #0F1115",
"+  c #0F131A",
"@  c #111215",
"#  c #14151A",
"$  c #16191D",
"%  c #191A1E",
"&  c #1C1313",
"*  c #100F12",
"=  c #260906",
"-  c #23130C",
";  c #38130A",
":  c #251918",
">  c #361914",
",  c #350F0B",
"<  c #3A231A",
"1  c #2E201C",
"2  c #1C1D22",
"3  c #151821",
"4  c #211F21",
"5  c #1F2125",
"6  c #1D2028",
"7  c #222326",
"8  c #24262A",
"9  c #26292C",
"0  c #292A2E",
"q  c #2C2626",
"w  c #3B2C29",
"e  c #342926",
"r  c #2C2D32",
"t  c #2C2C38",
"y  c #342E32",
"u  c #2E3135",
"i  c #2B323A",
"p  c #323336",
"a  c #35353A",
"s  c #36393C",
"d  c #393A3E",
"f  c #3B3839",
"g  c #531A0D",
"h  c #5E1309",
"j  c #4C1E1C",
"k  c #491A16",
"l  c #5D1514",
"z  c #541B13",
"x  c #5C1B13",
"c  c #561A1B",
"v  c #581917",
"b  c #4C1108",
"n  c #63180C",
"m  c #641813",
"M  c #731E13",
"N  c #711F0C",
"B  c #49261B",
"V  c #582719",
"C  c #542009",
"Z  c #78290C",
"A  c #7B320E",
"S  c #6C2816",
"D  c #732514",
"F  c #7C2D13",
"G  c #782816",
"H  c #693419",
"J  c #793313",
"K  c #763318",
"L  c #69210C",
"P  c #452C25",
"I  c #5C2E29",
"U  c #4D312A",
"Y  c #5D3B2B",
"T  c #55372A",
"R  c #483734",
"E  c #5D3E34",
"W  c #573C36",
"Q  c #643B2B",
"!  c #6A3B2C",
"~  c #673827",
"^  c #743726",
"/  c #623E34",
"(  c #643D36",
")  c #6D3028",
"_  c #6C4612",
"`  c #7B5316",
"'  c #5B423C",
"]  c #5A4237",
"[  c #67422E",
"{  c #74462A",
"}  c #634134",
"|  c #6B4434",
" . c #67483C",
".. c #754835",
"X. c #7C533D",
"o. c #6A533C",
"O. c #383942",
"+. c #633F43",
"@. c #4F4E50",
"#. c #6C5146",
"$. c #795543",
"%. c #6F534A",
"&. c #777375",
"*. c #832C0E",
"=. c #87360A",
"-. c #943B0B",
";. c #842B12",
":. c #8C2C1B",
">. c #862A17",
",. c #8D3213",
"<. c #863219",
"1. c #953617",
"2. c #942C0A",
"3. c #A53A1A",
"4. c #AA3D10",
"5. c #852C24",
"6. c #9A3823",
"7. c #95362A",
"8. c #A53C22",
"9. c #A63A25",
"0. c #B53D28",
"q. c #984817",
"w. c #865C1D",
"e. c #934A12",
"r. c #A84417",
"t. c #B8481B",
"y. c #AB5716",
"u. c #B95618",
"i. c #B44B0A",
"p. c #894933",
"a. c #89573B",
"s. c #924F30",
"d. c #AD422B",
"f. c #AA4424",
"g. c #B3432C",
"h. c #B84527",
"j. c #A75E3E",
"k. c #AF4B2E",
"l. c #A66522",
"z. c #BB6414",
"x. c #C65417",
"c. c #C95B19",
"v. c #C45212",
"b. c #CB651B",
"n. c #D46919",
"m. c #C77310",
"M. c #DC7818",
"N. c #D26D0B",
"B. c #E3791B",
"V. c #E06F1F",
"C. c #C44628",
"Z. c #C85A26",
"A. c #C64F37",
"S. c #D66D2A",
"D. c #D77826",
"F. c #CF6527",
"G. c #E67A28",
"H. c #E27C31",
"J. c #835D43",
"K. c #8C5A44",
"L. c #945C41",
"P. c #8A624B",
"I. c #9B6344",
"U. c #95634C",
"Y. c #996749",
"T. c #9A6C53",
"R. c #957356",
"E. c #A36949",
"W. c #AB734D",
"Q. c #B8784B",
"!. c #A16D53",
"~. c #A97656",
"^. c #B47B55",
"/. c #B87957",
"(. c #B06C47",
"). c #977461",
"_. c #A67C63",
"`. c #AA7C68",
"'. c #C57D56",
"]. c #CE6E4D",
"[. c #F79D0D",
"{. c #EA8819",
"}. c #ED951B",
"|. c #FA9B14",
" X c #F59B1A",
".X c #EE8A14",
"XX c #FAA10D",
"oX c #F6A116",
"OX c #EEA00F",
"+X c #D7872A",
"@X c #CF842E",
"#X c #EA8B2A",
"$X c #ED9A26",
"%X c #F69627",
"&X c #EB9231",
"*X c #F8A222",
"=X c #BB835C",
"-X c #B98356",
";X c #A98369",
":X c #B68667",
">X c #BA9278",
",X c #B98C6F",
"<X c #C3855C",
"1X c #D68D5E",
"2X c #C78A65",
"3X c #C69269",
"4X c #D6986B",
"5X c #C28E74",
"6X c #CA9878",
"7X c #D69C78",
"8X c #E29566",
"9X c #DAA16E",
"0X c #DAA579",
"qX c #EDAD75",
"wX c #E4AB7E",
"eX c #E6A978",
"rX c #EBB07E",
"tX c #E6AD6F",
"yX c #E18E59",
"uX c #B59A8A",
"iX c #CCA689",
"pX c #D8A989",
"aX c #DAB492",
"sX c #E8A683",
"dX c #E9B485",
"fX c #F4B98B",
"gX c #E5B895",
"hX c #F5BF9A",
"jX c #F0AA84",
"kX c #DEB9A2",
"lX c #F5C699",
"zX c #EFC290",
"xX c #EECAA8",
"cX c #F8CAA6",
"vX c #FDD2A4",
"bX c #F9D4AB",
"nX c #FFD7B5",
"mX c #BDC4C9",
"MX c #F6E4D2",
"NX c #E8EFF5",
"BX c None",
/* pixels */
"BXBXBXBXBXBXBXBXBXBXBXBXBXBXBXBXBXBXBXBXBXBXBXBXBXBXBXBXBXBXBXBXBXBXBXBXBXBXBXBXBXBXBXBXBXBXBXBXBXBXBXBXBXBXBXBXBXBXBXBX",
"BXBXBXBXBXBXBXBXBXBXBXBXBXBXBXBXBXBXBXBXBXBXBXBXBXBXBXBXBXBXBXBXBXBXBXBXBXBXBXBXBXBXBXBXBXBXBXBXBXBXBXBXBXBXBXBXBXBXBXBX",
"BXBXBXBXBXBXBXBXBXBXBXBXBXBXBXBXBXBXBXBXBXBXBXBXBXBXBXBXBX@ @ @ @ @ O @ @ @ @ @ @ @ O BXBXBXBXBXBXBXBXBXBXBXBXBXBXBXBXBX",
"BXBXBXBXBXBXBXBXBXBXBXBXBXBXBXBXBXBXBXBXBXBXBXBXBX@ @ o % 0 r r r 0 r u u 0 0 u : O @ @ @ BXBXBXBXBXBXBXBXBXBXBXBXBXBXBX",
"BXBXBXBXBXBXBXBXBXBXBXBXBXBXBXBXBXBXBXBXBXBXBXBXO + % 5 8 a a a a a s a p u u u 8 O O O @ BXBXBXBXBXBXBXBXBXBXBXBXBXBXBX",
"BXBXBXBXBXBXBXBXBXBXBXBXBXBXBXBXBXBXBXBXBXBX@ @ # # u d p 8 9 8 9 6 6 6 # # # @ O BXBXBXBXBXBXBXBXBXBXBXBXBXBXBXBXBXBXBX",
"BXBXBXBXBXBXBXBXBXBXBXBX8 q 2 O @ @ @ BXBXBX@ % r u u 9 0 9 8 9 9 5 $ $ + O + + O O BXO o O BXBXBXBXBXBXBXBXBXBXBXBXBXBX",
"BXBXBXBXBXBXBXBXBXBXBXBX7 5 # o O @ O BXBX2 8 8 p u 0 9 5 5 9 5 5 # O + O + # 2 5 5 8 8 7 8 8 8 2 BXBXBXBXBXBXBXBXBXBXBX",
"BXBXBXBXBXBXBXBXBXBXBXBXBXBXBXBXo @ # # # 0 O.s 9 9 9 8 5 9 8 # $ # O # # # 8 0 p d d d d d O.p 0 8 $ # BXBXBXBXBXBXBXBX",
"BXBXBXBXBXBXBXBXBXBXBXBXBXBXo @ $ 7 8 7 8 y O.a 9 9 % @ # # % u f 7 O 3 7 8 y s a d O.d d d O.O.d d a a 5 O BXBXBXBXBXBX",
"BXBXBXBXBXBXBXBXBXBXBXBXBX@ % 2 5 9 9 2 % 7 9 7 2 % 8 0 9 0 0 r t 8 4 8 y p a O.a t r p u t t p r u i u 0 9 8 7 8 BXBXBX",
"BXBXBXBXBXBXBXBXBXBXBXBX@ @ 2 9 9 9 0 # @ @ * @ % % u s a a a 9 6 8 9 0 a p a a p 8 8 7 8 7 7 7 8 8 8 8 p d p 0 7 BXBXBX",
"BXBXBX# BXBXBXBXBXBXBXBX@ @ 5 8 0 d a 2 @ @ + 2 a a t 9 9 9 7 $ # 2 9 5 $ # 7 9 8 8 8 @ @ @ # % 8 8 BXBXBXBXBXBXBXBXBXBX",
"BXBX@ O 2 r f BXBXBXBXBX@ O 8 a p y 0 % @ @ * $ 0 y 9 8 5 2 2 2 8 2 $ # * @ 7 9 2 $ % @ O o BXBXBXBXBXBXBXBXBXBXBXBXBXBX",
"BXBX@ @ % p p 8 5 5 5 5 5 2 r d p 8 8 $ * $ % 2 r r 0 r 0 4 2 6 6 $ O 3 4 6 r r 7 % $ @ O BXBXBXBXBXBXBXBXBXBXBXBXBXBXBX",
"BXBXBXO @ 7 8 p a a a a d d O.d a 9 8 $ * 2 8 t a s s f f f a 3 @ @ @ 2 O.O.O.f p 9 8 $ # BXBXBXBXBXBXBXBXBXBXBXBXBXBXBX",
"BXBXBXBXBX+ # $ $ 5 0 0 9 9 a d y $ # @ @ 8 f a d d d d s s s 3 + q p p f d d f d a p 9 7 # O BXBXBXBXBXBXBXBXBXBXBXBXBX",
"BXBXBXBXBXX @ % 2 5 i u i u i i 9 + # 6 5 u d d d d p u i i i 3 + 6 8 0 y p a d u 9 7 2 2 2 2 3 O BXBXBXBXBXBXBXBXBXBXBX",
"BXBXBXBXBX# $ 5 8 9 p a a a r 5 5 @ # u d d s f p p w e e q q % : : > 1 e 0 p s 9 $ # + @ 5 7 2 + @ BXBXBXBXBXBXBXBXBXBX",
"BXBXBX@ # 7 9 $ + # # # 8 8 : # @ @ # u d d d p % - P } Y Q E ] Y L.~.U.Q W w q u s u $ o @ BXO O @ BXBXBXBXBXBXBXBXBXBX",
"BXBX# @ % 5 7 $ @ @ O # 3 2 2 2 3 # 3 i O.r 4 4 y w R ] T < 1 e B K.<X/.I.P.Y R R a t $ BXBXBXBXBXBXBXBXBXBXBXBXBXBXBXBX",
"BXBXBXX BXBXBXBX@ @ + O O @ 8 y 0 & # R #.W U [ J.a.a.P.] X @ @.@.$.U.!.3X2XL...BXBXBXBXBXBXBXBXBXBXBXBXBXBXBXBXBXBXBXBX",
"BXBXBXBXBXBXBXBXBXBX@ O O @ w  .U - > P.~.3X0XwXtXtXtXdXR.. y mXNX&.&  .xXlX2X~.BXBXBXBXBXBXBXBXBXBXBXBXBXBXBXBXBXBXBXBX",
"BXBXBXBXBXBXBXBXBXBXBX  O X w } $.:X:X-XQ.1XrXrXqXqXqXqX4X-XuXMXNX&.. #.bXvXdX0X5X_.;XBXBXBXBXBXBXBXBXBXBXBXBXBXBXBXBXBX",
"BXBXBXBXBXBXBXBXBXBXBX  @ @ q P | :X:XT.L.'.7X8XqXrXdXzXfXzXlXnXMXuX$.~.lXzX4X4X3X_.BXBXBXBXBXBXBXBXBXBXBXBXBXBXBXBXBXBX",
"BXBXBXBXBXBXBXBXBXBXBX@ @ @ @ X : R Y Y I a.~./.9X0XzXvXvXvXvXbXbXbXbXvXdX0X2X^.BXBXBXBXBXBXBXBXBXBXBXBXBXBXBXBXBXBXBXBX",
"BXBXBXBXBXBXBXBXBXBXBXBXBXBXO @ & : : & - U ......{ 3XdXzXvXvXvXbXbXbXhX:X:XBXBXBXBXBXBXBXBXBXBXBXBXBXBXBXBXBXBXBXBXBXBX",
"BXBXBXBXBXBXBXBXBXBXBXBXBXBXBX  . > > , > V ^ { ~.Q.<X4X6X0XpX0X9X9XpX6XBXBXBXBXBXBXBXBXBXBXBXBXBXBXBXBXBXBXBXBXBXBXBXBX",
"BXBXBXBXBXBXBXBXBXBXBXBXBXBXBX= k K A L N >.>.f.jXfX7X'.<X-X=XQ.Q.^._._.BXBXBXBXBXBXBXBXBXBXBXBXBXBXBXBXBXBXBXBXBXBXBXBX",
"BXBXBXBXBXBXBXBXBXBXBXBXBXBXk k A &X$Xc.C.0.0.j.hXcXcXcXzXtX0X<X^.BXBXBXBXBXBXBXBXBXBXBXBXBXBXBXBXBXBXBXBXBXBXBXBXBXBXBX",
"BXBXBXBXBXBXBXBXBXBXBXBXBXBXB v =.%X Xc.h.C.h.A.].].jXnXvXlXlXgXgX`.BXBXBXBXBXBXBXBXBXBXBXBXBXBXBXBXBXBXBXBXBXBXBXBXBXBX",
"BXBXBXBXBXBXBXBXBXBXBXBXBXBXB L -.H.G.t.8.9.9.0.Z.F.yXsXjXsXsX0XpXI.K ! BXBXBXBXBXBXBXBXBXBXBXBXBXBXBXBXBXBXBXBXBXBXBXBX",
"BXBXBXBXBXBXBXBXBXBXBXBXBXBX! ^ 1.u.k.1.=.D n *.#X%Xb.t.C.Z.h.,.*.*.J H BXBXBXBXBXBXBXBXBXBXBXBXBXBXBXBXBXBXBXBXBXBXBXBX",
"BXBXBXBXBXBXBXBXBXBXBXBX' [ W.4X8X8X8X'.(.p.l M h.b.B.}.{.{.G.t.f.,.;.G l j BXBXBXBXBXBXBXBXBXBXBXBXBXBXBXBXBXBXBXBXBXBX",
"BXBXBXBXBXBXBXBXBXBXBXBX} Q ,XlXfXdXwX(.L.^ c M 1.4.F.G..X[. XM.n.t.1.:.x B BXBXBXBXBXBXBXBXBXBXBXBXBXBXBXBXBXBXBXBXBXBX",
"BXBXBXBXBXBXBXBXBXBXBXBX( ! 5XbXlXsX7Xa.~ I x L 2.2.0.v.N.[.[. X%XM.c.r.h V k BXBXBXBXBXBXBXBXBXBXBXBXBXBXBXBXBXBXBXBXBX",
"BXBXBXBXBXBXBXBXBXBXBXBX( Q >XnXgX'./.p.) ! D 5.d.t.D.&X$XoX XoXoX$X$XD.*.) ~ / BXBXBXBXBXBXBXBXBXBXBXBXBXBXBXBXBXBXBXBX",
"BXBXBXBXBXBXBXBXBXBXBXBX' / >XnXaXK.K.( } P , k B g H _ _ ` ` w.w.w.w.w.s.j.^.:XP.T BXBXBXBXBXBXBXBXBXBXBXBXBXBXBXBXBXBX",
"BXBXBXBXBXBXBXBXBXBXBXBX/ ! >XnXiX| Y W W < = = b b b ; ; < < P P w w Y !.~.4XeX-Xa.P.BXBXBXBXBXBXBXBXBXBXBXBXBXBXBXBXBX",
"BXBXBXBXBXBXBXBXBXBXBXBX/ ( 5XnXiX| ( B . , H ^ 9.h.0.f.q.J A J K S g V | { E./.1XjX6X..Y } } BXBXBXBXBXBXBXBXBXBXBXBXBX",
"BXBXBXBXBXBXBXBXBXBXBXBXE ! !.3X5XpXiXo.B K d.d.h.t.V.#X{.M.M.M.M.r.L A ! ! !./.<X2X^.[ ~ ^.6X~.Q ] BXBXBXBXBXBXBXBXBXBX",
"BXBXBXBXBXBXBXBXBXBXBXBX' Q ~.7XsXbXxX$.H f.S.b.n.n.V.B.{.|.oX[.OXm.y.q.^ ! L.I.I.I.U.T.E.2XeX~.Q ' BXBXBXBXBXBXBXBXBXBX",
"BXBXBXBXBXBXBXBXBXBXBXBX' Y >XxXxXxXkXJ.H l.&X{.%X#Xb.i.N..X|.[.OXXX*X+X,.K K ! ~ Q X.7XsX-X~.K.] ' BXBXBXBXBXBXBXBXBXBX",
"BXBXBXBXBXBXBXBXBXBXBXBXBXBX#.#.$.$.$.I V Z e.-.-.-.S.}.{.v.c.#X X[.|.B.i.r.Z g B BXBX#.X..... .BXBXBXBXBXBXBXBXBXBXBXBX",
"BXBXBXBXBXBXBXBXBXBXBXBXBXBXBXBXBXBXBXc h >.8.1.3.1.u.z.i.-.r.F.V.B.|.[.M.S.=.L H BXBXBXBXBXBXBXBXBXBXBXBXBXBXBXBXBXBXBX",
"BXBXBXBXBXBXBXBXBXBXBXBXBXBXBXBXBXBXBXz n :.g.d.g.d.1.:.:.M ;.8.t.M. X[.|.&Xr.=.D BXBXBXBXBXBXBXBXBXBXBXBXBXBXBXBXBXBXBX",
"BXBXBXBXBXBXBXBXBXBXBXBXBXBXj c m m x x h M <.*.*.*.3.h.7.n n K =.m. X[.XX%Xx.t.:.z j BXBXBXBXBXBXBXBXBXBXBXBXBXBXBXBXBX",
"BXBXBXBXBXBXBXBXBXBXBXBXBXl 5.7.:.D D S D D A F ;.;.1.1.;.h m G Z m. X|.|.%Xc.h.:.l j BXBXBXBXBXBXBXBXBXBXBXBXBXBXBXBXBX",
"BXBXBXBXBXBXBXBXBXBXBXBXc m 5.d.6.1.,.>.;.*.F *.7.:.F M A e.-.;.Z u.G.G.{.B.n.n.q.c j BXBXBXBXBXBXBXBXBXBXBXBXBXBXBXBXBX",
"BXBXBXBXBXBXBXBXBXBXBXBXc m D >.-.h.k.,.>.;.;.,.g.k.G h e.&X#X-.*.r.x.v.v.v.{.%Xy.z j BXBXBXBXBXBXBXBXBXBXBXBXBXBXBXBXBX",
"BXBXBXBXBXBXBXBX+.( ] Y ~ ) ) >.*.2.,.9.0.C.0.3.,.:.M h q.%X&Xx.4.n.{..X.XB.n.c.1.z j BXBXBXBXBXBXBXBXBXBXBXBXBXBXBXBXBX",
"BXBXBXBXBXBXBXBX( ..J.a.K.a.a.s.s.Z ;.0.C.C.C.h.Z D n h -.H.S.x.v.V.%X[.|.%Xt.,.S k BXBXBXBXBXBXBXBXBXBXBXBXBXBXBXBXBXBX",
"BXBXBXBXBXBXBXBXQ a.-X=X=X=X^.Q.j.,.,.9.0.0.0.7.n g C z F 0.r.h.t.S.#X{.{.+XA C BXBXBXBXBXBXBXBXBXBXBXBXBXBXBXBXBXBXBXBX",
"BXBXBXBXBXBXBXBXY I.0XeXwXsXE.{ p.g.g.1.5.>.n S BXBXBXBXc m M >.<.<.=.=.Z V BXBXBXBXBXBXBXBXBXBXBXBXBXBXBXBXBXBXBXBXBXBX",
"BXBXBXBXBXBXBXBXBX~.dX0XW.T.} < S 5.:.M S x z BXBXBXBXBXBXBXx ) ^ p.j.a.) T BXBXBXBXBXBXBXBXBXBXBXBXBXBXBXBXBXBXBXBXBXBX",
"BXBXBXBXBXBXBXBXBXBXgX0X..Y .   . k k c j BXBXBXBXBXBXBXBXBXBX/ Q L./.E.( } BXBXBXBXBXBXBXBXBXBXBXBXBXBXBXBXBXBXBXBXBXBX",
"BXBXBXBXBXBXBXBXBXBXgX7Xp.[ 1 BXBXBXBXBXBXBXBXBXBXBXBXBXBXBXBX/ Q I.=XE.{ [ [ } } ] BXBXBXBXBXBXBXBXBXBXBXBXBXBXBXBXBXBX",
"BXBXBXBXBXBXBXBXBXBX:X2X5X>XP.T BXBXBXBXBXBXBXBXBXBXBXBXBXBXBX .Q ~.0X4X3X,XiXpX,XT.U.} BXBXBXBXBXBXBXBXBXBXBXBXBXBXBXBX",
"BXBXBXBXBXBXBXBXBXBX_.;XpXkX).W BXBXBXBXBXBXBXBXBXBXBXBXBXBXBX@.BX;XgXaXaXgXbXMXaX;X). .BXBXBXBXBXBXBXBXBXBXBXBXBXBXBXBX",
"BXBXBXBXBXBXBXBXBXBXBXBXBXBXBXBXBXBXBXBXBXBXBXBXBXBXBXBXBXBXBXBXBXBXBXBXBXBXBXBXBXBXBXBXBXBXBXBXBXBXBXBXBXBXBXBXBXBXBXBX"
};
