/* XPM */
static char *_bc869192e074e3ce96b0820d32671eaVgDfuoj7GUCyBdRB[] = {
/* columns rows colors chars-per-pixel */
"60 60 235 2 ",
"   c None",
".  c #090A0E",
"X  c #06070A",
"o  c #18120E",
"O  c #0D0E13",
"+  c #0E1115",
"@  c #111216",
"#  c #1B1514",
"$  c #131519",
"%  c #17181D",
"&  c #191A1E",
"*  c #19181A",
"=  c #0E110E",
"-  c #281B18",
";  c #371815",
":  c #28130F",
">  c #35271A",
",  c #2A241E",
"<  c #1C1D22",
"1  c #191C28",
"2  c #1E2126",
"3  c #1E2229",
"4  c #212226",
"5  c #24252A",
"6  c #27282C",
"7  c #292A2E",
"8  c #2D2A26",
"9  c #382B27",
"0  c #2D2E32",
"q  c #2C2E32",
"w  c #332B31",
"e  c #2E3135",
"r  c #2F3233",
"t  c #2E333B",
"y  c #313236",
"u  c #343335",
"i  c #323438",
"p  c #35363A",
"a  c #34353A",
"s  c #37393C",
"d  c #393A3E",
"f  c #3C393D",
"g  c #38373A",
"h  c #47160A",
"j  c #5B180A",
"k  c #471D16",
"l  c #541A14",
"z  c #5B1B13",
"x  c #531C19",
"c  c #581515",
"v  c #6B1B0E",
"b  c #641709",
"n  c #661B13",
"m  c #741D0E",
"M  c #48291D",
"N  c #5A251A",
"B  c #53301F",
"V  c #5D240F",
"C  c #69220E",
"Z  c #752B0B",
"A  c #7A290C",
"S  c #692417",
"D  c #7C2C14",
"F  c #772817",
"G  c #66341B",
"H  c #72311C",
"J  c #793316",
"K  c #452D29",
"L  c #5A2922",
"P  c #483229",
"I  c #5C382A",
"U  c #583D34",
"Y  c #403536",
"T  c #64342C",
"R  c #643B2D",
"E  c #6A3C2C",
"W  c #673725",
"Q  c #743C2C",
"!  c #793625",
"~  c #633B33",
"^  c #6A3A35",
"/  c #763F31",
"(  c #692F22",
")  c #774819",
"_  c #5C4136",
"`  c #6A442A",
"'  c #784725",
"]  c #785724",
"[  c #654437",
"{  c #794835",
"}  c #795238",
"|  c #383A41",
" . c #785648",
".. c #726766",
"X. c #85280E",
"o. c #8B320F",
"O. c #8C2D13",
"+. c #852B1A",
"@. c #862A16",
"#. c #942E15",
"$. c #8B3619",
"%. c #94351C",
"&. c #973618",
"*. c #943E04",
"=. c #A33B1B",
"-. c #A9381C",
";. c #8A3824",
":. c #993523",
">. c #8F2E20",
",. c #AB3B23",
"<. c #A53A26",
"1. c #B63E27",
"2. c #97470B",
"3. c #964418",
"4. c #924B16",
"5. c #B6590B",
"6. c #A54918",
"7. c #B44619",
"8. c #BE5419",
"9. c #AA5211",
"0. c #BA6D1A",
"q. c #AC641D",
"w. c #8A482B",
"e. c #98452C",
"r. c #844B35",
"t. c #865639",
"y. c #925639",
"u. c #945230",
"i. c #A84729",
"p. c #BB4325",
"a. c #BA4629",
"s. c #A94833",
"d. c #B64331",
"f. c #B35929",
"g. c #B46526",
"h. c #AD6932",
"j. c #C44918",
"k. c #C85513",
"l. c #C5590D",
"z. c #D76818",
"x. c #C87617",
"c. c #DC771B",
"v. c #C56716",
"b. c #E37A1A",
"n. c #E06E1F",
"m. c #C34424",
"M. c #C24529",
"N. c #C74822",
"B. c #C65625",
"V. c #D15D23",
"C. c #C14832",
"Z. c #C25932",
"A. c #CE6724",
"S. c #D86924",
"D. c #C4742B",
"F. c #E37B27",
"G. c #865946",
"H. c #925C4C",
"J. c #A45F45",
"K. c #8C624C",
"L. c #986348",
"P. c #987055",
"I. c #B46949",
"U. c #A56D56",
"Y. c #AA775B",
"T. c #B57A58",
"R. c #AE724B",
"E. c #9C7C67",
"W. c #A77965",
"Q. c #B57A63",
"!. c #C67D57",
"~. c #C4734A",
"^. c #D78118",
"/. c #F4970E",
"(. c #E68319",
"). c #F38E1C",
"_. c #EE9618",
"`. c #FC9C17",
"'. c #F8A20A",
"]. c #FAA31C",
"[. c #D78A32",
"{. c #E98625",
"}. c #F28B24",
"|. c #EC932A",
" X c #F89C22",
".X c #EC8932",
"XX c #F7A126",
"oX c #BD835B",
"OX c #B4825C",
"+X c #B68457",
"@X c #B78966",
"#X c #BB977B",
"$X c #B1846C",
"%X c #C3875B",
"&X c #CB905F",
"*X c #C88C68",
"=X c #CC946C",
"-X c #DA9A6D",
";X c #CC9E77",
":X c #D69D74",
">X c #C08E71",
",X c #DAA16D",
"<X c #DDA37B",
"1X c #D8A578",
"2X c #E4A979",
"3X c #ECB17D",
"4X c #EBAA76",
"5X c #E4996F",
"6X c #A5A0A3",
"7X c #98959D",
"8X c #C99F80",
"9X c #C5A78D",
"0X c #D7A888",
"qX c #DCB293",
"wX c #D6B298",
"eX c #EBB689",
"rX c #F4BA89",
"tX c #E8BB96",
"yX c #F4BC9A",
"uX c #F3AD85",
"iX c #F5C59B",
"pX c #F7CA9C",
"aX c #ECC18B",
"sX c #EDC4A2",
"dX c #E6C5A5",
"fX c #FBCCA4",
"gX c #FDD4AC",
"hX c #FFD2A4",
"jX c #FDD8B4",
"kX c #FFE0B5",
"lX c #EDD6C6",
"zX c #F6D8C2",
"xX c #F9E3CA",
"cX c #F6F9F6",
"vX c #D7C8C5",
/* pixels */
"                                                                                                                        ",
"                                                                              @                                         ",
"                                                                            + @ @                                       ",
"                                                                        < & $ @ @                                       ",
"                                                        $ $ $ $ @ $ @ 4 s s < @ @                                       ",
"                                                    @ $ q y 0 y q e 0 p | d < @ @                                       ",
"                                  @ @           @ < 5 5 y y y i y y y 0 6 6 & @ @                                       ",
"                                @ + @ $ +       @ 5 d p 6 5 5 4 4 5 5 < @ @ @ @ +                                       ",
"                                  . $ @ @       $ 2 6 6 5 5 < $ $ $ $ $ $ @ @ @ @ @ $ $ $ $ @ $ $ $ $ @ $               ",
"                                    @ @ @     e y 6 5 5 & $ 4 y q & @ @ $ @ @ @ & 4 4 q y q q q q y 6 4 4 % @           ",
"                                  $ 4 6 6 6 6 q y 6 < < 4 5 6 i y 4 < & @ $ & & 4 y y y y i d | p y y e 0 4 < & O       ",
"                              $ & < i p p i y 5 4 < % < p d y 5 5 4 5 < $ % 5 6 q y y q 6 q p s q 5 q i p 7 4 4 @ @     ",
"                          @ @ q d p 6 6 < $ $ $ $ 5 s s d d y 5 5 $ @ & 5 5 y d q $ % e d y 6 6 6 5 6 6 6 4             ",
"                          @ @ q | s 6 6 < @ @ @ @ 5 | d d d y 5 5 $ + 2 s i 5 < 2 2 2 6 q 5 % % % & &                   ",
"                        + + @ 2 q 6 2 < % $ @ @ @ 4 y y y y 6 < < < & 4 q 6 $ O % 6 5 2 < < $ @ O                       ",
"                      + + + @ $ $ $ @ @ @ @ $ $ $ < 5 4 6 6 4 % & 4 5 < @ @ & & < 6 6 & $ $ $ $                         ",
"  @ @ @ @ @ @ @ $ $ $ + $ $ $ < 5 4 $ $ $ @ $ 5 5 < $ & i d p s y < @ $ @ % q p p s p 6 5 4 $ @ 4 5 5 6 5               ",
"      . X . @ < q q q 0 7 3 2 r i y 4 < < @ $ % % 4 q e d s d d p < O 3 0 e p d s 7 7 y p e 4 4 < % & &                 ",
"      . X @ & 5 s d s e 0 2 & 7 y y e e 2 + $ 2 4 e d | | d p u 7 % O 3 t i r r e e e 7 7 4 & < $                       ",
"    @ @ @ < 4 6 i p e 6 5 % $ < 4 6 y i 2 + & p f f f | | s w 8 8 - # - w w 5 3 6 i y < @ O .                           ",
"      @ @ $ @ & 5 6 y s i 6 5 1 $ @ # # # @ & i | f s p 8 8 K U U U U ~ ~ U - o # # # @ @ % 5                           ",
"                    6 q q i a 2 = : K P P P g f | q < - P P K 9 9 9 > R U.U.y.t.[ P P                                   ",
"                      < 4 q 7 8 > P K.U.H.G. .K 9 8 , >  .G.[ 9 9 ...... .G.@X1X@Xt. .                                  ",
"                      @ @ @ @ 9 [ t.<XeX=XT.U.W L [ } t.R.T.L.{  .vXcX7X- > 9XjXrX%X@X                                  ",
"                      X X @ # K R t.<XuX*XR.oX:X1X<X2X-X!.R.&X1X0XxXcX6X- 9 9XgXrX4X<X@XE.                              ",
"                      O O @ $ & - K K.K.G.r.y.%X*X,X3X3XeXeXrXiXfXjXxXdX#X#XeXrX2X%X@X                                  ",
"                        @ @ + + = * 9 9 9 M I G.L.U.T.@XtXiXpXhXgXgXgXgXgXhX2X-X=XY.W.                                  ",
"                                  + @ = # o ; I E { { t.;X2XeXiXiXsXsXiXiXtX*XY.W.                                      ",
"                                        : x n F D I.1X,X%X!.!.!.oXoX%X%XoX@X                                            ",
"                                          S X.%.=.i.u.h.2XeX2X-X-X!.T.Q.                                                ",
"                                      h ) 9.5.v.S.7.O.e.yXjXfXrXaX1X;X$X                                                ",
"                                    z j q.XX/./.).n.8.Z.uXyXyXiXyXtXtX$XW R                                             ",
"                                    c b g.XX}.k.j.S..X.XA.Z.Z.f.f.e.;.;.D ! L                                           ",
"                                    l b 3.A.V.m.M.7.3.3.o.#.8.{.F.7.=.,.-.,.F N                                         ",
"                                    l j D =.-.-.<.+.C C >.%.B.F.F.z.S.B.m.m.#.! T                                       ",
"                                    N z H $.&.%.;.Q E ! i.a.M.m.k.{. Xb.l.j.&.( T                                       ",
"                                    ^ W U.<X,X,X<XU.R ! i.a.M.p.8.{. X_.|.{.2.H T                                       ",
"                                    ^ R } K.R.2X3X<X;X#XN l N L G ) ] ] ] ] ) W ~                                       ",
"                                    _ _ [ T { =X-X3XpXqXM : M N G ' ] ` M B I [ _                                       ",
"                                          R / U.R.*X2X1Xt.{ r.i.q.[.[.g.A J Q [ [                                       ",
"                                          x N ` ` L.oX+X,X0XW.! Q ' ) J J J J.Q.K.U _                                   ",
"                                          c z N N W r.u.%X=XT.L.L.>X8XP.G ! ! / Q E [                                   ",
"                                          x n v v D ;.w.J.J.T.:X1XpXkX#XR R N c V ( T                                   ",
"                                          l n +.O.<.s.s.;.! Y.dXdXsXsX$X/ Q S b b z l                                   ",
"                                          l v i.a.=.O.#.i.d.e.} } } r.e.s.i.$.D F v c                                   ",
"                                          l v ;.%.=.-.-.p.M.B.D.g.4.e.:.@.+.:.<.$.b l                                   ",
"                                        z v m >.#.-.M.8.V.z.c.(.F.z.S.6.b v <.C.:.b l                                   ",
"                                  ; x c S D o.a.N.N.j.k.}. Xc.5.l.c.|.q.b v <.C.<.v z                                   ",
"                              k h h z j C Z 2.F.}.)._././.`. X|.[.*.Z Z F +.,.a.,.@.F                                   ",
"                          ; h w.g.0.0.0.2.Z *.}.`./.'.'.'.].x.4.3.A C Z D @.,.M.a.,.<.S k                               ",
"                        ; L V h..X(.(.{.v.6.5.c.b.(.(.^.x.x.6.A X.%.&.%.>.:.<.-.7.a.d.F l M                             ",
"                      [ [ { ' e.M.N.j.j.c. X}.k.7.M.M.i.m b +.i.a.p.p.p.C.1.&.O.&.a.d.F z x                             ",
"                    E.P.T.-X5X~.p.m.N.j.n.XX{.j.j.m.a.s.m j F +.O.O.O.-.p.M.p.d.,.#.+.v l k                             ",
"                    wXqXeX3XuXI.o.6.c.(._.].}.k.m.,.%.;.v b C D D D X.O.%.$.@.+.F v S                                   ",
"                    lXzXsX*X*Xy.S 4.x.^.x.x.A.7.,.%.Z F z z n F F H H ! w.w.S S N x k                                   ",
"                    lXzXqX' ' E ~ T H J J J D J H (           x z ( E t.Q.Y.{ E ~                                       ",
"                    zXjXtXR.P.I                                   ~ R G.Q.Y.{ W R I _                                   ",
"                        dXqXqX$XP.                                _ ~ G.T.T.T.OXOX@X$XG.                                ",
"                          lXzX9XE.                                  U G.Y.OX0XtXqXtXwXK.                                ",
"                                                                                                                        "
};
