/* XPM */
static char *_0a264f84ce948f5a4556e6898d69ae6T0oiIzy2DrLUGMlF[] = {
/* columns rows colors chars-per-pixel */
"60 60 231 2 ",
"   c None",
".  c #0B0B0E",
"X  c #050608",
"o  c #150D0B",
"O  c #19120F",
"+  c #0D0E12",
"@  c #120F12",
"#  c #0E1114",
"$  c #0D1318",
"%  c #111215",
"&  c #1B1514",
"*  c #14151A",
"=  c #17181D",
"-  c #1A1A1D",
";  c #19161A",
":  c #270B09",
">  c #251817",
",  c #351C18",
"<  c #29120E",
"1  c #37241A",
"2  c #2D231F",
"3  c #1D1D22",
"4  c #241E21",
"5  c #1E2124",
"6  c #1D252C",
"7  c #212226",
"8  c #24252A",
"9  c #26292C",
"0  c #292A2E",
"q  c #2B2728",
"w  c #352C2E",
"e  c #352624",
"r  c #2D2E32",
"t  c #2B2C31",
"y  c #2E3135",
"u  c #2D3133",
"i  c #2C373C",
"p  c #313236",
"a  c #333435",
"s  c #333438",
"d  c #35363A",
"f  c #35363B",
"g  c #3A363B",
"h  c #37393D",
"j  c #333B3E",
"k  c #39393E",
"l  c #3B393B",
"z  c #3C322B",
"x  c #5B1304",
"c  c #5A170B",
"v  c #4A1E1C",
"b  c #481E18",
"n  c #541B13",
"m  c #5D1A15",
"M  c #561916",
"N  c #4A160B",
"B  c #64170A",
"V  c #651A14",
"C  c #741A0A",
"Z  c #592417",
"A  c #502816",
"S  c #782809",
"D  c #78330B",
"F  c #632216",
"G  c #662617",
"H  c #742C13",
"J  c #782715",
"K  c #6A341B",
"L  c #74331B",
"P  c #60200E",
"I  c #473325",
"U  c #5B352A",
"Y  c #593A2E",
"T  c #493734",
"R  c #5D3D33",
"E  c #573C37",
"W  c #422722",
"Q  c #6B3422",
"!  c #643B2C",
"~  c #6C3C2C",
"^  c #653627",
"/  c #763B2B",
"(  c #633E33",
")  c #623D3A",
"_  c #702D26",
"`  c #5C4135",
"'  c #5C423A",
"]  c #5A453C",
"[  c #5B4623",
"{  c #69412E",
"}  c #73452C",
"|  c #74462D",
" . c #614235",
".. c #694638",
"X. c #724B3A",
"o. c #784835",
"O. c #77513E",
"+. c #3A3A41",
"@. c #373840",
"#. c #7B5946",
"$. c #6E584A",
"%. c #7F6755",
"&. c #776E68",
"*. c #873808",
"=. c #832C15",
"-. c #862A18",
";. c #962E14",
":. c #883717",
">. c #99371B",
",. c #903108",
"<. c #A63A1C",
"1. c #8B2C24",
"2. c #9A3625",
"3. c #942D20",
"4. c #AA3B22",
"5. c #B33E23",
"6. c #8D4006",
"7. c #92430B",
"8. c #964714",
"9. c #93501A",
"0. c #B74819",
"q. c #A75917",
"w. c #B04E18",
"e. c #8E641A",
"r. c #BC681A",
"t. c #88563A",
"y. c #98563B",
"u. c #8E4E2D",
"i. c #AA4426",
"p. c #BC422C",
"a. c #B74625",
"s. c #BE5325",
"d. c #B94432",
"f. c #AE4934",
"g. c #8A6724",
"h. c #96642A",
"j. c #B46D26",
"k. c #C84E17",
"l. c #CA5912",
"z. c #C3671C",
"x. c #D56818",
"c. c #D77512",
"v. c #E57B19",
"b. c #C34625",
"n. c #CA5723",
"m. c #C14833",
"M. c #C75232",
"N. c #D15F25",
"B. c #D56524",
"V. c #CE6F23",
"C. c #E37B23",
"Z. c #E37C28",
"A. c #E37729",
"S. c #875844",
"D. c #935141",
"F. c #B25942",
"G. c #98654A",
"H. c #976952",
"J. c #90715E",
"K. c #A56A49",
"L. c #B9694D",
"P. c #A46B55",
"I. c #A87659",
"U. c #BC7D52",
"Y. c #B77859",
"T. c #AF754B",
"R. c #977362",
"E. c #A57B65",
"W. c #AA7D69",
"Q. c #B47A63",
"!. c #C37B58",
"~. c #C47D4C",
"^. c #D68019",
"/. c #F59D0D",
"(. c #F99C0B",
"). c #E9851C",
"_. c #F28F15",
"`. c #EE9319",
"'. c #F59C13",
"]. c #F89A16",
"[. c #F9A01C",
"{. c #CD8228",
"}. c #D28424",
"|. c #E98728",
" X c #EC9627",
".X c #F69A26",
"XX c #EB952C",
"oX c #FAA420",
"OX c #B6825A",
"+X c #9E8475",
"@X c #A88268",
"#X c #B38568",
"$X c #C6885A",
"%X c #D68F5D",
"&X c #D28A64",
"*X c #C7926A",
"=X c #D99768",
"-X c #C59573",
";X c #C79A79",
":X c #D89972",
">X c #C78A68",
",X c #DBA479",
"<X c #E6A879",
"1X c #F6B27B",
"2X c #E1A068",
"3X c #7E8288",
"4X c #8C8C8B",
"5X c #BEA18D",
"6X c #B4B5B5",
"7X c #CA9E89",
"8X c #CAA386",
"9X c #D9AB86",
"0X c #DEB28B",
"qX c #EAB488",
"wX c #F3B585",
"eX c #E4B593",
"rX c #EDBC92",
"tX c #E5BA99",
"yX c #F3BA94",
"uX c #E1A483",
"iX c #EBC18E",
"pX c #EFC495",
"aX c #F6C598",
"sX c #EDC7A6",
"dX c #F9CCA6",
"fX c #FED3AB",
"gX c #FED7A8",
"hX c #FDD7B8",
"jX c #E2CBB9",
"kX c #FAF7F2",
"lX c #ECD9C9",
/* pixels */
"                                                                                                                        ",
"                                                                                                                        ",
"                                                            * * % * % % * * % % % % %                                   ",
"                                                    % # % = y p t y y t y y p = % +                                     ",
"                                                + % % = 8 9 p s p p s p p 0 t = +                                       ",
"                            % % % +           % % = = 0 k p 8 8 8 8 8 8 7 % % X                                         ",
"                              X X X + %       % = t d y 9 9 9 8 8 9 3 = * X X . # % % % % % % % % % % %                 ",
"                                    % % %   = 0 t t t 0 8 7 = = = = = % % . . = 3 8 0 0 0 0 0 0 0 0 8 5 5 *             ",
"                                  + = = = = 7 k k 0 8 8 7 3 3 3 3 3 = % % = = 0 t s k k k k k k k k d t t 7 3 =         ",
"                                * = 8 8 8 8 0 h f 0 8 3 = 5 k k d k 8 % = 9 9 d h h h h h k h k k g f d d f k q %       ",
"                            % = 7 7 8 8 3 = = = 3 = = 8 p t t 0 5 = 3 7 8 d d h h s 9 t 0 t t 0 t 0 0 3 3               ",
"                          % % = 8 9 t p 3 % % % % 7 8 p k d 8 8 = + 3 9 0 9 9 u y t 8 8 3 3 3 3 5 3                     ",
"        % * +             + % = 0 t d h 7 % % % = p d d d p 8 7 = = 3 8 5 % % 5 9 8 8 3 * # % %                         ",
"        % % % # % % * % % % % 3 k d t 9 3 % % % = 8 0 9 0 7 = = 7 8 3 % * % * 5 9 3 % % % %                             ",
"        % % 3 7 5 3 7 t t t t p k f 0 8 3 # = 7 5 = = 9 s p t 0 3 = = # - 0 t y y 9 5 3 * %                             ",
"            = 7 5 7 7 p s d s f k k r t 3 # = 7 5 3 3 t k k k h - % = 3 8 h k h h s t 0 = =                             ",
"            + * * * = 8 9 9 9 r d g g h 6 # % & - p l l k j j s - # 9 @.j h h h h h h s 8 8 = % %                       ",
"          # 3 8 7 8 8 8 8 y j i 0 q - = = % 4 a a h h +.+.d 0 q & @ = = - q q d k p 0 8 = * 5 8 3 % @                   ",
"      * 3 3 8 8 8 9 9 y y y y 9 3 - % # $ % 4 l k +.@.y 8 9 8 0 w W U X. .I z w w p p 9 * $ 3 3 = .                     ",
"        8 0 8 8 8 7 8 s s 0 7 3 = = - > = # 5 k +.s u 5 # * 5 8 T U y.$XL.u.X.I e w p t = $ # % %                       ",
"                    = 8 8 = % = 8 q E  .e % 5 +.g > & > O O % * 7 1 O.Q.Y.Y.I.X.R z & % * #                             ",
"                      = = = @ > T ` @X;X .o # - e J.#XP.S...o = 4X6X&.I #.eXeXY.G.#.                                    ",
"                        + % % 2 ) o.=XwXG.Y z . > -X1X%XU.K.X.$.jXkX3Xo ] dXdX:X*X#X                                    ",
"                          . % 7 E } $X<X>XI.#.< b *X1X%X~.&XqXtXlXkX4Xe $.aXaX1X<X-XE.+X                                ",
"                        % % * * ; , ..O.X...S.H.I.,X1XwXaXaXdXdXhXhXsXtXtXqXqX$XOX@X                                    ",
"                              # % & q e e 1 I S.S.G.G.;XaXaXfXfXfXfXgXgXaX&X>X#X                                        ",
"                                  @ > < < : , ! ~ t.t.Y.<X<XqXrXrXrXqXiX9XY.E.                                          ",
"                                  < n n c P G J :.=X1X&XU.U.!.!.!.U.OXOX@X                                              ",
"                                b M m x 9.}.V.0.f.qXdXpXrXqX,X:X!.Y.Q.                                                  ",
"                                M V -.,.z.[.C.<.i.&X:XyXfXdXpXiX,X8XE.                                                  ",
"                                m C 5.b.B.|.z.=.=.a.s.%XyXyXyXyXrXtXI.^ )                                               ",
"                                Q =.5.p.<.*.H B S {.XXV.n.M.M.s.>.:.:.H Q                                               ",
"                                ! / F.L.!.$XK.K K 8.8.r.).v.C.A.w.<.4.4.2.G U                                           ",
"                                 .| U.$X<XaX-X~ ~ m B w.|.).).v.x.B.N.B.s.=.Q                                           ",
"                                ` | =XwXpXgX8X~ ~ M B >.d.b.k.l.).].'.].c.*.L                                           ",
"                                ' X.0XfXrXrX-X~ ! K H >.p.n.|.`.].(.'.oX^.*.H ^  .                                      ",
"                                ` | *X9XeXaX;X{ ! b N n F K g.e.e.h.g.g.h.y.y.| (                                       ",
"                                E } T.T.9XgX8X{ Y < : : : < , 1 U [ I 1 U P.P.t.X...                                    ",
"                                    I.I.0XhX7X..! M M F H H H *.{.XX9.c Z ~ } K.Q.S.! R                                 ",
"                                    #.O.7XhX8X~ ^ Z B -.i.4.4.0.).oXq.x m Z G K.Y.Y.P.H. .                              ",
"                                    ( ! W.eX;XI.H.^ F 2.d.b.b.b.|.].r.S J c V K.Y.T.G.S.( '                             ",
"                                    ( ~ G.OX:XfXsXS.K 9.s.k.k.l.).].x.0.<.B V G.Y.S.^ !  .E                             ",
"                                    R ! #XdXdXhXsXS.K j.XX_._._.'.].B.b.<.B c / o...` E                                 ",
"                                        J.@XW.W.E.} D j..X(./.(.(.].z.>.2.;.:.H G U                                     ",
"                                          T R ^ K L S z..X'.'.(.(.].q.S -.p.d.=.B Z                                     ",
"                                              n V H D r.[././.'.'..Xq.x J d.p.;.=.G b v                                 ",
"                                              M m H S r..X(.].].c.N.>.B C ;.;.<.i.-.n b                                 ",
"                                            D 9.9.=.S r.oX_.v.A.k.p.1.x P H ,.a.m.1.m v                                 ",
"                                ` { o.o._ c *.XX X8.,.z..XC.0.m.p.d.3.C S =.;.4.d.1.M v                                 ",
"                                ( | *XuXD.x 6..X`.s.a.b.n.b.p.a.;.,.<.a.a.d.f.J V                                       ",
"                                H.K.2XwXy.x *.XX.Xl.b.b.5.n.C.V.,.S J =.=.-._                                           ",
"                                OXOX2XwXy.x *.Z.C.x.l.x.l.x.|.Z.,.H F N n b b                                           ",
"                              R.Y.$X,X<Xt.n J i.w.|. X`..XC.0.i.J n v                                                   ",
"                            Y G.,X:XG.#...    G S :.7.7.8.7.:.L                                                         ",
"                          ' R O.I.E.          A ^ P.Q.y.K Q Z                                                           ",
"                            ' R R E           ` X.tXhX@X! R                                                             ",
"                                              E ..tXfX@X^ ! ! `                                                         ",
"                                              E ..,XrX9X8X8X8X5X%.                                                      ",
"                                                  8X9XsXhXhXlXjX%.                                                      ",
"                                                                                                                        "
};
