/* XPM */
static char *_77f79e3e11248cfb51dd03adbbb6a62nlB81kP1fAv0zO4W[] = {
/* columns rows colors chars-per-pixel */
"60 60 236 2 ",
"   c None",
".  c #0C0B0D",
"X  c #050609",
"o  c #190704",
"O  c #17110C",
"+  c #0E0E12",
"@  c #0F1013",
"#  c #0E131B",
"$  c #121215",
"%  c #141519",
"&  c #16191C",
"*  c #191A1E",
"=  c #1B1517",
"-  c #121112",
";  c #28150F",
":  c #271A19",
">  c #391812",
",  c #2D1008",
"<  c #372014",
"1  c #1C1D22",
"2  c #151B20",
"3  c #241F21",
"4  c #1E2125",
"5  c #1E292B",
"6  c #212226",
"7  c #24262A",
"8  c #26292D",
"9  c #292A2E",
"0  c #2B2628",
"q  c #362A26",
"w  c #2D2E33",
"e  c #2B2D32",
"r  c #272E30",
"t  c #332F35",
"y  c #2F3034",
"u  c #2F3134",
"i  c #2D343C",
"p  c #313236",
"a  c #323536",
"s  c #333438",
"d  c #35363A",
"f  c #333439",
"g  c #363A3D",
"h  c #35393B",
"j  c #393A3E",
"k  c #3A3A3B",
"l  c #3B373A",
"z  c #2A312F",
"x  c #4C170B",
"c  c #5A1404",
"v  c #5D150B",
"b  c #581909",
"n  c #4C1C1C",
"m  c #481C19",
"M  c #531B14",
"N  c #5B1B13",
"B  c #5A1712",
"V  c #630F05",
"C  c #66190A",
"Z  c #741D09",
"A  c #671D13",
"S  c #492319",
"D  c #58251A",
"F  c #50321C",
"G  c #6A210D",
"H  c #77280C",
"J  c #63261C",
"K  c #682719",
"L  c #732313",
"P  c #732A14",
"I  c #7C2B14",
"U  c #7A2817",
"Y  c #6D301A",
"T  c #783418",
"R  c #7C320D",
"E  c #412E2A",
"W  c #5B3B2C",
"Q  c #553829",
"!  c #473835",
"~  c #5C3B34",
"^  c #5C3E39",
"/  c #583A35",
"(  c #53342B",
")  c #633A2C",
"_  c #663727",
"`  c #773724",
"'  c #623C33",
"]  c #5C421F",
"[  c #5D413A",
"{  c #5A4539",
"}  c #594222",
"|  c #62422D",
" . c #75472C",
".. c #644639",
"X. c #744C3A",
"o. c #774936",
"O. c #7A533A",
"+. c #3A3A40",
"@. c #7A5544",
"#. c #755046",
"$. c #6C6A6D",
"%. c #882B0D",
"&. c #932F0C",
"*. c #973A0C",
"=. c #8B2B1B",
"-. c #852B15",
";. c #922E14",
":. c #8B3213",
">. c #863718",
",. c #953314",
"<. c #973818",
"1. c #863509",
"2. c #A93B1D",
"3. c #8E3327",
"4. c #9C3627",
"5. c #8D2C24",
"6. c #AB3C26",
"7. c #994615",
"8. c #9D490C",
"9. c #A7470E",
"0. c #B84E0D",
"q. c #A94614",
"w. c #B8471C",
"e. c #BA5716",
"r. c #A9580F",
"t. c #B46513",
"y. c #994528",
"u. c #864B33",
"i. c #855A3A",
"p. c #894931",
"a. c #AC4427",
"s. c #BC4529",
"d. c #B64626",
"f. c #BA5628",
"g. c #AE5633",
"h. c #88652F",
"j. c #C44B17",
"k. c #C2521B",
"l. c #C95618",
"z. c #C7550D",
"x. c #CD6318",
"c. c #D56917",
"v. c #DC721D",
"b. c #D97F1E",
"n. c #CA7316",
"m. c #E47A18",
"M. c #E06E17",
"N. c #C54729",
"B. c #CB5B23",
"V. c #C24E34",
"C. c #C15A36",
"Z. c #D36726",
"A. c #CC7326",
"S. c #E57927",
"D. c #885942",
"F. c #995945",
"G. c #8B6348",
"H. c #9C6442",
"J. c #97684C",
"K. c #8B6451",
"L. c #976A54",
"P. c #90785B",
"I. c #AA6849",
"U. c #BA774E",
"Y. c #AA7758",
"T. c #B27353",
"R. c #B77B58",
"E. c #AA7050",
"W. c #9D7A63",
"Q. c #A87D67",
"!. c #B37C60",
"~. c #C47A5A",
"^. c #C86D4E",
"/. c #D17961",
"(. c #DE821A",
"). c #E58315",
"_. c #EA9519",
"`. c #F79918",
"'. c #F59314",
"]. c #F7A21A",
"[. c #DE8D25",
"{. c #EB8525",
"}. c #F38C28",
"|. c #E59328",
" X c #F59826",
".X c #E98C32",
"XX c #F69734",
"oX c #F5A22C",
"OX c #BA845B",
"+X c #9E8171",
"@X c #AA8266",
"#X c #B68365",
"$X c #A78676",
"%X c #BC8F74",
"&X c #BF9273",
"*X c #C5814C",
"=X c #C2845C",
"-X c #C78B5D",
";X c #E08B5B",
":X c #C68A64",
">X c #C99369",
",X c #D59769",
"<X c #C89674",
"1X c #D89B76",
"2X c #E4946D",
"3X c #E29670",
"4X c #D9A478",
"5X c #DDA16D",
"6X c #E3A46F",
"7X c #E3A274",
"8X c #EDAC74",
"9X c #E7AB7B",
"0X c #F1AB79",
"qX c #EEB17C",
"wX c #F2B479",
"eX c #B7BDBE",
"rX c #9B8D84",
"tX c #D19E82",
"yX c #DCAB85",
"uX c #E4AC85",
"iX c #EBB68B",
"pX c #F3B682",
"aX c #F0BB8D",
"sX c #E7B897",
"dX c #F4BD99",
"fX c #EAC499",
"gX c #F8C89B",
"hX c #F7C58F",
"jX c #EAC3A4",
"kX c #FBCDA2",
"lX c #F8CCAA",
"zX c #FCD2AD",
"xX c #FBD4A7",
"cX c #FBD3B2",
"vX c #F6E6D7",
"bX c #E1E6E6",
/* pixels */
"                                                                                                                        ",
"                                                                                  $                                     ",
"                                                                            + . $ $ +                                   ",
"                                                            $ % % % % % % % % % $ $ +                                   ",
"                                                    $ $ + $ 6 d d a f f f f f s * $                                     ",
"                            $                     + $ % 7 9 e w y y w a a w 7 7 %                                       ",
"                            $ @ X               $ % 1 1 a d w 7 7 7 7 7 6 1 + + X                                       ",
"                              X . $ @ $ $       $ 1 d d e 7 7 7 7 7 7 * $ $ X X + % $ % % $ % % % % % % % %             ",
"                                  . + $ $     8 y y 9 e 7 7 1 % % % % % $ $ + + 1 6 8 y w y y y y y y w 7 6 * +         ",
"                                  . % 1 1 1 1 w +.d 7 7 4 1 4 7 7 7 7 * $ % 1 1 e y d j j j j j j j j j a y 9 7 6 $     ",
"                                % % 4 7 8 7 6 w f y 7 6 * & 8 j d d d 6 % * 9 9 h j g d d d g d d d d d s s f d a * +   ",
"                            $ % 6 7 7 7 7 & % % % % % & a d w 8 7 * % 1 7 9 d g g g f 8 8 8 9 9 8 9 7 7 * % *           ",
"          $                 $ $ 6 8 e d w % $ $ $ 1 w w j j a 8 6 % @ 4 8 7 6 4 8 e 8 8 7 1 & * * 1 %                   ",
"        $ $ + . @         + $ % 9 w a d w % $ $ $ 1 s f f f 9 6 1 * * 1 6 1 $ $ 4 7 4 4 1 % @ $ +                       ",
"        @ $ $ $ % % $ & % % % & f +.a 7 7 % $ % % * 7 7 8 9 1 % & 7 7 * $ $ % % 7 8 1 $ $ $ $                           ",
"            . $ % 6 7 w a s a s g j a 7 6 % $ 1 7 1 % % a d d a w * % $ $ 1 a f h h e 6 4 % $                           ",
"              $ % * 1 9 a u u a d +.d s e % $ & 1 1 8 9 h g g +.s % $ 6 8 w j j g g h y w 4 4 %                         ",
"              & & % % 4 7 8 8 9 a f i i w = $ & 2 8 l ! l g h h z = $ 8 i s d d g g g d a 7 6 1 * % .                   ",
"        % $ 1 8 7 7 7 7 7 e g h r 5 4 % % $ $ 9 h h j l +.+.t 8 6 = $ = * : 0 9 d j a 9 7 % $ 4 7 6 $ $                 ",
"    $ $ 1 6 7 7 7 7 7 y f s e 8 1 & % $ $ # # 9 k l l l 6 1 6 8 e ! ( X.J.@.Q ! t 0 t d w & @ +                         ",
"              4 4 1 1 9 s 9 1 1 1 * : q 0 % # 9 k a 8 7 % . = 3 6 E F F.~.T.i.@.( E q                                   ",
"                    $ 1 7 1 $ $ 0 q W #...: $ l { ! q q < : = @ & s ! @.E.T.:X#Xi.....                                  ",
"                        % % $ = ! W J.yX#X> O P.yX4XtX1XR.Y...o l eXbX$.: #.lXdX:XY.W.                                  ",
"                          + $ = ! | E.pX1XD.O.>XwX8XqX8X*XU.T.L.$XvXbX$.. #.xXkX7X1X<XW.                                ",
"                          . $ = q F i.:X:XE.I.-X1X6X8X8X,X>X9XdXjXvXvXrX..W.fXhX6X1X<XQ.+X                              ",
"                        $ $ $ $ $ - q [ ^ ~ ) G.Y.=X4X4XgXkXkXzXzXcXcXzXzXgXuX9X=XY.Q.                                  ",
"                              X # % = : : : ; Q o.o.o.i.4XiXhXxXxXxXxXxXxXaX=X#X                                        ",
"                                  . ; > > > > D ` u.E.T.:X,X,X1X1X1X4X4X4X<X                                            ",
"                                  , M K L T >.:.:.g.pXpX>X-X=X=X~.~.U.T.Y.$X                                            ",
"                                n B =.d.k..X.Xx.w.^.gXgXkXkXaX9X4XOXR.Q.                                                ",
"                                n v q.{.m.x.B.N.N.V.^.^.dXzXkXgXgXfXsXW./                                               ",
"                                D A q.S.c.9.4.4.<.q.Z.Z.;X3X2X2X1X<X&XD._ )                                             ",
"                                ) Y y.C.f.<.>.G c *..X}.l.k.k.k.w.&.-.-.I Y                                             ",
"                                ' _ I.0X3XU.T.` V %.f.l.S. X_.}.{.z.w.,.-.U M m                                         ",
"                                .._ H.:X>X1X1Xp.c L <.*.l.c.).`.'.).S.k.2.3.v n                                         ",
"                                ^ ) H.-X-X:X:X .b A I %.e.x.M.m.).`.`.m.c.0.A D                                         ",
"                                [ ) E.aX<Xo.) D x N P R A.|.A.q.e.[._.|.|.A.>.`                                         ",
"                                [ W @XzXyXX.~ > o o o o , < S S S Q ] } ] i.,X<X@./                                     ",
"                                [ ' L.yX%Xo.) _ J K K J J J D D J h.h._ < O.iX4XD.W                                     ",
"                                [ ' K.<X@Xu.p.y.a.d.B.B.j.N.2.&.9.|.oX7.c  .7X1XH.i.O.                                  ",
"                                ^ ) @XcXsXOXU.y.H 9.}.}.l.N.N.w.l._. X7.c ` R.*X5XuXY.) ^                               ",
"                                ^ ' J.>X<XsXsXF.V &.x.x.m.{.Z.w.l.}. X7.c p.7X6X8XiXY.) ^                               ",
"                                [ ' L.1XyXzXcXK.c -.s.j.{.].).c.c.m.S.<.C T T.E.R.#XL.'                                 ",
"                                { W @XfXfXdXsXD.b U d.w.S.|._.`.'.z.k.9.*.1.C D _ |                                     ",
"                                    ..X.X.#.#.J c G =.:.:.1.t. X`.'._._._.n.R `                                         ",
"                                          ( J K L L C G H I 7.r.t._.`.'.`.(.q.y.G x                                     ",
"                                          x v U -.U c C >.=.*.8.r.b.).'.`.).j.d.7.<.T                                   ",
"                                    n N A b b P I U v A 4.w.Z.XX{.l.j.m. Xm.j.j.{.XXf.b m                               ",
"                                n v =.6.6.%.H I I U P U L Z <.B.x.{.}.x.l.k.w.0.{.oXt.b S                               ",
"                                S v ;.V.a.%.I I I I I %.=.5.5.=.*.A.v.v.v.v.v.v.M.v.7.b n                               ",
"                                S v =.a.2.,.:.:.:.;.&.,.a.d.=.V Z a.j.m. X`.`.}.e.q.-.M n                               ",
"                                D B L -.=.a.s.s.s.s.s.a.:.-.L V Z a.w.S.XX_.].|.>.v D                                   ",
"                            ^ ~ W D u.I.g.<.,.6.N.N.N.d.I A A B G >.,.7.q.0.x.f.>._       / ^ ' ..                      ",
"                            @.D.J.H.R.,XR.T L =.4.4.4.3.A x M N C U -.I H 4./.~.u._ '   X.K.J.o.' [                     ",
"                            Q.@XyXqX8XqX>XY B N B M M m       M b P P T P H.zXlXJ.X.X. .i.1XuXL.W ^                     ",
"                                uXqX8XqX<X .) ~                   D M _ _ J.lXzXjXjXuX7X1XOX#X                          ",
"                                &X>X,XpX<X .W ~                     n / / L.zXzXzXcXiX:X>XOX                            ",
"                                @XY.:X7X>XH.i.G.K.@.                    W G.sXiXiXsXtXQ.@X                              ",
"                                    Q.!.:XuXuXyXsX%X| ^                 { @.Q.!.R.Q.Q.                                  ",
"                                                                                                                        "
};
