/* XPM */
static char *_eea231ea4094d2cb850c4b045e3de68tSCcvhpPtprf6oRA[] = {
/* columns rows colors chars-per-pixel */
"60 60 231 2 ",
"   c None",
".  c #020406",
"X  c #050709",
"o  c #0B0A0C",
"O  c #07080A",
"+  c #170C0C",
"@  c #0C0E12",
"#  c #0E1214",
"$  c #0D141A",
"%  c #111216",
"&  c #191313",
"*  c #14151A",
"=  c #16191C",
"-  c #191A1E",
";  c #191318",
":  c #13100E",
">  c #2A0906",
",  c #340E0A",
"<  c #38150C",
"1  c #291B1B",
"2  c #391D16",
"3  c #2E100C",
"4  c #33241C",
"5  c #362619",
"6  c #27231C",
"7  c #1C1D22",
"8  c #131821",
"9  c #221D21",
"0  c #1F2125",
"q  c #1E242C",
"w  c #212226",
"e  c #24262A",
"r  c #27292D",
"t  c #27292C",
"y  c #292A2E",
"u  c #292B2D",
"i  c #292526",
"p  c #362926",
"a  c #2A2C31",
"s  c #2D2E32",
"d  c #2B2D32",
"f  c #292F3A",
"g  c #2E3133",
"h  c #2E3034",
"j  c #2E333C",
"k  c #323236",
"l  c #333539",
"z  c #35363A",
"x  c #36373C",
"c  c #33343A",
"v  c #3C363C",
"b  c #37393D",
"n  c #36393C",
"m  c #393A3E",
"M  c #393A3C",
"N  c #323837",
"B  c #392D37",
"V  c #49180A",
"C  c #591808",
"Z  c #491C19",
"A  c #541B16",
"S  c #621809",
"D  c #751C0B",
"F  c #482118",
"G  c #572211",
"H  c #5A3718",
"J  c #552D0C",
"K  c #6A250B",
"L  c #782609",
"P  c #7C330A",
"I  c #692816",
"U  c #762A15",
"Y  c #6B361E",
"T  c #783219",
"R  c #6E380E",
"E  c #472A28",
"W  c #572C28",
"Q  c #4B312A",
"!  c #58362A",
"~  c #5C3B33",
"^  c #583B34",
"/  c #413331",
"(  c #6B3424",
")  c #643A2C",
"_  c #693B2B",
"`  c #653626",
"'  c #723524",
"]  c #643C35",
"[  c #643B36",
"{  c #682F26",
"}  c #5F4617",
"|  c #66481B",
" . c #5D423B",
".. c #524238",
"X. c #5B402D",
"o. c #6A422D",
"O. c #73462C",
"+. c #684434",
"@. c #734735",
"#. c #7D5539",
"$. c #75542C",
"%. c #3B3C40",
"&. c #383940",
"*. c #7B4E43",
"=. c #775B48",
"-. c #6D5E59",
";. c #5F5F63",
":. c #6C5C68",
">. c #852D08",
",. c #86340C",
"<. c #862C15",
"1. c #853417",
"2. c #993719",
"3. c #95310D",
"4. c #A83A19",
"5. c #963825",
"6. c #833724",
"7. c #A63D21",
"8. c #98420A",
"9. c #964412",
"0. c #954A14",
"q. c #AA4815",
"w. c #B8461A",
"e. c #B75817",
"r. c #B04E0F",
"t. c #844E29",
"y. c #984728",
"u. c #87553C",
"i. c #934D36",
"p. c #A54428",
"a. c #B84428",
"s. c #BB5A26",
"d. c #B25137",
"f. c #95613F",
"g. c #B86724",
"h. c #A76926",
"j. c #C44819",
"k. c #CA571A",
"l. c #CC5D11",
"z. c #D46D0D",
"x. c #C66318",
"c. c #D76819",
"v. c #D5741B",
"b. c #D47B11",
"n. c #E37C1B",
"m. c #E27618",
"M. c #C34422",
"N. c #C64629",
"B. c #C95824",
"V. c #C8593C",
"C. c #D66924",
"Z. c #DE742C",
"A. c #CD6F2B",
"S. c #E47B26",
"D. c #885743",
"F. c #955A42",
"G. c #834F46",
"H. c #98664A",
"J. c #996C55",
"K. c #937458",
"L. c #A4694A",
"P. c #BC7B4D",
"I. c #A66B53",
"U. c #AC755B",
"Y. c #A7785A",
"T. c #B67A57",
"R. c #A97B61",
"E. c #B27D66",
"W. c #A47F70",
"Q. c #C3794D",
"!. c #C17C5A",
"~. c #CE6F4C",
"^. c #C07F62",
"/. c #D9821C",
"(. c #E88818",
"). c #EC9316",
"_. c #F89B16",
"`. c #F29F0F",
"'. c #F6A116",
"]. c #DC8122",
"[. c #DC8535",
"{. c #E38729",
"}. c #E8962A",
"|. c #F69726",
" X c #EB9331",
".X c #FAA225",
"XX c #B8835D",
"oX c #AA805C",
"OX c #87827F",
"+X c #A88266",
"@X c #BA8767",
"#X c #AB8678",
"$X c #C78558",
"%X c #C68A67",
"&X c #CB936D",
"*X c #CA9366",
"=X c #D49768",
"-X c #C79873",
";X c #D49C77",
":X c #CF8A6F",
">X c #E18B6F",
",X c #DEA276",
"<X c #D7A579",
"1X c #E7A978",
"2X c #ECB27D",
"3X c #F0B27D",
"4X c #E8A66E",
"5X c #777C80",
"6X c #C39E83",
"7X c #DCA885",
"8X c #DAB697",
"9X c #D3AC90",
"0X c #E5AB85",
"qX c #EBB58C",
"wX c #EAB689",
"eX c #F2B886",
"rX c #EABA9A",
"tX c #F2BD93",
"yX c #F5B492",
"uX c #F8C99B",
"iX c #E3C498",
"pX c #FACDA3",
"aX c #FBCEAB",
"sX c #F5CCA1",
"dX c #FDD2AB",
"fX c #F9D2A7",
"gX c #FCD9B6",
"hX c #FAD9C5",
"jX c #DEE4E6",
"kX c #E7EAED",
"lX c #FAF1E3",
/* pixels */
"                                                                                                                        ",
"                                                                                                                        ",
"                                                          * - - - - - - - - - * % % @                                   ",
"                                                  % % % @ y x b z z z z x x l 7 % o .                                   ",
"                                                @ % * a d s s s s s s s d e w # O X                                     ",
"                          * % % @ X O         * * 7 0 l l d e t e t 0 0 7 @ @ X . X                                     ",
"                                X % % %       * t b z t e e t e e e 7 # # . . @ % % % % % % % % % % % % *               ",
"                                  % % %   = s k s s d t t 7 * = * = % % # @ # - 0 t g g s g g g g h s t w - %           ",
"                                @ = - - - 7 l %.k t t 7 7 w w w w 0 = % * - 7 y s k m m m m m m m m m l g t w w *       ",
"                              * * w t t t r k x h t w = * a %.m x z 0 % 7 y y z m b x m b b b b b b b x x l l x -       ",
"                          * = w e t t 7 * * - - = * - k k s a t 7 - 0 w y x z m m z y y y y y y y a y 7 = -             ",
"                          % = t t s k e % % * % 7 t y m %.s t w % % w r t r t s k s r t 7 7 7 7 7 7 w =                 ",
"      * %                 % - y y k m y * % % % t b b z z d e 7 * = 7 t 7 % * w r e e w * % % %                         ",
"      % % * # % % % * # % % 7 x x s y w * % % % 7 y y t r 7 * - t t - * % % * e t 7 * % % % O                           ",
"      % * 7 0 0 w w a y a y h m b d e 0 * % 7 w 7 = 7 h k s y t 7 - * % 7 t d k k y 7 - % %                             ",
"        * w w w w t l z z z z M b h d e % * 9 e 7 7 0 b m M M g % % 7 9 u b b m m z s y 7 * @                           ",
"          % % % * = r t r r h b x M M y % * * * t m b m %.v &.f = $ s v v v M b b m x z t r 7 % *                       ",
"        % 0 w w w w t t s x j d y w - - % = a s l m b m v B d e $ $ = = w y u N n k u t - = 7 w 7 * @                   ",
"    * - - t t t r y a s k k d 0 7 = $ # % * k m b &.n d y u i i 4 4 Q ^ Q E p k k h g t #                               ",
"  % - t t t w e e r z b s t w * * * - * % ; k m x &.j 8 $ 7 e p ^ _ I.%XL.O.+.p i g z b                                 ",
"                * - y y 7 * 7 9 4 E ^ p : * l m i & & : # $ = = 1 2 F.^.T.L.H.@.! p                                     ",
"                    7 7 * # 7 / W H.Y.@.: $ q e ..=.#.o.+.p @ f 5XOX-.@.H.7X;XL.D.=.                                    ",
"                      # # % 1  .o.*XtXR.4 6 % o =.qX1X$X!.@.2 ;.jXkX;.+ =.gXaX&X@X+X                                    ",
"                      . @ % 1 ^ O.%XeX&XY.K.2 + =.3X4XQ.Q.:X<X8XlXkX:.+ =.aXuX2X<X-XR.W.                                ",
"                      @ # % = i 5 #.H.F.u.D.G.*.T.3X2X0X0XtXuXpXgXhX9X#X6XtX3X=X%X@X                                    ",
"                        % % % $ # 5 Q W Q ! H.I.XX*X=XuXpXfXfXfXdXdXdXgXuX,X;XXXU.                                      ",
"                                $ & & ; ; 1 ! _ o._ t.,X2XtXaXaXaXfXfXpXwXoX+X                                          ",
"                                      o 2 Z A C I T 6.!.$X%X&X-X&X*X*X*X%X                                              ",
"                                    3 3 G L 9.0.2.2.y.:X;X*X$X$XP.T.T.U.                                                ",
"                                  F V K ,.8.].|.C.a.V.yXuXqX2X4X$XXXK.                                                  ",
"                                  A C 9.{.{.x.B.N.N.N.V.d.0XaXuXuXiXK.!                                                 ",
"                                  I K 2.Z.C.q.2.4.4.4.a.a.~.>X:X!.T.u.( !                                               ",
"                                  Y T 5.d.d.p.y.1.L <.s.k.k.B.a.3.<.<.1.T                                               ",
"                                  ] _ u.T.!.qXuXU.C P [.|.|.|.n.w.w.w.a.7.U `                                           ",
"                                  [ ) H.;X<XuXdXU.C L B.c.c.c.z.m.m.n.S.s.<.(                                           ",
"                                  +.` H.,X,XqXrXI.S D a.M.k.l.z._._.).{.x.>.(                                           ",
"                                   .) u.P.P.P.!.F.U 6.p.w.v.}.}.}.}.x.e.9.U `                                           ",
"                                  ^ ] D.T.$X=X1XD.> , < V J | } | | Y ` W 3                                             ",
"                                    [ G.L.L.,XqXF.> > , , 2 F J $.$.H W E >                                             ",
"                                        ! O.;XyXI.C S T T 1.L q. X}.0.,.U A Z                                           ",
"                                        ~ @.8XdXU.C S p.p.a.w.k.|.|.x.q.2.S A                                           ",
"                                        ~ @.-X7X%XU.I.i.5.a.M.k.C.v.v.Z.q.C Z                                           ",
"                                        ~ O.Y.XX7XaXrX@.( p.j.j.k.l.(..Xb.P I V                                         ",
"                                        ^ @.9XpXtXqX<XO._ y.w.B. X_._._.).).[.U C                                       ",
"                                          X.K.Y.J.H.f.' T g.S.S.c.z.(.'.`.'. X,.C                                       ",
"                                            W W { ( T T P e.].v.l.l.m.(.).'.}.,.S                                       ",
"                                            F A K P P ,.>.>.>.q. X|.c.w.c.|.}.8.U (                                     ",
"                                     .~ ! ! I K r./././.].e.4.w.k.k.4.3.e..X}.,.C                                       ",
"                                  ] ] *.J.H.y.y.s.S.S.n.n.v.C.C.c.B.2.D ,.g.h.R V                                       ",
"                                  +.' I.tXeX$XQ.~.a.M.j.j.m.|.|._.}.9.S S C G                                           ",
"                                  Y.L.&XaXuXeX3X!.a.N.M.j.m._._.'.}.9.C A                                               ",
"                                  E.T.;XdXpX@XT.i.<.2.C.m.(._.).b.C.,.S A                                               ",
"                                  @X%X-XiX9X#.( I D >.Z.{.(.(.v.r.p.U A Z                                               ",
"                              E.T.qXfX-X+.@.' Y 5.a.p.L K K L L 1.' `                                                   ",
"                              T.T.&X;X+X  ] (   1.2.5.U K U I I                                                         ",
"                              +XE.U.R.R.          ( 1.i.i.6.' )                                                         ",
"                                                  ` t.1XqXL.( o.+. .                                                    ",
"                                                  ~ #.0XtX<X&X%XI.J.*.[                                                 ",
"                                                      8XrXrXrX7X@XE.*.                                                  ",
"                                                                                                                        "
};
