/* XPM */
static char *f040f533309b4371858f9e47c5d1469cTRbIz7DYJWQe6SSv[] = {
/* columns rows colors chars-per-pixel */
"60 60 236 2 ",
"   c None",
".  c #07090A",
"X  c #170D0A",
"o  c #1A1009",
"O  c #0D0F11",
"+  c #0F1114",
"@  c #0C161A",
"#  c #121215",
"$  c #1B1413",
"%  c #141519",
"&  c #1A161A",
"*  c #17191C",
"=  c #1A1B1E",
"-  c #1E1917",
";  c #290704",
":  c #361009",
">  c #291D1D",
",  c #281617",
"<  c #391A17",
"1  c #2E0D0C",
"2  c #2C221B",
"3  c #37221A",
"4  c #1C1D22",
"5  c #1D1520",
"6  c #0F1920",
"7  c #271C26",
"8  c #1F2125",
"9  c #1E252A",
"0  c #222225",
"q  c #24252A",
"w  c #26282C",
"e  c #2A2A2D",
"r  c #2B2223",
"t  c #372824",
"y  c #2D2E32",
"u  c #2B2D32",
"i  c #272D30",
"p  c #2E3134",
"a  c #2D3339",
"s  c #313236",
"d  c #323335",
"f  c #33353A",
"g  c #35363A",
"h  c #35363A",
"j  c #3C363E",
"k  c #37393D",
"l  c #36393D",
"z  c #393A3E",
"x  c #3A3B3D",
"c  c #383031",
"v  c #48170D",
"b  c #581808",
"n  c #431C13",
"m  c #5B1D16",
"M  c #631C0B",
"N  c #661807",
"B  c #6D1E13",
"V  c #781C01",
"C  c #57220D",
"Z  c #49241E",
"A  c #582917",
"S  c #4E2A0D",
"D  c #6A2509",
"F  c #792609",
"G  c #78300C",
"H  c #6C2214",
"J  c #682A18",
"K  c #7D2F19",
"L  c #693519",
"P  c #7C3413",
"I  c #76371A",
"U  c #4B2A26",
"Y  c #532A23",
"T  c #4A322B",
"R  c #56372D",
"E  c #473938",
"W  c #573D34",
"Q  c #693827",
"!  c #783423",
"~  c #643E33",
"^  c #654216",
"/  c #764C1B",
"(  c #53443C",
")  c #4F4435",
"_  c #6C432C",
"`  c #66422D",
"'  c #7B492B",
"]  c #6C4532",
"[  c #684838",
"{  c #724933",
"}  c #7D553B",
"|  c #3B3C41",
" . c #363940",
".. c #3D4041",
"X. c #434446",
"o. c #4A4A4A",
"O. c #565758",
"+. c #544B4D",
"@. c #694D43",
"#. c #6E564D",
"$. c #775748",
"%. c #735655",
"&. c #7C6351",
"*. c #882C06",
"=. c #932C08",
"-. c #84350B",
";. c #873307",
":. c #95370F",
">. c #882C14",
",. c #893B18",
"<. c #983A17",
"1. c #9A2E1C",
"2. c #A7391B",
"3. c #933A26",
"4. c #93441A",
"5. c #9C5314",
"6. c #8E4812",
"7. c #A9420C",
"8. c #A74815",
"9. c #B54717",
"0. c #AA531C",
"q. c #BB5719",
"w. c #B54C05",
"e. c #BD6718",
"r. c #834827",
"t. c #9A4626",
"y. c #824D33",
"u. c #944D35",
"i. c #84563C",
"p. c #9D5533",
"a. c #AB4729",
"s. c #BB4622",
"d. c #B44725",
"f. c #B75737",
"g. c #AB502E",
"h. c #93613C",
"j. c #B76126",
"k. c #AF6C36",
"l. c #C9590C",
"z. c #C14719",
"x. c #C85819",
"c. c #C3490C",
"v. c #C96315",
"b. c #D46A1A",
"n. c #DB751A",
"m. c #D17112",
"M. c #E3771C",
"N. c #E3780F",
"B. c #C54728",
"V. c #C65826",
"C. c #C8593E",
"Z. c #CB6824",
"A. c #D96A27",
"S. c #D97626",
"D. c #D67936",
"F. c #CE7039",
"G. c #E47B29",
"H. c #E47E34",
"J. c #855A47",
"K. c #945A45",
"L. c #834C40",
"P. c #A35641",
"I. c #99684B",
"U. c #886554",
"Y. c #9B6B52",
"T. c #986D5C",
"R. c #9E785C",
"E. c #A56A48",
"W. c #AB6C54",
"Q. c #A9795B",
"!. c #B87B58",
"~. c #BB6F4C",
"^. c #886C62",
"/. c #987562",
"(. c #8A7162",
"). c #A47D69",
"_. c #BB7E62",
"`. c #C27C5A",
"'. c #D46A4A",
"]. c #EC891B",
"[. c #E98A17",
"{. c #F79A1A",
"}. c #F0941C",
"|. c #DB8627",
" X c #D98738",
".X c #E3852C",
"XX c #E5922E",
"oX c #FA9B2A",
"OX c #F69B23",
"+X c #E78438",
"@X c #E59738",
"#X c #F59134",
"$X c #F4963A",
"%X c #F28B35",
"&X c #B6835B",
"*X c #AC856A",
"=X c #BB876A",
"-X c #AA8777",
";X c #B28A74",
":X c #BF9471",
">X c #C1825B",
",X c #C6895A",
"<X c #EE9243",
"1X c #C58E65",
"2X c #C88D6A",
"3X c #C8936C",
"4X c #C99775",
"5X c #D39B77",
"6X c #D5926A",
"7X c #E1896C",
"8X c #DAA47C",
"9X c #D7A378",
"0X c #C8A37F",
"qX c #E8A97C",
"wX c #988A80",
"eX c #C69D85",
"rX c #DAA485",
"tX c #D6AE94",
"yX c #DCB291",
"uX c #CBAC99",
"iX c #E5A781",
"pX c #E9B587",
"aX c #F3B489",
"sX c #EBB894",
"dX c #F3BA94",
"fX c #D8B7A6",
"gX c #E5BCA4",
"hX c #F6C89B",
"jX c #EFC698",
"kX c #FBCDA4",
"lX c #FDCDAC",
"zX c #F5CEA6",
"xX c #FAD3AB",
"cX c #F4D2A9",
"vX c #FBD5B5",
"bX c #F1C8AC",
/* pixels */
"                                                                                                                        ",
"                                                                                                                        ",
"                                                          x e 0 4 = = = = = = * # % =                                   ",
"                                                  X.q 4 & e g k g g g g g g d = O + z                                   ",
"                                                w % % i i y y y y i i y i 0 0 + % X.                                    ",
"                          O.d q q g +.        w & 4 8 f f i q q q q 8 8 = O O . * O.                                    ",
"                                X.% = O.      g q l g w q q q q q q * + + . . O # = 0 q q q w w e e e e x               ",
"                                  w # g   +.X.f y y i q w 4 & * & & % # + O + 4 0 w y y y y y p y p i q 8 q g           ",
"                                k 4 * = 8 0 s | y q q 4 8 0 0 0 0 8 * # & = = e y s z z z z z z z | l f y w 0 y |       ",
"                              e & 0 w q q q s k p q 0 * & i | l g g 8 # = e e f z l l z l g l z z l l f g l | X.z       ",
"                          X.0 0 q q w 4 & % 4 = * % 4 s s y i q 4 = 8 q e k k l | f e e e e e e e e e 0 0 X.            ",
"                          4 & q w y p q + # % # 4 w e z | y q 0 # # 0 q w w w y s y w q 4 = 4 4 e X.X.|                 ",
"      g e                 = = e e f | e # % # # q l z g g i q 4 & * 4 q 4 # % 0 q q q 8 & # = y                         ",
"      = # = 0 e s | o.o.p % 4 k l y e 0 % % # # 4 e e w w 4 % = q q 4 % # # & q q 4 % # % % X.                          ",
"      e & = 4 0 0 0 y y e i y z z i q 0 % # 4 8 4 & = s p y e q 4 * & O 4 w e p s i 4 4 # %                             ",
"        o.g 0 0 0 q f g g g g z l y e q # % 8 q 8 4 8 z z z | p % # 4 4 w k x l l f i e = & g                           ",
"          O.= # % * q w q q p g g l l w # # # # q l l j j j z p % @ u  .j g l l  . .l g w q = 0 |                       ",
"        s e 0 0 q 0 q w y f s i w 9 4 * + * w d g z z j E c e q # + 4 5 7 e e g l a i q = = 0 0 q 0 X.                  ",
"    e 0 = q w w w w i y s a i 8 4 * + # + * s x z | l y e w q r t 3 T R T U t c d d p p ..                              ",
"  x q e y y p w q w l l u q 0 % % $ - $ # * s  . . .f 6 @ 4 q t W ~ Y.=XY._ ` Z 3 t x O.                                ",
"                x q w e 4 % = > 2 T W t o $ g | w $ $ O O % & - 2 3 J.=X!.W.Y.] R (                                     ",
"                    g 4 % # > T T U.).@.o X 0 0 ) &.$.[ [ t X 0 X.( #.[ Y.rX5XY.J.^.                                    ",
"                      0 # # > ( _ 3XdXQ.3 2 X X $.sXiX>X!.{ < +.    o.o $.vXkX4X=X;X                                    ",
"                      x # $ > W _ 1XaX3XR.(.< ; J.aXqX`.~.1X0XuX    +.; $.cXhXpXqX4X-XwX                                ",
"                      w # + * r 3 } I.h.i.J.$.L.!.qXqXiXpXjXjXzXvXvXuX-XeXjXpX6X1X4X                                    ",
"                        l i 9 * $ t T T T R U.W.!.1X5XhXhXkXxXxXxXxXxXvXhX9X9X=X).                                      ",
"                                o.x r $ , 1 R ` _ Q y.9XpXdXlXvXcXcXkXhXpX*X-X                                          ",
"                                      > < n m b J L I !.>X1X2X3X3X3X3X3X:X                                              ",
"                                    T < C D <.8.<.:.t.2X5X3X,X,X~.!.Q.*X                                                ",
"                                  Y v D -.6.D.<XA.s.f.aXhXpXpX9X>X&XQ.                                                  ",
"                                  Y b 6.<XH.v.V.B.B.B.C.~.iXkXhXhXjX/.#.                                                ",
"                                  L D :.D.F.8.<.<.<.2.s.s.'.7X7X`._.y.Q @.                                              ",
"                                  Q I ,.f.f.t.t.,.F ;.q.x.x.V.d.=.>.>.>.!                                               ",
"                                  $.Q u.~.`.sXzXW.N *.+X#X#X#XH.9.9.9.d.t.! ~                                           ",
"                                  %.Q I.5X9XkXvX!.b F V.A.b.b.b.M.M.G..Xj.K Q                                           ",
"                                  #.Q I.8X8XsXsXW.M F d.s.x.l.m.{.OX]..XZ.G Q                                           ",
"                                  #.Q i.!.!.!.>XK.J K a.a.D.@XXX@X@Xe.0.4.J ]                                           ",
"                                  %.~ i.!.>X6X8XJ.; : v v A ^ ^ / / L Q Y <                                             ",
"                                    %.U.Y.E.9XsXK.; 1 : : n n S / r.L A U <                                             ",
"                                        { ' 0XsXW.b m I P P G 5.@X@X5.P J b Y                                           ",
"                                        [ { yXxXQ.b M t.a.d.9.x.#X$Xe.8.,.b Y                                           ",
"                                        [ { :XrX2XQ.W.u.3.a.B.B.A.n.n.S.0.b Z                                           ",
"                                        [ ] Q.=XrXlXsX' ! t.s.z.l.l.[.oXn.G J _                                         ",
"                                        @.[ tXkXsXsX9X' ! t.9.x.%XOX{.{.}.XX XP J                                       ",
"                                            /.R.Y.I.h.I G j..XS.b.m.].{.{.OXXX-.M                                       ",
"                                            ( R Q Q I K G j.D.S.v.v.n.].[.OXXX-.J                                       ",
"                                            Y Q I P -.-.;.;.*.9.%X%Xv.w.v.oXXX6.L ~                                     ",
"                                            Q E.F. X|.|.S.q.7.9.V.x.7.=.q.<X@XP A                                       ",
"                                              f.D.H.+XG.G.b.b.Z.Z.Z.:.V :.k.k.' [                                       ",
"                                              3.d.B.B.z.c.M.oXOXoX@X,.N M C `                                           ",
"                                              H 1.B.B.z.c.N.{.{.{.#X4.b m                                               ",
"                                              H t.V.V.A.n.].{.}.n.Z.-.b Z                                               ",
"                                                P.f.j.D. X|..XS.8.t.I A W                                               ",
"                                                H N N D D F F F P Q ~                                                   ",
"                                                  B B H B H H J                                                         ",
"                                                  ! ! u.p.,.Q ]                                                         ",
"                                                  ] y.iXaXE.I _ [ @.                                                    ",
"                                                  $.J.yXdX8X4X:XT.T.U.&.                                                ",
"                                                      fXgXbXgXtX;X-XU.                                                  ",
"                                                                                                                        "
};
