/* XPM */
static char *_a33ab076f084976b168a4ecdf7f0118XzVhQNIKxfuvwZzf[] = {
/* columns rows colors chars-per-pixel */
"60 60 246 2 ",
"   c None",
".  c #020D01",
"X  c #0A0E00",
"o  c #031303",
"O  c #0B1404",
"+  c #011C02",
"@  c #0D1A05",
"#  c #0C1609",
"$  c #041B0B",
"%  c #0D1B0B",
"&  c #031609",
"*  c #121606",
"=  c #131B05",
"-  c #12170B",
";  c #121B0D",
":  c #1B1D0E",
">  c #1B1D07",
",  c #0C1D11",
"<  c #031716",
"1  c #131D11",
"2  c #1A1D13",
"3  c #231F17",
"4  c #032403",
"5  c #0B240D",
"6  c #082508",
"7  c #142404",
"8  c #13230B",
"9  c #1B240C",
"0  c #1C2A0C",
"q  c #172C05",
"w  c #0E2414",
"e  c #0D231B",
"r  c #0C2915",
"t  c #142314",
"y  c #1A2313",
"u  c #142A14",
"i  c #1B2A13",
"p  c #16261A",
"a  c #1A2519",
"s  c #142C1C",
"d  c #1C2B1C",
"f  c #1C341D",
"g  c #163618",
"h  c #12330C",
"j  c #22290C",
"k  c #232B15",
"l  c #232B1B",
"z  c #252415",
"x  c #25341B",
"c  c #2B351C",
"v  c #243B1C",
"b  c #293317",
"n  c #33351B",
"m  c #373719",
"M  c #1C2D22",
"N  c #152B28",
"B  c #1C3423",
"V  c #1C3B24",
"C  c #1D342B",
"Z  c #1D3233",
"A  c #13292E",
"S  c #222D22",
"D  c #282820",
"F  c #233324",
"G  c #2B3524",
"H  c #253A25",
"J  c #24362A",
"K  c #253C2B",
"L  c #2A3A2A",
"P  c #2C3926",
"I  c #333C24",
"U  c #363A28",
"Y  c #263B37",
"T  c #413E27",
"R  c #264719",
"E  c #34481B",
"W  c #2A501F",
"Q  c #1C4325",
"!  c #244324",
"~  c #24432B",
"^  c #2B432D",
"/  c #29482B",
"(  c #3A452B",
")  c #374829",
"_  c #365628",
"`  c #2C4333",
"'  c #2C4C33",
"]  c #2B4736",
"[  c #324534",
"{  c #324B35",
"}  c #344C3B",
"|  c #3A4C3A",
" . c #3B4734",
".. c #2C5533",
"X. c #34533C",
"o. c #36593B",
"O. c #3A5538",
"+. c #2E5224",
"@. c #3B6436",
"#. c #1F4313",
"$. c #43442C",
"%. c #444326",
"&. c #434D38",
"*. c #425B3D",
"=. c #47563A",
"-. c #49562D",
";. c #456736",
":. c #487038",
">. c #3B5442",
",. c #3C5A43",
"<. c #395544",
"1. c #3D4F43",
"2. c #3E6344",
"3. c #3B6946",
"4. c #3B754C",
"5. c #435641",
"6. c #4B5542",
"7. c #445C44",
"8. c #485C46",
"9. c #505944",
"0. c #4D5F51",
"q. c #436444",
"w. c #4B6544",
"e. c #436449",
"r. c #456B4B",
"t. c #4B6C4D",
"y. c #486848",
"u. c #546B4B",
"i. c #566749",
"p. c #4B744D",
"a. c #45724A",
"s. c #53724C",
"d. c #5B724E",
"f. c #58794B",
"g. c #4C6C52",
"h. c #4A6751",
"j. c #536B54",
"k. c #586A58",
"l. c #4D7354",
"z. c #4A7955",
"x. c #537454",
"c. c #5B7453",
"v. c #527955",
"b. c #5C7953",
"n. c #54745A",
"m. c #5B745C",
"M. c #557B5D",
"N. c #5C7B5C",
"B. c #637555",
"V. c #65785A",
"C. c #5C7C63",
"Z. c #567C61",
"A. c #526762",
"S. c #637A63",
"D. c #677968",
"F. c #757D65",
"G. c #58814D",
"H. c #568458",
"J. c #4D8355",
"K. c #67845A",
"L. c #6A975C",
"P. c #718B5E",
"I. c #5C8364",
"U. c #5D8768",
"Y. c #599568",
"T. c #638464",
"R. c #63856B",
"E. c #6B836D",
"W. c #658A6B",
"Q. c #6A8A67",
"!. c #75876A",
"~. c #76956B",
"^. c #6C8C73",
"/. c #6B8973",
"(. c #778A77",
"). c #6C9475",
"_. c #7B937D",
"`. c #769778",
"'. c #659569",
"]. c #75AC75",
"[. c #76A66D",
"{. c #828D76",
"}. c #859779",
"|. c #80996B",
" X c #86A47A",
".X c #7B9984",
"XX c #748F80",
"oX c #7DA288",
"OX c #869C8B",
"+X c #859986",
"@X c #83A48D",
"#X c #8BA48C",
"$X c #8AA689",
"%X c #94AC8D",
"&X c #96A689",
"*X c #85B48E",
"=X c #8BA893",
"-X c #93AB94",
";X c #97AA97",
":X c #9CB49D",
">X c #97B398",
",X c #93B593",
"<X c #A4B99C",
"1X c #9CB4A2",
"2X c #9CBBA4",
"3X c #A7BCA8",
"4X c #ABC4AC",
"5X c #A7C3AB",
"6X c #B1C9AD",
"7X c #A4D8AD",
"8X c #ABC5B2",
"9X c #ABC9B5",
"0X c #B3CAB5",
"qX c #B4CDBA",
"wX c #BBCBBB",
"eX c #B4C6B4",
"rX c #BCD3BD",
"tX c #B7D8BA",
"yX c #AFD6B4",
"uX c #B0E3B9",
"iX c #9DC9A0",
"pX c #C1D8BB",
"aX c #C0CEBF",
"sX c #BCD3C1",
"dX c #B7D6C2",
"fX c #BECDC2",
"gX c #BAE9C6",
"hX c #B5F3C4",
"jX c #C2D3C3",
"kX c #C5D9C8",
"lX c #CBDCCC",
"zX c #C7D8C8",
"xX c #D3DCD1",
"cX c #C1CDC3",
"vX c #C8E4CB",
"bX c #CCE1D1",
"nX c #C5E6D1",
"mX c #D3E4D4",
"MX c #D8E8D9",
"NX c #CEEBCE",
"BX c #E3EADD",
"VX c #E6EDE4",
"CX c #E8F6E7",
"ZX c #F4FDF7",
"AX c #EFFDF0",
"SX c #DFEFE2",
/* pixels */
"                                                                                                                        ",
"                                                      1X;X=XOXOX+X;X                                                    ",
"                                            *X).M.g.7.X.} ] ` ` K ^ ` ] h.(.                                            ",
"                                        Y.z...Q V V V B s s s s s B V V K ~ ' ..T.                                      ",
"                                    Y.4...Q Q X.} X.>.<.<.<.<.<.>.>.] V B g r r u ! N.                                  ",
"                                  J.M.U.oXoX2X5X9X8X8X9XqXdXdXqX8X8X2X>X=X.X^.R.2.' f ' `.                              ",
"                                iXyXgXgXdXqXqXqX9X5X2X2X2X1X=X@X.X@X@X.X.XoX.X.XoX).R.I.v.v.                            ",
"                            uXhXgXnXdX9X8XdXdXqXdXrXqXqX9X5X2X>X=X-X-X=XoX.X.X.X^.U.I.R.I.M.W.                          ",
"                          hX7XvXkXbXbX8XsXsX8X0X8XqX0XqX4X=X8X-X@X@XoXoX`.`.).`.).^.).l.l.U.l.v.`.                      ",
"                        hXtXNXmXmXkXbXbXmXwXMX4XrXsX0X0X5X>X2X@X@X2XoX@X`.W.I.^.R.M.I.U.U.I.Z.W.x.T.                    ",
"                      hXuXvXVXxXmXMXeX+X:XjX1X8.u 7.-XE.B +X5X/ V l.V r.R.T.r.2.r.l.M.I.I.I.U.l.r.t.`.                  ",
"                      nXNXMXBXVXAX3X_._.S./.i | /.u j.j.o /.1XV s M.+ ' C.M.! o 4 + 6 l.I.r.I.W.v.U.x.                  ",
"                    *X=XMXMXVXZXAXjXzXjXD.D.F [ j.[ +Xk.o =X3XK 5 R.+ ~ S.R.,.4 ' 2.o.n.I.l.Z.2.p.H.v.H.                ",
"                  7X`.OXzXVXZXZXAXmX3XOX;X-XS.L u o E.k.& XX1XY 5 S.+ V C.E.e.+ + 4 + o.M.2.l.M.3.H.p.@.~.              ",
"                7X*XvXMXxXZXZXZXAXlX3XeX0X[ 8.wX+Xp 0.1.& D.+Xp s C.$ f h.n.g.5 u o.' o.M.Z.M.z.4.H.3.r.s.~.            ",
"                *X6XaXzXVXZXZXZXSXlXMXmX0X8.$ F t 5 _.D., . w o ` C.5 + 5 6 ~ 6 6 ' / ..n.l.r.M.z.3.l.p.y.K.            ",
"                `.5X-X3XAXCXMXCXzX3XlXrXeXeXE.| k.OX-X=X/.} } h.g.l.' Q f h f g 6 + o + o.C.t.r.o.r.r.q.x.x.~.          ",
"              tX~ /.OX3XVXVXxXVXjXlXjX0XwX3X0X-X_.:X.XR.C..X@XC.M.I.M.v.M.v.n.l.l.t.e.o.e.x.q.q.2.r.q.o.q.y.H.          ",
"              yX/.:XrXjXMXmXjXmXzX_.j.:Xk.} S.7.7.7.' 7.>.R..Xn.r.l.I.M.I.I.l.l.n.M.N.t.g.x.t.x.r.r.q.o.q.q.t.~.        ",
"            gXtXvXkXmXlXbXmXjXmX.X/.3Xk.:X#X[ } [ g.~ ~ ~ C.^.Z.l.l.M.l.v.M.e.r.v.v.g.e.t.l.t.r.r.l.t.2.t.g.q.H.        ",
"            nXvXmXwXjXlXbXbXjXbXS.3XrX,.=X_.` [ ^ n.~ ,.C.^.n.Z.l.l.l.r.l.M.q.r.M.v.t.y.t.x.x.r.l.l.l.2.h.g.r.v.        ",
"          hXvXNXbXwXjXlXzXsXqXsXS.7.7.E.^ { m.h./.H ~ R.X.e.`.M.r.r.r.3.r.p.2.2.q.q.q.r.q.r.N.x.l.l.h.,.,.e.r.v.].      ",
"          gXtXzXaXwXwXjXwX8XqX0X-Xj.:X>X_.#X#X+X_.#X).^.T.M.I.v.v.T.I.I.T.M.M.v.t.l.g.x.q.o.j.q.l.g.g.,.X.,.2.z.Y.      ",
"          gX0XjXwXzXwXjXrX0XqX2X-X6X:X5X5X=X:X#X#X_.).`.T.v.Q.v.v.).W.).W.M.W.Q.W.W.T.T.v.t.N.t.t.g.n.h.,.,.o.a.H.      ",
"          tXkXlXxXzXlXjXrX8X8X:X%X>X%X%X$X(.S.E.S.Q.c.T.K.s.K.v.p.r.r.t.l.p.t.t.t.v.x.v.t.w.N.t.I.T.C.Z.Z.n.t.a.J.      ",
"        gXvXzXlXcXwXjX0X0X4X4X:X$X}.%X%X!.c.u.*.u.t.N.y.b.s.Q.N.p.t.t.t.r.q.q.w.q.y.q.w.*.*.u.w.q.l.x.n.C.m.x.p.H.      ",
"        gXtXwXwXjXwXjX0X0X5X4X>X%X>X%XV.x 6 u 8 ^ ^ c.w.c.V.~.K.s.x.K.Q.T.b.x.s.c.c.u.u.w.t.c.u.w.t.u.u.m.n.x.p.J.      ",
"        tXrXsXzXfXeXsXqXrX6X6X<X$X}.*.7 i P x x % i  .w.w.V.K.V.w.u.N.T.T.N.c.c.N.c.u.u.w.u.c.u.s.b.x.u.c.c.x.p.J.      ",
"        tXrXzXlXzXsXzXrXrX6X4X>X&XV.x @ c G % o % 8 i O.*.;.K.B.c.c.c.c.c.d.c.V.c.u.u.i.i.c.B.d.s.b.c.c.V.S.c.s.J.[.    ",
"        tXrXwXwXfXeXqXeX0X3X<X%X!.c 8 I l O O O ; ; % x i.&.K.V.c.c.c.b.c.c.c.c.c.i.c.i.i.d.d.i.d.b.d.i.B.S.N.v.H.].    ",
"        pXrXwXwXsX0X0XeX0X4X6X<X!.i = U l - 2 O O O O 8 9. .=.=.w.u.d.b.V.B.d.i.B.d.V.B.i.V.B.B.d.d.i.=.i.V.m.v.H.].    ",
"        tXpXkXlX0X:X-X_.!.k.i.&.9.G l l ; O - - - 1 O @ I ( 7 7 7 8 8 8 8 8 8 8 k 0 P c c ( (  .i.i.=.=.i.V.V.x.;.L.    ",
"        yXiX~.7.| F t t % 1 y * 9.k k O : - - - O O O O G 6.* y k ; O O % % % ; % O O ; y y : = 9 j k k G  .8.w.f.[.    ",
"        L.W g v @ p G S 2 a l y 9.k k * - O - # # # - O G 6.; y y : - - ; ; ; 1 ; % % t a a 2 y > > : 2 2 ; 8 h _ L.    ",
"        L.R ) ! i d F d a l l ; 6.k k ; O O - O ; # # O G 6.; ; - - : - % ; ; % % % % ; : - : 2 = = : z l l i g R L.    ",
"          _ *.f d p , % , p a 8 =.l y 9 O O 1 O # O O # l &.y O O - ; % ; p p t t % # % ; - - : y ; - 3 D l k i W       ",
"          _ O.f w [ 1.K t % 5 % &.c y y O O ; O - O # ; y &.l O ; 1 1 t d H L H d t # % ; 1 2 1 % % 2 2 z 2 9 0 ;.      ",
"          s.7.f d k.D.} s u 5 o  .I y y O O # O - O ; - ;  .G O ; ; t p F ` [ ` F t # # ; 1 : : # d U U z z k v G.      ",
"          Q.w./ u >.>.B p M t O P ( y y ; # O # 1 # - - O U P O % % t d F J J L M t # # - - - - d L  .U z : 9 q G.      ",
"          O.R 7.B ` Y J J p $ ; F  .; y y ; O ; - # ; ; . P P O % % p F F d d M d t % # # # - 1 p F S 2 : z k q :.      ",
"          _ 4 o.B B L Y M p t # d &.; y d % O 1 - # % o o d &.O ; % 1 d F B B F t % & 1 1 1 - a $ J 1 * k 9 j 7         ",
"            #.4 f f M S S a 1 - 8 6.; O d ; % # 1 # # . ; ; P # 1 1 1 p d a p p % % # % # - - 1 F a l * k 7 . E         ",
"            K.+.! v p a M 2 2 S O  .t O d . o 1 % 1 d 1 d o l l - : ; ; ; ; % & $ p t % # 1 2 ; % ; o @ 7 q -.          ",
"                R h i G l 1 2 y % x p . a % # . o o ; t ; O t t ; : : ; ; ; % o O % % O O ; ; @ ; i = 0 q ;.            ",
"                P._ v c % O : X O i &.% . - 1 # t o . ; O l p O * * ; * * ; @ O @ O O O @ @ ; ; = = 0 7 _               ",
"                  f.) ) k c U k x l 6.G o o # F d a t t ; G l y z z z k k k k k i 9 0 9 i 9 0 k > j O q                 ",
"                    |.}.}.{.F.V.k.5.G l S l t S a S F t |  .d l $.T T $.$.( )  .)  .=.) I c c b $.-.E                   ",
"                      !.V.i. .=.6.}.&.t % d L F J L G p +XD.P k U m m U U c c ) B.!.}.V.i.=.=.) %.m                     ",
":._ ;.          K.K.|.d.=.x O i }.lXP % w L } L } [ | 5.CXV.n n m %.%.%.$.G ; O t F h.          K.E +.R                 ",
"_ _ ~.,X Xb.s.O.) i.}.!.i i 8 . k.D.. t ^ } } ] [ ^ | 9.{.&.j U m m m $.U ; . % . & % K 5.t.x.~.b.K. X~.;.h h R _       ",
"q.! ' Q + 5 ,.7.! v H *.S.(.[ . 8.| p H H ` } >.} { L ( F.$.b n m m %.$.k . . , . t B u u u s 5 { O.x.j.Q.T.4 + + +.R   ",
"' ' g.,.B w f w 7.w.u.V._.V.H h.+X| ^ L H >.>.] } } | (.{.I I b m m %.n O . - 1 $ , Y C e e C & m.3XX.g B + 5 u u 6 4   ",
"*.7.k.} M , | +X!.B.P.!.=.) G {._.H [ [ ` >.X.,.h.^ h.eX9.c I n n b b 9 . O p t M N Y Z Z N Y Y ] XX} ] C $ u + 6 !     ",
"O.7.k.L M , t 5.v ) _ E 7 7 i.;X| F 5.>.[ >.X.7.7.5._.(.x ( n c I b j 9 = @ 8 t w J N < Z Z A A e w C w o u r f u       ",
"*.*.h.s e N e w 6 R       ) >XE.K 5.8.O.7.j.7.>.| .X;X&.( c 0 0 0 x x x x x x f 5 o . e A Y Y Z C 7.s o s 5 5 o /       ",
"*.O.m.[ e e J O.            CX8.^ m.h.j.g.7.h.^.1XeXj.6.9.i                       $ K OXA.Y Z e }   #X} E.5.+ 5         ",
"E ) ) H $ M                   bX3X#X_._.-X:X3X:XD.5.                                        e e           { f @         ",
"                                ;X#X-XOX.Xm.                                                                            ",
"                                                                                                                        ",
"                                                                                                                        "
};
