/* XPM */
static char *_291b907ec0e4977aa46a3abf954d8fcEy4zFNq1lNFMHmhZ[] = {
/* columns rows colors chars-per-pixel */
"60 60 256 2 ",
"   c #030D01",
".  c #070B01",
"X  c #021303",
"o  c #0B1404",
"O  c #011B02",
"+  c #0D1B04",
"@  c #0C160A",
"#  c #0D1B0C",
"$  c #03180B",
"%  c #131B05",
"&  c #12160B",
"*  c #131B0C",
"=  c #171808",
"-  c #091B14",
";  c #131C12",
":  c #1B1C13",
">  c #181815",
",  c #231B17",
"<  c #241E08",
"1  c #0B220C",
"2  c #082406",
"3  c #122304",
"4  c #13240C",
"5  c #192809",
"6  c #193407",
"7  c #0B2616",
"8  c #132214",
"9  c #1B2413",
"0  c #1B2B13",
"q  c #15241A",
"w  c #132B1C",
"e  c #1C2B1C",
"r  c #182918",
"t  c #19331A",
"y  c #0E3015",
"u  c #24260A",
"i  c #222B13",
"p  c #222B1B",
"a  c #282617",
"s  c #2B351C",
"d  c #263618",
"f  c #36361A",
"g  c #303311",
"h  c #0B2622",
"j  c #182C24",
"k  c #1C3324",
"l  c #1A3827",
"z  c #172F37",
"x  c #252B24",
"c  c #233423",
"v  c #2B3A24",
"b  c #243A2B",
"n  c #283827",
"m  c #353B28",
"M  c #273B33",
"N  c #353130",
"B  c #091E2B",
"V  c #413A1E",
"C  c #443E23",
"Z  c #264617",
"A  c #354D19",
"S  c #1C452A",
"D  c #27442A",
"F  c #394729",
"G  c #395629",
"H  c #2B4334",
"J  c #2B4937",
"K  c #3B4D3A",
"L  c #364937",
"P  c #2D5439",
"I  c #38563A",
"U  c #2E5127",
"Y  c #3B623D",
"T  c #3F6528",
"R  c #1D4018",
"E  c #454629",
"W  c #434C38",
"Q  c #46593A",
"!  c #4D542E",
"~  c #49643B",
"^  c #4D6A35",
"/  c #5A692A",
"(  c #1C3542",
")  c #253946",
"_  c #384D43",
"`  c #3B5242",
"'  c #3A5846",
"]  c #3C5451",
"[  c #3D6343",
"{  c #3C6846",
"}  c #386E4C",
"|  c #465946",
" . c #475C55",
".. c #515544",
"X. c #436444",
"o. c #4B634D",
"O. c #456B4A",
"+. c #4A6C4C",
"@. c #486746",
"#. c #526C4B",
"$. c #566849",
"%. c #4C714D",
"&. c #47734C",
"*. c #5B734D",
"=. c #56744B",
"-. c #4B6A54",
";. c #566B55",
":. c #4C7453",
">. c #4C7956",
",. c #537453",
"<. c #5A7553",
"1. c #527A55",
"2. c #547B5C",
"3. c #5B775A",
"4. c #647857",
"5. c #647450",
"6. c #597A62",
"7. c #516B68",
"8. c #657A66",
"9. c #6E7B6E",
"0. c #59835B",
"q. c #548555",
"w. c #688559",
"e. c #768658",
"r. c #699659",
"t. c #6B874C",
"y. c #6DB25B",
"u. c #5A8464",
"i. c #5B8566",
"p. c #55916E",
"a. c #668768",
"s. c #77886A",
"d. c #77966A",
"f. c #6A8A74",
"g. c #778B77",
"h. c #6C9478",
"j. c #78967A",
"k. c #65936C",
"l. c #76BB77",
"z. c #71B06E",
"x. c #3DD973",
"c. c #3BD26E",
"v. c #3CE07D",
"b. c #48D46E",
"n. c #44DC7B",
"m. c #4CDB7B",
"M. c #46D875",
"N. c #56D97A",
"B. c #4ACB7A",
"V. c #79C778",
"C. c #62D87C",
"Z. c #73C66A",
"A. c #47E17A",
"S. c #54E275",
"D. c #65C25E",
"F. c #869869",
"G. c #859376",
"H. c #86A579",
"J. c #8FB274",
"K. c #86935C",
"L. c #8AC86A",
"P. c #88C976",
"I. c #97CA76",
"U. c #9BD577",
"Y. c #91D16E",
"T. c #A3D57B",
"R. c #A2CD7B",
"E. c #7A9A85",
"W. c #748C81",
"Q. c #7BA28A",
"!. c #77AF8C",
"~. c #56CA82",
"^. c #49DC82",
"/. c #57D884",
"(. c #76C88A",
"). c #67D887",
"_. c #75D789",
"`. c #70D08E",
"'. c #46E383",
"]. c #54E283",
"[. c #76E48E",
"{. c #7DE392",
"}. c #66E48C",
"|. c #869887",
" X c #808E81",
".X c #88A68B",
"XX c #95AB89",
"oX c #98B789",
"OX c #8AA995",
"+X c #95AB96",
"@X c #8AB496",
"#X c #9BB59B",
"$X c #86BB85",
"%X c #A3BA99",
"&X c #A4AE96",
"*X c #9ABAA5",
"=X c #95B2A4",
"-X c #A8BAA8",
";X c #99CA86",
":X c #99D487",
">X c #84D998",
",X c #92D28D",
"<X c #A5CC87",
"1X c #A3D48C",
"2X c #A5D586",
"3X c #AAD896",
"4X c #B6DA9A",
"5X c #ABCD95",
"6X c #89E99A",
"7X c #8DF09D",
"8X c #92D3A7",
"9X c #A9C5A8",
"0X c #B2CAAB",
"qX c #BCDAA2",
"wX c #B8D9A7",
"eX c #ABC5B3",
"rX c #AAC9B7",
"tX c #B5CCB4",
"yX c #B4CDBB",
"uX c #BBCBBB",
"iX c #B6C6B6",
"pX c #BDD3BD",
"aX c #B7D9BA",
"sX c #A5D9B3",
"dX c #93E9A6",
"fX c #B9E3A7",
"gX c #B4E5BA",
"hX c #A7E5B1",
"jX c #B2E39C",
"kX c #C3DDA7",
"lX c #C3D8BA",
"zX c #CAD3B4",
"xX c #C8E3AA",
"cX c #C8E5B8",
"vX c #D5E4B6",
"bX c #CFECB5",
"nX c #BBCDC1",
"mX c #BBD5C3",
"MX c #BAE8C6",
"NX c #B6F2CB",
"BX c #C3CEC3",
"VX c #C3D3C3",
"CX c #CCDCCC",
"ZX c #C7D8C9",
"AX c #CCDDD1",
"SX c #D5D9CF",
"DX c #E2DDD5",
"FX c #C9E7C9",
"GX c #CAE4D2",
"HX c #D6E5D7",
"JX c #CFF2CE",
"KX c #DCF2E1",
"LX c #E9F6E8",
"PX c #F4FDFA",
"IX c #EAEDE5",
"UX c #E4E2D7",
/* pixels */
"}.)./.].'.A.v.A.'.].}.[.{.6XdXdX7X7X7XdXdXdXsXhXgXMXFXGXHXHXKXKXKXKXHXGXFXFXFXcXcXwXwXqXqXqX4X4X4X4X4X4XqX4X3X3X3X3X1X1X",
").)./.N.m.M.c.c.x.M.N./.)._.[._.{.6X7X6X>XdXMXJXMXaXeX*X+XOX|.|.|.+X9XpXFXFXFXFX0XcXbXkXqXqXqX4XfXfXqXqXqXqX4X3X3X3X1X:X",
"_._.).).N.B.b.c.c.c.c.M.m././.~.).(.(.>X8X8X@Xh.2.-. .` J H H H b H H J o.h.*XaXJXaX0XwXcXcXxXcXxXfXxXkXkXkXqXqX3X3X1X:X",
">X>X6X{.[.}.).N.M.x.x.x.n.^.^./.`.(.!.!.h.>.P S l l l l j j j w j l l l b H J P a.9XJXJXcXcXcXwXxXxXxXxXxXxXkXkX4X3X1X<X",
"6X6X7X7X6X6X[.}.m.n.x.x.'.'.'./.>X!.p.} ' S S P P P _ ' ' ' ' ' _ P J l l w w y y D 3.9XFXFXaXcXxXxXvXvXvXvXvXxXkX4X3X1X",
"[.[.{.{.[._.)./.A.'.'.v.n.M.B.~.p.i.2.p.Q.OX=XeXrXrXrXrXnXmXnXyXeXeX*X=XOXE.f.i.[ J l P h.aXJXcXcXzXvXvXvXvXvXxXxXxX4X3X",
"N.N.N.C.C.N.B.M.m.^.^.^.B.~.`.(.8XrXMXMXmXyXyXnXrXeX*X*X=X@XOXQ.E.Q.Q.Q.E.Q.Q.E.Q.h.a.i.>.>..XJXcXvXvXvXvXvXvXvXxXxX4X3X",
"M.M.m.N.N.N.m.m.M.M.^.~.`.>XhXMXMXGXmXrXeXmXmXnXmXnXyXyXrXeX*X@XOX@X@XOXQ.E.E.j.f.i.i.i.i.6.k..XFXvXvXvXvXvXvXvXxX4X3X1X",
"x.x.M.M.M.M.M.n.^.x./.B.8XJXtXCXCXGXAXeXmXmXeXyX9XyXtXrXeXOXrX@X.XQ.Q.Q.h.j.h.h.h.k.h.:.:.i.:.1.j.cXcXvXvXkXvXxXqX4X3X1X",
"x.x.M.x.x.x.x.n.M./.~.dXMXVXUXDXHXZXGXAXGXuXHXeXpXpXtXtX9X#X*X.X.X*X.X.Xh.k.u.k.u.>.u.i.i.i.0.a.1.a.wXFXzXvXbXqX4X3X:X:X",
"b.b.M.M.x.x.x.^.}.~.>XNXMXCXIXDXHXHXeX|.#XVX%X| r | +Xa.t E.9XD l :.l +.a.u.O.Y O.>.0.i.u.u.i.:.&.&.j.cXcXkXbXqX4X3X:X;X",
"b.b.M.n.n.n.^./.~.dXNXJXGXHXUXIXPX-XG.g.8.s.0 K s.8 ;.;.  f.#Xl y 3.O J u.2.S X 2 O 2 :.u.O.u.k.1.i.1.oXcXwXxXbXfX3X1X:X",
"b.b.b.m.m.m.^.~.`.NX@X+XKXHXIXPXPXBXZXVX8.9.c L ;.L |.;.X .X-Xb 7 a.O D 8.a.' 2 J [ I 1.u.>.6.[ &.q.>.0.9XFX4XcXfX4X1X:X",
"b.b.b.n.m.m.B.).NXsXj.|.ZXIXPXPXPXHX-X|.+X+X8.n e X f.;.$ W.=XH 1 8.O b 6.f.o.O O 2 O I 2.{ :.2.{ q.:.[ d.wXbXqX4X3X1X:X",
"M.M.M.A.n.m.).>XsXXXSXUXSXPXPXPXLXCX-XiXiXL | uX|.q  ._ $ 8.|.h w 6.$ l o.3.-.1 y I P ' 2.2.6.>.} u.{ O.%.j.bXqX4X3X1X:X",
"M.M.m.]./.).6XgX@XiXzXZXUXPXPXPXKXCXHXHXuX| # c q 8 g.8.-   - X H 6.1 O 1 1 D 2 2 J J P ,.:.-.6.>.{ :.>.@.w.oXbXqX3X1X1X",
"S.S.N.).[.(.hXgXj.9X+X-XPXLXHXLXZX-XZXlXiX0X9.K ;.|.+XOXf.P P o.-.:.P S l y l t 2 O X O I 6.+.O.Y O.O.O.,.<.d.cXfX3X1X:X",
"S.N.C._.`.>XhXaXD f.|.-XLXIXSXIXlXFXVXiXiX-XiX+X X#XE.a.6.E.Q.6.2.i.2.1.2.>.>.:.:.+.X.I @.,.X.X.Y O.X.I @.O.0.5XfX3X:X:X",
"m.N.N._.(.8XgXaXf.#XpXZXHXHXBXHXVX X;.#X;.K 8.| | | J | ' a.E.6.O.:.u.2.u.u.:.:.1.6.6.-.+.:.+.,.O.O.X.I X.X.%.j.3X3X,X;X",
"m.N.N.[.(.hXMXmXFXZXHXCXSXHXVXHX Xg.-X;.#X.XL K L -.D D D 6.f.6.:.:.0.:.>.2.{ O.>.,.:.O.O.:.+.+.&.&.+.[ +.+.@.0.,X,X:XP.",
"S.N.N.`.(.MXFXFXHXuXVXCXGXAXVXAX8.-XpX` OXE.H L H ;.H ' i.f.2.6.>.&.>.O.:.1.{ O.1.,.+.O.+.,.,.O.%.:.:.[ O.:.O.>.$X,X,XV.",
"S.N.N.`.8XNXFXGXGXuXVXCXZXmXyXmX8.| | f.D L 3.o.f.l D f.P { E.6.{ O.&.{ &.:.[ [ [ O.@.O.X.+.3.:.:.&.O.' ' X.O.>.z.,X,XV.",
"S.N.).`.hXMXmXZXnXuXuXVXuXrXyXyX+X,.#X+XE..X.XE.j..Xh.f.i.6.i.>.1.a.u.i.i.2.2.1.+.,.%.%.[ I ,.X.:.+.-.' I ' [ :.k.!.V.l.",
"N.N.).(.MXMXyXVXuXZXuXVXmXyXyX-X+XtX#X9X9X.X#X.X.XE.h.j.a.1.a.1.1.k.k.k.k.0.a.a.a.a.u.a.,.#.8.+.+.-.2.-.' ' ' &.u.!.V.z.",
"N.C._.>XsXaXZXCXSXZXCXVXmXeXeX*XXXoXXXXX.Xg.8.a.8.f.,.a.0.%.w.1.%.O.O.%.%.%.%.#.%.<.#.<.#.+.3.#.0.a.8.6.6.3.-.&.q.z.V.Z.",
"C.).>XhXMXMXVXZXBXuXBXiXyX9XeX#X.XH.XXXXs.<.#.Q #.+.3.+.4.=.a.0.%.+.+.+.@.X.~ ~ X.@.~ @.Q Q #.@.@.#.,.;.6.3.,.>.q.l.>XV.",
"V._.dXgXMXmXnXnXBXuXpXtXtX9X9X#XXXoXXX4.d 3 4 4 D D <.~ *.w.d.w.%.<.w.a.a.3.=.#.<.<.#.#.@.#.<.#.@.#.#.;.3.;.;.:.q.l.,X_.",
"P.,XdXgXaXpXVXVXnXiXpXtXpX0X0X%XH.H.Q 3 0 v d d 1 0 L @.~ 4.w.4.@.#.3.a.w.3.<.<.4.<.#.$.@.$.*.$.=.*.<.;.3.3.;.:.1.z.V.Z.",
":X1XjXaXaXVXZXAXCXpXZXpXpX0X9X#XXX4.d + v s + o + 4 0 W Q ~ w.4.<.3.3.<.=.=.<.4.3.#.#.$.$.*.5.*.*.5.<.;.4.8.3.,.1.z.l.z.",
"1XjXfXgXpXpXBXnXnXeXuX0XtX9X%XXXs.s 4 m p o o @ & & + d $.G w.4.<.<.3.3.<.<.<.5.5.$.*.$.$.*.*.$.*.5.*.$.5.8.4.<.0.z.l.l.",
"3XjXfXcXlXlXuXuXVXiXtX0XtX9X0X%Xs.i * m p * : o @ @ o * ..K Q Q @.$.*.4.4.5.*.$.5.*.4.5.$.5.5.5.*.*.$...$.4.5.<.q.z.l.l.",
"1X3XfXfXlXZXCXCXiX#X+Xg.s.;.$.W Q v p p * o & & @ ; o & m F 3 3 4 3 3 4 4 4 4 5 i 0 v s s F F E ^ ^ ~ Q $.4.4.<.@.r.z.l.",
"P.P.:XfXwX5Xd.| K c 9 : ; : : & ..i i o * & @ & o o & o n ..% 9 a * o o & # # * # o @ * 9 9 : = 5 u u a N W ..@.=.z.l.y.",
":XP.P.,Xr.Z R d # q x x > a x , ..i i % & & & o & @ & o n ..% : 9 > & * ; ; ; 8 ; # - q q 9 : : = < u , > > 9 5 G r.Z.y.",
"P.P.,X3Xr.Z U D e k c e 9 p x : ..i i * o o * o & o & & c ..* & & & * & # # ; # - # # * ; * > : = = : a a a i d Z r.Z.y.",
";X3XfXfXH.G I t w q - # # 9 r 4 Q i 9 9 o o * o @ o o & p W 9 o o * * # # q r 8 8 # @ # & & & : 9 % & , x a a i A r.Z.y.",
"xXxXbXJX5XI I c 8 J ` b 8 1 1 + W s 9 9 o o * o @ o @ & 9 W p o * * 8 8 e n n c e 4 o # * * : * # # : , , , 9 0 ^ y.y.y.",
"4X4X4XwX5X=.| k j ;.8.L w y 1 X F m 9 9 + o & @ * o & * * K n o * * ; 9 c H H D k 8 @ o ; : > * $ w M N x , a s q.l.y.D.",
"4X4XqX4XwXa.o.H w _ ` k w t 7 O v F 4 9 * @ o @ * o * * o m m o # # ; e c c n n e 8 @ o * & & # w b L N , , u 5 q.P.Z.D.",
"2XR.2X5X<XI D | k H M b b q $ 1 c F * 9 9 & o * * @ & &   n m o @ # q k c e w k e 8 # @ @ & & # w l x : , a a 5 ^ P.Z.D.",
"T.T.R.4X;XG 2 | k k M M k q q @ e W 4 9 e # o ; ; @ @ X X p W o ; # # e k k k k q # $ ; ; ; & q $ l 8 & a < 5 3 r.z.Z.D.",
"U.T.U.T.1Xr.Z 2 k k k x x q > & * Q * o e # @ @ ; @ @   ; * n # ; ; ; q e e q r $ # @ @ @ & & ; k e p & i 5   A J.L.V.Z.",
"L.Y.L.L.2X;Xw.U D c r e x > > x o K 9 o 9   X ; # ; e ; e o p p * ; ; * ; ; # $ # 8 q # @ ; : ; * * o % 3 5 ! d.P.P.P.Z.",
"U.U.U.U.U.2X;XJ.Z 0 0 c x > > : & p 9   9 # @       ; ; ; o ; : & : : & * * # X $ # # o o & * & = u % 5 6 ^ J.;XP.P.L.L.",
"U.Y.U.T.U.I.2X4Xr.G d s % o : o o 0 W *   * ; X q X   ; o p e o o = = = % % + o + o o o + % % = = = u 3 G J.I.I.L.I.I.L.",
"T.U.U.T.U.U.2X<X<X*.G F i s m a s p | n o o @ c e q q q * n p 9 u u a a a i i i 0 5 5 0 9 5 5 u < u o 5 r.2XL.P.L.Y.I.I.",
"U.2X2XT.T.T.T.R.3XJ.F.F.G.G.9.4.;.| c p x p q e q e c q L L e i E V C E E F F F F G ! F f s d g E ! A t.I.I.U.Y.Y.Y.I.I.",
"^ t.J.I.<XR.<X4X3X4XJ.e.e.~ E Q Q  XQ 8 # k n c n n n 9  X8.m a V g f C m d s F 5.s.G.4.$.Q Q E E f F.4X2X:X:XP.I.I.I.I.",
"^ T ^ t.oX4X5XH.t.t.F.*.G d o 5 G.CXn # 8 b L M L H K Q LX8.f g V C C C E s & o 8 n o..XXXoXH.F.t.A A A T t.J.oX;X;X1XJ.",
"G G d.oXH.<.*.Q F $.G.e.6 5 3   ;.8.  r H J _ J L H K | G.W u C f f m E C = . *   $ 1 D I O.,.d.=.t.H.d.I 6 6 Z G H.J.;X",
"[ D P S O 7 ' | D v v | 8.g.H   | K q n b H P ` L L v L 9.E g g f f E E a . . #   8 k w w w y 7 P I ,.,.f.a.O O O U Z r.",
"U J -.' l 7 j 7 | o.+.8.g.8.b  .|.K H n b ` ` J L K K g.G.m m g f f E f o . * # # - M l h h l $ 6.*X` j l $ 7 y y 2 2 w.",
"Q Q ;.L j - ` |.s.4.e.e.Q F n  X Xn H L H ` ` ' -.D ;.iX..f m f f g g 3   o 0 4 k w b z z z ( ( H W.J J l $ j O 7 d 3.5X",
"G ~ ;.b j - q | s F ! Z 3 3 o.+XL c | ` L ` _ | ' |  Xg.s F f g f g u 5 + + 4 4 1 l h - z z B z h 7 l 7 X w 7 t y j.9X5X",
"I X.o.h h z 7 7 2 Z 6 6 Z U +Xf.b | | I | ;.| I ` |.+XW F d u u 5 d d d d d t t 1 X X h z ) ( z l | w X w 1 1 X D 9X5XoX",
"~ I 3.J 7 h l ` G ^ ^ d.^ #.LX| H 3.o.;.;.| o.f.#XeX;.Q ..i %   *.H.XXXX%X0X9X#Xa.1 n E.7.) ( B J pX.XL f.Q X 4 F %Xd.J.",
"A A F s & p Q $.5./ / / e.J.zXCX-X.X Xj.+X#X-X#X8.Q v m s % o % 4 0 v G ~ =.w.w.s.#.j.#X9.J h h K <.a.<.Q K d + F D t 3 ",
"A ! Q F a W G.H.F.F.K.t.e.s.XX&X+XOXOX|.j.;.K p L m c i i d i i c t 4 2 5 d G ~ $.G Q o.L n k c 8 d D c t 0 0 1 t t t y ",
";.8.8. .x M _ _ | o.#.Q K L |  .| K L c v c F L p m v 9 % 5 5 o o @ 1 4 3 3 5 6 5 3 3 3 4 d r 4 1 1 1 8 8 1 8 e q w j k ",
"7. .7.9.7.7.7.7.] ]  . .] ]  .-.-.#.3.#.o.K K F W W W W F m m v n v L L K ! ! ! G Q ~ Q 4.s.<.| | | | |  .| |  .| ] ] ] "
};
