/* XPM */
static char *_0f85f0563b74970d23507c4c18b4431buBtUBYtZiLrEVLR[] = {
/* columns rows colors chars-per-pixel */
"60 60 193 2 ",
"   c None",
".  c #2B2B2C",
"X  c #2A2927",
"o  c #332E27",
"O  c #3A3024",
"+  c #3E352A",
"@  c #302C30",
"#  c #2F3030",
"$  c #333333",
"%  c #3B3C3C",
"&  c #3C3536",
"*  c #543C1F",
"=  c #4C3822",
"-  c #4A3625",
";  c #553D21",
":  c #583E20",
">  c #423033",
",  c #40272A",
"<  c #674015",
"1  c #6B451B",
"2  c #674217",
"3  c #764B1A",
"4  c #43413E",
"5  c #5F4E3A",
"6  c #734B28",
"7  c #5B2C53",
"8  c #6D365C",
"9  c #54286C",
"0  c #5D3775",
"q  c #572A72",
"w  c #612E68",
"e  c #424243",
"r  c #4B4A48",
"t  c #4F5050",
"y  c #545454",
"u  c #5A5A5A",
"i  c #575758",
"p  c #5A574F",
"a  c #784246",
"s  c #6A524E",
"d  c #756753",
"f  c #66476D",
"g  c #704363",
"h  c #664A75",
"j  c #775C6A",
"k  c #6A6A6A",
"l  c #666665",
"z  c #6F7779",
"x  c #7B7E7D",
"c  c #797576",
"v  c #726D65",
"b  c #85541D",
"n  c #8C581B",
"m  c #91581A",
"M  c #995E1A",
"N  c #A35B0A",
"B  c #A4641C",
"V  c #B36817",
"C  c #B66D1C",
"Z  c #BE711E",
"A  c #8E5B22",
"S  c #97592E",
"D  c #8F5734",
"F  c #99652A",
"G  c #966831",
"H  c #A36827",
"J  c #AF793A",
"K  c #B8772F",
"L  c #C3741E",
"P  c #CD791E",
"I  c #C9761B",
"U  c #D17C1F",
"Y  c #D97F1E",
"T  c #C47622",
"R  c #CA7921",
"E  c #C87821",
"W  c #D57E20",
"Q  c #9D3F4F",
"!  c #9C4F5C",
"~  c #88515A",
"^  c #B6495C",
"/  c #96724B",
"(  c #A77A49",
")  c #8D5861",
"_  c #9B5966",
"`  c #9D4673",
"'  c #AA5A69",
"]  c #BD5164",
"[  c #A55F7E",
"{  c #8D716C",
"}  c #8A7075",
"|  c #BE6372",
" . c #B47A7D",
".. c #C64D62",
"X. c #C8586B",
"o. c #D35A6E",
"O. c #C76677",
"+. c #D9667A",
"@. c #BC803D",
"#. c #DA811F",
"$. c #CF822C",
"%. c #D78020",
"&. c #DB8220",
"*. c #D1842F",
"=. c #D48A37",
"-. c #978971",
";. c #A7947D",
":. c #AB8C66",
">. c #C28643",
",. c #743998",
"<. c #663486",
"1. c #7D3AA4",
"2. c #755589",
"3. c #7B4799",
"4. c #823DA9",
"5. c #86599C",
"6. c #977589",
"7. c #846D97",
"8. c #8B7898",
"9. c #BD7B87",
"0. c #8C44B5",
"q. c #8E49B6",
"w. c #924DBA",
"e. c #9049B7",
"r. c #8F4DB5",
"t. c #8E6FA2",
"y. c #9668B2",
"u. c #9978B3",
"i. c #D46E80",
"p. c #D37886",
"a. c #E7788A",
"s. c #9E60C3",
"d. c #A56FC7",
"f. c #AA78CB",
"g. c #7D898A",
"h. c #898A8A",
"j. c #808383",
"k. c #9A8D8F",
"l. c #9E9284",
"z. c #8B999B",
"x. c #9A999A",
"c. c #91839B",
"v. c #A08C8D",
"b. c #A29788",
"n. c #A79682",
"m. c #A59896",
"M. c #B98A93",
"N. c #9D8EA8",
"B. c #9B95A6",
"V. c #AC9EA0",
"C. c #A685B9",
"Z. c #A998B8",
"A. c #B49CA4",
"S. c #9FB2B5",
"D. c #9AABAD",
"F. c #A8AAA9",
"G. c #B5A3A8",
"H. c #ADA6B8",
"J. c #AEB1B0",
"K. c #A4B5B7",
"L. c #B2B2B2",
"P. c #B6BABB",
"I. c #B7B5A7",
"U. c #D88593",
"Y. c #C694A1",
"T. c #C6BFB0",
"R. c #C5AFAA",
"E. c #BDC1BC",
"W. c #C4C5BB",
"Q. c #D5C8B7",
"!. c #B6AFC0",
"~. c #BDAFD3",
"^. c #C6B7D1",
"/. c #B7C4C7",
"(. c #C5CAC9",
"). c #CDCDCD",
"_. c #C8C7C5",
"`. c #CED1C9",
"'. c #CCCFD0",
"]. c #C8D7D8",
"[. c #D4D4D5",
"{. c #D4DBDB",
"}. c #D9DDDC",
"|. c #D7D8D4",
" X c #DFE3E3",
".X c #E6EAEA",
"XX c #EBE9EB",
"oX c #E4E6E6",
"OX c #E7F0F1",
"+X c #F1F4F4",
"@X c #F6F8F7",
"#X c #F6F9F9",
"$X c #F9FBFA",
/* pixels */
"                                                                                                                        ",
"                                                                                                                        ",
"                                                                                                                        ",
"                                                                                                                        ",
"                                                                                                                        ",
"                                                                                                                        ",
"                                                                                                                        ",
"                                                                                                                        ",
"                                                                                                                        ",
"                                                        y.d.r.3.                                                        ",
"                                                      t.f.d.w.4.h                                                       ",
"                                              $ %   L.u.s.w.e.4.2.L.  % $                                               ",
"                                                $ y '.y.0.q.e.1.2.).y $                                                 ",
"                                                  y  XC.0.q.e.,.7. Xy                                                   ",
"                                                    }.^.0.0.,.q !.].                                                    ",
"                                                  F.'..XZ.<.0 N.oX/.F.                                                  ",
"                                                h.l z L.(.P./.(.L.z l j.                                                ",
"                                              H ( 2 d G.G.B.B.A.V.d 2 ( F                                               ",
"                                          m.:.$.Y #.J m.Y.~.u.[ v.@.Y I B / x.                                          ",
"                                            x n.>.P H k.6.Z.7.} k.H N G -.k                                             ",
"                                          y x $ { ( n m.H.H.N.H.m.n / { s k .                                           ",
"                                          u c , |  .6.y.u.c.N.u.3.j  .O.^ ! >                                           ",
"                                          k c ' a.O.5.w.4.0 5.0.<.f ] +.O.^ Q                                           ",
"                                        y l 9.U.U._ h 5.5.8.C.5.0 f ' p.U.O...^                                         ",
"                                        y j R.XXXX).B.x.h.k k h.x.B.[.XXoXY.X...                                        ",
"                                        i v.|.Q.T.E.J.y X X X X y L.E.I.T._.M.+.^                                       ",
"                                        u x.:.M H ;.y X . . . . X y ;.F M -.x.i...                                      ",
"                                        i y } l.b.l . . O < < O . . l b.l.v & O.X.                                      ",
"                                        y u u i e . . o 3 V V 3 o . . e y $ . _ o.                                      ",
"                                        y u y $ X . . = L &.&.L = . . . X . X ~ o.                                      ",
"                                        y y y % X . . 1 I R R E 1 . . . . . . ) o.                                      ",
"                                      y y e y e X . X b U W W U b X . . . X . ) o.                                      ",
"                                      y % X r r . . o B U U U W B o . . . . . g `                                       ",
"                                      G + X % y $ . O B E R R E B O . . . X . 0 9                                       ",
"                                      R A . $ y e . = I %.W W W I - . . X X @ 9 7                                       ",
"                                      E P ; . r t . : Z L L L T Z : . . X X - w a                                       ",
"                                      T #.b . $ y % 3 #.%.%.W W #.3 . . X . 6 8 D                                       ",
"                                        &.C O . e 4 m P L T L L P m X X . O S a                                         ",
"                                        T P * X % p J =.*.$.$.*.=.J r $ . : S D                                         ",
"                                          Z 2 X x {.|.`.W.W.W.W.`.[.].z # 6 H                                           ",
"                                            5 h.(.+X@X@X@X+X+X@X@X@X{.S.g.s                                             ",
"                                              .XJ.}.$X@X$X(.(.$X@X+X/.z./.                                              ",
"                                              [.J._.$X@X$XE.E.$X$XOXD.z.K.                                              ",
"                                                  x.|.{..XP.P..X[.(.g.                                                  ",
"                                                      (. X{.{.].K.                                                      ",
"                                                        +X$X@X{.                                                        ",
"                                                        }.@X.X/.                                                        ",
"                                                          oX].                                                          ",
"                                                                                                                        ",
"                                                                                                                        ",
"                                                                                                                        ",
"                                                                                                                        ",
"                                                                                                                        ",
"                                                    ).).).).).).).).                                                    ",
"                                                ).).).).).).).).).).).).).                                              ",
"                                                                                                                        ",
"                                                                                                                        ",
"                                                                                                                        ",
"                                                                                                                        ",
"                                                                                                                        "
};
