/* XPM */
static char *_812f965ffd14ad989d6ed2088b66e3eYUtcpUGULTeJTomL[] = {
/* columns rows colors chars-per-pixel */
"60 60 192 2 ",
"   c None",
".  c #2B2B2B",
"X  c #292726",
"o  c #312D2B",
"O  c #362F26",
"+  c #3B3125",
"@  c #2F3030",
"#  c #343435",
"$  c #3B3B3B",
"%  c #47341E",
"&  c #583D1F",
"*  c #483724",
"=  c #523B26",
"-  c #553238",
";  c #6C373F",
":  c #3F403F",
">  c #7E4A0F",
",  c #794D1D",
"<  c #774D1E",
"1  c #62411B",
"2  c #5E4121",
"3  c #44403C",
"4  c #614220",
"5  c #734F27",
"6  c #5E2E52",
"7  c #6F3C50",
"8  c #532669",
"9  c #5A3273",
"0  c #693867",
"q  c #3F4242",
"w  c #444444",
"e  c #4C4C4B",
"r  c #535353",
"t  c #595A5A",
"y  c #585857",
"u  c #5B544C",
"i  c #7A4444",
"p  c #65655D",
"a  c #65496D",
"s  c #695E60",
"d  c #6C4E7F",
"f  c #73566E",
"g  c #636362",
"h  c #6B6D6C",
"j  c #696B67",
"k  c #787878",
"l  c #746769",
"z  c #8A5419",
"x  c #86541E",
"c  c #9C5F1B",
"v  c #975B17",
"b  c #98550A",
"n  c #A9661D",
"m  c #A4641D",
"M  c #BD701D",
"N  c #BD6D15",
"B  c #87592C",
"V  c #915730",
"C  c #A05E2A",
"Z  c #9A6529",
"A  c #A76926",
"S  c #B87225",
"D  c #A26D30",
"F  c #BC7E39",
"G  c #CA771E",
"H  c #CC791E",
"J  c #C5751D",
"K  c #D57D1E",
"L  c #C57622",
"P  c #CC7A23",
"I  c #D37E21",
"U  c #D87F20",
"Y  c #893D76",
"T  c #87555E",
"R  c #814F58",
"E  c #AD4656",
"W  c #BB475B",
"Q  c #856C4E",
"!  c #997C5C",
"~  c #937147",
"^  c #A67E5B",
"/  c #985A6E",
"(  c #BD4E61",
")  c #BD5365",
"_  c #88797B",
"`  c #93666E",
"'  c #B76975",
"]  c #A27074",
"[  c #AF6C79",
"{  c #CB5569",
"}  c #D1566A",
"|  c #C25E70",
" . c #C74E62",
".. c #C76778",
"X. c #D5697B",
"o. c #BD803A",
"O. c #DC821F",
"+. c #DB8221",
"@. c #C6873F",
"#. c #B48955",
"$. c #AF8652",
"%. c #968165",
"&. c #89867E",
"*. c #AC9274",
"=. c #CA8B42",
"-. c #CE944D",
";. c #5D2780",
":. c #793E9A",
">. c #6B338E",
",. c #7E3BA4",
"<. c #6E5182",
"1. c #735489",
"2. c #7B4498",
"3. c #833DAB",
"4. c #813EA7",
"5. c #845699",
"6. c #87689A",
"7. c #88729A",
"8. c #90738E",
"9. c #8C57AB",
"0. c #915EAD",
"q. c #8D44B5",
"w. c #8F49B7",
"e. c #8F47B8",
"r. c #914CB9",
"t. c #975ABB",
"y. c #8F75A7",
"u. c #9B6DB8",
"i. c #9974B1",
"p. c #C67885",
"a. c #E6778A",
"s. c #A975CB",
"d. c #A36AC7",
"f. c #7F8B8E",
"g. c #878784",
"h. c #968C89",
"j. c #889697",
"k. c #9C9593",
"l. c #979897",
"z. c #918799",
"x. c #A79883",
"c. c #A88F9B",
"v. c #A8989D",
"b. c #B9869A",
"n. c #B7A387",
"m. c #968AA7",
"M. c #A597A5",
"N. c #B99DA5",
"B. c #A698B5",
"V. c #9EA0A0",
"C. c #94A3A4",
"Z. c #9EB1B4",
"A. c #B1ACAE",
"S. c #AEB0AF",
"D. c #B6B3A5",
"F. c #ADA9B7",
"G. c #B3ACBC",
"H. c #B3AFB7",
"J. c #AAB9BB",
"K. c #B1B5B4",
"L. c #BABBBB",
"P. c #B4BEBE",
"I. c #A7A8A7",
"U. c #D88D99",
"Y. c #C7AD8F",
"T. c #DB97A2",
"R. c #E09DA8",
"E. c #CFB0B5",
"W. c #C5C2BA",
"Q. c #AD8AC2",
"!. c #BDAFD1",
"~. c #B4ADC1",
"^. c #BDC2C2",
"/. c #B7C8CA",
"(. c #C1C3C3",
"). c #C8CACE",
"_. c #C8D5D6",
"`. c #D4D6D5",
"'. c #D5DDDB",
"]. c #D4DBD6",
"[. c #D5CCD0",
"{. c #CCDDE0",
"}. c #DDE4E4",
"|. c #E3EAEB",
" X c #EBEEEE",
".X c #E1E7E7",
"XX c #E8EFF1",
"oX c #EEF3F3",
"OX c #F3F6F6",
"+X c #F6F8F7",
"@X c #F7F9F9",
"#X c #F9FAFA",
/* pixels */
"                                                                                                                        ",
"                                                                                                                        ",
"                                                                                                                        ",
"                                                                                                                        ",
"                                                                                                                        ",
"                                                                                                                        ",
"                                                                                                                        ",
"                                                                                                                        ",
"                                                                                                                        ",
"                                                          5.2.                                                          ",
"                                                        u.s.r.:.                                                        ",
"                                                      y.s.d.r.4.d                                                       ",
"                                              . $ $ L.u.t.r.w.3.1.L.$ $ .                                               ",
"                                                X r `.u.q.e.e.,.1.`.r .                                                 ",
"                                                  t }.Q.q.e.w.>.7.}.t                                                   ",
"                                                    '.[.9.3.>.9 )._.                                                    ",
"                                                  V.^.}.~.1.<.G.}.P.V.                                                  ",
"                                                h.e h A.(.^.^.(.A.j e g.                                                ",
"                                            D S F z Q v.N.M.z.c.v.Q z F m ,                                             ",
"                                          k.*.=.O.O.F h.b.!.y./ h.o.K N D %.k.                                          ",
"                                            k h.#.J Z k.8.B.7.8.k.c b ~ &.g                                             ",
"                                          r g.X ` ^ B c.G.~.F.G.c.B ! ] 7 l .                                           ",
"                                          g k - ..' 8.t.0.7.m.0.:.f ' X.) E -                                           ",
"                                        e j _ ..a.| 5.r.,.9 5.3.;.a ( X.X.( E ;                                         ",
"                                        r s p.T.R.` a 6.y.z.M.7.d a ] U.T.p. .W                                         ",
"                                        r l E.OXoX}.F.l.h e e h l.H.}.XXoXE...{                                         ",
"                                        y M.[.Y.n.D.l.q X . . . w V.D.x.n.W.N.X.W                                       ",
"                                        y g.%.z Z x.w . . o o . . w x.Z z ! k X. .                                      ",
"                                        y r k k.h.r . . % > > % . . r h.k.g o ' }                                       ",
"                                        r y r w # . . + v H H v + . . # $ . . / }                                       ",
"                                        r y r # . . . & G +.+.J = . . . . . . R }                                       ",
"                                        r r r $ . . . , O.O.O.U , . . . . . . T {                                       ",
"                                      r e $ r w . . . x P I I P x . . . . . . T {                                       ",
"                                      u # . w e . . O n +.+.+.+.n O . . . . . 0 Y                                       ",
"                                      A * . $ r # . + n L P P L n + . . . . . 9 8                                       ",
"                                      I A o @ r w . = G +.+.+.+.G = . . . . . 8 6                                       ",
"                                      P U 2 . w r @ 2 L L L L L L 2 . . . . = 0 i                                       ",
"                                      S O.v . # r $ , K I I I K U < . . . o B 7 V                                       ",
"                                        I M * . q 3 c K G G G G K c X . . * C i                                         ",
"                                        S H & . q j $.-.=.@.@.=.-.$.p $ . 4 C B                                         ",
"                                          A 1 @ l. X|.}.'.].].'.}.}.{.f.$ 5 A                                           ",
"                                              K.). X#X@X#X X X#X@X+X_.Z.C.                                              ",
"                                              |.S.`.#X+X#X(.(.#X+XoXJ.j./.                                              ",
"                                                I.L.+X+X#X^.^.#X#X|.C.j.                                                ",
"                                                    L._.|.K.K.}.).S.                                                    ",
"                                                      `. X.X}.'.J.                                                      ",
"                                                        oX@XOX_.                                                        ",
"                                                        `.OX|.J.                                                        ",
"                                                          ]./.                                                          ",
"                                                                                                                        ",
"                                                                                                                        ",
"                                                                                                                        ",
"                                                                                                                        ",
"                                                                                                                        ",
"                                                                                                                        ",
"                                                                                                                        ",
"                                                                                                                        ",
"                                                                                                                        ",
"                                                                                                                        ",
"                                                                                                                        "
};
