/* XPM */
static char *result[] = {
/* columns rows colors chars-per-pixel */
"60 60 242 2 ",
"   c #0C0201",
".  c #060709",
"X  c #160706",
"o  c #0D0E12",
"O  c #130F13",
"+  c #120F18",
"@  c #0E1114",
"#  c #111216",
"$  c #1B1311",
"%  c #141519",
"&  c #17181D",
"*  c #19191E",
"=  c #1A161E",
"-  c #1E1109",
";  c #2B0E0C",
":  c #230A09",
">  c #29150B",
",  c #36120C",
"<  c #271A18",
"1  c #381815",
"2  c #320D07",
"3  c #39261B",
"4  c #1C1D22",
"5  c #161B21",
"6  c #271F23",
"7  c #1E2124",
"8  c #1E2329",
"9  c #212126",
"0  c #2A2324",
"q  c #24252A",
"w  c #26282C",
"e  c #292A2E",
"r  c #29262C",
"t  c #362725",
"y  c #2C2D32",
"u  c #232630",
"i  c #2E3134",
"p  c #2D333A",
"a  c #323236",
"s  c #34353A",
"d  c #36393D",
"f  c #3A393E",
"g  c #39383B",
"h  c #382F2D",
"j  c #48180E",
"k  c #591509",
"l  c #481914",
"z  c #581A14",
"x  c #631A0C",
"c  c #6B1C0D",
"v  c #641709",
"b  c #681A12",
"n  c #731D0E",
"m  c #48261A",
"M  c #5A2919",
"N  c #53381A",
"B  c #42311D",
"V  c #6D230D",
"C  c #77290A",
"Z  c #6B2717",
"A  c #732B14",
"S  c #7C2C14",
"D  c #732B1B",
"F  c #792817",
"G  c #6B321D",
"H  c #6B3A1B",
"J  c #78321A",
"K  c #7E350C",
"L  c #482B28",
"P  c #493328",
"I  c #5D3B2C",
"U  c #57362A",
"Y  c #473633",
"T  c #533632",
"R  c #553B33",
"E  c #5C3C34",
"W  c #5D3E39",
"Q  c #5A2B23",
"!  c #662D23",
"~  c #623C2D",
"^  c #693826",
"/  c #733D2C",
"(  c #773826",
")  c #623C33",
"_  c #653C34",
"`  c #723F30",
"'  c #431F24",
"]  c #5C4335",
"[  c #5C413A",
"{  c #534137",
"}  c #6A422E",
"|  c #65422B",
" . c #74422D",
".. c #684636",
"X. c #794835",
"o. c #7D513B",
"O. c #393941",
"+. c #3A3643",
"@. c #534644",
"#. c #765443",
"$. c #68584B",
"%. c #7E644B",
"&. c #5B5961",
"*. c #872B0B",
"=. c #863507",
"-. c #95380B",
";. c #822C14",
":. c #8A2C14",
">. c #862818",
",. c #962E19",
"<. c #893616",
"1. c #96351C",
"2. c #993517",
"3. c #A83A1B",
"4. c #AF3D18",
"5. c #8B3423",
"6. c #993624",
"7. c #A83B25",
"8. c #B23B29",
"9. c #AA3C31",
"0. c #9A4B19",
"q. c #90410D",
"w. c #A74517",
"e. c #B84719",
"r. c #A95819",
"t. c #BD5014",
"y. c #B76212",
"u. c #844D38",
"i. c #845439",
"p. c #8D553A",
"a. c #975439",
"s. c #8D4F28",
"d. c #A7442A",
"f. c #B34224",
"g. c #BD452B",
"h. c #B84527",
"j. c #B75229",
"k. c #A54635",
"l. c #B94833",
"z. c #A55936",
"x. c #9C7025",
"c. c #99662E",
"v. c #A67126",
"b. c #C3441C",
"n. c #C24B1B",
"m. c #C65419",
"M. c #C95613",
"N. c #CC661B",
"B. c #DB6E1C",
"V. c #D56719",
"C. c #DC7419",
"Z. c #CF6A0E",
"A. c #C3432C",
"S. c #C54826",
"D. c #C95522",
"F. c #C34733",
"G. c #D05E23",
"H. c #CE6927",
"J. c #D16623",
"K. c #DE7725",
"L. c #C6753D",
"P. c #E37A25",
"I. c #E36D1E",
"U. c #885A46",
"Y. c #955D47",
"T. c #844D40",
"R. c #8B6245",
"E. c #9A644B",
"W. c #98674A",
"Q. c #936D55",
"!. c #A3684A",
"~. c #B8774D",
"^. c #A97858",
"/. c #BD7B53",
"(. c #BB7B5A",
"). c #B47758",
"_. c #A86C4F",
"`. c #85796F",
"'. c #B47D62",
"]. c #AB7E60",
"[. c #AE5C40",
"{. c #C17351",
"}. c #C07D42",
"|. c #C07F65",
" X c #F79C0D",
".X c #EA8519",
"XX c #F99A18",
"oX c #EF921D",
"OX c #F8A116",
"+X c #DB8528",
"@X c #D99631",
"#X c #ED8C22",
"$X c #E88528",
"%X c #ED9328",
"&X c #FA9C21",
"*X c #F59622",
"=X c #F18C2C",
"-X c #FCA222",
";X c #DC881B",
":X c #BE845C",
">X c #B6805D",
",X c #B78363",
"<X c #B18D6E",
"1X c #C88859",
"2X c #D3935D",
"3X c #C68B65",
"4X c #C7946B",
"5X c #CA9877",
"6X c #D79D76",
"7X c #CB8F6E",
"8X c #D8A379",
"9X c #C8A07E",
"0X c #E4AA79",
"qX c #E8B179",
"wX c #E6A46B",
"eX c #968D8B",
"rX c #B0B2B7",
"tX c #CC9D82",
"yX c #CCA283",
"uX c #C8A48C",
"iX c #DCAB84",
"pX c #D8A786",
"aX c #D9AF93",
"sX c #E6AB84",
"dX c #E9B58A",
"fX c #F3B989",
"gX c #E6BA96",
"hX c #E8B997",
"jX c #E7BFA1",
"kX c #EBC29C",
"lX c #F7C69B",
"zX c #F3C58D",
"xX c #F7CCA6",
"cX c #FED3AB",
"vX c #FBD7A7",
"bX c #F7CFAE",
"nX c #BFC2CA",
"mX c #E6DED6",
"MX c #FCE6D1",
"NX c #F4EFEE",
"BX c #C3C8CF",
"VX c None",
/* pixels */
"VXVXVXVXVXVXVXVXVXVXVXVXVXVXVXVXVXVXVXVXVXVXVXVXVXVXVXVXVXVXVXVXVXVXVXVXVXVXVXVXVXVXVXVXVXVXVXVXVXVXVXVXVXVXVXVXVXVXVXVX",
"VXVXVXVXVXVXVXVXVXVXVXVXVXVXVXVX# # # # # @ VXVXVXVXVXVXVXVXVXVXVXVXVXVXVXVXVXVXVXVXVXVXVXVXVXVXVXVXVXVXVXVXVXVXVXVXVXVX",
"VXVXVXVXVXVXVXVXVXVXVXVXVXVXVX@ o # # # * 4 4 * 4 5 4 4 4 4 o VXVXVXVXVXVXVXVXVXVXVXVXVXVXVXVXVXVXVXVXVXVXVXVXVXVXVXVXVX",
"VXVXVXVXVXVXVXVXVXVXVXVXVXVXVXVXVXVX@ * i g d d s d g f d s * % % # # VXVXVXVXVXVXVXVXVXVXVXVXVXVXVXVXVXVXVXVXVXVXVXVXVX",
"VXVXVXVXVXVXVXVXVXVXVXVXVXVXVXVXVXVXVXVX* 9 q i y e e e e e a a 8 # # o # VXVXVXVXVXo % # # # VXVXVXVXVXVXVXVXVXVXVXVXVX",
"VXVXVXVXVXVXVXVXVXVXVXVXVXVXVXVXVXVXVX. # # % 7 9 q w w r w a d e 9 7 # # VXVXVXVX. o @ o o # VXVXVXVXVXVXVXVXVXVXVXVXVX",
"VXVXVXVXVXVXVXVX% # & $ & & % & % # % # # # # # # 9 w w q w q q a O.p % # . VXVX# # . VXVXVXVXVXVXVXVXVXVXVXVXVXVXVXVXVX",
"VXVXVXVX# # @ % 9 r a a s a a s s i r 9 % # # # % % % # # % 9 r a O.a 5 # # @ @ @ # VXVXVXVXVXVXVXVXVXVXVXVXVXVXVXVXVXVX",
"VXo # 4 6 9 e y a s f O.O.O.O.O.O.O.a y q 4 & o % r y r e r 4 & w i e % # 5 8 4 * 7 # VXVXVXVXVXVXVXVXVXVXVXVXVXVXVXVXVX",
"VX# = q q y a a s s s s s s s i y a a p r q 4 & * y a s d a 8 & 4 q 4 % # 4 q 8 w e * # % VXVXVXVXVXVXVXVXVXVXVXVXVXVXVX",
"VXVXVXVXVXVX# * r r r e w r r 5 & % % % % % 5 r q & % 8 e e s d q % % % # % % 5 w w q r 4 % @ VXVXVXVXVXVXVXVXVXVXVXVXVX",
"VXVXVXVXVXVXVXVX% = & & 4 r r q 9 5 # # @ + % & % % @ 4 r r y y y y e % + + + % w w r r 8 % # VXVXVXVXVXVXVXVXVXVXVXVXVX",
"VXVXVXVXVXVXVXVXVX# # # & 4 4 4 4 4 # % o % % 5 & % @ 4 w w w q a O.s 4 5 % % % 4 9 8 6 5 + + o . @ @ @ o . o # VXVXVXVX",
"VXVXVXVXVXVXVXVXVXVX@ # # & % & % & % & % % 4 r q * % 8 e w q q i d d e e 4 % % # # % @ % # % # @ % % @ % % % # VXVXVXVX",
"VXVXVXVXVXVXVXVXVX# o @ & q 8 a s s a a e q 4 % & y s a O.a r w e e y s s a s e % o # @ & q q q q 8 8 w 8 8 4 % VXVXVXVX",
"VXVXVXVXVXVXVXa e r r r y y a y a y q w 4 4 8 w e s O.O.O.s 4 5 4 * 8 d g f f s r r 5 @ 5 w w r w 8 8 5 4 4 % o VXVXVXVX",
"VX# & a s g f f f f g f O.s d e q 7 % % # % q f d O.O.f d p < < * < 9 p d s f f f f 7 @ % 8 q q w 7 % % % % o . VXVXVXVX",
"VXVXVX# % y O.s f f g g p e w w w q 8 q % + q g g g f h 0 t R | ] | U t 0 a f d f g 7 # # @ % 4 w q w 8 q q 4 # @ VXVXVX",
"VXVXVXVXVX9 q 6 9 7 8 7 8 q 8 7 5 & 5 = # # r O.Y O.d f T ) R.Q.W.!.p.U Y Y d d f d 9 # % 8 8 4 & 4 w r e w r 7 6 @ VXVX",
"VXVXVXVXVXVXVXVXVXVX# # # 7 7 & = < 0 6 # o w O.O.p i { o.p.).(./.>X~.U T Y g d y h 0 0 9 7 7 5 & 4 4 9 8 8 VXVXVXVXVXVX",
"VXVXVXVXVXVXVXVXVXVXVX# @ @ @ 0 t L $.] < o q g O.p p @.^.~.~./.).^.W.P h s f h < > U ..R > $ 6 w 7 # VXVXVXVXVXVXVXVXVX",
"VXVXVXVXVXVXVXVXVXVXVXVXVXo % P T U.8X<X3 O = 0 p rXBX<X3 | 4XsXR.3 @.nXnX&.O t Q.Q.,XtX>XI P 3 # VXVXVXVXVXVXVXVXVXVXVX",
"VXVXVXVXVXVXVXVXVXVXVXVXVXo $ U E W.fX8XB o Y %.%.mXNXeXO P 5XgX%.- @.mXNXeXR ..p.c.4XfX<X..] t VXVXVXVXVXVXVXVXVXVXVXVX",
"VXVXVXVXVXVXVXVXVXVXVXVXVXVXO Y U U.8X<XN - #.iXgXMXMXeXh ..8XdXQ.P &.mXMXaX'._. .H >X8X,XI Y t VXVXVXVXVXVXVXVXVXVXVXVX",
"VXVXVXVXVXVXVXVXVXVXVXVXVXVX% r r Y ..X._ R U.(.<X0XdXhXkXkXsXsXdXkXkXdXdX7X(.!._ W _ #.R < % % # VXVXVXVXVXVXVXVXVXVXVX",
"VXVXVXVXVXVXVXVXVXVXVXVXVXVXVXVXVXVXt < < < T U.p.,X2XsXcXcXlXlXzXzXdX2X3XE.p.X.3 6 < ; $ . . VXVXVXVXVXVXVXVXVXVXVXVXVX",
"VXVXVXVXVXVXVXVXVXVXVXVXVXVXVXVXVXVXj > , > B M } Y.W.4XhXdXfXhX8X<X:XE.!.X.! Q , > : : : ; ; VXVXVXVXVXVXVXVXVXVXVXVXVX",
"VXVXVXVXVXVXVXVXVXVXVXVXVXVXVXG J ;.<.<.K =.C k M /  .Y.(./.|.,Xa. . . . .M z z z x b b b z z 1 VXVXVXVXVXVXVXVXVXVXVXVX",
"VXVXVXVXVXVXVXVXVXVXVXVXVXVXVXJ C w.+X;X+X$Xr.k Z 5XaX4X~.:XdXkX7XE.^.aXaXU.z b 6.d.9.9.5.x k 1 VXVXVXVXVXVXVXVXVXVXVXVX",
"VXVXVXVXVXVXVXVXVXVXVXVXVXVXz 6.-.N.XXXX.XC.w.V ( hXMXgX8X8XiXiXpXpX0XcXcXE.k n 6.4.h.A.8.,.>.z 1 VXVXVXVXVXVXVXVXVXVXVX",
"VXVXVXVXVXVXVXVXVXVXVXVXVXH ;.d.j.H.%X#XM.e.f.<.0.8XkXjXhXaX].!.5XhXhXaXhXY.k V K *.w.S.A.F.l.F m L VXVXVXVXVXVXVXVXVXVX",
"VXVXVXVXVXVXVXVXVXVXVXVXVX) ( !.{.~.~.L.j.g.J.=X+X0.<.J D Z Z b Z D D D D D F F J S [.{.{.{.).u._ E VXVXVXVXVXVXVXVXVXVX",
"VXVXVXVXVXVXVXVXVXVXVXVXVXW } ,X8X6XdXiXk.2.e.V.N.Z.H.r.,.1.1.2.1.6.6.1.2.3.7.3.n c ).6X2X{.).u._ W VXVXVXVXVXVXVXVXVXVX",
"VXVXVXVXVXVXVXVXVXVXVXVXVX)  .5XfXzXvXzXs.V 5.w.e.P.#XI.G.G.m.J.S.A.F.8.S.8.8.2.v k {.fXwX1X1Xp.) [ VXVXVXVXVXVXVXVXVXVX",
"VXVXVXVXVXVXVXVXVXVXVXVXVX] ..yXcXxXcXhX/ k n ;.:.f.n.I.XX X XXXZ.b.S.A.8.3.*.F x k (.sX0X0X8XY.I [ VXVXVXVXVXVXVXVXVXVX",
"VXVXVXVXVXVXVXVXVXVXVXVXVX] } ).5X'.U.U.! k b ;.<.d.h.B.-X X XOXXX#XB.3.,.4.8.7.x z X.U.W.3X:Xi.) [ VXVXVXVXVXVXVXVXVXVX",
"VXVXVXVXVXVXVXVXVXVXVXVXVX] / !.{.E.~ E 1 ; , j k ( J s.v.v.x.x.x.x.s.M M Z D Q 2 ; U ~ X.).^.i.) W VXVXVXVXVXVXVXVXVXVX",
"VXVXVXVXVXVXVXVXVXVXVXVXVX[ _ _.'.E.~ [ $       X 1 ' L M N N U 3 1 0 3 3 - X X     T | u.).).u.) W VXVXVXVXVXVXVXVXVXVX",
"VXVXVXVXVXVXVXVXVXVXVXVXVX_ / !.).W._ ..>   - j b 5.k.k.d.j.+X@Xr.C A 9.k.F k ,     R ~ o./.).i.) [ VXVXVXVXVXVXVXVXVXVX",
"VXVXVXVXVXVXVXVXVXVXVXVXVX_  .>X8X^.^ ~ 1 : l V *.H.$XG.b.m.*XOXN.3.4.A.j.:.v ,     P I i.5X5Xp.I [ VXVXVXVXVXVXVXVXVXVX",
"VXVXVXVXVXVXVXVXVXVXVXVXVXW / 7XfX4XR.R.M z Z 1.-.$X-XC.e.m.#X-XB.b.A.A.l.>.v l : : ..i._.sXsXR.I W VXVXVXVXVXVXVXVXVXVX",
"VXVXVXVXVXVXVXVXVXVXVXVXVX_ / 4XdXdXxXhX/ k :.h.M.#X&XB.e.D.=X%XJ.4.A.A.8.>.b z R | ,XqXqXqXsXR.E [ VXVXVXVXVXVXVXVXVXVX",
"VXVXVXVXVXVXVXVXVXVXVXVXVXW } yXbXaX7X7XD k *.e.M..X&XI.b.4.-.-.*.n :.A.A.2.F G ..| _.3X2XqX0XR.W @.VXVXVXVXVXVXVXVXVXVX",
"VXVXVXVXVXVXVXVXVXVXVXVXVXVX] <XtX'.Y.Y.D V -.V.C.oXXX.XV.m.V k x b F 7.7.1.2.5.Z ! T.E._.>X,X#.VXVXVXVXVXVXVXVXVXVXVXVX",
"VXVXVXVXVXVXVXVXVXVXVXVXVXVXVX] ~ ) _ ` G A r.&X X X X XXX;XC j Z S >.>.*.7.g.8.n b ! I ] I ] VXVXVXVXVXVXVXVXVXVXVXVXVX",
"VXVXVXVXVXVXVXVXVXVXVXVXVXVXVXVXVXVXVXVXH A y.XX X X X XXX;XC k V ;.S ;.*.3.g.g.9.9.F z m VXVXVXVXVXVXVXVXVXVXVXVXVXVXVX",
"VXVXVXVXVXVXVXVXVXVXVXVXVXVXVXVXVXVXVX;.1.2.Z. X XXX&X.XC.N.C b V n F 6.3.f.A.S.A.F.>.k VXVXVXVXVXVXVXVXVXVXVXVXVXVXVXVX",
"VXVXVXVXVXVXVXVXVXVXVXVXVXVXVXVXVXVXG :.j.G.B.#X.X.X#XJ.e.e.3.0.C k Z 8.g.8.8.8.A.F.>.z VXVXVXVXVXVXVXVXVXVXVXVXVXVXVXVX",
"VXVXVXVXVXVXVXVXVXVXVXVXVXVXVXVXVXVXG =.C.-XC.t.S.S.b.b.b.m.$X%X0.k x S :.;.;.2.h.l.F z VXVXVXVXVXVXVXVXVXVXVXVXVXVXVXVX",
"VXVXVXVXVXVXVXVXVXVXVXVXVXVXVXVXVXVXD -.$X-XC.e.4.S.b.I.P.P.V.J.2.v v A S C C S F D VXVXVXVXVXVXVXVXVXVXVXVXVXVXVXVXVXVX",
"VXVXVXVXVXVXVXVXVXVXVXVXVXVXVXVXVXVXG =.H.+XC.V.V.V.V.C.$XK.b.A.,.c A k.z.z.z.a.M Q VXVXVXVXVXVXVXVXVXVXVXVXVXVXVXVXVXVX",
"VXVXVXVXVXVXVXVXVXVXVXVXVXVXVXVXVXVX! S d.e.J.=X%XoXoXV.e.h.g.g.1.S s.6X0XsXsX<X..E VXVXVXVXVXVXVXVXVXVXVXVXVXVXVXVXVXVX",
"VXVXVXVXVXVXVXVXVXVXVXVXVXVXVXVXVXVXVXVX( J <.q.q.-.-.-.*.:.>.5.J / / o.o.o.#.#.VXVXVXVXVXVXVXVXVXVXVXVXVXVXVXVXVXVXVXVX",
"VXVXVXVXVXVXVXVXVXVXVXVXVXVXVXVXVXVXVXVXVXVX^ ^ G p.a.a.z.a.J ^ ) VXVXVXVXVXVXVXVXVXVXVXVXVXVXVXVXVXVXVXVXVXVXVXVXVXVXVX",
"VXVXVXVXVXVXVXVXVXVXVXVXVXVXVXVXVXVXVXVXVXVXVXi.p.~././.{.).p.o.#.VXVXVXVXVXVXVXVXVXVXVXVXVXVXVXVXVXVXVXVXVXVXVXVXVXVXVX",
"VXVXVXVXVXVXVXVXVXVXVXVXVXVXVXVXVXVXVXVX@.R W.0X8X:X/.~.~.1X8XiX_.^ ..VXVXVXVXVXVXVXVXVXVXVXVXVXVXVXVXVXVXVXVXVXVXVXVXVX",
"VXVXVXVXVXVXVXVXVXVXVXVXVXVXVXVXVXVXVXVX) ~ ^.cXlXhXhXgXgXhXlXbX^.I | VXVXVXVXVXVXVXVXVXVXVXVXVXVXVXVXVXVXVXVXVXVXVXVXVX",
"VXVXVXVXVXVXVXVXVXVXVXVXVXVXVXVXVXVXVXVXVXE Q.uX9XyX5XyXtXyXyXuXQ.{ ] VXVXVXVXVXVXVXVXVXVXVXVXVXVXVXVXVXVXVXVXVXVXVXVXVX",
"VXVXVXVXVXVXVXVXVXVXVXVXVXVXVXVXVXVXVXVXVXVXVX....@..._ ..I | ] { VXVXVXVXVXVXVXVXVXVXVXVXVXVXVXVXVXVXVXVXVXVXVXVXVXVXVX",
"VXVXVXVXVXVXVXVXVXVXVXVXVXVXVXVXVXVXVXVXVXVXVXVXVXVXVXVXVXVXVXVXVXVXVXVXVXVXVXVXVXVXVXVXVXVXVXVXVXVXVXVXVXVXVXVXVXVXVXVX"
};
