/* XPM */
static char *result[] = {
/* columns rows colors chars-per-pixel */
"60 60 239 2 ",
"   c #0A0B0D",
".  c #0E0E13",
"X  c #120D15",
"o  c #0F1115",
"O  c #0E1319",
"+  c #111216",
"@  c #13151A",
"#  c #16191D",
"$  c #1A1A1E",
"%  c #1A1415",
"&  c #1A0E0A",
"*  c #271308",
"=  c #271B19",
"-  c #2B0B07",
";  c #1E251E",
":  c #2C241D",
">  c #32231D",
",  c #3A2418",
"<  c #1C1D22",
"1  c #161B20",
"2  c #251F20",
"3  c #1F2025",
"4  c #1F262C",
"5  c #212226",
"6  c #2B2423",
"7  c #24262B",
"8  c #25282C",
"9  c #292A2E",
"0  c #28272C",
"q  c #2C2E32",
"w  c #252A33",
"e  c #2E3134",
"r  c #2E353A",
"t  c #323336",
"y  c #333539",
"u  c #37393C",
"i  c #393A3D",
"p  c #3B3838",
"a  c #322F2D",
"s  c #5B1503",
"d  c #5A170B",
"f  c #4A1B17",
"g  c #531A13",
"h  c #581A15",
"j  c #48150A",
"k  c #66190A",
"l  c #771D0B",
"z  c #641C11",
"x  c #751C12",
"c  c #432B17",
"v  c #5C2216",
"b  c #523719",
"n  c #6A220A",
"m  c #78270A",
"M  c #6B2314",
"N  c #652B1C",
"B  c #69281B",
"V  c #762313",
"C  c #7C2512",
"Z  c #732C12",
"A  c #7B2C14",
"S  c #732D1C",
"D  c #7D2D19",
"F  c #6A351E",
"G  c #74321D",
"H  c #79331B",
"J  c #462A26",
"K  c #562922",
"L  c #43342B",
"P  c #4B3628",
"I  c #5B3C2C",
"U  c #553629",
"Y  c #443635",
"T  c #5D3D33",
"R  c #553D3A",
"E  c #5C3D3B",
"W  c #553A34",
"Q  c #672B23",
"!  c #762E23",
"~  c #6B3323",
"^  c #643C2C",
"/  c #693A2C",
"(  c #673827",
")  c #773826",
"_  c #633C33",
"`  c #663B36",
"'  c #713D31",
"]  c #7D471C",
"[  c #584138",
"{  c #6C4329",
"}  c #77442D",
"|  c #634233",
" . c #6A4739",
".. c #734332",
"X. c #734D3C",
"o. c #794934",
"O. c #7C5238",
"+. c #3A3B41",
"@. c #363941",
"#. c #5E4144",
"$. c #785746",
"%. c #714E41",
"&. c #736459",
"*. c #777578",
"=. c #852B0C",
"-. c #853508",
";. c #832D1A",
":. c #862B13",
">. c #932C17",
",. c #893317",
"<. c #9A341A",
"1. c #973818",
"2. c #9D370E",
"3. c #A73B1B",
"4. c #843C27",
"5. c #973825",
"6. c #8D3D31",
"7. c #A73926",
"8. c #A53C30",
"9. c #9E401C",
"0. c #934212",
"q. c #A5490A",
"w. c #AB580D",
"e. c #A74816",
"r. c #B9481B",
"t. c #AA5617",
"y. c #B8581A",
"u. c #B2500E",
"i. c #874629",
"p. c #874835",
"a. c #875638",
"s. c #97593B",
"d. c #8F4E2F",
"f. c #A94727",
"g. c #BA4624",
"h. c #BA452C",
"j. c #B54726",
"k. c #B34C2F",
"l. c #98672C",
"z. c #BE6B25",
"x. c #C2441C",
"c. c #C24817",
"v. c #C85B18",
"b. c #CB5D17",
"n. c #C86519",
"m. c #DD6C1C",
"M. c #D76918",
"N. c #DB7918",
"B. c #E67C1C",
"V. c #E47D0E",
"C. c #C24525",
"Z. c #C85629",
"A. c #D76622",
"S. c #CA7824",
"D. c #D47025",
"F. c #E77C21",
"G. c #855943",
"H. c #855846",
"J. c #955945",
"K. c #8D4F41",
"L. c #A25D40",
"P. c #886147",
"I. c #9A6243",
"U. c #95654C",
"Y. c #9C634B",
"T. c #976747",
"R. c #8C6C53",
"E. c #996B56",
"W. c #97745E",
"Q. c #A26C4D",
"!. c #A86A49",
"~. c #AD724E",
"^. c #B8774A",
"/. c #A46B57",
"(. c #AC7454",
"). c #A67759",
"_. c #BB7B5B",
"`. c #B67B56",
"'. c #817D7D",
"]. c #B07B62",
"[. c #C76343",
"{. c #DD921C",
"}. c #F89C0A",
"|. c #F69D0C",
" X c #E58B1B",
".X c #E88619",
"XX c #F99C14",
"oX c #F69A19",
"OX c #EA8E19",
"+X c #F9A01B",
"@X c #DC8725",
"#X c #DB8D2E",
"$X c #E58725",
"%X c #F48B2E",
"&X c #ED9D29",
"*X c #F99C24",
"=X c #ED903A",
"-X c #FAA324",
";X c #BC835B",
":X c #B7835A",
">X c #B88464",
",X c #B28874",
"<X c #B08F70",
"1X c #C28759",
"2X c #D6925F",
"3X c #C68A66",
"4X c #CA936A",
"5X c #D39568",
"6X c #CA9778",
"7X c #D69A78",
"8X c #C18F75",
"9X c #D9A67A",
"0X c #D7A777",
"qX c #E6A97E",
"wX c #E49D73",
"eX c #D49F82",
"rX c #D7A986",
"tX c #CFAD91",
"yX c #E2AD84",
"uX c #E8AB83",
"iX c #E4B18A",
"pX c #EBB689",
"aX c #F4B886",
"sX c #E7BA98",
"dX c #F2B290",
"fX c #ECB9A5",
"gX c #EFC49C",
"hX c #F9C799",
"jX c #EEC3A5",
"kX c #F5CCA4",
"lX c #FBCDA1",
"zX c #F4C6A7",
"xX c #FCD4AB",
"cX c #FDD7B2",
"vX c #F1CFB2",
"bX c #E8DBD2",
"nX c #F6F7FA",
"mX c #DBCFD0",
"MX c None",
/* pixels */
"MXMXMXMXMXMXMXMXMXMXMXMXMXMXMXMXMXMXMXMXMXMXMXMXMXMXMXMXMXMXMXMXMXMXMXMXMXMXMXMXMXMXMXMXMXMXMXMXMXMXMXMXMXMXMXMXMXMXMXMX",
"MXMXMXMXMXMXMXMXMXMXMXMXMXMXMXMX+ + @ $ 3 MXMXMXMXMXMXMXMXMXMXMXMXMXMXMXMXMXMXMXMXMXMXMXMXMXMXMXMXMXMXMXMXMXMXMXMXMXMXMX",
"MXMXMXMXMXMXMXMXMXMXMXMXMXMXMXMX+ + 3 i r ; o O @ O O @ MXMXMXMXMXMXMXMXMXMXMXMXMXMXMXMXMXMXMXMXMXMXMXMXMXMXMXMXMXMXMXMX",
"MXMXMXMXMXMXMXMXMXMXMXMXMXMXMXMX+ o $ q q q e e q q q e < . . + . MXMXMXMXMXMXMXMXMXMX+ + MXMXMXMXMXMXMXMXMXMXMXMXMXMXMX",
"MXMXMXMXMXMXMXMXMXMXMXMXMXMXMXMXMXo @ 3 3 e t y e r r r q < 3 5 5 X MXMXMXMXMXMXMXMXMX% . MXMXMXMXMXMXMXMXMXMXMXMXMXMXMX",
"MXMXMXMXMXMXMXMXMXMXMXMXMXMXMXMXMXMXMXo @ 3 7 4 7 7 7 7 y u u i y 5 # MXMXMXMXMXMXMX  + + MXMXMXMXMXMXMXMXMXMXMXMXMXMXMX",
"MXMXMXMXMXMXMXMXMXMX+ X + @ X + + + + + O O # @ @ # 7 0 9 9 q +.i y y 9 MXMXMXMXMX+   MXMXMXMXMXMXMXMXMXMXMXMXMXMXMXMXMX",
"MXMXMXMXMXMXMXMX. $ < 5 9 7 0 0 7 7 5 < 3 O o O o O # $ < $ 7 i i i @.9 o @ MXMX+ +   MXMXMXMXMXMXMXMXMXMXMXMXMXMXMXMXMX",
"MXMXMXMX@ % # $ $ 0 9 y +.@.y y y t e 7 4 @ + O O @ # $ $ # 5 y y i i 7 X @ + # # @ + MXMXMXMXMXMXMXMXMXMXMXMXMXMXMXMXMX",
"MXMX+ + < 0 9 u u u i u +.t 1 @ @ # @ + + O @ X + # y u y i e + < t +.7 X @ 7 7 7 7 5 + MXMXMXMXMXMXMXMXMXMXMXMXMXMXMXMX",
"MXMX+ + @ $ $ 3 < q q q e q 7 < # + X + X + + @ @ @ 3 3 7 q q q q 5 3 1 + @ 1 1 5 9 7 3 3 @ MXMXMXMXMXMXMXMXMXMXMXMXMXMX",
"MXMXMXMXMXMXMXMXMX3 < 5 < < 0 0 < # # < 1 @ @ + + @ o o 3 7 9 u y 5 3 1 + @ X O < 0 0 9 7 @ o + MXMXMXMXMXMXMXMXMXMXMXMX",
"MXMXMXMXMXMXMXMXMXMX+ + + # 7 7 9 0 7 7 5 1 X X @ + + + 3 9 7 7 9 y +.9 @ + + + < 7 7 7 7 # o +   MXMXMX. + + MXMXMXMXMX",
"MXMXMXMXMXMXMXMXMXMXMXX + + X @ @ # @ @ 1 X @ 1 7 5 @ X 3 7 7 7 0 u +.q 5 3 @ + @ # $ @ @ O + o o o o o o @ + X + MXMXMX",
"MXMXMXMXMXMXMXMXMXMXMX# < < 1 < 5 7 7 7 7 < < < < 5 7 7 7 7 7 7 7 q t q q t 7 7 $ X + X @ < $ 3 < 1 1 < < $ # @ + MXMXMX",
"MXMXMXMXMXMXMXMXMXMX$ 5 q 9 9 9 y y i y y 9 5 < # < y i q 9 9 9 0 7 7 q u u i i 7 $ # + @ 3 8 8 8 7 7 4 7 4 < @ . MXMXMX",
"MXMXMXMXMXMX$ 0 0 y y u u u u u q 9 5 @ @ @ @ 7 @.y 9 0 y u y @.t $ + < 9 9 u u u u 9 @ o 5 8 8 7 4 # O @ @ X MXMXMXMXMX",
"MXMXMXMX0 t e y r i i u u y e q 9 7 7 5 < @ + 9 i i y e u i y < 2 a L > + ; p u i +.q @ o % 1 3 8 7 3 3 # o o . . + MXMX",
"MXMXMXMXq u y q e 9 q t y e 4 w < 5 5 5 3 + O 8 p i +.@.e w a L J X.G.I = : p p r r 9 # . o o # 3 3 7 7 < # @ + + o MXMX",
"MXMXMXMXMXMXMX@ + + O ; 7 8 4 4 1 X % % @ @ O 8 @.p i p 6 * U )._.`._.H._ [ Y u e a : % % @ + + O # 7 7 7 0 5 @ MXMXMXMX",
"MXMXMXMXMXMXMXMXMX+ + @ # # # # < 6 > P L = & 6 Y t 3 % %.E.Q.^.:X:X^.a.> 5 6 6 X.W.G.U L = X + o + # @ @ MXMXMXMXMXMXMX",
"MXMXMXMXMXMXMXMXMXMXMX+ + o O o 6 J | W.R.X.| P t 9 O o W $.U.4X>XP.O.&.*.*.Y c P.:X`./.E.W > = + + + MXMXMXMXMXMXMXMXMX",
"MXMXMXMXMXMXMXMXMXMXMXMXMXMX+ + L I P.iXuX:X).$.L p a r : *  .rXtXI O *.nXmX&...s.~.;XpXrXG.T L + MXMXMXMXMXMXMXMXMXMXMX",
"MXMXMXMXMXMXMXMXMXMXMXMXMXMXMXMX, ^ I.iXrXs.) E.0XtXbXbX&.*  .iX9X[ & ,XnXbX,X].a.{ l.iXuXa.^ L MXMXMXMXMXMXMXMXMXMXMXMX",
"MXMXMXMXMXMXMXMXMXMXMXMXMXMXMX. : J [ R.R. ./ Y.4X4XgXvXeX<X<XyX0X<X<XtXvXgX_.[.O.( o.E.E.J > 2   MXMXMXMXMXMXMXMXMXMXMX",
"MXMXMXMXMXMXMXMXMXMXMXMXMXMXMXMX; 5 a [ W W U O.Q.~.7XwXgXxXlXpXgXhXhXaX0X4X!.!...W E E R = X @ @ MXMXMXMXMXMXMXMXMXMXMX",
"MXMXMXMXMXMXMXMXMXMXMXMXMXMXMXMXMXMXMXMXMXMXMXP | o.(.`.iXlXlXlXlXpXqX4X:X(.} ` c MXMXMXMXMXMXMXMXMXMXMXMXMXMXMXMXMXMXMX",
"MXMXMXMXMXMXMXMXMXMXMXMXMXMXMXMXMXMXMXS A Z M N v v o.o.(.4X4X4X>Xs.a.O.] { v v f f g g f MXMXMXMXMXMXMXMXMXMXMXMXMXMXMX",
"MXMXMXMXMXMXMXMXMXMXMXMXMXMXMXMXMX~ S 5.1.t.t.0.s B E.).`.~.;X9X6XY.p.U.W.E.B d z M M ;.;.Q MXMXMXMXMXMXMXMXMXMXMXMXMXMX",
"MXMXMXMXMXMXMXMXMXMXMXMXMXMXMXMX~ A 1.y.v.$X-Xw.s ) zXcX0X`.7XgXgX4X;X9XcXsXQ d C >.<.h.8.B h h MXMXMXMXMXMXMXMXMXMXMXMX",
"MXMXMXMXMXMXMXMXMXMXMXMXMXMXMXMXN m q.%XoXoX*Xn.m i.fXcXkXzXyX;X3XsXkXlXcXfXB s 5.h.3.>.;.M h g f J MXMXMXMXMXMXMXMXMXMX",
"MXMXMXMXMXMXMXMXMXMXMXMXMXMXMXB 4.1.r.A.M.M.M.n.n.S.^.(.E./.J.i.i.J.E.E.Y.J.S V 7.C.7.l k p.K.6.Q K MXMXMXMXMXMXMXMXMXMX",
"MXMXMXMXMXMXMXMXMXMXMXMXMXMX~ H k.[.[.[.[.j.e.n.$X@Xq.0.=.x x x x l l x l x :.:.5.8.8.p.o.>X6X/.' [ MXMXMXMXMXMXMXMXMXMX",
"MXMXMXMXMXMXMXMXMXMXMXMXMXMX^ { 1XqXaXkXfXs.m 1.r.b.%X%Xb.r.h.g.g.g.C.g.h.f.=.A x s K.jXvXkXxX8X( ` MXMXMXMXMXMXMXMXMXMX",
"MXMXMXMXMXMXMXMXMXMXMXMXMXMXT ^ 6XlXhXcXfX6.k V >.2.v.n.V..X XOX.X.X$Xm.C.j.=.A M s p.dXaXaXaX2X!.P.| [ MXMXMXMXMXMXMXMX",
"MXMXMXMXMXMXMXMXMXMXMXMXMXMX| ^ <XtXgXcXzX4.s C <.3.n.M.OX}.}.}.XXB.F.v.7.<.C m M v ..].;X5X5X2X5X:X} _ MXMXMXMXMXMXMXMX",
"MXMXMXMXMXMXMXMXMXMXMXMXMXMX_ | Y.].4XhXsX4.d ;.f.t.#X{.{.{.{.{.#Xy.f.1.S Q d j Q / ` ` ..U.(.3XqX7Xo._ MXMXMXMXMXMXMXMX",
"MXMXMXMXMXMXMXMXMXMXMXMXMXMX| / E.[._.1X>X) ` J - - c c P [ U U b c c , , = & MXMXMXMX| ` ..{ P.>X`.} ` MXMXMXMXMXMXMXMX",
"MXMXMXMXMXMXMXMXMXMXMXMXMXMX| / Q.`.1X5X4Xa./ K f g ~ ) ( b ) l.l.i.Z i.l.O.j , MXMXMXMXT ` ^ G.`./...` MXMXMXMXMXMXMXMX",
"MXMXMXMXMXMXMXMXMXMXMXMXMXMX#.E H.!.;XpX9Xs.o.) ! ,.j.C.2.m t.&X*Xb.c.A.+X#Xm n MXMXMXMXMX` / J.3X`.} ` MXMXMXMXMXMXMXMX",
"MXMXMXMXMXMXMXMXMXMXMXMXMXMXMXMXI ( s.uXqX;X`.P./ 4.k.h.2.-.w.&XoXb.x.m.oX$X-.S MXMXMXMXMX| ^ /.pX7Xo.` MXMXMXMXMXMXMXMX",
"MXMXMXMXMXMXMXMXMXMXMXMXMXMXMXMX[ ^ a.4X4XyXpXiXrX6Xo.) H m 0.&XoXb.x.m.*X$Xu.e.4.S ~ ^  .,XtXiXlXiXo.T MXMXMXMXMXMXMXMX",
"MXMXMXMXMXMXMXMXMXMXMXMXMXMXMXMXMX[ X.U.Q.sXxXhXpXrX ._ ! A 0.n.v.1.2.b.oXoXM.n.3.A F /  .6XsXgXcXfXX.T MXMXMXMXMXMXMXMX",
"MXMXMXMXMXMXMXMXMXMXMXMXMXMXMXMXMXMXMXI  .tXvXeX(.Y.} ~ G ;.V k k k k t.oXXXoXoXt.m G / { T.^.6XvXtX%.E MXMXMXMXMXMXMXMX",
"MXMXMXMXMXMXMXMXMXMXMXMXMXMXMXMXMXMXMXMXMXH.H.a.o.} G D :.A m d k >.e.A.oX|.|.oXw.Z N MXMX .X.X.$.$.MXMXMXMXMXMXMXMXMXMX",
"MXMXMXMXMXMXMXMXMXMXMXMXMXMXMXMXMXMXMXMXh 4.6.) F G D C <.7.,.d l z.m..X|.|.}.XXw.Z ^ MXMXMXMXMXMXMXMXMXMXMXMXMXMXMXMXMX",
"MXMXMXMXMXMXMXMXMXMXMXMXMXMXMXMXMXMXMXf z 6.f.5.:.>.>.>.8.8.5.z n @X-X|.XXXX|.oXw.Z I MXMXMXMXMXMXMXMXMXMXMXMXMXMXMXMXMX",
"MXMXMXMXMXMXMXMXMXMXMXMXMXMXMXMXMXMXMXf z :.:.7.h.C.g.g.<.:.V d n D.oX|.|.|.|.XXw.Z F MXMXMXMXMXMXMXMXMXMXMXMXMXMXMXMXMX",
"MXMXMXMXMXMXMXMXMXMXMXMXMXMXMXMXMXMXMXMXMXh z C C C C C M k n M =.y.M.V.|.oXXXoXn.1.4.! MXMXMXMXMXMXMXMXMXMXMXMXMXMXMXMX",
"MXMXMXMXMXMXMXMXMXMXMXMXMXMXMXMXMXMXMXMXMXMXf v v Q p.p.Q d m t.q.r.r.A.F.F.F.B.m.n.y.=.~ MXMXMXMXMXMXMXMXMXMXMXMXMXMXMX",
"MXMXMXMXMXMXMXMXMXMXMXMXMXMXMXMXMXMXMXMXMXMXMXMX/ K.eXuXp.s 0.=X%Xb.x.c.C.x.x.c..X*XN.-.S MXMXMXMXMXMXMXMXMXMXMXMXMXMXMX",
"MXMXMXMXMXMXMXMXMXMXMXMXMXMXMXMXMXMXMXMXMXMXMXMXMXMX%.H.Q k C k.n.B.%Xm.x.C.C.c.N.+XN.-.~ MXMXMXMXMXMXMXMXMXMXMXMXMXMXMX",
"MXMXMXMXMXMXMXMXMXMXMXMXMXMXMXMXMXMXMXMXMXMXMXMXMXMXMXMXK h x <.q. XXXOXm.m.m.m.m.N.y.A ~ MXMXMXMXMXMXMXMXMXMXMXMXMXMXMX",
"MXMXMXMXMXMXMXMXMXMXMXMXMXMXMXMXMXMXMXMXMXMXMXMXMXMXMXMXf f z l =.S.@X@XOX X{.$Xv.f.f.! MXMXMXMXMXMXMXMXMXMXMXMXMXMXMXMX",
"MXMXMXMXMXMXMXMXMXMXMXMXMXMXMXMXMXMXMXMXMXMXMXMXMXMXMXMXMXMX, g z k n m 0.-.,.-.,.;.! MXMXMXMXMXMXMXMXMXMXMXMXMXMXMXMXMX",
"MXMXMXMXMXMXMXMXMXMXMXMXMXMXMXMXMXMXMXMXMXMXMXMXMXMXMXMXMXMXW U ( d.s.s.s.s.) ( N N MXMXMXMXMXMXMXMXMXMXMXMXMXMXMXMXMXMX",
"MXMXMXMXMXMXMXMXMXMXMXMXMXMXMXMXMXMXMXMXMXMXMXMXMXMXMXMXMXMX#.` ..].5X5X5X1XT.R. .MXMXMXMXMXMXMXMXMXMXMXMXMXMXMXMXMXMXMX",
"MXMXMXMXMXMXMXMXMXMXMXMXMXMXMXMXMXMXMXMXMXMXMXMXMXMXMXMXMXMX#.T  .tXvXpX0X0XgXkXW.[ MXMXMXMXMXMXMXMXMXMXMXMXMXMXMXMXMXMX",
"MXMXMXMXMXMXMXMXMXMXMXMXMXMXMXMXMXMXMXMXMXMXMXMXMXMXMXMXMXMXMX| | $.H.$.$.G.H.H.%.| MXMXMXMXMXMXMXMXMXMXMXMXMXMXMXMXMXMX",
"MXMXMXMXMXMXMXMXMXMXMXMXMXMXMXMXMXMXMXMXMXMXMXMXMXMXMXMXMXMXMXMX[ [ [ MXMXR #.R ` MXMXMXMXMXMXMXMXMXMXMXMXMXMXMXMXMXMXMX"
};
