/* XPM */
static char *result[] = {
/* columns rows colors chars-per-pixel */
"60 60 244 2 ",
"   c #010103",
".  c #050609",
"X  c #0B0B0E",
"o  c #080709",
"O  c #160A08",
"+  c #0D0E12",
"@  c #0F1115",
"#  c #0E1219",
"$  c #121216",
"%  c #13151A",
"&  c #16191D",
"*  c #191A1E",
"=  c #191617",
"-  c #171012",
";  c #24160D",
":  c #261918",
">  c #3C1B1A",
",  c #361915",
"<  c #3A1E0D",
"1  c #392418",
"2  c #2C201E",
"3  c #1B1D22",
"4  c #171D23",
"5  c #211F22",
"6  c #1E2125",
"7  c #1D232A",
"8  c #1E2631",
"9  c #222226",
"0  c #24262A",
"q  c #25282C",
"w  c #292A2E",
"e  c #292725",
"r  c #362927",
"t  c #2C2D32",
"y  c #262C31",
"u  c #312E32",
"i  c #2E3035",
"p  c #2F383A",
"a  c #323235",
"s  c #34363A",
"d  c #3A363A",
"f  c #36393D",
"g  c #39393E",
"h  c #3A3334",
"j  c #3B312B",
"k  c #4A1B0C",
"l  c #5D150C",
"z  c #581709",
"x  c #481915",
"c  c #581C16",
"v  c #631B0B",
"b  c #651A09",
"n  c #661B13",
"m  c #741E0F",
"M  c #4A2518",
"N  c #592718",
"B  c #463718",
"V  c #69220E",
"C  c #732B0D",
"Z  c #792709",
"A  c #6C2C1B",
"S  c #652717",
"D  c #7B2B13",
"F  c #732C1B",
"G  c #7C2B1B",
"H  c #762A12",
"J  c #6A321B",
"K  c #7B331B",
"L  c #77390C",
"P  c #492925",
"I  c #4A332B",
"U  c #5D3C2B",
"Y  c #583828",
"T  c #483A3B",
"R  c #5D3C34",
"E  c #573C38",
"W  c #582C2B",
"Q  c #672B23",
"!  c #663B2B",
"~  c #773926",
"^  c #633C34",
"/  c #633C38",
"(  c #743E30",
")  c #5A4237",
"_  c #6C432C",
"`  c #72422D",
"'  c #7C4229",
"]  c #624134",
"[  c #6D4434",
"{  c #6C4B37",
"}  c #744434",
"|  c #744936",
" . c #764A39",
".. c #7E512E",
"X. c #3B3B41",
"o. c #3B3742",
"O. c #603D40",
"+. c #534E4F",
"@. c #685148",
"#. c #7A5847",
"$. c #6F564C",
"%. c #7A6552",
"&. c #70747B",
"*. c #842C08",
"=. c #86370C",
"-. c #93380C",
";. c #862B19",
":. c #972E1C",
">. c #893617",
",. c #983519",
"<. c #A43A17",
"1. c #A0380F",
"2. c #8A2E20",
"3. c #863925",
"4. c #993826",
"5. c #923D30",
"6. c #923328",
"7. c #AB3B22",
"8. c #B23E2A",
"9. c #C33F28",
"0. c #8D4206",
"q. c #9A431A",
"w. c #994D13",
"e. c #A44D0A",
"r. c #A7510C",
"t. c #A54415",
"y. c #B54617",
"u. c #B65B19",
"i. c #AF4913",
"p. c #B96319",
"a. c #BD680D",
"s. c #8C4326",
"d. c #974425",
"f. c #834B37",
"g. c #875538",
"h. c #965231",
"j. c #A84829",
"k. c #BD4325",
"l. c #B84829",
"z. c #BB4732",
"x. c #B34B2E",
"c. c #B5702B",
"v. c #9D6526",
"b. c #C54D1D",
"n. c #C34616",
"m. c #C95819",
"M. c #D0561D",
"N. c #CC6719",
"B. c #D66916",
"V. c #DA7719",
"C. c #CE7C1C",
"Z. c #E37B1A",
"A. c #C44C22",
"S. c #C2432C",
"D. c #C64324",
"F. c #C75723",
"G. c #C34931",
"H. c #C67922",
"J. c #DB7627",
"K. c #CB6B38",
"L. c #E67B23",
"P. c #E87E32",
"I. c #895945",
"U. c #925B46",
"Y. c #8C634A",
"T. c #97664A",
"R. c #866455",
"E. c #9A7059",
"W. c #A66C4D",
"Q. c #A6684B",
"!. c #AC744E",
"~. c #BB774C",
"^. c #A66B53",
"/. c #A87659",
"(. c #B37553",
"). c #B37A55",
"_. c #BB7A54",
"`. c #B57D5B",
"'. c #BA7A58",
"]. c #B16242",
"[. c #B07C60",
"{. c #9A7360",
"}. c #C2704D",
"|. c #BD8426",
" X c #D2821C",
".X c #F59D0D",
"XX c #F89C0E",
"oX c #E78819",
"OX c #F18D1D",
"+X c #FA9C14",
"@X c #F3941A",
"#X c #F69918",
"$X c #EE9209",
"%X c #FCA018",
"&X c #DD8620",
"*X c #EA8825",
"=X c #EC9728",
"-X c #F39627",
";X c #EC8E2F",
":X c #FAA126",
">X c #B7845B",
",X c #AE825C",
"<X c #AA8767",
"1X c #B98966",
"2X c #B38E74",
"3X c #C7865A",
"4X c #C08041",
"5X c #C88A67",
"6X c #CC936C",
"7X c #C79369",
"8X c #D79B6D",
"9X c #CA9774",
"0X c #D49B74",
"qX c #D59B77",
"wX c #CC8F72",
"eX c #D8A579",
"rX c #E5A878",
"tX c #EDAE79",
"yX c #E29C64",
"uX c #B4A59C",
"iX c #C09C85",
"pX c #D8A987",
"aX c #D5AC8D",
"sX c #E2AA83",
"dX c #E8AD87",
"fX c #EDBB8C",
"gX c #E8B486",
"hX c #F3B788",
"jX c #E8B997",
"kX c #E6AA92",
"lX c #D6B6A4",
"zX c #F6C599",
"xX c #EEC39F",
"cX c #DACBB5",
"vX c #F4C8A6",
"bX c #F9D2A9",
"nX c #FDD6B4",
"mX c #EFC4A3",
"MX c #C1B7C5",
"NX c #CDCACD",
"BX c #F9E5C6",
"VX c #DDE0E3",
"CX c #F4F1F2",
"ZX c None",
/* pixels */
"ZXZXZXZXZXZXZXZXZXZXZXZXZXZXZXZXZXZXZXZXZXZXZXZXZXZXZXZXZXZXZXZXZXZXZXZXZXZXZXZXZXZXZXZXZXZXZXZXZXZXZXZXZXZXZXZXZXZXZXZX",
"ZXZXZXZXZXZXZXZXZXZXZXZXZXZXZXZXZXZX$ $ ZXZXZXZXZXZXZXZXZXZXZXZXZXZXZXZXZXZXZXZXZXZXZXZXZXZXZXZXZXZXZXZXZXZXZXZXZXZXZXZX",
"ZXZXZXZXZXZXZXZXZXZXZXZXZXZXZXZXZX@ @ $ $ & = & & * & * * * + ZXZXZXZXZXZXZXZXZXZXZXZXZXZXZXZXZXZXZXZXZXZXZXZXZXZXZXZXZX",
"ZXZXZXZXZXZXZXZXZXZXZXZXZXZXZXZXZXZXo $ * a f f s s s s s g 3 + % $ $ ZXZXZXZXZXZXZXZXZXZXZXZXZXZXZXZXZXZXZXZXZXZXZXZXZX",
"ZXZXZXZXZXZXZXZXZXZXZXZXZXZXZXZXZXZXZXX @ 9 0 t a i i i t i t t 0 @ $ + + ZXZXZXZXZXZXZXZXZXZXZXZXZXZXZXZXZXZXZXZXZXZXZX",
"ZXZXZXZXZXZXZXZXZXZXZXZXZXZXZXZXZXZXZX    @ $ 4 0 7 0 0 0 0 i f t 4 4 $ % + ZXZXZX. X $ $ $ + ZXZXZXZXZXZXZXZXZXZXZXZXZX",
"ZXZXZXZXZXZXZXZXZXZX= $ $ $ $ $ $ $ @ $ $ $ $ % % 4 q q 0 q 0 0 t f s & $ +   . $ + . .   ZXZXZXZXZXZXZXZXZXZXZXZXZXZXZX",
"ZXZXZXZXZXZXZX$ $ 6 : w w w t t i i 0 6 6 $ $ $ @ % & & & & 7 q t g s 4 # + X + $ @   ZXZXZXZXZXZXZXZXZXZXZXZXZXZXZXZXZX",
"ZXZXZXZX= * * 3 6 q t s o.g X.X.f o.a t w % 3 $ @ & 3 3 3 3 5 9 q s a 4 + % 3 % & % X o ZXZXZXZXZXZXZXZXZXZXZXZXZXZXZXZX",
"ZXZXZX$ 3 0 t f s f f f o.o.f f f f o.o.s y 0 % @ 0 s f g f 0 $ 3 0 0 4 $ 3 w 5 0 0 & % X   ZXZXZXZXZXZXZXZXZXZXZXZXZXZX",
"ZXZXZXZXZXZXZX6 9 w t t i t t w 3 3 3 5 3 4 3 5 9 6 6 6 t t t s y % & $ $ # 4 3 0 y 6 6 & @ @ ZXZXZXZXZXZXZXZXZXZXZXZXZX",
"ZXZXZXZXZXZXZXZX$ 3 3 3 5 5 0 0 3 4 % $ $ $ # 3 0 3 @ % 0 0 t f t 0 5 $ # $ $ # 0 0 6 q 6 @ @ o   ZXZXZXZXZXZXZXZXZXZXZX",
"ZXZXZXZXZXZXZXZXZX$ $ $ $ 4 q q 0 q 3 # # % $ % $ $ # = 0 0 0 0 t f f 4 @ % @ & 0 7 0 q 3 @ #               + ZXZXZXZXZX",
"ZXZXZXZXZXZXZXZXZXZXo + $ $ % % % % $ $ $ $ % 3 0 3 $ % 0 0 q 0 t f f 0 6 & # $ & & & & & @ @ @ X X + + X X $ $ ZXZXZXZX",
"ZXZXZXZXZXZXZXZXZXZXX + $ $ 4 & 9 0 5 0 9 3 3 3 3 6 0 0 t t w q t i a u i w 0 6 # @ % @ % 3 6 3 * * 5 * 3 * % @ ZXZXZXZX",
"ZXZXZXZXZXZXZXZXZX* & = 4 4 y y s d d d u y 0 4 = 0 g g o.o.i 5 9 0 0 d g g X.i & & # @ 6 q 6 0 q 9 9 0 e 9 = ZXZXZXZXZX",
"ZXZXZX= a g g g d s s s s s d s w w 9 & & $ & t f d s f f f 0 $ $ $ * a o.d f f a s 5 $ * q e 0 y 3 = $ = $ . ZXZXZXZXZX",
"ZXZXZXX * 0 w g g g g g g s u u q q 7 4 4 $ - u g o.o.f a u r r r r r u i p f f d d 5 + & 4 6 7 0 3 3 4 4 4 + + ZXZXZXZX",
"ZXZXZXZXZX$ 9 a a s a s a a e q q 7 7 8 6 $ = w g X.f f r 1 )  .|  .[ P w h o.d g g 5 + % % % 7 7 0 0 y 0 0 * = + ZXZXZX",
"ZXZXZXZXZXZXZX= = $ $ & % * 0 0 & # % # $ $ = a X.d d T E Y T.'.(.'./.[ E T T o.o.X.: $ & q 7 # # 6 0 0 0 w 9 w 4 $ ZXZX",
"ZXZXZXZXZXZXZXZXZX$ X @ @ % 4 4 3 : 2 j r - = t X.d w j R.Y.!._.'.'./.U r h g p 6 9 u j e = 6 6 6 4 & 6 * ZX0 0 ZXZXZXZX",
"ZXZXZXZXZXZXZXZXZXZXZXZX$ # # $ r 1 ] %.{ ; = w s X.+.@.R.E.(.5X`.T.R.@.+.X.a u 1 M { I.) ; : 5 0 4 ZXZXZXZXZXZXZXZXZXZX",
"ZXZXZXZXZXZXZXZXZXZXZXZXZX+ # : I U /.gX2X; - 5 0 &.VXNXT , /.dX<X< I NXVX&.O 1 {./.qXdX/.U I : $ ZXZXZXZXZXZXZXZXZXZXZX",
"ZXZXZXZXZXZXZXZXZXZXZXZXZXZX. - E U /.hX2X; - %.2XuXCXNXo.; /.fX[.; i NXCXuX#.g.g.g.9XhX>X_ R : ZXZXZXZXZXZXZXZXZXZXZXZX",
"ZXZXZXZXZXZXZXZXZXZXZXZXZXZXo - I Y Y.7X/.1 1 [.eXxXBXcX%.{ <XzX2X .%.cXBXaX`.^.( ^ /.7XT.I h = ZXZXZXZXZXZXZXZXZXZXZXZX",
"ZXZXZXZXZXZXZXZXZXZXZXZXZXZX$ = 5 5 I ] ^ U ^ T.(.7XrXgXbXbXzXeXfXbXbXgXdXwX(.^.] E ] [ P O - $ ZXZXZXZXZXZXZXZXZXZXZXZX",
"ZXZXZXZXZXZXZXZXZXZXZXZXZXZXZXZXZXZXZXZXZX: : ^ f.T.5X6XbXnXzXzXzXtXtX7X5XQ.} [ 1 ZXZXZXZXZXZXZXZXZXZXZXZXZXZXZXZXZXZXZX",
"ZXZXZXZXZXZXZXZXZXZXZXZXZXZXZXZXZXN Q N P x , W S } Y.T.eXgXeXgXeX>X>XT.U.f.A N , > x k M x ZXZXZXZXZXZXZXZXZXZXZXZXZXZX",
"ZXZXZXZXZXZXZXZXZXZXZXZXZXZXZXZXJ C =.=.=.=.=.V z J ` g.!._.>X>XT.` _ ` [ Q l v n c n n l c c ZXZXZXZXZXZXZXZXZXZXZXZXZX",
"ZXZXZXZXZXZXZXZXZXZXZXZXZXZXZXZXK *.u.*X&XoX&X=.z I.jXaX>X!.pXvXpX^.!.pXlXE.z n j.8.8.8.2.l c ZXZXZXZXZXZXZXZXZXZXZXZXZX",
"ZXZXZXZXZXZXZXZXZXZXZXZXZXZXZXA 3.<.N.%XOXZ.B.-.l W.nXnXpXeXsXeXpXeXpXvXnX[.z m 4.<.k.S.8.:.2.x ZXZXZXZXZXZXZXZXZXZXZXZX",
"ZXZXZXZXZXZXZXZXZXZXZXZXZXZX! K j.x.J.;XP.b.n.1.-.!.fXfXjXjX5X^.5XjXjXjXjX^.v V D K j.G.G.z.j.S P ZXZXZXZXZXZXZXZXZXZXZX",
"ZXZXZXZXZXZXZXZXZXZXZXZXZXZX^ ~ c.(.}.>XK.l.D.L.;Xc.>.3.F Q A n S A F A F H H D D ;.].}.}.}.Q.' / ZXZXZXZXZXZXZXZXZXZXZX",
"ZXZXZXZXZXZXZXZXZXZXZXZXZXZX/ } 3X8X0XdXwXq.1.u.J.N.N.p.,.>.2.:.6.:.:.:.:.,.7.6.Z V _.yX3X_.^.| R ZXZXZXZXZXZXZXZXZXZXZX",
"ZXZXZXZXZXZXZXZXZXZXZXZXZXZXR ` eXhXjXnXkX2.H 7.7.F.*XOXM.m.m.M.F.D.S.S.G.S.8.5.b b 3XtXyX3X).[ ) ZXZXZXZXZXZXZXZXZXZXZX",
"ZXZXZXZXZXZXZXZXZXZXZXZXZXZX) { aXbXbXnXsXV v H *.<.b.m.OX@X#X#XL.n.D.z.z.<.;.D l v 5XdXtXtX0X| ^ ZXZXZXZXZXZXZXZXZXZXZX",
"ZXZXZXZXZXZXZXZXZXZXZXZXZXZX] [ 1XqX<X{.Y.v l A *.<.l.m.OX+X.X%X@XoXC.w.:.,.7.4.n c g.T.!.7X`.} ^ ZXZXZXZXZXZXZXZXZXZXZX",
"ZXZXZXZXZXZXZXZXZXZXZXZXZXZX^ ( W.).I.! Y M M S S G 5.d.c.|.|. X Xc.|.L V >.j.6.n M Y ! ..>X^.} ) ZXZXZXZXZXZXZXZXZXZXZX",
"ZXZXZXZXZXZXZXZXZXZXZXZXZXZX^ ` W.1XU./ / ZXZXZXZXZX> P B I B B 1 1 < 2 1 ZXZXZXZXZX] ^ I.`.(.} R ZXZXZXZXZXZXZXZXZXZXZX",
"ZXZXZXZXZXZXZXZXZXZXZXZXZXZXE ( W.`.I./ ) ZXZXx x F 5.5.s.d.v.|.v.C N s.5.F z ZXZXZX) ! g.'./.} / ZXZXZXZXZXZXZXZXZXZXZX",
"ZXZXZXZXZXZXZXZXZXZXZXZXZXZX^ } ).7XT.U ) ZXZXx l 2.G.S.9.n.*X:XC.*.;.F.J.,.b c ZXZXU ! U.6X`. .^ ZXZXZXZXZXZXZXZXZXZXZX",
"ZXZXZXZXZXZXZXZXZXZXZXZXZXZX^ ` 6XhX/._ ] O o k l ;.z.S.D.n.Z.:XC.*.-.oX-Xp.*.D c c ~ ( Q.gX8X .R ZXZXZXZXZXZXZXZXZXZXZX",
"ZXZXZXZXZXZXZXZXZXZXZXZXZXZX^ } 9XgXgXjXiXY I J H ;.2.<.8.n.L.:XZ.i.y.oX%XB.y.4.n v `.0X8XhXqX .^ ZXZXZXZXZXZXZXZXZXZXZX",
"ZXZXZXZXZXZXZXZXZXZXZXZXZXZXR } 9XzXfXkX9X[ ! 3.,.:.*.;.1.<.y.p.N.B.Z.OX+XoXB.u.Z b '.qXrXtX8X .R ZXZXZXZXZXZXZXZXZXZXZX",
"ZXZXZXZXZXZXZXZXZXZXZXZXZXZXE { pXmX9X/.T.( ~ l.A.t.Z D D D V z =.=X.X.X.X.X#X&X=.H Q.!.3XeX9X .E ZXZXZXZXZXZXZXZXZXZXZX",
"ZXZXZXZXZXZXZXZXZXZXZXZXZXZXZXZX@.#. .` s.j.j.J.;XN.Z D G D b z 0.@X+X.X.X#X+X X=.D ~ ' | |  .ZXZXZXZXZXZXZXZXZXZXZXZXZX",
"ZXZXZXZXZXZXZXZXZXZXZXZXZXZXZXZXZXZXW Q G z.b.*X%X&Xa.p.=.C b l 0.=X+X+X.X.X.XoXt.,.;.~ U ZXZXZXZXZXZXZXZXZXZXZXZXZXZXZX",
"ZXZXZXZXZXZXZXZXZXZXZXZXZXZXZXZXZXZXZXc Z l.m.L.OXoX@XoXe.-.C l 0.=XoX@X$X$X@XoXm.l.,.F ZXZXZXZXZXZXZXZXZXZXZXZXZXZXZXZX",
"ZXZXZXZXZXZXZXZXZXZXZXZXZXZXZXZXZXZXZXk L ;X;XN.b.A.A.m.*X;Xr.Z :.u.b.b.b.m.n.N.OX=Xe.H ZXZXZXZXZXZXZXZXZXZXZXZXZXZXZXZX",
"ZXZXZXZXZXZXZXZXZXZXZXZXZXZXZXZXZXZXZXZXZXh.w.K D ;.;.;.w.w.u.C.F.S.k.S.S.D.9.m.-X-Xe.C ZXZXZXZXZXZXZXZXZXZXZXZXZXZXZXZX",
"ZXZXZXZXZXZXZXZXZXZXZXZXZXZXZXZXZXZXZXZXZXP N J K ~ ~ G V b p.;XL.m.m.F.F.M.M.B.*X*Xe.C ZXZXZXZXZXZXZXZXZXZXZXZXZXZXZXZX",
"ZXZXZXZXZXZXZXZXZXZXZXZXZXZXZXZXZXZXZXZXZXE ^ 1XdXrXrXqX~ H q.l.N.-X-X@X@X#X@XL.u.y.>.J ZXZXZXZXZXZXZXZXZXZXZXZXZXZXZXZX",
"ZXZXZXZXZXZXZXZXZXZXZXZXZXZXZXZXZXZXZXZXZXZXZXY.Y.U.Y.I.( F 2.>.0.e.r.r.r.r.r.t.-.3.ZXZXZXZXZXZXZXZXZXZXZXZXZXZXZXZXZXZX",
"ZXZXZXZXZXZXZXZXZXZXZXZXZXZXZXZXZXZXZXZXZXZXZXZX^ R U R ^ ! ! ~ K s.s.s.s.3.G Q Q ZXZXZXZXZXZXZXZXZXZXZXZXZXZXZXZXZXZXZX",
"ZXZXZXZXZXZXZXZXZXZXZXZXZXZXZXZXZXZXZXZXZXZXZXZXZXZXZXZXZXZXR ^ g.'._.).>Xh.~ _ ZXZXZXZXZXZXZXZXZXZXZXZXZXZXZXZXZXZXZXZX",
"ZXZXZXZXZXZXZXZXZXZXZXZXZXZXZXZXZXZXZXZXZXZXZXZXZXZXZXZXU U /.9X5X(.).~.~.>X9X<X{ ZXZXZXZXZXZXZXZXZXZXZXZXZXZXZXZXZXZXZX",
"ZXZXZXZXZXZXZXZXZXZXZXZXZXZXZXZXZXZXZXZXZXZXZXZXZXZXZXZX] ! 1XvXgX9XeX0X0XsXxXpX[ R ZXZXZXZXZXZXZXZXZXZXZXZXZXZXZXZXZXZX",
"ZXZXZXZXZXZXZXZXZXZXZXZXZXZXZXZXZXZXZXZXZXZXZXZXZXZXZXZX/ ^ 2XbXxXmXxXxXxXmXvXaX] R ZXZXZXZXZXZXZXZXZXZXZXZXZXZXZXZXZXZX",
"ZXZXZXZXZXZXZXZXZXZXZXZXZXZXZXZXZXZXZXZXZXZXZXZXZXZXZXZXZXZX$.#.#.#.#.#.#.#.#.$.ZXZXZXZXZXZXZXZXZXZXZXZXZXZXZXZXZXZXZXZX",
"ZXZXZXZXZXZXZXZXZXZXZXZXZXZXZXZXZXZXZXZXZXZXZXZXZXZXZXZXZXZXZXZX) E ) E ) E E ZXZXZXZXZXZXZXZXZXZXZXZXZXZXZXZXZXZXZXZXZX"
};
