/* XPM */
static char *result[] = {
/* columns rows colors chars-per-pixel */
"60 60 236 2 ",
"   c #0B0C0E",
".  c #050405",
"X  c #190A08",
"o  c #0D0E12",
"O  c #130E13",
"+  c #0F1114",
"@  c #0F1319",
"#  c #111215",
"$  c #14151A",
"%  c #16191D",
"&  c #191A1E",
"*  c #1A171B",
"=  c #1F1509",
"-  c #240B0B",
";  c #29130B",
":  c #241816",
">  c #341716",
",  c #2D120F",
"<  c #36251A",
"1  c #3D200F",
"2  c #1C1D22",
"3  c #3C1F20",
"4  c #1E2124",
"5  c #1B2529",
"6  c #212226",
"7  c #24252A",
"8  c #26292D",
"9  c #29292E",
"0  c #2B2628",
"q  c #362826",
"w  c #3A312B",
"e  c #2C2D32",
"r  c #362D31",
"t  c #2F3035",
"y  c #2E3439",
"u  c #323236",
"i  c #34363A",
"p  c #3A363C",
"a  c #36393D",
"s  c #39393D",
"d  c #3D3837",
"f  c #5B140B",
"g  c #591707",
"h  c #4A1916",
"j  c #551B13",
"k  c #5C1913",
"l  c #471509",
"z  c #621A0D",
"x  c #671709",
"c  c #671B13",
"v  c #731A10",
"b  c #49261A",
"n  c #562517",
"m  c #563B1B",
"M  c #67210D",
"N  c #7B2B0C",
"B  c #782809",
"V  c #7A310E",
"C  c #6C2412",
"Z  c #6A291B",
"A  c #7D2B13",
"S  c #762917",
"D  c #68331D",
"F  c #773219",
"G  c #442C27",
"H  c #5A2C25",
"J  c #4A322A",
"K  c #42332B",
"L  c #5C3C2D",
"P  c #5C3825",
"I  c #473B37",
"U  c #5B3C32",
"Y  c #593C37",
"T  c #653426",
"R  c #6B3525",
"E  c #63362B",
"W  c #633B2C",
"Q  c #6A3C2C",
"!  c #673C25",
"~  c #753526",
"^  c #623D32",
"/  c #653B36",
"(  c #6F342A",
")  c #7C581B",
"_  c #744F1B",
"`  c #5B412C",
"'  c #5D4135",
"]  c #5B433A",
"[  c #4D493E",
"{  c #684429",
"}  c #72432C",
"|  c #79482B",
" . c #634234",
".. c #6C4433",
"X. c #68463A",
"o. c #774835",
"O. c #7A533D",
"+. c #75533F",
"@. c #70512B",
"#. c #393B40",
"$. c #5D3E42",
"%. c #3E404A",
"&. c #785645",
"*. c #67564A",
"=. c #786F6D",
"-. c #822C0A",
";. c #922C0F",
":. c #8C3509",
">. c #963B0A",
",. c #892D12",
"<. c #862A16",
"1. c #922B14",
"2. c #873517",
"3. c #99361B",
"4. c #A3381D",
"5. c #883A28",
"6. c #9A3625",
"7. c #913F30",
"8. c #A43C23",
"9. c #AA3C23",
"0. c #A43723",
"q. c #AF3C2C",
"w. c #C43E29",
"e. c #95440A",
"r. c #964816",
"t. c #A64918",
"y. c #BB471A",
"u. c #B45613",
"i. c #B76717",
"p. c #815E23",
"a. c #844D34",
"s. c #84553C",
"d. c #8A573C",
"f. c #934B2F",
"g. c #A94129",
"h. c #B74728",
"j. c #BB5522",
"k. c #A54932",
"l. c #B64735",
"z. c #AF502A",
"x. c #C64C1A",
"c. c #CB521B",
"v. c #C7571A",
"b. c #CA5A12",
"n. c #C46B1A",
"m. c #D66918",
"M. c #D57617",
"N. c #C87116",
"B. c #E37B1B",
"V. c #C24423",
"C. c #C54928",
"Z. c #C65627",
"A. c #D35E2B",
"S. c #D46B24",
"D. c #D87624",
"F. c #D66E28",
"G. c #E47927",
"H. c #E2762C",
"J. c #885942",
"K. c #965D44",
"L. c #824A40",
"P. c #AA5D41",
"I. c #8C634B",
"U. c #9A664A",
"Y. c #876A57",
"T. c #9E6B51",
"R. c #936E50",
"E. c #9E765B",
"W. c #A4684B",
"Q. c #A7724B",
"!. c #A56C54",
"~. c #AA7353",
"^. c #A97857",
"/. c #B57A55",
"(. c #BA7B55",
"). c #BB7C5C",
"_. c #B57754",
"`. c #B8734A",
"'. c #9C7260",
"]. c #A47C62",
"[. c #B87B61",
"{. c #C5764B",
"}. c #F59D0C",
"|. c #FD990F",
" X c #EE9319",
".X c #F49C13",
"XX c #F79819",
"oX c #F18A16",
"OX c #FAA011",
"+X c #D88323",
"@X c #CF8130",
"#X c #E68627",
"$X c #EB9229",
"%X c #F49824",
"&X c #EB8E2B",
"*X c #FCA227",
"=X c #EFA12E",
"-X c #D6861D",
";X c #BB835C",
":X c #B78258",
">X c #BA8466",
",X c #AA826A",
"<X c #C5875D",
"1X c #E19A55",
"2X c #C78B65",
"3X c #C7946B",
"4X c #D79669",
"5X c #CA9575",
"6X c #D59A78",
"7X c #D48E68",
"8X c #E19F78",
"9X c #DBA57C",
"0X c #CDA279",
"qX c #E2A47B",
"wX c #E6A979",
"eX c #EBAA74",
"rX c #F1AD58",
"tX c #A9958C",
"yX c #9F9B9E",
"uX c #D7A984",
"iX c #D8B189",
"pX c #D5AD91",
"aX c #E4AC85",
"sX c #E8B68D",
"dX c #F3B683",
"fX c #E7B896",
"gX c #F1BC95",
"hX c #F7C699",
"jX c #FDD4AA",
"kX c #FCD2B1",
"lX c #EFCAA8",
"zX c #D7D9DA",
"xX c #E2DED7",
"cX c #FEF1E4",
"vX c #EFEEF1",
"bX c None",
/* pixels */
"bXbXbXbXbXbXbXbXbXbXbXbXbXbXbXbXbXbXbXbXbXbXbXbXbXbXbXbXbXbXbXbXbXbXbXbXbXbXbXbXbXbXbXbXbXbXbXbXbXbXbXbXbXbXbXbXbXbXbXbX",
"bXbXbXbXbXbXbXbXbXbXbXbXbXbXbXbXbXbXbX# # bXbXbXbXbXbXbXbXbXbXbXbXbXbXbXbXbXbXbXbXbXbXbXbXbXbXbXbXbXbXbXbXbXbXbXbXbXbXbX",
"bXbXbXbXbXbXbXbXbXbXbXbXbXbXbXbXbXbXbX# # O o # # # # # # bXbXbXbXbXbXbXbXbXbXbXbXbXbXbXbXbXbXbXbXbXbXbXbXbXbXbXbXbXbXbX",
"bXbXbXbXbXbXbXbXbXbXbXbXbXbXbXbXbXbXbX# # 6 6 7 7 6 6 7 6 7 # o o # bXbXbXbXbXbXbXbXbXbXbXbXbXbXbXbXbXbXbXbXbXbXbXbXbXbX",
"bXbXbXbXbXbXbXbXbXbXbXbXbXbXbXbXbXbXbXbX& e i i s s s i i i 8 * $ # #   bXbXbXbXbXbXbXbXbXbXbXbXbXbXbXbXbXbXbXbXbXbXbXbX",
"bXbXbXbXbXbXbXbXbXbXbXbXbXbXbXbXbXbXbXbXbX$ $ 5 8 8 8 8 9 9 u a e # # # # bXbXbXbXbXbXbX# #   bXbXbXbXbXbXbXbXbXbXbXbXbX",
"bXbXbXbXbXbXbXbXbXbXbXbXbXbXbXbXbXbXbXbXbX+ # * * 2 7 8 7 0 9 t e e e $ # bXbXbX+ o       bXbXbXbXbXbXbXbXbXbXbXbXbXbXbX",
"bXbXbXbXbXbXbXbXbX* & & 6 2 6 2 5 4 2 & & $ @ @ @ $ 6 6 2 5 6 6 e a i $ @ o bXo # # # # bXbXbXbXbXbXbXbXbXbXbXbXbXbXbXbX",
"bXbXbX# # # $ * * 4 0 e s s a s p #.i 9 6 2 @ @ @ $ $ $ $ $ 2 7 e #.u $ @ @ $ % $ # bXbXbXbXbXbXbXbXbXbXbXbXbXbXbXbXbXbX",
"bXbXbXbXbX6 7 e u i i a #.#.s s #.a #.p i 7 6 2 O 2 u p p i 6 $ 2 9 7 @ $ 2 6 6 7 6 # bXbXbXbXbXbXbXbXbXbXbXbXbXbXbXbXbX",
"bXbXbXbXbXbXbXbXbX9 t t u e e t 8 6 6 6 6 2 2 2 2 6 7 7 u t e 9 6 2 2 $ @ 2 2 2 8 7 2 2 # bXbXbXbXbXbXbXbXbXbXbXbXbXbXbX",
"bXbXbXbXbXbXbXbXbXbX4 4 6 6 7 8 2 $ $ @ $ @ @ 2 7 2 @ @ 7 7 e a 9 2 2 @ O $ O 2 8 8 7 8 2 # bXbXbXbXbXbXbXbXbXbXbXbXbXbX",
"bXbXbXbXbXbXbXbXbXbXbX  # * 5 7 7 7 6 @ @ O $ @ $ $ @ @ 7 7 7 9 e #.u $ $ $ @ 2 7 8 7 7 % # # bXbXbXbXbXbXbXbXbXbXbXbXbX",
"bXbXbXbXbXbXbXbXbXbX+ # @ @ * $ $ $ * @ @ @ $ 2 7 2 O @ 7 7 7 7 e #.#.7 6 $ o # $ $ * $ $ # O o # # # o # # # # # # bXbX",
"bXbXbXbXbXbXbXbXbX* & 2 & 2 & 2 2 7 7 7 7 2 2 2 2 2 7 7 e e t t t t u t t 9 6 2 @ # # # & & 2 & 2 & 2 2 & & # +   bXbXbX",
"bXbXbXbXbXbXbXbX4 6 9 9 9 9 9 9 i p #.i u 7 6 2 2 7 #.#.#.#.#.i e 7 7 u a #.#.e 2 $ # $ 6 9 8 7 8 8 8 5 7 & #   bXbXbXbX",
"bXbXbX# $ 7 7 u a a a i #.p #.#.t 8 5 2 $ # $ 8 a a #.#.#.a 6 $ $ $ $ 7 8 i #.s p t % @ 4 8 7 7 7 5 7 % # o bXbXbXbXbXbX",
"bXbXbXbXbX* & 8 e i #.a #.#.r e e 7 2 @ * 9 e i d s #.a e 0 w J J J G 0 7 r d s s y % # 4 8 8 7 7 2 % # @ + + # + bXbXbX",
"bXbXbXbXbXbX# & 2 7 e 8 7 8 8 7 5 2 2 @ $ u #.d d p y u w G ..J.s.J.O.J w p a i u e * # 4 8 6 4 2 % % 2 & & # # o bXbXbX",
"bXbXbXbXbXbXbXbX# # @ o + @ 2 7 2 @ @ @ % u a a #.u 8 q / ..U.).)./.~.W Y I i y 7 6 * * 5 5 5 # & 5 7 7 7 2 # bXbXbXbXbX",
"bXbXbXbXbXbXbXbXbXbXbXbX@ @ # 2 2 7 6 + $ w d t 9 w [ ' T.^._.(./.:XQ.q 0 0 0 4 # : J U > # & 8 6 $ % bXbXbXbXbXbXbXbXbX",
"bXbXbXbXbXbXbXbXbXbXbXbX@ @ # O 0 I q X = *.Y.] K *.yXtX+.{ ^.6X^.` *.tXyX%.+ K &.J.,X>X{ b < * & bXbXbXbXbXbXbXbXbXbXbX",
"bXbXbXbXbXbXbXbXbXbXbXbX+ o + X G $./ U { R.T.U.J.tXvXzXd ; ^.fXE.= d zXvX=.q o.W.`.wXsXI.' w O bXbXbXbXbXbXbXbXbXbXbXbX",
"bXbXbXbXbXbXbXbXbXbXbXbXbX. . . G Y &.uX0X@.R /.9XlXcXxX[ 1 ,XsX,X< [ xXvXuX^.K.R d.6XqXd.` w . bXbXbXbXbXbXbXbXbXbXbXbX",
"bXbXbXbXbXbXbXbXbXbXbXbXbXbX# o 7 q K &.O... .T.;X4XgXfXpXiXiXaXaXiXiXfXfX3X{.K.Y  .&.&.G : * # bXbXbXbXbXbXbXbXbXbXbXbX",
"bXbXbXbXbXbXbXbXbXbXbXbXbXbXbXbXbX& & < > q < X.d.Q.7X4XjXjXhXhXhXhXhX1X7XW.K...q < q K : bXbXbXbXbXbXbXbXbXbXbXbXbXbXbX",
"bXbXbXbXbXbXbXbXbXbXbXbXbXbXbXbXbXbXbX; - ; , b T o.T.^.fXhXgXhXaX3X3X!.W.| T b , O - bXbXbXbXbXbXbXbXbXbXbXbXbXbXbXbXbX",
"bXbXbXbXbXbXbXbXbXbXbXbXbXbXbXbXbXbXbXF V V A C j Z } | ^.[.{.;XW.~ Q Q o.H k f k c k k bXbXbXbXbXbXbXbXbXbXbXbXbXbXbXbX",
"bXbXbXbXbXbXbXbXbXbXbXbXbXbXbXbX( S r.@X+X-XD.e.g a.iXuX[./.9XhXuXU.!.uXpXo.f <.8.9.9.0.Z l > bXbXbXbXbXbXbXbXbXbXbXbXbX",
"bXbXbXbXbXbXbXbXbXbXbXbXbXbXbXbX~ N >.D.M.B.G.t.x K.kXkXuX6XuXuXuXuXaXkXkXd.g S 0.t.S.S.:.M n bXbXbXbXbXbXbXbXbXbXbXbXbX",
"bXbXbXbXbXbXbXbXbXbXbXbXbXbXbXbX! 2.3.j.C.h.x.4.<.k.fXpXfXfX2XW.[.fXfXfXpXL.f C S e.&X%Xt.:.Z bXbXbXbXbXbXbXbXbXbXbXbXbX",
"bXbXbXbXbXbXbXbXbXbXbXbXbXbX$./ J._._.(.{.l.h.h.z.g.e.2.Z Z C x c Z Z Z S <.A A N e.$X%Xv.h.5.h 3 bXbXbXbXbXbXbXbXbXbXbX",
"bXbXbXbXbXbXbXbXbXbXbXbXbXbX/ Q [.fXsXsXaXk.1.q.x.Z.S.M.N.n.t.3.3.6.0.0.4.9.q.3.x 2.1XrX{.`.f.( Y bXbXbXbXbXbXbXbXbXbXbX",
"bXbXbXbXbXbXbXbXbXbXbXbXbXbXO.o.3XhXhXhXsXf.v 3.9.x.H.oXXXXX-Xm.A.V.w.w.V.q.4.<.x ~ qXeX4X4XW.E X.bXbXbXbXbXbXbXbXbXbXbX",
"bXbXbXbXbXbXbXbXbXbXbXbX/ } ^.:X3XwX8XaX6XF f C V >.u.b.oX|.|.XXM.b.x.h.q.3.;.v f F 5XqXeXwX^.L ] bXbXbXbXbXbXbXbXbXbXbX",
"bXbXbXbXbXbXbXbXbXbXbXbX' } 3XwX7X<XQ.a.| n j C N r.&X XOXOXOX.X%X%XD.>.1.q.l.6.f n | | Q.<XU.^ ] bXbXbXbXbXbXbXbXbXbXbX",
"bXbXbXbXbXbXbXbXbXbXbXbX/ } /.3X~.a.O.E ^ bXbXbXl n @.) p.p.p.p.) ) _ b b n b > - , L ! U.[.K./ Y bXbXbXbXbXbXbXbXbXbXbX",
"bXbXbXbXbXbXbXbXbXbXbXbX .{ Q.).J.E ^ L ] bXbXbX- > n n H P { @.m 1 b b n , X : X > +.a._.2XU.^ ] bXbXbXbXbXbXbXbXbXbXbX",
"bXbXbXbXbXbXbXbXbXbXbXbX*.Q !.).J.^ / bXbXbXbXh k A z.j.l.y.D.=Xi.V F k.z.N g H E ..^.:X4XdX_.!  .bXbXbXbXbXbXbXbXbXbXbX",
"bXbXbXbXbXbXbXbXbXbXbXbX/ Q !.{.d.P ' bXbXbXbXZ B e.&XG.c.x.G.%XM.V -.;.;.g.g.5.R O.6X9XeXdX7X!.'.bXbXbXbXbXbXbXbXbXbXbX",
"bXbXbXbXbXbXbXbXbXbXbXbX^ } ).4X;X^.R.bXbXbXbX2.>.u.%XXXx.V.A.H.j.-.,.4.4.7.7.K.>X3XgXgX2X~.E.].,XbXbXbXbXbXbXbXbXbXbXbX",
"bXbXbXbXbXbXbXbXbXbXbXbX` @.3XeXeXwX>X{ Q F <.t.v.M.XXoXc.w.q.t.3.A <.l.l.7.T ^.gXhXjXkXI.P L bXbXbXbXbXbXbXbXbXbXbXbXbX",
"bXbXbXbXbXbXbXbXbXbXbXbX .o.5XdX3X(.!.Q Q F -.n.%XXX}.oXc.x.;.x z x v q.l.5.( J.).2XlXlXY.W  .bXbXbXbXbXbXbXbXbXbXbXbXbX",
"bXbXbXbXbXbXbXbXbXbXbXbXbXbX&.J.s.O.X.bXbXR V n.OXOX}.XXoXG.e.g k S <.q.h.6.~ ~ o.O.I.Y.bXbXbXbXbXbXbXbXbXbXbXbXbXbXbXbX",
"bXbXbXbXbXbXbXbXbXbXbXbXbXbXbXbXbXbXbXbXbXR S n.OXOX}.}..X%Xe.g M A ,.3.0.,.A 2.7.5.Z H bXbXbXbXbXbXbXbXbXbXbXbXbXbXbXbX",
"bXbXbXbXbXbXbXbXbXbXbXbXbXbXbXbXbXbXbXbXbXF ,.n.%XoXoX.X X$Xe.g C ,.,.<.A B N 3.l.q.c h bXbXbXbXbXbXbXbXbXbXbXbXbXbXbXbX",
"bXbXbXbXbXbXbXbXbXbXbXbXbXbXbXbXbXbXbXT <.g.y.y.x.x.x.c.x.C.,.g A h.g.,.<.-.-.3.l.q.v j bXbXbXbXbXbXbXbXbXbXbXbXbXbXbXbX",
"bXbXbXbXbXbXbXbXbXbXbXbXbXbXbXbXbXbXbXD :.F.G.v.x.V.w.C.H.H.:.g S 6.6.9.9.9.9.6.6.5.z j bXbXbXbXbXbXbXbXbXbXbXbXbXbXbXbX",
"bXbXbXbXbXbXbXbXbXbXbXbXbXbXbXbXbXbXbXS :.-XOXm.y.x.b.m.B.G.>.g x C S 6.0.6.0.<.S C j b bXbXbXbXbXbXbXbXbXbXbXbXbXbXbXbX",
"bXbXbXbXbXbXbXbXbXbXbXbXbXbXbXbXbXbXbXF :.#X%Xm.y.m.%X%Xc.C.<.f z z c z z z z k n h bXbXbXbXbXbXbXbXbXbXbXbXbXbXbXbXbXbX",
"bXbXbXbXbXbXbXbXbXbXbXbXbXbXbXbXbXbXbXQ ,.h.Z.G.%X X.X XZ.l.<.x f k j ( Q E / Y bXbXbXbXbXbXbXbXbXbXbXbXbXbXbXbXbXbXbXbX",
"bXbXbXbXbXbXbXbXbXbXbXbXbXbXbXbXbXbXbXbXbX5.3.u.i.i.u.u.,.<.c k Z f.d.K.K.o.Y bXbXbXbXbXbXbXbXbXbXbXbXbXbXbXbXbXbXbXbXbX",
"bXbXbXbXbXbXbXbXbXbXbXbXbXbXbXbXbXbXbXbXbXbXR D Z F r.f.2.5.C n Q !.!.!.'.&.Y bXbXbXbXbXbXbXbXbXbXbXbXbXbXbXbXbXbXbXbXbX",
"bXbXbXbXbXbXbXbXbXbXbXbXbXbXbXbXbXbXbXbXbXbXbXL T U.aXwXwXwXK.R Q / X. . .bXbXbXbXbXbXbXbXbXbXbXbXbXbXbXbXbXbXbXbXbXbXbX",
"bXbXbXbXbXbXbXbXbXbXbXbXbXbXbXbXbXbXbX$.] U P L T s.>X<X2X2Xd.W  .bXbXbXbXbXbXbXbXbXbXbXbXbXbXbXbXbXbXbXbXbXbXbXbXbXbXbX",
"bXbXbXbXbXbXbXbXbXbXbXbXbXbXbXbXbXbXbX/ ..U.^.Q.Q.:X7X2X/._.s.L ] bXbXbXbXbXbXbXbXbXbXbXbXbXbXbXbXbXbXbXbXbXbXbXbXbXbXbX",
"bXbXbXbXbXbXbXbXbXbXbXbXbXbXbXbXbXbXbXY X.5XuX9XqX9XeX1X<X<Xd.E ] bXbXbXbXbXbXbXbXbXbXbXbXbXbXbXbXbXbXbXbXbXbXbXbXbXbXbX",
"bXbXbXbXbXbXbXbXbXbXbXbXbXbXbXbXbXbXbXbXbXX...U.[.).:X;XuXaXT.P ] bXbXbXbXbXbXbXbXbXbXbXbXbXbXbXbXbXbXbXbXbXbXbXbXbXbXbX",
"bXbXbXbXbXbXbXbXbXbXbXbXbXbXbXbXbXbXbXbXbXbXbXbXbXbXbXbXbXbXbXbXbXbXbXbXbXbXbXbXbXbXbXbXbXbXbXbXbXbXbXbXbXbXbXbXbXbXbXbX",
"bXbXbXbXbXbXbXbXbXbXbXbXbXbXbXbXbXbXbXbXbXbXbXbXbXbXbXbXbXbXbXbXbXbXbXbXbXbXbXbXbXbXbXbXbXbXbXbXbXbXbXbXbXbXbXbXbXbXbXbX"
};
