/* XPM */
static char *result[] = {
/* columns rows colors chars-per-pixel */
"60 60 236 2 ",
"   c #0C0C0F",
".  c #040407",
"X  c #1D0909",
"o  c #0D0E12",
"O  c #120E15",
"+  c #0E1115",
"@  c #0E1219",
"#  c #0F1817",
"$  c #111215",
"%  c #13151A",
"&  c #15191D",
"*  c #191A1D",
"=  c #1B1516",
"-  c #29120C",
";  c #261D18",
":  c #371A14",
">  c #301109",
",  c #2A211E",
"<  c #38281C",
"1  c #1C1D22",
"2  c #1E2125",
"3  c #1E2528",
"4  c #212226",
"5  c #23252A",
"6  c #26292D",
"7  c #2A2A2E",
"8  c #2A2628",
"9  c #3C2B23",
"0  c #342826",
"q  c #2B2D32",
"w  c #2E3135",
"e  c #2F3238",
"r  c #313235",
"t  c #34363A",
"y  c #39373B",
"u  c #36393C",
"i  c #3A3A3D",
"p  c #3A3736",
"a  c #382D30",
"s  c #5B1405",
"d  c #59160B",
"f  c #4B1D1A",
"g  c #4B1B13",
"h  c #541913",
"j  c #5A1B13",
"k  c #551C1A",
"l  c #561917",
"z  c #5D0E05",
"x  c #6C1D0B",
"c  c #651B09",
"v  c #641A13",
"b  c #721E09",
"n  c #4C231C",
"m  c #452419",
"M  c #5A2517",
"N  c #58381D",
"B  c #49240E",
"V  c #6C210C",
"C  c #792B0B",
"Z  c #7B320E",
"A  c #6B2212",
"S  c #682819",
"D  c #7C2C15",
"F  c #772814",
"G  c #6C3218",
"H  c #72331A",
"J  c #773216",
"K  c #6D310E",
"L  c #422F2B",
"P  c #482B24",
"I  c #572A24",
"U  c #4A352B",
"Y  c #5D3D2B",
"T  c #573529",
"R  c #4B3A35",
"E  c #463C3A",
"W  c #5C3D34",
"Q  c #573D37",
"!  c #662B22",
"~  c #663523",
"^  c #6C3224",
"/  c #633C2B",
"(  c #6A3C2C",
")  c #663529",
"_  c #753726",
"`  c #633E34",
"'  c #673936",
"]  c #773A2F",
"[  c #744E1F",
"{  c #5B4235",
"}  c #5B413A",
"|  c #554139",
" . c #504035",
".. c #69422E",
"X. c #78462D",
"o. c #634234",
"O. c #694638",
"+. c #744B3B",
"@. c #7A4C3C",
"#. c #764634",
"$. c #7E5339",
"%. c #393A40",
"&. c #595050",
"*. c #7B5544",
"=. c #785745",
"-. c #775C52",
";. c #505561",
":. c #8A2B0C",
">. c #87370B",
",. c #933C09",
"<. c #842B14",
"1. c #852917",
"2. c #982E1D",
"3. c #893417",
"4. c #973719",
"5. c #A5391C",
"6. c #B23F10",
"7. c #8C2B21",
"8. c #962F20",
"9. c #833222",
"0. c #973724",
"q. c #AB3B24",
"w. c #A63B27",
"e. c #AD3D29",
"r. c #934E13",
"t. c #A64519",
"y. c #BE4916",
"u. c #B94A1D",
"i. c #AF5213",
"p. c #BC6718",
"a. c #BE7215",
"s. c #82543C",
"d. c #8B583B",
"f. c #95593C",
"g. c #8D4B2C",
"h. c #AC452B",
"j. c #B74527",
"k. c #B15434",
"l. c #8E6120",
"z. c #B46D25",
"x. c #C9540E",
"c. c #C44B1C",
"v. c #C8571A",
"b. c #D45F18",
"n. c #C96717",
"m. c #D56819",
"M. c #D8761A",
"N. c #CC7719",
"B. c #E67B18",
"V. c #E07E0B",
"C. c #C24427",
"Z. c #C45626",
"A. c #C14B34",
"S. c #CD6826",
"D. c #D36425",
"F. c #D87B27",
"G. c #E77D28",
"H. c #885843",
"J. c #975C44",
"K. c #8F5549",
"L. c #8C6248",
"P. c #97644A",
"I. c #996C54",
"U. c #9A7357",
"Y. c #886858",
"T. c #A36B4B",
"R. c #A6694A",
"E. c #AD754F",
"W. c #B8784D",
"Q. c #A96D53",
"!. c #AA7658",
"~. c #BB7B54",
"^. c #B57B59",
"/. c #BB7B5A",
"(. c #B37756",
"). c #967764",
"_. c #AC7C63",
"`. c #C77B4F",
"'. c #DE861B",
"]. c #F99B0C",
"[. c #E8861C",
"{. c #ED931A",
"}. c #F79B15",
"|. c #FA9C13",
" X c #F6971A",
".X c #F08F1E",
"XX c #F8A019",
"oX c #F6A20B",
"OX c #DF8B2C",
"+X c #E98B25",
"@X c #F18621",
"#X c #EC9625",
"$X c #F69A27",
"%X c #EF8E32",
"&X c #F7A326",
"*X c #EBA12D",
"=X c #BD835E",
"-X c #AC8260",
";X c #B88665",
":X c #BA9477",
">X c #C1835A",
",X c #C88A68",
"<X c #CA946C",
"1X c #D6966A",
"2X c #C89875",
"3X c #D49B72",
"4X c #D49D7B",
"5X c #D18366",
"6X c #D8A57C",
"7X c #E4A77A",
"8X c #E9B07F",
"9X c #928686",
"0X c #CD9C80",
"qX c #D09F80",
"wX c #CCA488",
"eX c #D8A985",
"rX c #CBA791",
"tX c #D7B195",
"yX c #E5AA85",
"uX c #E3B28B",
"iX c #E9B286",
"pX c #E5BC9C",
"aX c #E9B89A",
"sX c #F1BD92",
"dX c #F2B989",
"fX c #F5C599",
"gX c #ECC19A",
"hX c #E9C0A2",
"jX c #F6C9A6",
"kX c #FDD6AA",
"lX c #FEDAB5",
"zX c #DFDAD3",
"xX c #E1DAD4",
"cX c #F9EDEE",
"vX c #E4DDDB",
"bX c None",
/* pixels */
"bXbXbXbXbXbXbXbXbXbXbXbXbXbXbXbXbXbXbXbXbXbXbXbXbXbXbXbXbXbXbXbXbXbXbXbXbXbXbXbXbXbXbXbXbXbXbXbXbXbXbXbXbXbXbXbXbXbXbXbX",
"bXbXbXbXbXbXbXbXbXbXbXbXbXbXbXbXbXbX$ $ + + $ $ bX$ @ bXbXbXbXbXbXbXbXbXbXbXbXbXbXbXbXbXbXbXbXbXbXbXbXbXbXbXbXbXbXbXbXbX",
"bXbXbXbXbXbXbXbXbXbXbXbXbXbXbXbX  + $ = 2 2 2 2 4 2 2 2 2 4 4 % bXbXbXbXbXbXbXbXbXbXbXbXbXbXbXbXbXbXbXbXbXbXbXbXbXbXbXbX",
"bXbXbXbXbXbXbXbXbXbXbXbXbXbXbXbX$ $ $ * w t u y u u t %.u i i 5 % % bXbXbXbXbXbXbXbXbXbXbXbXbXbXbXbXbXbXbXbXbXbXbXbXbXbX",
"bXbXbXbXbXbXbXbXbXbXbXbXbXbXbXbXbXbXbXbX% & 3 6 6 6 6 6 6 u u u t 7 $ $ bXbXbXbXO $ $ $ $ bXbXbXbXbXbXbXbXbXbXbXbXbXbXbX",
"bXbXbXbXbXbXbXbXbXbXbXbX$ O + O + $ o   + @ & * & 1 1 5 6 w q t i t q 5 + + bXbXo $ O o bXbXbXbXbXbXbXbXbXbXbXbXbXbXbXbX",
"bXbXbXbXbXbXbXbXbXbXbX* * * 1 1 * 1 2 1 & % % @ + @ % 2 2 2 2 q t i i t % $   bXo $ o bXbXbXbXbXbXbXbXbXbXbXbXbXbXbXbXbX",
"bXbXbXbX$ $ % % % % * 5 6 t y y y y t t 6 5 & + + @ @ & % % % 2 5 q i t * $ $ $ % % bXbXbXbXbXbXbXbXbXbXbXbXbXbXbXbXbXbX",
"bXbX$ o $ $ 1 5 7 r r t y y %.6 1 % 1 1 & % % @ @ + & w r e t 2 $ 4 %.y % @ 2 5 5 5 2 $ bXbXbXbXbXbXbXbXbXbXbXbXbXbXbXbX",
"bXbXbXbXbX+ * 1 4 6 q r r q r 5 1 1 o O O @ @ @ @ @ & 6 6 q e q 5 5 6 5 % # * * 1 6 5 1 1 $ bXbXbXbXbXbXbXbXbXbXbXbXbXbX",
"bXbXbXbXbXbXbX$ $ $ % 2 5 5 5 5 5 4 % & & & % o % % @ @ % 5 5 w u w * & $ @ @ $ 1 8 6 6 6 & + bXbXbXbXbXbXbXbXbXbXbXbXbX",
"bXbXbXbXbXbXbXbXbXbXbX$ O % % 1 5 5 5 5 5 5 1 O @ + @ + % 4 6 5 5 q i t % % @ $ 1 5 6 5 5 % # @ bXbXbXbXbXbXbXbXbXbXbXbX",
"bXbXbXbXbXbXbXbXbXbXbXbXbX$ O % 1 O 1 @ % % % O * 2 2 @ + 2 6 5 5 q i i 3 2 % + % 1 @ & & % + + $ $ o + + o bXbXbXbXbXbX",
"bXbXbXbXbX$ + $ o $ o   o * 1 1 1 1 5 4 5 5 2 1 * 1 2 5 5 q q 7 5 7 r r w w 5 5 1 o + + $ & 1 * & 1 1 1 1 1 % bX$ % bXbX",
"bXbXbXbX$ $ $ $ % % % * & 6 7 6 6 q %.y u t q 5 2 & 2 u u y u w 3 3 2 5 t i i i 7 & & + % 4 7 5 5 5 5 5 5 5 & o $ $ bXbX",
"bXbXbXbXbX.   $ * 5 7 t r u u y %.e 7 5 * % % % 5 u y y i i i 8 $ = = = p i p i i t q & % 4 6 5 6 1 % % % $ $ % bXbXbXbX",
"bXbXbXbXo o 4 q r t t i i i u e q q 5 5 1 1 1 @ 5 %.u u u w 7 a 9 L 9 L R R E y y i t q q 2 & 2 6 3 2 2 $ $   bXbXbXbXbX",
"bXbXbXbXbX= q t r r q r w w t w 5 7 q 7 6 5 1 o 4 %.%.%.u 6 8 | s.$.H.*.H.*.Q U E t i i y * + * 2 3 5 5 * * + bXbXbXbXbX",
"bXbXbXbXbXbXbXbXbXbX% $ # 4 5 5 3 6 %.e q 6 ; ; 8 p y u y 7 , =././.^.(.!.!.@.W Q R E i y * @ @ + 1 5 5 2 4 * $ bXbXbXbX",
"bXbXbXbXbXbXbXbXbXbXbXbXbX$ = # # # % 1 a U =.U.} $ 2 y i 0 , =./././.E.I < < 8 O.).Y.R t * @ @ + @ % $ + bX$ $ bXbXbXbX",
"bXbXbXbXbXbXbXbXbXbXbX$ + o $ @ @ 1 0 U U.!.^.;X=.9 9 q 7 8 , Y.4X!.O.+.9X9X&.9 *.~.W.U.). .< , + bXbXbXbXbXbXbXbXbXbXbX",
"bXbXbXbXbXbXbXbXbXbXbX$ @ # + $ O , ..X.6XiX=XT.f.d.-.&.;.w = U.dX-X- t vXcX9X+.d.T.=X8X8Xd./ P bXbXbXbXbXbXbXbXbXbXbXbX",
"bXbXbXbXbXbXbXbXbXbXbXbXbXbXbXbXbX9 Y +.4XeXP.G E.8XpXvXzX| : U.dX=X< %.zXcXrX!.H.~ d.6X6X$.{ L bXbXbXbXbXbXbXbXbXbXbXbX",
"bXbXbXbXbXbXbXbXbXbXbXbXbXbXbXbXbX; 0 L =.=.O./ d.=X2XgXhXtXwX6X8XeXwXrXpXpX,X~.P.( O.*.=.< , * bXbXbXbXbXbXbXbXbXbXbXbX",
"bXbXbXbXbXbXbXbXbXbXbXbXbXbXbXbXbXbXbXbXR P 9 9 ..d.R.,X3XfXkXfXfXfXfXfX1X<XQ.J.#.m < L R bXbXbXbXbXbXbXbXbXbXbXbXbXbXbX",
"bXbXbXbXbXbXbXbXbXbXbXbXbXbXbXbXbXbXbXbXbX- - - < ..#.I.E.uXfXfXfXuX3X<XE.T.@.) P - X X bXbXbXbXbXbXbXbXbXbXbXbXbXbXbXbX",
"bXbXbXbXbXbXbXbXbXbXbXbXbXbXbXbXbXbXbXbXG H H K K j M ..X.Q.=X=X>XT.X.] #.] I k l l k k f bXbXbXbXbXbXbXbXbXbXbXbXbXbXbX",
"bXbXbXbXbXbXbXbXbXbXbXbXbXbXbXbXbXbXM r.a.N.N.M.t.s _ 4XeX/.W.3XaX4XP.Q.4XwXg.d D 4.5.4.0.v l bXbXbXbXbXbXbXbXbXbXbXbXbX",
"bXbXbXbXbXbXbXbXbXbXbXbXbXbXbXbXbX^ C ,.+X X[.[.i.s g.jXlXeX3XeXuXeX0XeXkXjXK.d 4.D.m.m.S.4.1.v : bXbXbXbXbXbXbXbXbXbXbX",
"bXbXbXbXbXbXbXbXbXbXbXbXbXbXbXbXbX~ H ,.+X%XS.y.5.:.f.aXaXpXpX<XQ.,XaXaXaXaXH.d r.+X.X.X+XZ.h.1.h n bXbXbXbXbXbXbXbXbXbX",
"bXbXbXbXbXbXbXbXbXbXbXbXbXbXbXbXbX../ X.W.`.Z.C.j.e.j.4.3.H G S v F ^ ^ ^ H F F :.,.,.>.>.3.3.x d k bXbXbXbXbXbXbXbXbXbX",
"bXbXbXbXbXbXbXbXbXbXbXbXbXbXbXbXbX+.L.I.eXiXk.4.q.C.Z.S.N.p.z.t.8.2.2.2.8.8.w.q.3.V J f.J./.`.W.(.I./ bXbXbXbXbXbXbXbXbX",
"bXbXbXbXbXbXbXbXbXbXbXbXbXbXbX{ ~ d.;X2XjXkXJ.x 2.t.j.G.[.}.|.V.b.m.b.b.n.D.j.q.2.d ^ P.R.1X7X8XfX2X( W bXbXbXbXbXbXbXbX",
"bXbXbXbXbXbXbXbXbXbXbXbXbXbXbXo./ L.uXiXjXfXd.s v 1.4.u.x.@X X].{. X}. X#X+Xi.:.F d k ( ] T.E.6XlXwX( ' bXbXbXbXbXbXbXbX",
"bXbXbXbXbXbXbXbXbXbXbXbXbXbXbX} Y I.jXfX<X;X_ s A <.4.j.j.Z.Z.+X&XXX X#Xi.,.t.h.9.h n bXbXO.#.:XlXwX' ' bXbXbXbXbXbXbXbX",
"bXbXbXbXbXbXbXbXbXbXbXbXbXbXbX&.{ H.6X6X6XeXd.! n > g ! ^ ] _ [ l.l.l.[ M n M v ! bXbXbXbXW / -XfX2X( ` bXbXbXbXbXbXbXbX",
"bXbXbXbXbXbXbXbXbXbXbXbXbXbXbXbXW @.I.E.aXfX!.#.P X = 0 < P N N [ N B B n P > X bXbXbXbXbX+.X.(.yX=X..{ bXbXbXbXbXbXbXbX",
"bXbXbXbXbXbXbXbXbXbXbXbXbXbXbXbXbX} ` s.6XyX,XW.f...{ } ' ^ K z.*XN.u.j.j.h.F d m bXbX{ #.R.^.^.`.T./ Q bXbXbXbXbXbXbXbX",
"bXbXbXbXbXbXbXbXbXbXbXbXbXbXbXbXbX} Y +./.5X>X~.<XeXtXtXwXs.K z.&XF.y.C.+X%Xt.C M bXbX{ ..,X7X7X7X;X/ } bXbXbXbXbXbXbXbX",
"bXbXbXbXbXbXbXbXbXbXbXbXbXbXbXbXbXbX| O.K.P.P.H.2XkXkXuXeX$.K z.&X+Xy.x..X$Xi.,.9.bXbX{ { P.=X^._.U.W | bXbXbXbXbXbXbXbX",
"bXbXbXbXbXbXbXbXbXbXbXbXbXbXbXbXbXbXbXbXQ o.W ) ).pXeX(.T.g.H z.OXm.6.y..X Xm.v.t.) ) bXbXQ ` Y ` | bXbXbXbXbXbXbXbXbXbX",
"bXbXbXbXbXbXbXbXbXbXbXbXbXbXbXbXbXbXbXbXbXbXW W ] @.#.O.] h.h.8.V x c C [.].].}.p.J ) bXbXbXbXbXbXbXbXbXbXbXbXbXbXbXbXbX",
"bXbXbXbXbXbXbXbXbXbXbXbXbXbXbXbXbXbXbXbXbXbXI I ! H J H _ e.A.7.d A 0.t.+XoX].oXa.Z ~ bXbXbXbXbXbXbXbXbXbXbXbXbXbXbXbXbX",
"bXbXbXbXbXbXbXbXbXbXbXbXbXbXbXbXbXbXbXbXbXbXf h F 0.4.<.1.0.w.D c :.m.m. X|.].XXn.K ^ bXbXbXbXbXbXbXbXbXbXbXbXbXbXbXbXbX",
"bXbXbXbXbXbXbXbXbXbXbXbXbXbXbXbXbXbXbXbXbXbXg h 7.A.e.1.Z J D V s ,.$X].].|.{..Xn.J ) bXbXbXbXbXbXbXbXbXbXbXbXbXbXbXbXbX",
"bXbXbXbXbXbXbXbXbXbXbXbXbXbXbXbXbXbXbXbXbXbXf l 7.j.e.:.C D <.V s r.$X].]. XN.x.t.D S bXbXbXbXbXbXbXbXbXbXbXbXbXbXbXbXbX",
"bXbXbXbXbXbXbXbXbXbXbXbXbXbXbXbXbXbXbXbXbXbXk l F 5.5.q.5.q.q.F z >.S.m. X$Xn.C.e.5.r.A T bXbXbXbXbXbXbXbXbXbXbXbXbXbXbX",
"bXbXbXbXbXbXbXbXbXbXbXbXbXbXbXbXbXbXbXbXbXbXf l v F 1.q.w.5.5.3.>.t.v.n.B.@Xv.c.c.m.u.<.G bXbXbXbXbXbXbXbXbXbXbXbXbXbXbX",
"bXbXbXbXbXbXbXbXbXbXbXbXbXbXbXbXbXbXbXbXbXbXm f k j v v v v c z.$X{.$X@Xx.x.c.c.m.%XF.,.S bXbXbXbXbXbXbXbXbXbXbXbXbXbXbX",
"bXbXbXbXbXbXbXbXbXbXbXbXbXbXbXbXbXbXbXbXbXbXbXbXT ) ) ) ~ j d 4.n.v.v.b.G.@X@X@XM.v.j.:.H bXbXbXbXbXbXbXbXbXbXbXbXbXbXbX",
"bXbXbXbXbXbXbXbXbXbXbXbXbXbXbXbXbXbXbXbXbXbXbXbXbX` +.K.K.J b 4.C.C.C.c..X}.|.|.B.c.e.1.H bXbXbXbXbXbXbXbXbXbXbXbXbXbXbX",
"bXbXbXbXbXbXbXbXbXbXbXbXbXbXbXbXbXbXbXbXbXbXbXbXbXW +.).Q._ D 0.e.w.e.j.F.'.[.[.m.e.w._ T bXbXbXbXbXbXbXbXbXbXbXbXbXbXbX",
"bXbXbXbXbXbXbXbXbXbXbXbXbXbXbXbXbXbXbXbXbXbXbXbXbXbXbXO.O.( ( S c c c b <.>.>.>.Z H ] bXbXbXbXbXbXbXbXbXbXbXbXbXbXbXbXbX",
"bXbXbXbXbXbXbXbXbXbXbXbXbXbXbXbXbXbXbXbXbXbXbXbXbXbXbXbXbXbXbXW ) X.J.R.5X,Xd.~ I bXbXbXbXbXbXbXbXbXbXbXbXbXbXbXbXbXbXbX",
"bXbXbXbXbXbXbXbXbXbXbXbXbXbXbXbXbXbXbXbXbXbXbXbXbXbXbXbXbXbXbX} / s.=XW.1X<Xd.{ U 9 Q } bXbXbXbXbXbXbXbXbXbXbXbXbXbXbXbX",
"bXbXbXbXbXbXbXbXbXbXbXbXbXbXbXbXbXbXbXbXbXbXbXbXbXbXbXbXbXbXbX} ) s.W.=X>X=XP.X.*.+.+...W bXbXbXbXbXbXbXbXbXbXbXbXbXbXbX",
"bXbXbXbXbXbXbXbXbXbXbXbXbXbXbXbXbXbXbXbXbXbXbXbXbXbXbXbXbXbXbX} Y s.(.>XsXjXhXhXuXqX,X#.{ bXbXbXbXbXbXbXbXbXbXbXbXbXbXbX",
"bXbXbXbXbXbXbXbXbXbXbXbXbXbXbXbXbXbXbXbXbXbXbXbXbXbXbXbXbXbXbX} Y H.3X3X3X4X_.U.I.I.P.bXbXbXbXbXbXbXbXbXbXbXbXbXbXbXbXbX",
"bXbXbXbXbXbXbXbXbXbXbXbXbXbXbXbXbXbXbXbXbXbXbXbXbXbXbXbXbXbXbXbXY Y.tXeX;X).=.T W Q bXbXbXbXbXbXbXbXbXbXbXbXbXbXbXbXbXbX",
"bXbXbXbXbXbXbXbXbXbXbXbXbXbXbXbXbXbXbXbXbXbXbXbXbXbXbXbXbXbXbXbXbXbXbXbXbXbXbXbXbXbXbXbXbXbXbXbXbXbXbXbXbXbXbXbXbXbXbXbX"
};
