/* XPM */
static char *result[] = {
/* columns rows colors chars-per-pixel */
"60 60 235 2 ",
"   c #090A0B",
".  c #150808",
"X  c #1B130D",
"o  c #0D0E12",
"O  c #140E16",
"+  c #0E1114",
"@  c #0E131A",
"#  c #111216",
"$  c #1D1514",
"%  c #13151A",
"&  c #16181D",
"*  c #1A1B1E",
"=  c #181818",
"-  c #2F0E06",
";  c #2A140E",
":  c #381B0F",
">  c #271B17",
",  c #200F12",
"<  c #39251A",
"1  c #29221D",
"2  c #1B1D21",
"3  c #221F26",
"4  c #1E2125",
"5  c #1F2929",
"6  c #212226",
"7  c #24262A",
"8  c #26282D",
"9  c #292A2E",
"0  c #2B2526",
"q  c #352A27",
"w  c #3C3226",
"e  c #2C2D32",
"r  c #262B32",
"t  c #2F3035",
"y  c #2C3339",
"u  c #323236",
"i  c #34353A",
"p  c #3C363D",
"a  c #36393C",
"s  c #393A3D",
"d  c #322E34",
"f  c #5C150B",
"g  c #5B1A0B",
"h  c #5D1505",
"j  c #4C1C12",
"k  c #481917",
"l  c #551C12",
"z  c #5B1A15",
"x  c #4C190B",
"c  c #641B0C",
"v  c #6A1C0A",
"b  c #621608",
"n  c #631C12",
"m  c #6D1D13",
"M  c #721F10",
"N  c #49271B",
"B  c #5A211A",
"V  c #562517",
"C  c #55270C",
"Z  c #6C2209",
"A  c #7B2D0C",
"S  c #76250C",
"D  c #7B340E",
"F  c #672617",
"G  c #732B13",
"H  c #7B2B13",
"J  c #7A2D1B",
"K  c #742717",
"L  c #683717",
"P  c #78361A",
"I  c #542823",
"U  c #49332A",
"Y  c #5E3B2C",
"T  c #55382A",
"R  c #493934",
"E  c #5D3D34",
"W  c #5D3D3B",
"Q  c #563C37",
"!  c #412B21",
"~  c #6C2C20",
"^  c #6B3322",
"/  c #633A2C",
"(  c #6B3C2C",
")  c #673727",
"_  c #723D2C",
"`  c #743423",
"'  c #633D33",
"]  c #663C37",
"[  c #73352E",
"{  c #7C541E",
"}  c #684716",
"|  c #5C413B",
" . c #5D4135",
".. c #4E423F",
"X. c #65432A",
"o. c #78452D",
"O. c #6D4432",
"+. c #654236",
"@. c #744D34",
"#. c #774A37",
"$. c #7C543C",
"%. c #343941",
"&. c #3B3B41",
"*. c #493E40",
"=. c #494647",
"-. c #514F50",
";. c #7B5442",
":. c #715952",
">. c #7D6F6E",
",. c #84290C",
"<. c #8A3808",
"1. c #943808",
"2. c #832B13",
"3. c #892A18",
"4. c #883416",
"5. c #92351B",
"6. c #993816",
"7. c #952F19",
"8. c #A5391B",
"9. c #B63F1D",
"0. c #883C23",
"q. c #973B29",
"w. c #8B2F20",
"e. c #A83B23",
"r. c #B53F25",
"t. c #9C4B0D",
"y. c #904A14",
"u. c #A8560C",
"i. c #A7461B",
"p. c #BB461A",
"a. c #A75217",
"s. c #B55918",
"d. c #B9510F",
"f. c #BA6815",
"g. c #874B38",
"h. c #88563A",
"j. c #935136",
"k. c #AB4429",
"l. c #B74628",
"z. c #B45928",
"x. c #AC4632",
"c. c #B44330",
"v. c #B65035",
"b. c #8C6230",
"n. c #B76A2B",
"m. c #C24A1A",
"M. c #C65619",
"N. c #D35B1D",
"B. c #C96815",
"V. c #D66817",
"C. c #DC7418",
"Z. c #C7670F",
"A. c #E57A1C",
"S. c #C34625",
"D. c #CC5B21",
"F. c #CE5129",
"G. c #D26823",
"H. c #D97A27",
"J. c #CD7028",
"K. c #E57A26",
"L. c #875A44",
"P. c #875B45",
"I. c #955C44",
"U. c #8A634A",
"Y. c #976549",
"T. c #8A6755",
"R. c #9A6B55",
"E. c #9E755A",
"W. c #A76B4B",
"Q. c #B86542",
"!. c #A8714F",
"~. c #B4754E",
"^. c #AD7354",
"/. c #AB7757",
"(. c #B77A56",
"). c #A86E54",
"_. c #957767",
"`. c #AA7866",
"'. c #B97F64",
"]. c #C2784B",
"[. c #F59C0C",
"{. c #F7990E",
"}. c #EA8916",
"|. c #F28D1F",
" X c #EE901B",
".X c #FA9B14",
"XX c #F4991B",
"oX c #F69819",
"OX c #FBA215",
"+X c #DF8526",
"@X c #CE852C",
"#X c #EA8626",
"$X c #F18D29",
"%X c #ED9829",
"&X c #F59A26",
"*X c #E99035",
"=X c #F9A128",
"-X c #FCA734",
";X c #B88159",
":X c #BE8D6B",
">X c #B78667",
",X c #AC8D70",
"<X c #C6875B",
"1X c #C68A68",
"2X c #C5946D",
"3X c #CA9974",
"4X c #D79C76",
"5X c #D4956A",
"6X c #DAA67B",
"7X c #D3A275",
"8X c #E6A979",
"9X c #E8AE73",
"0X c #797980",
"qX c #BFB09E",
"wX c #CCA487",
"eX c #DBAB84",
"rX c #D7A789",
"tX c #D6B298",
"yX c #E6AB87",
"uX c #E9B588",
"iX c #E8BA96",
"pX c #F2BB89",
"aX c #CA9481",
"sX c #EDC29B",
"dX c #F7C799",
"fX c #FED29F",
"gX c #D9C1AD",
"hX c #F5C9A6",
"jX c #FDD3AD",
"kX c #FDD7B7",
"lX c #F1CCB0",
"zX c #B6B5C1",
"xX c #D2D1D4",
"cX c #F2EEED",
"vX c None",
/* pixels */
"vXvXvXvXvXvXvXvXvXvXvXvXvXvXvXvXvXvXvXvXvXvXvXvXvXvXvXvXvXvXvXvXvXvXvXvXvXvXvXvXvXvXvXvXvXvXvXvXvXvXvXvXvXvXvXvXvXvXvXvX",
"vXvXvXvXvXvXvXvXvXvXvXvXvXvXvXvXvXvXvXvXvXvX# # o vXvXvXvXvXvXvXvXvXvXvXvXvXvXvXvXvXvXvXvXvXvXvXvXvXvXvXvXvXvXvXvXvXvXvX",
"vXvXvXvXvXvXvXvXvXvXvXvXvXvXvXvXvXvXvXvXvXvX# # % % vXvXvXvXvXvXvXvXvXvXvXvXvXvXvXvXvXvXvXvXvXvXvXvXvXvXvXvXvXvXvXvXvXvX",
"vXvXvXvXvXvXvXvXvXvXvXvXvXvXvXvXvXvXvXvXvXvXo # 6 u 9 # # # vXvXvXvXvXvXvXvXvXvXvXvXvXvXvXvXvXvXvXvXvXvXvXvXvXvXvXvXvXvX",
"vXvXvXvXvXvXvXvXvXvXvXvXvXvXvXvXvXvX# o # o @ # 9 &.i 6 6 6 6 & o vXvXvXvXvXvXvXvXvXvXvXvXvXvXvXvXvXvXvXvXvXvXvXvXvXvXvX",
"vXvXvXvXvXvXvXvXvXvXvXvXvXvXvXvXvX# # # # # # # 9 a a a p a s 9 % = vXvXvXvXvXvXvXvXvXvXvXvXvXvXvXvXvXvXvXvXvXvXvXvXvXvX",
"vXvXvXvXvXvXvXvXvXvXvXvXvXvXvXvXvXvXvXvX# # # # 4 e 8 8 9 9 8 e i e + vXvXvXvXvXvXvXvXvXvXvXvXvXvXvXvXvXvXvXvXvXvXvXvXvX",
"vXvXvXvXvXvXvXvXvXvXvXvXvXvXvXvXvXvXvXvX+ + @ @ & * 4 5 8 7 7 e t e 9 r & vXvXvXvX+ o # # # vXvXvXvXvXvXvXvXvXvXvXvXvXvX",
"vXvXvXvXvXvXvXvX6 > 4 * 2 2 2 * 2 2 2 2 % & @ @ + + 2 4 4 4 4 5 7 r p a 2 + o vXo + # + + # # vXvXvXvXvXvXvXvXvXvXvXvXvX",
"vXvXvXvXvXvX6 9 u s a a p i s s p &.i y 9 7 % % % + # % % % % 2 9 r %.i 2 # # # + % + vXvXvXvXvXvXvXvXvXvXvXvXvXvXvXvXvX",
"vXvXvXvX# # = & * 4 u s &.s %.&.&.u 9 d i i 7 3 & o 2 u y d y 7 = 2 &.i 2 @ 2 3 6 6 6 # # vXvXvXvXvXvXvXvXvXvXvXvXvXvXvX",
"vXvXvXvXvXvXvXvXvXvX7 9 r 9 e u u r 7 9 9 9 e e 5 2 2 e 9 u u r 3 8 r 8 & @ & 3 2 8 8 2 & = vXvXvXvXvXvXvXvXvXvXvXvXvXvX",
"vXvXvXvXvXvXvXvXvXvXvX# # % & 3 7 9 8 3 % % y i e 7 3 % # 3 8 e p e 2 & # O # # & 7 8 7 8 2 # # vXvXvXvXvXvXvXvXvXvXvXvX",
"vXvXvXvXvXvXvXvXvXvXvXvXo # % # % 2 8 7 # # & 2 & % % @ % 7 8 9 9 e i i 2 @ # O & 8 9 8 9 2 # # vXvXvXvXvXvXvXvXvXvXvXvX",
"vXvXvXvXvXvXvXvXvXvXvXvX+ # # # @ % 2 % o # # O & 3 2 @ # 3 7 7 7 9 &.&.8 2 % @ # 2 & 2 2 & % + o vXvXvXvXvXvXvXvXvXvXvX",
"vXvXvXvXvXvXvXvX# # & = & & & & % & 2 2 2 2 # @ 3 e 9 2 2 9 e 9 8 r u u e e 7 2 2 # O @ @ % & & & = & & = & = vXvXvXvXvX",
"vXvXvXvX# # # # & # 4 8 7 8 8 8 7 u p i a i * + r s a a s R p y r 5 5 8 u s a a t = % @ @ 2 8 7 7 7 7 7 7 7 7 & o # # vX",
"vX# # o # & 6 7 e u u i u i i i i d r 9 * 4 e t a s a a s p &.%.y y @ 2 8 t u s s u d 2 + * 7 7 5 7 7 r 2 & & # # o vXvX",
"vXvX# o o # 2 3 e u p &.&.a a u u 9 2 * X # u s p s a a a a a u e 9 % # 3 7 d s a s p * + 4 8 8 7 7 2 2 2 @ # o vXvXvXvX",
"vXvXvXvXvXvXvX= 7 8 u u u a d 9 8 & # # % = u s p p i i i R ..R w q 1 1 0 q u s a a a 2 + 4 5 5 5 7 2 % # # % vXvXvXvXvX",
"vXvXvXvXvXvXvXvXvXvXvX& = = = 8 9 2 @ @ @ @ y s u 7 5 = > T.`.).!.!.!.R.+.Q R s a r 8 2 o 2 8 6 2 @ 2 7 7 8 2 = vXvXvXvX",
"vXvXvXvXvXvXvXvXvXvXvXvX# # # & 2 % @ % + & 6 9 1 = # o X R.'.(.].~.;X~.Y w d y 8 & = q q 0 $ * 2 2 2 2 2 2 & # vXvXvXvX",
"vXvXvXvXvXvXvXvXvXvXvXvXvX@ @ @ @ @ # # # X U R q > 9 =.-.:.Y.^.<X;XU.T.:.-.%.4 1 w N #.U.T > 1 6 4 @ @ + # vXvXvXvXvXvX",
"vXvXvXvXvXvXvXvXvXvXvXvXvX+ O @ @ @ + % X : T.,X;. ._.xXxX=.> R.uX,X< e zXcX>.. N E./.6XyX/. .U = # vXvXvXvXvXvXvXvXvXvX",
"vXvXvXvXvXvXvXvXvXvXvXvXvXvX        o U ,X>Xh.#./.3XtXcXcX=.$ T.pX;X> 0 gXcXqXU.L.#.g.2XpX;X/ Q X vXvXvXvXvXvXvXvXvXvXvX",
"vXvXvXvXvXvXvXvXvXvXvXvXvXvXvX    2 = U ,X'.o.( W.7XeXkXlX_.T.:X9X5XT._.gXkXrX(.!.( +.E.>X;.N q # vXvXvXvXvXvXvXvXvXvXvX",
"vXvXvXvXvXvXvXvXvXvXvXvXvXvXvXvXo 2 2 0 ! U T T L.).(.6XyXdXjXsX9XsXjXhXsX9X1X~.Y./ T T U < . + # vXvXvXvXvXvXvXvXvXvXvX",
"vXvXvXvXvXvXvXvXvXvXvXvXvXvXvXvXvXvX. . . . X X U o.j.>X;XsXjXjXdXdXpX8X2X;XY.X.Y > $ . . vXvXvXvXvXvXvXvXvXvXvXvXvXvXvX",
"vXvXvXvXvXvXvXvXvXvXvXvXvXvXvXvXvXvXV V V V j V I F ^ ;.h.2X7X4X4X1XR.R.L.L.( F z k k k : vXvXvXvXvXvXvXvXvXvXvXvXvXvXvX",
"vXvXvXvXvXvXvXvXvXvXvXvXvXvXvXvXvX` 5.6.t.t.t.t.S f ~ P.U./.(.;X3X/.o.#.L.T.] f n z z n n j k vXvXvXvXvXvXvXvXvXvXvXvXvX",
"vXvXvXvXvXvXvXvXvXvXvXvXvXvXvXL A 8.l.D.$XXXXX%Xa.h h.hXhX1X(.6XjXiX(.(.uXjX`.f n H H ,.2.K z j vXvXvXvXvXvXvXvXvXvXvXvX",
"vXvXvXvXvXvXvXvXvXvXvXvXvXvXvXJ 2.8.l.z.N.V. X=Xu.v j.hXkXhXsX6X1X4XiXhXjXkX`.f M i.a.J.#Xa.S G - vXvXvXvXvXvXvXvXvXvXvX",
"vXvXvXvXvXvXvXvXvXvXvXvXvXvXvX[ J k.Q.v.8.8.G.K.B.f.n.<X1X'.'.Y.g.I.'.>X>X>Xj.v ,.l.S.#X&XV.6.5.j N vXvXvXvXvXvXvXvXvXvX",
"vXvXvXvXvXvXvXvXvXvXvXvXvXvXvX@.o.W.<XQ.4.1.8.l.C.=X+X<.4.S v v M v b f g g M 2.7.e.k.*X-XH.z.x.` Y vXvXvXvXvXvXvXvXvXvX",
"vXvXvXvXvXvXvXvXvXvXvXvXvXW @.:X5X9X8X4X^.W.0.2.f.=XXX}.K.M.9.l.l.e.3.H 2.H A J H v F 6XfX4X~.Q._ ] vXvXvXvXvXvXvXvXvXvX",
"vXvXvXvXvXvXvXvXvXvXvXvXvX .@.eXdX9X5X(.j.h.F Z i.V.V.V.V.A.K.F.S.r.e.e.e.e.7.3.S f C rXkXpX7X;X_ +.vXvXvXvXvXvXvXvXvXvX",
"vXvXvXvXvXvXvXvXvXvXvXvXvX' @.iXkX2XY.U.( ' l g 5.S.S.p.m.K.#XC.N.F.m.S.r.e.7.S F F V aXiXiXpX4X] ] vXvXvXvXvXvXvXvXvXvX",
"vXvXvXvXvXvXvXvXvXvXvXvXvX' $.tXkX`.Y +.vXvXk z w.c.c.l.l.k.a.J.%XH.z.x.w.J F f V ( O.).(.eXjXtX;.W vXvXvXvXvXvXvXvXvXvX",
"vXvXvXvXvXvXvXvXvXvXvXvXvX/ @.wXsXR.) E vXvXvXvXvXz j N N V Y L } L N N < < ; . - Y o.7XsXeX2X`.O.] vXvXvXvXvXvXvXvXvXvX",
"vXvXvXvXvXvXvXvXvXvXvXvXvXX.o.>X5XW.h.$.vXvXvXvXvX- C { y.X._ o.b.{ C N ! w < > N ;.h.yXhX2Xh.L.O.=.vXvXvXvXvXvXvXvXvXvX",
"vXvXvXvXvXvXvXvXvXvXvXvXvX .O.^.<X].<X!.( W vXvXB g 4.%X&XM.l.J.-X@XD P g.;.$.$.U./.(.4XyX^.) Y vXvXvXvXvXvXvXvXvXvXvXvX",
"vXvXvXvXvXvXvXvXvXvXvXvXvXE @.3X8X8XuX>X+.| vXvX~ H t.&X.XM.p.H.=X@XD o.wXlXsXhXyX(.~.;X1XI./ ' vXvXvXvXvXvXvXvXvXvXvXvX",
"vXvXvXvXvXvXvXvXvXvXvXvXvXvXvXU.Y.Y.Y.U.vXvX/ ^ 0.8.Z. X{.A.A.C.J.z.` +.>XaXiXkXiXh.h.h.L.;.vXvXvXvXvXvXvXvXvXvXvXvXvXvX",
"vXvXvXvXvXvXvXvXvXvXvXvXvXvXvXE ' E W vXvXvXL J 8.m.N.oX{.{.OXZ.5.0.~ [ I.Y.>XrX,XO.Y ' Q vXvXvXvXvXvXvXvXvXvXvXvXvXvXvX",
"vXvXvXvXvXvXvXvXvXvXvXvXvXvXvXvXvXvXvXvXvXvX) H 8.S.B.oX{..X&Xu.g g g z ) ( _ ( ( ' W vXvXvXvXvXvXvXvXvXvXvXvXvXvXvXvXvX",
"vXvXvXvXvXvXvXvXvXvXvXvXvXvXvXvXvXvXvXvXvXvX^ H f.#X X{.[.{.&Xu.h n G G P G q.x.q.F N vXvXvXvXvXvXvXvXvXvXvXvXvXvXvXvXvX",
"vXvXvXvXvXvXvXvXvXvXvXvXvXvXvXvXvXvXvXvXvXvX) H B.OX[.[.[.[.&Xu.f n H A 2.,.e.S.e.v j vXvXvXvXvXvXvXvXvXvXvXvXvXvXvXvXvX",
"vXvXvXvXvXvXvXvXvXvXvXvXvXvXvXvXvXvXvXvXvXvXL 4.B..X.X{.[.{. Xu.b S 3.4.3.3.q.r.e.n j vXvXvXvXvXvXvXvXvXvXvXvXvXvXvXvXvX",
"vXvXvXvXvXvXvXvXvXvXvXvXvXvXvXvXvXvXvXvX) J k.d.C..X.XoXXXN.m.6.,.3.r.x.c.c.e.3.J g k vXvXvXvXvXvXvXvXvXvXvXvXvXvXvXvXvX",
"vXvXvXvXvXvXvXvXvXvXvXvXvXvXvXvXvXvXvXvXG <.G.K.V.V.V.G.G.m.S.6.,.3.3.3.J K M m B vXvXvXvXvXvXvXvXvXvXvXvXvXvXvXvXvXvXvX",
"vXvXvXvXvXvXvXvXvXvXvXvXvXvXvXvXvXvXvXvXG <.+X=XV.m.S.S.l.N.N.i.K K f n ` g.` z I vXvXvXvXvXvXvXvXvXvXvXvXvXvXvXvXvXvXvX",
"vXvXvXvXvXvXvXvXvXvXvXvXvXvXvXvXvXvXvXvXG <.K.%XV.m.m.m.M.A.&Xs.S K f F 1XyX^.) E vXvXvXvXvXvXvXvXvXvXvXvXvXvXvXvXvXvXvX",
"vXvXvXvXvXvXvXvXvXvXvXvXvXvXvXvXvXvXvXvXL 4.p.B.A.#X$X|.K.u.t.5.S G z B #.P.;.vXvXvXvXvXvXvXvXvXvXvXvXvXvXvXvXvXvXvXvXvX",
"vXvXvXvXvXvXvXvXvXvXvXvXvXvXvXvXvXvXvXvXvXvX0.6.a.B.f.f.f.A v m G F x vXvXvXvXvXvXvXvXvXvXvXvXvXvXvXvXvXvXvXvXvXvXvXvXvX",
"vXvXvXvXvXvXvXvXvXvXvXvXvXvXvXvXvXvXvXvXvXvX( ` J A G 4.J J ~ B z I vXvXvXvXvXvXvXvXvXvXvXvXvXvXvXvXvXvXvXvXvXvXvXvXvXvX",
"vXvXvXvXvXvXvXvXvXvXvXvXvXvXvXvXvXvXvXvXvXvXvXvXX.^ g.~.~.^.^.L./ Q vXvXvXvXvXvXvXvXvXvXvXvXvXvXvXvXvXvXvXvXvXvXvXvXvXvX",
"vXvXvXvXvXvXvXvXvXvXvXvXvXvXvXvXvXvXvXvXvXvXvXvX,XwX4X4X4XuXiXE.Y E vXvXvXvXvXvXvXvXvXvXvXvXvXvXvXvXvXvXvXvXvXvXvXvXvXvX",
"vXvXvXvXvXvXvXvXvXvXvXvXvXvXvXvXvXvXvXvXvXvX| ] _.tX3X:X:XwXwX_.Y E vXvXvXvXvXvXvXvXvXvXvXvXvXvXvXvXvXvXvXvXvXvXvXvXvXvX",
"vXvXvXvXvXvXvXvXvXvXvXvXvXvXvXvXvXvXvXvXvXvX*.W W +.+.X.X. .| +.| | vXvXvXvXvXvXvXvXvXvXvXvXvXvXvXvXvXvXvXvXvXvXvXvXvXvX",
"vXvXvXvXvXvXvXvXvXvXvXvXvXvXvXvXvXvXvXvXvXvXvXvXvXvXvXvXvXvXvXvXvXvXvXvXvXvXvXvXvXvXvXvXvXvXvXvXvXvXvXvXvXvXvXvXvXvXvXvX"
};
