/* XPM */
static char *result[] = {
/* columns rows colors chars-per-pixel */
"60 60 235 2 ",
"   c #020204",
".  c #0B0B0E",
"X  c #06060A",
"o  c #1A0907",
"O  c #0D0E12",
"+  c #110F12",
"@  c #0F1115",
"#  c #0D1219",
"$  c #111215",
"%  c #141519",
"&  c #17191C",
"*  c #1A1B1E",
"=  c #1D1413",
"-  c #161108",
";  c #240903",
":  c #300D08",
">  c #27100B",
",  c #38150E",
"<  c #2C1B1B",
"1  c #391C16",
"2  c #3C2419",
"3  c #2C221E",
"4  c #1C1D22",
"5  c #161A21",
"6  c #0C1521",
"7  c #1E2025",
"8  c #1F232B",
"9  c #222226",
"0  c #292423",
"q  c #24262A",
"w  c #26292C",
"e  c #292A2D",
"r  c #312624",
"t  c #372926",
"y  c #2C2D32",
"u  c #242B33",
"i  c #312E34",
"p  c #2E3135",
"a  c #2C323A",
"s  c #323236",
"d  c #34353A",
"f  c #36383C",
"g  c #393A3D",
"h  c #3B353A",
"j  c #32302F",
"k  c #4B1A0D",
"l  c #5B1A0A",
"z  c #581608",
"x  c #4C1B15",
"c  c #451A17",
"v  c #571C12",
"b  c #520E01",
"n  c #641B0C",
"m  c #661908",
"M  c #731F0C",
"N  c #43221A",
"B  c #47281C",
"V  c #56241A",
"C  c #5D210C",
"Z  c #67240C",
"A  c #772A0A",
"S  c #7D360A",
"D  c #6C2A1A",
"F  c #642516",
"G  c #742C14",
"H  c #7B2B16",
"J  c #7C3414",
"K  c #783219",
"L  c #653912",
"P  c #462A24",
"I  c #463229",
"U  c #5C3C2E",
"Y  c #583529",
"T  c #573B33",
"R  c #502F28",
"E  c #663424",
"W  c #6C3524",
"Q  c #65392A",
"!  c #743625",
"~  c #623B34",
"^  c #6D3D34",
"/  c #712E23",
"(  c #755419",
")  c #6E4B1D",
"_  c #55433C",
"`  c #5E413A",
"'  c #5B4234",
"]  c #5D402F",
"[  c #67462B",
"{  c #784629",
"}  c #614236",
"|  c #6B4A3A",
" . c #7B4933",
".. c #784C3D",
"X. c #775439",
"o. c #6C573E",
"O. c #363A41",
"+. c #393B40",
"@. c #393641",
"#. c #5B3F40",
"$. c #785646",
"%. c #73594E",
"&. c #5F5F63",
"*. c #6E6361",
"=. c #872E0B",
"-. c #8B340B",
";. c #852D16",
":. c #8D331F",
">. c #853611",
",. c #973517",
"<. c #9D300B",
"1. c #A93B1A",
"2. c #883B24",
"3. c #993A21",
"4. c #A63D27",
"5. c #B43E26",
"6. c #8D4409",
"7. c #984409",
"8. c #954813",
"9. c #9F5010",
"0. c #A84716",
"q. c #B9461B",
"w. c #BB5717",
"e. c #A75417",
"r. c #BD691A",
"t. c #9B442A",
"y. c #834E37",
"u. c #86563B",
"i. c #98553A",
"p. c #9C4439",
"a. c #A84628",
"s. c #B84527",
"d. c #BB5129",
"f. c #B84632",
"g. c #AA5130",
"h. c #BC6C22",
"j. c #BC633C",
"k. c #C6570B",
"l. c #C64A1A",
"z. c #CC541A",
"x. c #C45519",
"c. c #C34F09",
"v. c #DC6B1C",
"b. c #D56917",
"n. c #DF7719",
"m. c #C46B1A",
"M. c #E4781C",
"N. c #C54626",
"B. c #C75427",
"V. c #C75B38",
"C. c #C96823",
"Z. c #CA7522",
"A. c #DA7726",
"S. c #D56A24",
"D. c #E47724",
"F. c #845843",
"G. c #985848",
"H. c #95574D",
"J. c #8B6146",
"K. c #9D654B",
"L. c #97674A",
"P. c #8C6853",
"I. c #976C55",
"U. c #97745B",
"Y. c #BB6943",
"T. c #BA794C",
"R. c #A66C50",
"E. c #AC7B5A",
"W. c #AD7558",
"Q. c #B37B5C",
"!. c #B97856",
"~. c #A56747",
"^. c #A47C63",
"/. c #AE7F60",
"(. c #B57B63",
"). c #BC7D67",
"_. c #C55E4A",
"`. c #CB7553",
"'. c #DF831F",
"]. c #EA8A1A",
"[. c #ED9617",
"{. c #F2931D",
"}. c #F69B17",
"|. c #F49611",
" X c #F4A210",
".X c #D78329",
"XX c #CE812D",
"oX c #E88324",
"OX c #F48C27",
"+X c #EB972C",
"@X c #F59527",
"#X c #E58B32",
"$X c #E99635",
"%X c #FEA02C",
"&X c #B98359",
"*X c #A88066",
"=X c #B48364",
"-X c #BC8866",
";X c #AB8A73",
":X c #B99477",
">X c #C2855A",
",X c #C48A66",
"<X c #C89368",
"1X c #D39A6B",
"2X c #D59B75",
"3X c #C99072",
"4X c #E59872",
"5X c #D8A57C",
"6X c #D8A26B",
"7X c #E4A67A",
"8X c #E6A970",
"9X c #969499",
"0X c #DAAA83",
"qX c #DEB594",
"wX c #D2AB8E",
"eX c #E4AC88",
"rX c #EDB283",
"tX c #E8B68B",
"yX c #F2BA8D",
"uX c #F3B18D",
"iX c #EBBA93",
"pX c #EBBB96",
"aX c #F5BB98",
"sX c #E2BEA3",
"dX c #F3C58C",
"fX c #F6C699",
"gX c #EDC9A8",
"hX c #FBCDA5",
"jX c #F8CCA8",
"kX c #FDD2AB",
"lX c #FFD7A4",
"zX c #FED2B4",
"xX c #F9DEC2",
"cX c #ECF0F0",
"vX c None",
/* pixels */
"vXvXvXvXvXvXvXvXvXvXvXvXvXvXvXvXvXvXvXvXvXvXvXvXvXvXvXvXvXvXvXvXvXvXvXvXvXvXvXvXvXvXvXvXvXvXvXvXvXvXvXvXvXvXvXvXvXvXvXvX",
"vXvXvXvXvXvXvXvXvXvXvXvXvXvXvX$ $ $ $ $ @ @ % % @ % - @ vXvXvXvXvXvXvXvXvXvXvXvXvXvXvXvXvXvXvXvXvXvXvXvXvXvXvXvXvXvXvXvX",
"vXvXvXvXvXvXvXvXvXvXvXvXvXvXvXvX. $ $ & w w w 8 w 8 q q e 9 @ vXvXvXvXvXvXvXvXvXvXvXvXvXvXvXvXvXvXvXvXvXvXvXvXvXvXvXvXvX",
"vXvXvXvXvXvXvXvXvXvXvXvXvXvXvXvXvX. . * s f f f f f f f g e * & = $ vXvXvXvXvXvXvXvXvXvXvXvXvXvXvXvXvXvXvXvXvXvXvXvXvXvX",
"vXvXvXvXvXvXvXvXvXvXvXvXvXvXvXvXvX    . & & 7 u w w w w w p d s * $ $ $ $ vXvXvXvXvX$ $ $ $ vXvXvXvXvXvXvXvXvXvXvXvXvXvX",
"vXvXvXvXvXvXvXvXvXvXvXvXvX$ . . . . X . X . % * 7 w w w w e p p y e 4 $ $ vXvXvXO . . . + vXvXvXvXvXvXvXvXvXvXvXvXvXvXvX",
"vXvXvXvXO & & & * 4 * * * * * * * & & + X X X % % 8 7 8 7 8 w w s f y * 5 vXvXvX% $ X vXvXvXvXvXvXvXvXvXvXvXvXvXvXvXvXvX",
"vXvX@ $ % 9 q i d f g d g g d g f e w 4 @ @ @ # % @ % % % & q w e q i g s 5 O # % O vXvXvXvXvXvXvXvXvXvXvXvXvXvXvXvXvXvX",
"vX@ 4 y y d d f +.g g +.@.@.g g @.d f y 4 4 & @ * y y y y q 5 5 w q p +.f q 8 4 7 7 @ @ vXvXvXvXvXvXvXvXvXvXvXvXvXvXvXvX",
"vX$ 9 e e s y s d d d d @.h d d d f +.f y y 7 & 7 p p f s y 7 4 7 7 q s y q 4 q w q * & % vXvXvXvXvXvXvXvXvXvXvXvXvXvXvX",
"vXvXvXvXvX& $ 4 q q q q q q q q q d @.g +.g y q 7 % & 7 q i g g 4 $ % % % % # 4 8 8 w 9 7 @ vXvXvXvXvXvXvXvXvXvXvXvXvXvX",
"vXvXvXvXvXvXvXvX% $ % * % 5 4 q q e y e 4 4 q w 7 @ % 7 q y g g p p q $ $ $ O 9 f d w w * $ vXvXvXvXvXvXvXvXvXvXvXvXvXvX",
"vXvXvXvXvXvXvXvXvXvXO O $ $ % 4 9 9 w 9 @ $ 7 7 7 5 5 4 9 e s d d d w $ @ % @ 7 s s y y 9 $ @ vXvXvXvXvXvXvX@ $ $ vXvXvX",
"vXvXvXvXvXvXvXvXvXvXvX  . $ $ % % 7 e q % % $ @ 5 e q % % 5 q q 0 w 4 @ % % @ 4 w w f +.w % = # % & & $ $ % % $ $ vXvXvX",
"vXvXvXvXvXvXvXvXvXvXvX  . $ % 7 q p d d p s * $ $ * % y s s f d * % * w 8 & @ 4 8 u f f h s a p s e 9 9 w 7 & @ $ vXvXvX",
"vXvXvXvXvXvXvXvXvXvXvX. $ 4 7 y p d O.@.g g e q * + & p +.@.g g w 0 9 4 5 % @ 8 a a O.f s s p p a w & 4 4 7 $ . vXvXvXvX",
"vXvXvXvXvXvXvXvXvXvX$ & 9 9 w d f g g h h h h @.u % = p d f O.O.+.+.e & % % $ 0 d d f f i e q u 8 4 % % % % O X vXvXvXvX",
"vXvXvXvXvXvXvXvXvX& 9 9 * $ & w u p g d e q < % % $ % 9 w p O.O.f f f d a & @ % & 4 w w s @.a u u q 9 q q 9 % $ @ vXvXvX",
"vXvXvXvXvXvXvXvXvXvXvXvXvXvX* p a a y s I P ' | U t t r 0 q w w d h h g d * @ # % % * * w a a i y y q q y q 4 4 * @ vXvX",
"vXvXvXvXvXvXvXvXvXvXvXvXvXvXvXf d i 0 R |  .R.,XK.Q ' r 9 8 # # a d d g s * @ % * = = % 5 8 w d f e 9 q 4 9 w e 9 $ $ vX",
"vXvXvXvXvXvXvXvXvXvXvXvXvXvXvXvX* I U  .W.!.!.).H.1 0 = $ # @ @ & $ 0 d d & $ 3 ' I 2 3 & % % q e 4 $ & vXvXvXvXvXvXvXvX",
"vXvXvXvXvXvXvXvXvXvXvXvXvXvXvXvXvX%.J.W.0XeXJ.U *.9X9Xe o 2 o.X.L.I.$.< 9 & - | ;X*X[ I 3 $ $ * * vXvXvXvXvXvXvXvXvXvXvX",
"vXvXvXvXvXvXvXvXvXvXvXvXvXvXvXvXvX-X>X6XkXgXo.- &.cXcX*.B  .Q.>X8XyXU.- $ r B P.tX5X{ } 2 $ + $ vXvXvXvXvXvXvXvXvXvXvXvX",
"vXvXvXvXvXvXvXvXvXvXvXvXvXvXvX*XQ.2X8XtXkXgX%.= *.cXcXgX7X1XT.T.6XtXP.; 1 J.E.3XtX2X .} r % O   vXvXvXvXvXvXvXvXvXvXvXvX",
"vXvXvXvXvXvXvXvXvXvXvXvXvXvXvXvXvX-X>X1XtXpX0X:XwXxXxXjXfXdXtXrXrXrX,XJ.u.u.y.u.J.F.N < 5 # # O vXvXvXvXvXvXvXvXvXvXvXvX",
"vXvXvXvXvXvXvXvXvXvXvXvXvXvXvXvXvXvXE.-X2X1XdXlXzXjXlXlXlXhXhXfX<X,XQ.K.P.U P P I t = $ $ O @ vXvXvXvXvXvXvXvXvXvXvXvXvX",
"vXvXvXvXvXvXvXvXvXvXvXvXvXvXvXvXvXvXvXvXE.&XqXhXjXfXjXlXjXfX7X7Xu.W ^ ^ T < = = = % % @ vXvXvXvXvXvXvXvXvXvXvXvXvXvXvXvX",
"vXvXvXvXvXvXvXvXvXvXvXvXvXvXvXvXvXvXvXvXvXvX3X,X:X<X-X-X<X>X>X!.2.K D v V x c > X vXvXvXvXvXvXvXvXvXvXvXvXvXvXvXvXvXvXvX",
"vXvXvXvXvXvXvXvXvXvXvXvXvXvXvXvXvXvXvXvXvXvXvX^.!.T.T.,X,X<X2X1Xa.,.,.9.8.A m k : vXvXvXvXvXvXvXvXvXvXvXvXvXvXvXvXvXvXvX",
"vXvXvXvXvXvXvXvXvXvXvXvXvXvXvXvXvXvXvXvXvXvXvXvXvX).).4XrXiXaXaX_.5.S.@XoX9.-.A l c vXvXvXvXvXvXvXvXvXvXvXvXvXvXvXvXvXvX",
"vXvXvXvXvXvXvXvXvXvXvXvXvXvXvXvXvXvXvXvXvXvXvXE I.gXaXzXjX4XY.V.N.N.B.N.z..X#Xg.z x vXvXvXvXvXvXvXvXvXvXvXvXvXvXvXvXvXvX",
"vXvXvXvXvXvXvXvXvXvXvXvXvXvXvXvXvXvXvXvXvXvXvXW y.&X).3X4X`.N.N.5.1.1.3.0.b.A.e.n E vXvXvXvXvXvXvXvXvXvXvXvXvXvXvXvXvXvX",
"vXvXvXvXvXvXvXvXvXvXvXvXvXvXvXvXvXvXvXvXvXvXD J >.=.=.q.N.x.l.d.:.=.;.:.8.g.d.3.H Q vXvXvXvXvXvXvXvXvXvXvXvXvXvXvXvXvXvX",
"vXvXvXvXvXvXvXvXvXvXvXvXvXvXvXvXvXvXvXvXK ;.4.s.s.5.q.M.{.{.@X#XS z i.4X1X`.T.G.^ ~ vXvXvXvXvXvXvXvXvXvXvXvXvXvXvXvXvXvX",
"vXvXvXvXvXvXvXvXvXvXvXvXvXvXvXvXvXvXvXvXH =.x.M.M.M.M.v.v.v.b.C.A z G.fXdX6X6X~.~ #.vXvXvXvXvXvXvXvXvXvXvXvXvXvXvXvXvXvX",
"vXvXvXvXvXvXvXvXvXvXvXvXvXvXvXvXvXvXvXvXH S Z.{.|.}.}.b.z.N.l.s.H z ~.hXfXyXyXE.~ ~ vXvXvXvXvXvXvXvXvXvXvXvXvXvXvXvXvXvX",
"vXvXvXvXvXvXvXvXvXvXvXvXvXvXvXvXvXvXvXvXG G t.w.m.+X X[.+XA.q.g.:.Z ~.7XrXhXzX;X~ _ vXvXvXvXvXvXvXvXvXvXvXvXvXvXvXvXvXvX",
"vXvXvXvXvXvXvXvXvXvXvXvXvXvXvXvXvXvXvXvXk : V Q { ( ( ( ( L k c , : F.fXaX7X2XR.] _ vXvXvXvXvXvXvXvXvXvXvXvXvXvXvXvXvXvX",
"vXvXvXvXvXvXvXvXvXvXvXvXvXvXvXvXvXvXvXvXo ; 1 I R [ ) B 2 , ; > ; o $.zXpXQ.~.$.' _ vXvXvXvXvXvXvXvXvXvXvXvXvXvXvXvXvXvX",
"vXvXvXvXvXvXvXvXvXvXvXvXvXvXvXvXvXvXvXvXx v D G 9.+X+X8.G G G G n z G.uX5XX.[ Q vXvXvXvXvXvXvXvXvXvXvXvXvXvXvXvXvXvXvXvX",
"vXvXvXvXvXvXvXvXvXvXvXvXvXvXvXvXvXvXvXvXl n 2.1.b.@X@Xk.4.5.a.t.n b K.hXiX$.T ~ vXvXvXvXvXvXvXvXvXvXvXvXvXvXvXvXvXvXvXvX",
"vXvXvXvXvXvXvXvXvXvXvXvXvXvXvXvXvXvXvXx z m e.b.v.D.D.B.N.N.4.p.G.H.(.tX5X$.~ } vXvXvXvXvXvXvXvXvXvXvXvXvXvXvXvXvXvXvXvX",
"vXvXvXvXvXvXvXvXvXvXvXvXvXvXvXvXvXvXvXk Z A m.%XD.c.l.N.f.4.K  .eXzX0X&XE.| ~ } vXvXvXvXvXvXvXvXvXvXvXvXvXvXvXvXvXvXvXvX",
"vXvXvXvXvXvXvXvXvXvXvXvXvXvXvXvXvXN k S Z..X[. X|.{.oXz.s.p.[ [ 0XaXyXfXqX$.T ` vXvXvXvXvXvXvXvXvXvXvXvXvXvXvXvXvXvXvXvX",
"vXvXvXvXvXvXvXvXvXvXvXvXvXvXvXvXvXB x 6.}.}.|. X[.n.M.v.S.g.J K R.E.=X:X;X%.vXvXvXvXvXvXvXvXvXvXvXvXvXvXvXvXvXvXvXvXvXvX",
"vXvXvXvXvXvXvXvXvXvXvXvXvXvXvXvXvXV z 7.|. X|.[.M.c.c.'.+Xh.S G / / Q U T vXvXvXvXvXvXvXvXvXvXvXvXvXvXvXvXvXvXvXvXvXvXvX",
"vXvXvXvXvXvXvXvXvXvXvXvXvXvXvXvXvXW G 7.{.@Xb.w.b.OX].e.;.>.A A G K D v v c vXvXvXvXvXvXvXvXvXvXvXvXvXvXvXvXvXvXvXvXvXvX",
"vXvXvXvXvXvXvXvXvXvXvXvXvXvXvXvXvXV F 7.@X+Xw.<.q.n.b.0.1.0.m.m.r.h.8.Z F x P P I vXvXvXvXvXvXvXvXvXvXvXvXvXvXvXvXvXvXvX",
"vXvXvXvXvXvXvXvXvXvXvXvXvXvXvXvXvXP c >.XXXX7.A ,.x.x.z.z.v.OXOX{.OXh.) 2.y. ...} ' vXvXvXvXvXvXvXvXvXvXvXvXvXvXvXvXvXvX",
"vXvXvXvXvXvXvXvXvXvXvXvXvXvXvXvXvXvXvXvXZ L n m 7.+X{.{.OXv.c.z.l.l.C.V.T.5XeXW.Q } vXvXvXvXvXvXvXvXvXvXvXvXvXvXvXvXvXvX",
"vXvXvXvXvXvXvXvXvXvXvXvXvXvXvXvXvXvXvXvXvXvXx z 6.+X X X}.M.l.N.s.f.`.4X7XfXhX3XJ.P.vXvXvXvXvXvXvXvXvXvXvXvXvXvXvXvXvXvX",
"vXvXvXvXvXvXvXvXvXvXvXvXvXvXvXvXvXvXvXvXvXvXvXz -.oX].|.}.].k.z.5.4.V.2X5XfXlXeXQ.*XvXvXvXvXvXvXvXvXvXvXvXvXvXvXvXvXvXvX",
"vXvXvXvXvXvXvXvXvXvXvXvXvXvXvXvXvXvXvXvXvXvXvXk H d.w.M.@X}.{.#X=.m D ^ ..pXzX0XQ.E.vXvXvXvXvXvXvXvXvXvXvXvXvXvXvXvXvXvX",
"vXvXvXvXvXvXvXvXvXvXvXvXvXvXvXvXvXvXvXvXvXvXvXvXF 2.:.,.8.6.6.8.,.4.:.K ! P.P.-XpXtX(.(.vXvXvXvXvXvXvXvXvXvXvXvXvXvXvXvX",
"vXvXvXvXvXvXvXvXvXvXvXvXvXvXvXvXvXvXvXvXvXvXvXvXvXY V n n n Z n 3.5.3.Z Q Q R ^.pXeX).(.vXvXvXvXvXvXvXvXvXvXvXvXvXvXvXvX",
"vXvXvXvXvXvXvXvXvXvXvXvXvXvXvXvXvXvXvXvXvXvXvXvXvXvXvX/ H H S J H / vXvXvXvXvXvX=X(.!.(.vXvXvXvXvXvXvXvXvXvXvXvXvXvXvXvX",
"vXvXvXvXvXvXvXvXvXvXvXvXvXvXvXvXvXvXvXvXvXvXvXvXvXT T U E i.1X1Xy.Y vXvXvXvXvXvXvXvXvXvXvXvXvXvXvXvXvXvXvXvXvXvXvXvXvXvX",
"vXvXvXvXvXvXvXvXvXvXvXvXvXvXvXvXvXvXvXvXvXvXvXvXvXF.F.K.K.-XyX7XR.$.vXvXvXvXvXvXvXvXvXvXvXvXvXvXvXvXvXvXvXvXvXvXvXvXvXvX",
"vXvXvXvXvXvXvXvXvXvXvXvXvXvXvXvXvXvXvXvXvXvXvX_ $.^.(.0XyXpXyXtX-X^.vXvXvXvXvXvXvXvXvXvXvXvXvXvXvXvXvXvXvXvXvXvXvXvXvXvX",
"vXvXvXvXvXvXvXvXvXvXvXvXvXvXvXvXvXvXvXvXvXvXvXvXvXvXvXvXvXvXvXvXvXvXvXvXvXvXvXvXvXvXvXvXvXvXvXvXvXvXvXvXvXvXvXvXvXvXvXvX"
};
