/* XPM */
static char *result[] = {
/* columns rows colors chars-per-pixel */
"60 60 236 2 ",
"   c #09090C",
".  c #140707",
"X  c #0C120F",
"o  c #0D0E12",
"O  c #100E12",
"+  c #0E1214",
"@  c #0B1519",
"#  c #121215",
"$  c #14151A",
"%  c #16191D",
"&  c #191A1E",
"*  c #191817",
"=  c #2C0E0A",
"-  c #240706",
";  c #38140B",
":  c #271817",
">  c #371A13",
",  c #2A1010",
"<  c #25221C",
"1  c #3A251D",
"2  c #1B1D21",
"3  c #141A21",
"4  c #211F27",
"5  c #1E2125",
"6  c #1F2329",
"7  c #222326",
"8  c #24262A",
"9  c #26292C",
"0  c #292A2E",
"q  c #2A2424",
"w  c #342725",
"e  c #2C2D32",
"r  c #252A31",
"t  c #2E3135",
"y  c #2E3339",
"u  c #313235",
"i  c #34353A",
"p  c #3B353C",
"a  c #36393D",
"s  c #39393D",
"d  c #3A3636",
"f  c #362F2F",
"g  c #47170A",
"h  c #5D130C",
"j  c #59190B",
"k  c #491A14",
"l  c #541C14",
"z  c #5C1B14",
"x  c #551713",
"c  c #420B09",
"v  c #6A1C03",
"b  c #651609",
"n  c #621B13",
"m  c #6E1B18",
"M  c #791E15",
"N  c #640D0C",
"B  c #562C13",
"V  c #6A220E",
"C  c #7A2B0C",
"Z  c #75250B",
"A  c #6E2513",
"S  c #62221B",
"D  c #662816",
"F  c #792514",
"G  c #762A13",
"H  c #772B17",
"J  c #783216",
"K  c #67331A",
"L  c #451F22",
"P  c #4A2926",
"I  c #562924",
"U  c #463329",
"Y  c #5D3C2C",
"T  c #583529",
"R  c #5A3B37",
"E  c #4A3538",
"W  c #642A23",
"Q  c #6A3C2A",
"!  c #683828",
"~  c #763A26",
"^  c #643B34",
"/  c #673C35",
"(  c #702621",
")  c #58441C",
"_  c #5C4139",
"`  c #514637",
"'  c #58452E",
"]  c #74472B",
"[  c #634234",
"{  c #6A4737",
"}  c #764838",
"|  c #7A523A",
" . c #67422A",
".. c #3A3A41",
"X. c #373C41",
"o. c #444447",
"O. c #6C4A43",
"+. c #785442",
"@. c #705348",
"#. c #78685A",
"$. c #716D6E",
"%. c #822B0D",
"&. c #8B2C0F",
"*. c #89360A",
"=. c #99300D",
"-. c #842B13",
";. c #862A18",
":. c #883A1D",
">. c #9D321C",
",. c #94361A",
"<. c #932F13",
"1. c #A73A1B",
"2. c #853622",
"3. c #983725",
"4. c #A83B26",
"5. c #B33F25",
"6. c #954516",
"7. c #A94519",
"8. c #B9491A",
"9. c #AB561A",
"0. c #B85A19",
"q. c #B35E0C",
"w. c #B9671B",
"e. c #AF691D",
"r. c #894628",
"t. c #934C2E",
"y. c #8D5522",
"u. c #855339",
"i. c #955638",
"p. c #AC4329",
"a. c #A74529",
"s. c #BA4424",
"d. c #BA442C",
"f. c #B7452A",
"g. c #BE4836",
"h. c #AC5234",
"j. c #9D7324",
"k. c #A06D25",
"l. c #BB6523",
"z. c #AE6F33",
"x. c #C44A18",
"c. c #C65518",
"v. c #CF5B15",
"b. c #CA6716",
"n. c #D86A18",
"m. c #C97418",
"M. c #DD731A",
"N. c #DA7816",
"B. c #CC610E",
"V. c #E2721C",
"C. c #E06C1A",
"Z. c #C54527",
"A. c #C95824",
"S. c #C34432",
"D. c #D55E24",
"F. c #CA6325",
"G. c #DD7927",
"H. c #D06F28",
"J. c #E77A25",
"K. c #895844",
"L. c #9C5B46",
"P. c #976745",
"I. c #9A6956",
"U. c #967358",
"Y. c #876D5A",
"T. c #A86847",
"R. c #BA7A4C",
"E. c #A87558",
"W. c #B57958",
"Q. c #AE664B",
"!. c #967961",
"~. c #A67B63",
"^. c #B47C63",
"/. c #C46547",
"(. c #C77952",
"). c #EB8B19",
"_. c #E99619",
"`. c #FB9B1A",
"'. c #F49717",
"]. c #F59213",
"[. c #F9A115",
"{. c #DD8F31",
"}. c #EA8728",
"|. c #EA9221",
" X c #F89525",
".X c #F7943B",
"XX c #FFA124",
"oX c #B7825D",
"OX c #A3816A",
"+X c #BD8464",
"@X c #B98865",
"#X c #B68D71",
"$X c #B7957C",
"%X c #B68C6E",
"&X c #C7875A",
"*X c #D0915F",
"=X c #C68A64",
"-X c #C68865",
";X c #C9946C",
":X c #C4936C",
">X c #D5966A",
",X c #C69878",
"<X c #D89B75",
"1X c #D0876F",
"2X c #E19D68",
"3X c #DAA579",
"4X c #E6A76A",
"5X c #E7AA78",
"6X c #EAB179",
"7X c #F2B074",
"8X c #B2AFB2",
"9X c #9A9393",
"0X c #CE9E80",
"qX c #D7A787",
"wX c #DCB58E",
"eX c #C9AE94",
"rX c #D3AB8E",
"tX c #E9AD88",
"yX c #E9B68C",
"uX c #F2B585",
"iX c #E6B894",
"pX c #F1BC94",
"aX c #F5C39C",
"sX c #F7C89A",
"dX c #F5CBA4",
"fX c #FBCBA4",
"gX c #F7C7A7",
"hX c #FED2AC",
"jX c #FCD4A8",
"kX c #FED5B4",
"lX c #FFD9B6",
"zX c #E3C8B5",
"xX c #E2D0C3",
"cX c #FDE1CA",
"vX c #F9F8FB",
"bX c None",
/* pixels */
"bXbXbXbXbXbXbXbXbXbXbXbXbXbXbXbXbXbXbXbXbXbXbXbXbXbXbXbXbXbXbXbXbXbXbXbXbXbXbXbXbXbXbXbXbXbXbXbXbXbXbXbXbXbXbXbXbXbXbXbX",
"bXbXbXbXbXbXbXbXbXbXbXbXbXbXbXbXbX# # bXbXbXbXbXbXbXbXbXbXbXbXbXbXbXbXbXbXbXbXbXbXbXbXbXbXbXbXbXbXbXbXbXbXbXbXbXbXbXbXbX",
"bXbXbXbXbXbXbXbXbXbXbXbXbXbXbXbXbX# # o bXbXbXbXbXbXbXbXbXbXbXbXbXbXbXbXbXbXbXbXbXbXbXbXbXbXbXbXbXbXbXbXbXbXbXbXbXbXbXbX",
"bXbXbXbXbXbXbXbXbXbXbXbXbXbXbXbXbX# # # % % % % % % % % % bXbXbXbXbXbXbXbXbXbXbXbXbXbXbXbXbXbXbXbXbXbXbXbXbXbXbXbXbXbXbX",
"bXbXbXbXbXbXbXbXbXbXbXbXbXbXbXbXbX# # 7 i i y i i i i i u $ # # # bXbXbXbXbXbXbXbXbXbXbXbXbXbXbXbXbXbXbXbXbXbXbXbXbXbXbX",
"bXbXbXbXbXbXbXbXbXbXbXbXbXbXbXbXbXbXbX& 7 7 t t e r t t e e e % # # o bXbXbXbXbXbXbXbXbXbXbXbXbXbXbXbXbXbXbXbXbXbXbXbXbX",
"bXbXbXbXbXbXbXbXbXbXbXbXbXbXbXbXbXbXbXo +   & 5 8 6 9 8 0 i i 0 2 2 # # bXbXbXbXbXbXbX# bXbXbXbXbXbXbXbXbXbXbXbXbXbXbXbX",
"bXbXbXbXbX# $ $ $ $ $ & $ $ * $ $ # # #     + @ 5 8 8 8 7 8 9 u s 0 % $ bXbXbX# # # + bXbXbXbXbXbXbXbXbXbXbXbXbXbXbXbXbX",
"bXbXbXbX# & 8 0 u u i u i i e u t 9 8 2 o + $ # @ % % @ % 7 9 9 e e i e & bXbX@ o bXbXbXbXbXbXbXbXbXbXbXbXbXbXbXbXbXbXbX",
"bXbX# 8 0 0 u u s s s s s s ....s p e 9 2 2 + # 5 0 0 0 9 & 5 5 8 e ..p 7 7 5 5 % o bXbXbXbXbXbXbXbXbXbXbXbXbXbXbXbXbXbX",
"bXbX# 0 u u 0 u i i i i i i i i i ....i r r 2 % 0 u i u u 2 & 5 4 8 e e 7 5 7 9 6 % % bXbXbXbXbXbXbXbXbXbXbXbXbXbXbXbXbX",
"bXbXbXbXbXbX# & 7 8 8 8 8 9 8 9 8 i s s p i r 8 & @ 2 9 0 a a 5 # $ $ $ $ $ 5 0 8 9 8 % bXbXbXbXbXbXbXbXbXbXbXbXbXbXbXbX",
"bXbXbXbXbXbXbXbXbXbX& % # % 2 8 9 r r 8 2 2 9 8 % # % 0 0 s s u i 8 # # # $ 8 i e 9 7 % bXbXbXbXbXbXbXbXbXbXbXbXbXbXbXbX",
"bXbXbXbXbXbXbXbXbXbXbXbX# # # 2 2 4 9 2 o # 2 2 2 2 & 2 5 e u u e 8 # # O # 8 i u u e $ # bXbXbXbX# + o # # bXbXbXbXbXbX",
"bXbXbXbXbXbXbXbXbXbXbXbXbX# $ % $ 8 e 7 2 % # # 4 8 2 & 2 0 0 8 7 2 $ $ $ $ 7 8 e s i 4 % 2 2 3 % $ @ # # # bXbXbXbXbXbX",
"bXbXbXbXbXbXbXbXbXbXbXbXbX$ % 7 8 u s s ..e % # $ # 7 s i i i 7 $ & 8 8 $ O 4 8 e s s i i s i t 8 6 $ + o bXbXbXbXbXbXbX",
"bXbXbXbXbXbXbXbXbXbXbXO % 8 8 i p s s p s d t y 2 + 7 s ..s s u t 8 * * # # 0 p a s d e r e e 8 & @ $ + + bXbXbXbXbXbXbX",
"bXbXbXbXbXbXbXbXbXO & & 2 2 7 t y X.p i f e 9 9 & X 2 u p p a a X.u 7 7 % # 7 0 0 u f t e r 9 8 2 2 & & % bXbXbXbXbXbXbX",
"bXbXbXbXbXbXbXbXbX# 4 8 & # 3 r r i s t 0 w 4 w : : < 8 r u u d s X.X.y $ + @ X & 7 8 i s r 9 e 8 9 8 9 & % # bXbXbXbXbX",
"bXbXbXbXbXbXbXbXbXbXbXbXbX# & p p f < f Y } I.E.} Y U 8 8 % * f X.X.X.y % @ @ # # $ 3 6 r u ..e 8 8 8 8 8 8 2 # # bXbXbX",
"bXbXbXbXbXbXbXbXbXbXbXbXbXbXbXbXbXE U } T.z.(.^.Q 1 q % @ X + * % 9 a y * * 1 f w : 4 3 % 8 u 8 % 5 bXbXbXbXbXbXbXbXbXbX",
"bXbXbXbXbXbXbXbXbXbXbXbXbXbXbXbXbX@.+.E.<X-XP.+.#.$.o.+ : U T [ { | #.@.: X { U.| U f & O 2 4 4 bXbXbXbXbXbXbXbXbXbXbXbX",
"bXbXbXbXbXbXbXbXbXbXbXbXbXbXbXbXbX@XW.5XkXeXw < 8XvX9X> B E.+X<X6X6XyX,XP ; E.yX+X{ E * O # $ bXbXbXbXbXbXbXbXbXbXbXbXbX",
"bXbXbXbXbXbXbXbXbXbXbXbXbXbXbXOX@X>X4XpXlXeX1 8 8XvXxX,X>XR.R.2X7X4X7X3XR.U.<XuXoX .R & O   bXbXbXbXbXbXbXbXbXbXbXbXbXbX",
"bXbXbXbXbXbXbXbXbXbXbXbXbXbXbXbXbX+X*X3XpXwX#X$XzXcXkXaXaXiXtXuX6X4X1X+Xi.u.K.I.+.> < * X # bXbXbXbXbXbXbXbXbXbXbXbXbXbX",
"bXbXbXbXbXbXbXbXbXbXbXbXbXbXbXbXbXOXE.=X<X5XfXjXhXgXhXhXfXsXaX<X+XW.T.K.T U P E w # X X bXbXbXbXbXbXbXbXbXbXbXbXbXbXbXbX",
"bXbXbXbXbXbXbXbXbXbXbXbXbXbXbXbXbXbXbX~.W.=XpXfXdXdXdXgXsX6X3XP.~ ] Q T : , , : # + bXbXbXbXbXbXbXbXbXbXbXbXbXbXbXbXbXbX",
"bXbXbXbXbXbXbXbXbXbXbXbXbXbXbXbXbXbXbXbXbXbX%X=X=X&X=X&XoX(.&X>X<XW.J G j k k g ; . bXbXbXbXbXbXbXbXbXbXbXbXbXbXbXbXbXbX",
"bXbXbXbXbXbXbXbXbXbXbXbXbXbXbXbXbXbXbXbXbXbXbXbXW.W.(.>X*X5X3XaXfX<X>.7.0.l.6.:.H c > bXbXbXbXbXbXbXbXbXbXbXbXbXbXbXbXbX",
"bXbXbXbXbXbXbXbXbXbXbXbXbXbXbXbXbXbXbXbXbXbXbXbX%X:X3XuXuXjXjXpXtX1Xs.c.J.}.n.F.a.b l bXbXbXbXbXbXbXbXbXbXbXbXbXbXbXbXbX",
"bXbXbXbXbXbXbXbXbXbXbXbXbXbXbXbXbXbXbXbXbXbXR [ ,XdXaXgXgXgXsX(.f.Z.5.8.s.8.G..XF.v l bXbXbXbXbXbXbXbXbXbXbXbXbXbXbXbXbX",
"bXbXbXbXbXbXbXbXbXbXbXbXbXbXbXbXbXbXbXbXbXbX! J r.t.h./././.F.J. Xc.M G &.<.8.A.7.F ! bXbXbXbXbXbXbXbXbXbXbXbXbXbXbXbXbX",
"bXbXbXbXbXbXbXbXbXbXbXbXbXbXbXbXbXbXbXbXbXl G -.,.,.s.M.C.C.n.M.G.9.h n y.t.h.z.h.2.! bXbXbXbXbXbXbXbXbXbXbXbXbXbXbXbXbX",
"bXbXbXbXbXbXbXbXbXbXbXbXbXbXbXbXbXbXbXP l S :.=.8.A.M.`.].).).c.7.<.N ( R.&X&X1XQ.~ ! bXbXbXbXbXbXbXbXbXbXbXbXbXbXbXbXbX",
"bXbXbXbXbXbXbXbXbXbXbXbXbXbXbXbXbXbXbXl h Z 8.8.J. X'.'.).c.0.,.-.F N ~ >XtXtXtX^.( ^ bXbXbXbXbXbXbXbXbXbXbXbXbXbXbXbXbX",
"bXbXbXbXbXbXbXbXbXbXbXbXbXbXbXbXbXbXbXW A *.G.).'.'.).b.n.).J.7.C A x S u.K.0XhX0X^ R bXbXbXbXbXbXbXbXbXbXbXbXbXbXbXbXbX",
"bXbXbXbXbXbXbXbXbXbXbXbXbXbXbXbXbXbXT u.T.z.j.j.j.k.] ] J y.y.D ; g = g T ! ,XaX:XQ R bXbXbXbXbXbXbXbXbXbXbXbXbXbXbXbXbX",
"bXbXbXbXbXbXbXbXbXbXbXbXbXbXbXbXbX_ ^ T.uX;XB U U ) B > 1 = = = = = = > ^ Q @XpX@XQ / bXbXbXbXbXbXbXbXbXbXbXbXbXbXbXbXbX",
"bXbXbXbXbXbXbXbXbXbXbXbXbXbXbXbXbX_ Q T.uX;XB j e.{.e.G -.a.p.7.a.a.a.t.~ Q ,XlX,XQ / bXbXbXbXbXbXbXbXbXbXbXbXbXbXbXbXbX",
"bXbXbXbXbXbXbXbXbXbXbXbXbXbXbXR  .~.%X&X&XE.S v m.XX}.7.p.Z.x.n.}.D.=.3.L.I.rXlX0XQ [ bXbXbXbXbXbXbXbXbXbXbXbXbXbXbXbXbX",
"bXbXbXbXbXbXbXbXbXbXbXbXbXbXbX[  .;XuX4X*XW.D V m.XXV.8.Z.D.n.V.J.0.Z 2.1X0XqXyX@XQ / bXbXbXbXbXbXbXbXbXbXbXbXbXbXbXbXbX",
"bXbXbXbXbXbXbXbXbXbXbXbXbXbXbX' [ #X3X2X5X(.V Z H. XV.x.B.'.`.v.f.3.h ~ iXhX3XoXP.Q / bXbXbXbXbXbXbXbXbXbXbXbXbXbXbXbXbX",
"bXbXbXbXbXbXbXbXbXbXbXbXbXbXbXbXbXO.} r.2.:.G C 7.8.n.).'.'.'.D.Z.>.N / iXkXgXgX$X[ [ bXbXbXbXbXbXbXbXbXbXbXbXbXbXbXbXbX",
"bXbXbXbXbXbXbXbXbXbXbXbXbXbXbXbXbXbXbXJ G *.w.m.N.).).[._.q.9.7.,.F x W I.!.!.!.Y.bXbXbXbXbXbXbXbXbXbXbXbXbXbXbXbXbXbXbX",
"bXbXbXbXbXbXbXbXbXbXbXbXbXbXbXbXbXbXbXH <.7._.[.].[.).m.w.*.C G G A n S W W P U bXbXbXbXbXbXbXbXbXbXbXbXbXbXbXbXbXbXbXbX",
"bXbXbXbXbXbXbXbXbXbXbXbXbXbXbXbXbXk z ;.f.c.].[.].'.m.*.*.%.-.m N A J G n z > bXbXbXbXbXbXbXbXbXbXbXbXbXbXbXbXbXbXbXbXbX",
"bXbXbXbXbXbXbXbXbXbXbXbXbXbXbXbX. k b ;.s.c. X'.n.x.n.}.G.8.p.M j V J F n z x k > bXbXbXbXbXbXbXbXbXbXbXbXbXbXbXbXbXbXbX",
"bXbXbXbXbXbXbXbXbXbXbXbXbXbXbX; ; r.e.b.J.N.n.n.c.s.A.V.D.=.;.M A G J J A m ;.3.( c bXbXbXbXbXbXbXbXbXbXbXbXbXbXbXbXbXbX",
"bXbXbXbXbXbXbXbXbXbXbXbXbXbXbXj v G.[.[.[.].8.Z.S.S.s.1.,.F ;.;.H H C -.%.%.a.g.3.N z bXbXbXbXbXbXbXbXbXbXbXbXbXbXbXbXbX",
"bXbXbXbXbXbXbXbXbXbXbXbXbXbXbXl V l._.'.`.).c.x.Z.Z.1.N m p.5.1.;.-.%.-.-.&.4.d.3.v x bXbXbXbXbXbXbXbXbXbXbXbXbXbXbXbXbX",
"bXbXbXbXbXbXbXbXbXbXbXbXbXbXbXbXbXK J 6.A.n.}.).).|.9.j n ~ <.1.5.s.5.5.p.5.1.;.C j k . bXbXbXbXbXbXbXbXbXbXbXbXbXbXbXbX",
"bXbXbXbXbXbXbXbXbXbXbXR R R bXbXbXT I ,.f.8.0.w.e.9.6.bXl S V 1.Z.Z.S.Z.4.4.a.i.] S I P R bXbXbXbXbXbXbXbXbXbXbXbXbXbXbX",
"bXbXbXbXbXbXbXbXbXbX_ _ } +.+.bXbX/ Q y./.g.:.C v j j bXbXP l 3.4.4.4.3.F C Q.*XE.| u.+.O.bXbXbXbXbXbXbXbXbXbXbXbXbXbXbX",
"bXbXbXbXbXbXbXbXbXbX_ ^ I.tX;X] / / ! OXhXrX~ H V z l bXbXbXbXz S z n z j j W.5X5X5X3X^.~.bXbXbXbXbXbXbXbXbXbXbXbXbXbXbX",
"bXbXbXbXbXbXbXbXbXbXbXbX~.-X-X;X;X3XqXaXlXwX] K S z k bXbXbXbXbXbXbX= - I ! oX7X7X7X5XbXbXbXbXbXbXbXbXbXbXbXbXbXbXbXbXbX",
"bXbXbXbXbXbXbXbXbXbXbXbXbX~.-X;X<XsXjXhXlXwX} / I k bXbXbXbXbXbXbXbXw > T / -XuX4X>X,XbXbXbXbXbXbXbXbXbXbXbXbXbXbXbXbXbX",
"bXbXbXbXbXbXbXbXbXbXbXbXbXbXbX^.W.wXgXaXgXrX} ^ bXbXbXbXbXbXbXbXbXO.+.| | | +X6X>XW.E.bXbXbXbXbXbXbXbXbXbXbXbXbXbXbXbXbX",
"bXbXbXbXbXbXbXbXbXbXbXbXbXbXbXbXbX%X@X^.@XE.{ R bXbXbXbXbXbXbX` R I.qX3X3X3X@XoX~.bXbXbXbXbXbXbXbXbXbXbXbXbXbXbXbXbXbXbX",
"bXbXbXbXbXbXbXbXbXbXbXbXbXbXbXbXbXbXbXbXbXbXbXbXbXbXbXbXbXbXbXbXbXbXbXbXbXbXbXbXbXbXbXbXbXbXbXbXbXbXbXbXbXbXbXbXbXbXbXbX",
"bXbXbXbXbXbXbXbXbXbXbXbXbXbXbXbXbXbXbXbXbXbXbXbXbXbXbXbXbXbXbXbXbXbXbXbXbXbXbXbXbXbXbXbXbXbXbXbXbXbXbXbXbXbXbXbXbXbXbXbX"
};
