/* XPM */
static char *result[] = {
/* columns rows colors chars-per-pixel */
"60 60 242 2 ",
"   c #0A0A0D",
".  c #080506",
"X  c #170907",
"o  c #0B0E12",
"O  c #130F15",
"+  c #0F1115",
"@  c #0F1219",
"#  c #111216",
"$  c #13151A",
"%  c #17191D",
"&  c #191A1D",
"*  c #1D1211",
"=  c #14120E",
"-  c #290B07",
";  c #261617",
":  c #351818",
">  c #2A1509",
",  c #38251B",
"<  c #352918",
"1  c #1C1D22",
"2  c #261E22",
"3  c #371B20",
"4  c #1E2125",
"5  c #1F2329",
"6  c #212226",
"7  c #24252A",
"8  c #26292D",
"9  c #292A2E",
"0  c #2A2628",
"q  c #3A2D23",
"w  c #342D2B",
"e  c #372722",
"r  c #2C2D32",
"t  c #212830",
"y  c #2F3035",
"u  c #313235",
"i  c #34353A",
"p  c #36393D",
"a  c #39393D",
"s  c #3A3538",
"d  c #313032",
"f  c #58190C",
"g  c #481B15",
"h  c #531B14",
"j  c #5B1B13",
"k  c #571718",
"l  c #4C1209",
"z  c #64150A",
"x  c #66190A",
"c  c #631814",
"v  c #731913",
"b  c #741F0E",
"n  c #46231B",
"m  c #57241A",
"M  c #5E2F11",
"N  c #6A240B",
"B  c #77280A",
"V  c #6C2212",
"C  c #692617",
"Z  c #732415",
"A  c #7C2C12",
"S  c #7B2B1C",
"D  c #7A2815",
"F  c #6C3419",
"G  c #773215",
"H  c #78340A",
"J  c #462A25",
"K  c #4C352A",
"L  c #5B3B2D",
"P  c #583629",
"I  c #4B3932",
"U  c #5C3D34",
"Y  c #593C36",
"T  c #5D2D23",
"R  c #682D23",
"E  c #762C21",
"W  c #6A3B2B",
"Q  c #653928",
"!  c #623D33",
"~  c #673C36",
"^  c #753D30",
"/  c #7D4A17",
"(  c #5B4135",
")  c #574239",
"_  c #6A432C",
"`  c #7A442B",
"'  c #674536",
"]  c #764836",
"[  c #79523B",
"{  c #373B41",
"}  c #3B3A40",
"|  c #444141",
" . c #6A5346",
".. c #7B5543",
"X. c #7B5E56",
"o. c #6C666A",
"O. c #796051",
"+. c #832E0D",
"@. c #89280B",
"#. c #89370B",
"$. c #832C14",
"%. c #8A2D13",
"&. c #872B19",
"*. c #883416",
"=. c #97361B",
"-. c #943311",
";. c #A4391C",
":. c #A53A18",
">. c #883C22",
",. c #9A3A24",
"<. c #8A3129",
"1. c #A33B22",
"2. c #A83923",
"3. c #BD3F28",
"4. c #A63F34",
"5. c #824819",
"6. c #9A4918",
"7. c #995416",
"8. c #A9560B",
"9. c #A74418",
"0. c #B84918",
"q. c #B9551C",
"w. c #A95710",
"e. c #8D6419",
"r. c #926A1E",
"t. c #B8661B",
"y. c #85472D",
"u. c #885638",
"i. c #935838",
"p. c #8E4D28",
"a. c #AA4329",
"s. c #B84828",
"d. c #BC5221",
"f. c #B74732",
"g. c #A64F2F",
"h. c #996431",
"j. c #BB6023",
"k. c #CA570C",
"l. c #C14E10",
"z. c #C75617",
"x. c #D25C13",
"c. c #C66616",
"v. c #D7691B",
"b. c #D77412",
"n. c #D3730F",
"m. c #E37C1C",
"M. c #E27E0F",
"N. c #C3452A",
"B. c #C44525",
"V. c #CA5923",
"C. c #D66A22",
"Z. c #D87727",
"A. c #CF6A2C",
"S. c #E87A25",
"D. c #8C5C44",
"F. c #875C48",
"G. c #945D48",
"H. c #93694B",
"J. c #986648",
"K. c #896A55",
"L. c #976A53",
"P. c #9A755C",
"I. c #A76B48",
"U. c #B7774E",
"Y. c #A56C55",
"T. c #A77656",
"R. c #B27354",
"E. c #B37B5C",
"W. c #B77C55",
"Q. c #A8724B",
"!. c #AA7C62",
"~. c #A97E6B",
"^. c #B27F65",
"/. c #907966",
"(. c #C7704D",
"). c #C07F65",
"_. c #DE831C",
"`. c #EC881A",
"'. c #F59B12",
"]. c #FA9C14",
"[. c #F3951C",
"{. c #FB9D1C",
"}. c #F69816",
"|. c #EE9214",
" X c #F4A117",
".X c #D68A32",
"XX c #E88728",
"oX c #F28823",
"OX c #EF9624",
"+X c #F39628",
"@X c #F28F31",
"#X c #FB9835",
"$X c #FCA024",
"%X c #B8825B",
"&X c #AF805D",
"*X c #A78269",
"=X c #B78869",
"-X c #BD997C",
";X c #AF8E72",
":X c #988571",
">X c #C58558",
",X c #D5915E",
"<X c #C58B64",
"1X c #C98D65",
"2X c #CB9368",
"3X c #D5996C",
"4X c #D69667",
"5X c #C89877",
"6X c #DA9D73",
"7X c #D39D7B",
"8X c #D69573",
"9X c #D18E66",
"0X c #E79A6D",
"qX c #D9A57A",
"wX c #ECAE75",
"eX c #E3AA7C",
"rX c #E6A975",
"tX c #EDB27A",
"yX c #E5B179",
"uX c #F0B17B",
"iX c #E2925F",
"pX c #D9A882",
"aX c #DAB08A",
"sX c #E9A885",
"dX c #E6B484",
"fX c #F2BE8A",
"gX c #E7B893",
"hX c #F0BF95",
"jX c #D1BDAB",
"kX c #F3C18B",
"lX c #F6C99B",
"zX c #EEC2A2",
"xX c #FACDA3",
"cX c #F9CAA8",
"vX c #FED2A4",
"bX c #FDD3AC",
"nX c #FCD2B3",
"mX c #FFD8B6",
"MX c #FCCEB2",
"NX c #D5D9DD",
"BX c #F1E9DE",
"VX c None",
/* pixels */
"VXVXVXVXVXVXVXVXVXVXVXVXVXVXVXVXVXVXVXVXVXVXVXVXVXVXVXVXVXVXVXVXVXVXVXVXVXVXVXVXVXVXVXVXVXVXVXVXVXVXVXVXVXVXVXVXVXVXVXVX",
"VXVXVXVXVXVXVXVXVXVXVXVXVXVXVXVXVXVXVXVXVXVXVXVXVXVXVXVXVXVXVXVXVXVXVXVXVXVXVXVXVXVXVXVXVXVXVXVXVXVXVXVXVXVXVXVXVXVXVXVX",
"VXVXVXVXVXVXVXVXVXVXVXVXVXVXVX  # # # & % % & & & & & & & & &   VXVXVXVXVXVXVXVXVXVXVXVXVXVXVXVXVXVXVXVXVXVXVXVXVXVXVXVX",
"VXVXVXVXVXVXVXVXVXVXVXVXVXVX# # # # 4 p p p p p p p i i i p y # # # # VXVXVXVXVXVXVXVXVXVXVXVXVXVXVXVXVXVXVXVXVXVXVXVXVX",
"VXVXVXVXVXVXVXVXVXVXVXVXVXVX# # #   % 8 5 7 5 9 y y r y y y r 9 9 & # VXVXVXVXVXVXVXVXVXVXVXVXVXVXVXVXVXVXVXVXVXVXVXVXVX",
"VXVXVXVXVXVXVXVXVXVXVXVXVXVXVXVXVXVX+ # + + + & 5 4 5 8 7 6 9 p i 6 1 & # VXVXVXVXVXVXVXVXVXVXVXVXVXVXVXVXVXVXVXVXVXVXVX",
"VXVXVXVXVXVXVXVXVXVXVXVXVX# # # # $ + # # + @ @ @ $ 5 8 7 7 7 7 8 i a r $ VXVXVXVXVX# # # 6 7 VXVXVXVXVXVXVXVXVXVXVXVXVX",
"VXVXVXVXVXVXVXVX# 7 7 w u 9 r r y y 8 4 4 # @ + # $ $ % 5 8 7 7 7 r r r u r 1 VXVXVX# VXVXVXVXVXVXVXVXVXVXVXVXVXVXVXVXVX",
"VXVXVXVXVXVX4 6 4 9 y i a a a a a { a r r 1 % $ @ $ 4 4 4 6 1 6 1 8 6 r } { 5 1 4 & & + VXVXVXVXVXVXVXVXVXVXVXVXVXVXVXVX",
"VXVXVXVX$ $ 7 a p a p p p { p a a a a { a r 8 1 + 1 p a 6 # $ $ % 2 7 r a i 9 7 5 7 5 $ # VXVXVXVXVXVXVXVXVXVXVXVXVXVXVX",
"VXVX6 7 y y r r r r 9 9 r r r r 9 9 y } a i i r 5 7 9 9 r y u u i 1 $ % 1 1 % $ 4 5 6 6 6 1 # VXVXVXVXVXVXVXVXVXVXVXVXVX",
"VXVX7 8 i p y 6 4 7 6 4 1 1 1 1 2 7 r y y r r 8 7 7 4 & r i u i y 8 7 1 @ O O o 4 y r 9 7 1 # VXVXVXVXVXVXVXVXVXVXVXVXVX",
"VXVXVXVXVXVXVXVXVX6 8 & # # # # 2 5 7 t 6 & @ 1 8 1 $ # 1 7 7 7 7 i { r # # # @ 5 p p 8 7 4 # VXVXVXVXVXVXVXVXVXVXVXVXVX",
"VXVXVXVXVXVXVXVXVXVXVXVXVX  # # 1 @ 1 7 6 & + $ # 1 7 6 1 $ 1 7 8 8 9 6 $ # # # 4 8 9 i p 6 # # # # VXVX6 { i 1 + VXVXVX",
"VXVXVXVXVXVXVXVXVXVXVXVXVXVX# # 1 1 2 y y 8 8 1 @ # 1 1 2 0 8 y u y y t 4 1 $ @ & 8 9 p p y 7 7 8 8 8 8 9 u y 1 # VXVXVX",
"VXVXVXVXVXVXVXVXVXVXVXVXVX  $ % 2 r y { p p { 9 & % @ @ r a { a a { p i 8 8 & @ & 7 0 p p p p p p p u i y 6 2 $ # VXVXVX",
"VXVXVXVXVXVXVXVXVXVXVXVX+ & 7 7 { { i { p p a a a u 1 @ t { a a a a a a s s 1 # # # & i { r 8 7 9 8 1 $ $ $ $   VXVXVXVX",
"VXVXVXVXVXVXVXVXVXVX# & 4 ; & & 1 1 8 p p u w 0 2 1 $ $ 5 y r r r p { a p s r r 6 + $ r r r s u u u 7 1 1 # #   VXVXVXVX",
"VXVXVXVXVXVXVXVXVX# # & & $ # # 1 1 t i y w e , q q ; > e q q w w r w u p p p { t + $ 4 1 r i i y r 8 2 6 % & # VXVXVXVX",
"VXVXVXVXVXVXVXVXVXVX$   VX. # $ y { y 7 e P ! D.=XL._ ( ) U U U Y , = 6 a p { { 9 + + # 1 1 t 1 $ $ # # & 7 7 $ # VXVXVX",
"VXVXVXVXVXVXVXVXVXVXVXVXVXVXVX# t y s I Q G.I.R.).Y.J y 2 : , U U K K w ; 4 s s 9 = $ 4 6 & 1 $ @ @ @ # & 4 VX$ # # VXVX",
"VXVXVXVXVXVXVXVXVXVXVXVXVXVXVXVXVXVX ...u.<X6XE.F.X.o.o.s X , F.H.H.H.u._ ' '  .I = * w w 0 O @ $ # + # VXVXVXVXVXVXVXVX",
"VXVXVXVXVXVXVXVXVXVXVXVXVXVXVXVXVXVX*XE.>XhXnXP.> | NXNXo.> Q pXtXyXtXwXyXyX=X&X[ ; , I ' e # $ # # VXVXVXVXVXVXVXVXVXVX",
"VXVXVXVXVXVXVXVXVXVXVXVXVXVXVXVX~.!.1XrXeXxXmX/.= } BXBXjX=X2XyXyXwXwXyXyXeX>XU.%X-X;X] ! , # o   VXVXVXVXVXVXVXVXVXVXVX",
"VXVXVXVXVXVXVXVXVXVXVXVXVXVXVXVXVXVX<X4X3XgXzX-XK.:XNXmXbXkXkXkXkXtXwXrX3X2XI.i.J.E.P.T J ; # + o VXVXVXVXVXVXVXVXVXVXVX",
"VXVXVXVXVXVXVXVXVXVXVXVXVXVXVXVXVXVXVX!.W.qXrXkXvXbXnXnXbXvXvXvXxXsX6X9XR.Y.' P U P K ; * O O @ VXVXVXVXVXVXVXVXVXVXVXVX",
"VXVXVXVXVXVXVXVXVXVXVXVXVXVXVXVXVXVXVXVXVX%XW.qXbXbXbXnXbXvXlXtXdXJ.` ] ] ~ : * ; ; ; # VXVXVXVXVXVXVXVXVXVXVXVXVXVXVXVX",
"VXVXVXVXVXVXVXVXVXVXVXVXVXVXVXVXVXVXVXVXVXVXVX5XqX7X7XpX7XqX3X2X1X%XT.h.F Q g 3 3 : ; X VXVXVXVXVXVXVXVXVXVXVXVXVXVXVXVX",
"VXVXVXVXVXVXVXVXVXVXVXVXVXVXVXVXVXVXVXVXVXVXVXVX!.E.W.R.W.%X>X1X1XsXkX,X*.&.D b B A F l VXVXVXVXVXVXVXVXVXVXVXVXVXVXVXVX",
"VXVXVXVXVXVXVXVXVXVXVXVXVXVXVXVXVXVXVXVXVXVXVXVXVXVXE.W.4XyXdXlXcXxXxX6Xf.3.3.l.v.@X.XN g VXVXVXVXVXVXVXVXVXVXVXVXVXVXVX",
"VXVXVXVXVXVXVXVXVXVXVXVXVXVXVXVXVXVXVXVXVXVXVXVXVXF.aXgXhXcXxXbXMX8X(.(.N.B.B.B.v.$X.XN f VXVXVXVXVXVXVXVXVXVXVXVXVXVXVX",
"VXVXVXVXVXVXVXVXVXVXVXVXVXVXVXVXVXVXVXVXVXVXVXVXQ y.5X7XsXsXsXuXwXA.z.B.;.2.2.2.V.XXZ.@.c VXVXVXVXVXVXVXVXVXVXVXVXVXVXVX",
"VXVXVXVXVXVXVXVXVXVXVXVXVXVXVXVXVXVXVXVXVXVXVXVXE $.$.%.9.s.s.d.l.S.#Xc.b x D &.;.d.d.%.S VXVXVXVXVXVXVXVXVXVXVXVXVXVXVX",
"VXVXVXVXVXVXVXVXVXVXVXVXVXVXVXVXVXVXVXVXVXg h c S *.9.9.v.`.oXoXXXC.V.a.z c i.I.(.0XiXiX9XH.Y VXVXVXVXVXVXVXVXVXVXVXVXVX",
"VXVXVXVXVXVXVXVXVXVXVXVXVXVXVXVXVXVXVXVXVXk f D =.:.V.b.`.'.|.M.S.d.=.&.c c i.h.%XuXtXkXhX!.L ( VXVXVXVXVXVXVXVXVXVXVXVX",
"VXVXVXVXVXVXVXVXVXVXVXVXVXVXVXVXVXVXVXVXVXC z -.q.c.OX+X'.}.`.k.0.-.%.&.c c R Q T.eXyXlXbX~.U U VXVXVXVXVXVXVXVXVXVXVXVX",
"VXVXVXVXVXVXVXVXVXVXVXVXVXVXVXVXVXVXVXU W E B q.@X[. X X XOX+XOXoXz.a.6.S R W W G.%X1XlXMX~.U U VXVXVXVXVXVXVXVXVXVXVXVX",
"VXVXVXVXVXVXVXVXVXVXVXVXVXVXVXVXVXL F.P.Y.h.p.h.h.r.r.r.e.e.e./ 5.F V m l g P W ] D.I.zXMX!.L ) VXVXVXVXVXVXVXVXVXVXVXVX",
"VXVXVXVXVXVXVXVXVXVXVXVXVXVXVXVX' [ Q.rXqX%XT.[ n J q < < < > - - - > - X - K ) U L ] zXnX*XL ) VXVXVXVXVXVXVXVXVXVXVXVX",
"VXVXVXVXVXVXVXVXVXVXVXVX) ' U ' =XeX4X%XU.y._ T k f G H G Z +.a.a.a.a.<.Z F g X : P [ zXnX~.L Y VXVXVXVXVXVXVXVXVXVXVXVX",
"VXVXVXVXVXVXVXVXVXVXVXP.;XY.W W E.4X>XU.R.u.! R N H c.c.c.n.n.M.S.V.l.3.2.y.F : ' -X5X5X8XH.! U VXVXVXVXVXVXVXVXVXVXVXVX",
"VXVXVXVXVXVXVXVXVXU W !.sX1Xh.u.h.I.Q.L.L.^ R / 6.8.OX].'.'.}.`.S.C.z.x.c.d.` Q *XmXxX3X<XG.! ( VXVXVXVXVXVXVXVXVXVXVXVX",
"VXVXVXVXVXVXVXVXVXY ' H.E.%XqXqXD._ _ W ^ S B t.OX'.].].'.{.oXk.l.S.}.}.{..Xe.T *XnXcXxXcX*X( VXVXVXVXVXVXVXVXVXVXVXVXVX",
"VXVXVXVXVXVXVXVXVXVXVX....F.D.F.VXVXm m v ,.9.v. X'.].{.b.c.v.m.XXq.6.8.9.9.N m ] L.K.K.K.O.VXVXVXVXVXVXVXVXVXVXVXVXVXVX",
"VXVXVXVXVXVXVXVXVXVXVXVXVXVX( VXVXVXm m B q.v.M.].'.`.m.z.:.0.C.A.6.#.%.@.A c j h n J K VXVXVXVXVXVXVXVXVXVXVXVXVXVXVXVX",
"VXVXVXVXVXVXVXVXVXVXVXVXVXVXVXVXVXVXR E #.`.}.'.'.XX0.s.=.A H +.#.a.s.:.+.A c j g X X VXVXVXVXVXVXVXVXVXVXVXVXVXVXVXVXVX",
"VXVXVXVXVXVXVXVXVXVXVXVXVXVXVXVXg k E a.0.`.{.M.z.d.@.b v z D a.s.=.%.%.+.A c c h h g k k VXVXVXVXVXVXVXVXVXVXVXVXVXVXVX",
"VXVXVXVXVXVXVXVXVXVXVXVXVXVXVXVXk c =.C.b.|. X_.b.c.B x z c v ,.1.*.A A A A V c N V v <.<.R VXVXVXVXVXVXVXVXVXVXVXVXVXVX",
"VXVXVXVXVXVXVXVXVXVXVXVXVXVXVXVXk f 6.@X[.'. X'.].XX#.A D v v D A $.%.+.A +.$.&.%.%.&.f.f.&.j g VXVXVXVXVXVXVXVXVXVXVXVX",
"VXVXVXVXVXVXVXVXVXVXVXVXVXVXVXVXk z &.d.k.`.{.'.{.XX#.A ,.a.,.z z ,.f.;.+.B A D =.s.2.-.%.Z l g VXVXVXVXVXVXVXVXVXVXVXVX",
"VXVXVXVXVXVXVXVXVXVXVXVXVXVXVXVXg f =.A.S.v.b.n.v.C.:.;.=.%.S z x &.1.2.1.2.;.=.,.=.=.@.$.C R J J L ( VXVXVXVXVXVXVXVXVX",
"VXVXVXVXVXVXVXVXVXVXVXVXVXVXVXVXVXf 7..XZ.z.k.k.k.z.V.V.%.f c c z Z B =.f.N.N.N.1.D G >.>.>.] ..] ` ' !  .VXVXVXVXVXVXVX",
"VXVXVXVXVXVXVXVXVXVXVXVXVXVXVXVXVXVXVXM #.Z.+XOX[.[.+X@X7.f h j f j f &.f.N.N.B.;.%.$.R.R.U.R.R.R.R.u.U Y VXVXVXVXVXVXVX",
"VXVXVXVXVXVXVXVXVXVXVXVXVXVXVXVXVXVXVXVXVX/ 6.6.w.8.w.7.5.VXVXVXVXVXVXm E &.&.;.1.2.g.y.u.%X6X8X6X8XF.U Y VXVXVXVXVXVXVX",
"VXVXVXVXVXVXVXVXVXVXVXVXVXVXVXVXVXVXVXVXVXm m S ,.>.G F VXVXVXVXVXVXVXVXh f v D &.2.p.R T H.1X3XwXuXH.VXVXVXVXVXVXVXVXVX",
"VXVXVXVXVXVXVXVXVXVXVXVXVXVXVXVXVXVXVXVXVX' Q i.W.Y.^ W VXVXVXVXVXVXVXVXVXVXVXh j k h - . J ^ u.rXyXVXVXVXVXVXVXVXVXVXVX",
"VXVXVXVXVXVXVXVXVXVXVXVXVXVXVXVXVXY Y I ) L P i.%XQ.' U VXVXVXVXVXVXVXVXVXVXVXVXVXVX: . . , Q u.qXdXVXVXVXVXVXVXVXVXVXVX",
"VXVXVXVXVXVXVXVXVXVXVXVXVXVXVXVX[ u.G.P.P.H.J.T.2X%X] ! VXVXVXVXVXVXVXVXVXVXVXVXVXVXVX; ; ' H.Q.3X7XVXVXVXVXVXVXVXVXVXVX",
"VXVXVXVXVXVXVXVXVXVXVXVXVXVX) ( L.E.7XMXbXaXaXdXdX7X] ( VXVXVXVXVXVXVXVXVXVXVXVXVXVXVX) ( *XgXpXE.*XVXVXVXVXVXVXVXVXVXVX",
"VXVXVXVXVXVXVXVXVXVXVXVXVXVXVXVXVXVXVXVXVXVXVXVXVXVXVXVXVXVXVXVXVXVXVXVXVXVXVXVXVXVXVXVXVXVXVXVXVXVXVXVXVXVXVXVXVXVXVXVX"
};
