/* XPM */
static char *result[] = {
/* columns rows colors chars-per-pixel */
"60 60 233 2 ",
"   c #010103",
".  c #050609",
"X  c #07090A",
"o  c #0A0B0D",
"O  c #0C0504",
"+  c #160B0B",
"@  c #0D0E12",
"#  c #070B14",
"$  c #0F1114",
"%  c #0D121B",
"&  c #111216",
"*  c #14151A",
"=  c #16181D",
"-  c #191A1D",
";  c #1B1618",
":  c #100F10",
">  c #34150D",
",  c #251B17",
"<  c #32110D",
"1  c #29221C",
"2  c #39241B",
"3  c #1D1E22",
"4  c #191F29",
"5  c #211F22",
"6  c #1E2125",
"7  c #1E2A2D",
"8  c #212226",
"9  c #2D2423",
"0  c #24252A",
"q  c #26292C",
"w  c #292A2E",
"e  c #2B2828",
"r  c #362722",
"t  c #2B2D31",
"y  c #242B32",
"u  c #372E30",
"i  c #2E3235",
"p  c #313236",
"a  c #34363A",
"s  c #36393D",
"d  c #393A3E",
"f  c #363636",
"g  c #32302D",
"h  c #47150C",
"j  c #5C1D0E",
"k  c #5A160C",
"l  c #491916",
"z  c #531B15",
"x  c #5C1C12",
"c  c #5E1611",
"v  c #661A08",
"b  c #681B16",
"n  c #5A2617",
"m  c #4E3216",
"M  c #6A250A",
"N  c #7B2C0B",
"B  c #792B09",
"V  c #662517",
"C  c #7C2D13",
"Z  c #752916",
"A  c #6A3217",
"S  c #74331C",
"D  c #462C27",
"F  c #572D28",
"G  c #4B332A",
"H  c #443227",
"J  c #5B3B2D",
"K  c #543628",
"L  c #4B3533",
"P  c #5C3D32",
"I  c #593D34",
"U  c #652D25",
"Y  c #643B2A",
"T  c #6A372A",
"R  c #763525",
"E  c #633D33",
"W  c #633D3A",
"Q  c #683C31",
"!  c #723C33",
"~  c #544519",
"^  c #5C4137",
"/  c #5E412E",
"(  c #63442F",
")  c #77412C",
"_  c #634136",
"`  c #694335",
"'  c #794835",
"]  c #7D523B",
"[  c #7B4911",
"{  c #373940",
"}  c #4E4248",
"|  c #7A5543",
" . c #6D4E41",
".. c #796452",
"X. c #7F6448",
"o. c #776866",
"O. c #88290C",
"+. c #843408",
"@. c #832C13",
"#. c #8B2D12",
"$. c #872916",
"%. c #8A321A",
"&. c #9C341B",
"*. c #943616",
"=. c #95300E",
"-. c #A83C1C",
";. c #933421",
":. c #973823",
">. c #853824",
",. c #A53A22",
"<. c #AA3C24",
"1. c #A53724",
"2. c #B33D23",
"3. c #9E420F",
"4. c #8D4719",
"5. c #964713",
"6. c #97501B",
"7. c #8E5217",
"8. c #A34C0E",
"9. c #A54A18",
"0. c #B64717",
"q. c #A85516",
"w. c #B75A13",
"e. c #BC671A",
"r. c #A5631B",
"t. c #884827",
"y. c #964429",
"u. c #894A33",
"i. c #87563D",
"p. c #A94A24",
"a. c #BB4324",
"s. c #B3432B",
"d. c #B9462A",
"f. c #BB5329",
"g. c #B84631",
"h. c #A8572F",
"j. c #B96C24",
"k. c #B07224",
"l. c #C34B1B",
"z. c #C8571B",
"x. c #D35F19",
"c. c #CA6718",
"v. c #D7691A",
"b. c #CA7319",
"n. c #DD781A",
"m. c #E37A17",
"M. c #C3432B",
"N. c #C8422B",
"B. c #CE5823",
"V. c #CA502C",
"C. c #C86A26",
"Z. c #D36724",
"A. c #D97424",
"S. c #CA7235",
"D. c #E57120",
"F. c #8B5B42",
"G. c #865A46",
"H. c #935A46",
"J. c #A35F40",
"K. c #936343",
"L. c #93644C",
"P. c #9B634A",
"I. c #9A684B",
"U. c #976856",
"Y. c #9D7859",
"T. c #8E644E",
"R. c #A76848",
"E. c #A5734D",
"W. c #B8764C",
"Q. c #A46E53",
"!. c #AA7459",
"~. c #BD7C54",
"^. c #B77A59",
"/. c #AA7B65",
"(. c #B37B63",
"). c #C15E40",
"_. c #CC6E4A",
"`. c #F89A0C",
"'. c #E98C17",
"]. c #F59B13",
"[. c #FB9B12",
"{. c #F4981D",
"}. c #ED9315",
"|. c #FBA311",
" X c #DB9625",
".X c #DA903E",
"XX c #EB8B28",
"oX c #F39D23",
"OX c #F79B28",
"+X c #E99237",
"@X c #EB8F2E",
"#X c #F8A124",
"$X c #BC8157",
"%X c #BA845C",
"&X c #B88665",
"*X c #B78C79",
"=X c #AF8864",
"-X c #C7875D",
";X c #D38A58",
":X c #C68C67",
">X c #CA976B",
",X c #D8976B",
"<X c #C79B7D",
"1X c #D39971",
"2X c #DCA479",
"3X c #CBA37D",
"4X c #E4AA7B",
"5X c #E5A878",
"6X c #F3B077",
"7X c #7D7A80",
"8X c #A38B89",
"9X c #A09FA2",
"0X c #AAA6A1",
"qX c #C99E86",
"wX c #DBA986",
"eX c #D1B08F",
"rX c #E9AB87",
"tX c #E8B588",
"yX c #F2B98E",
"uX c #EDBB93",
"iX c #EFBE98",
"pX c #F0BB93",
"aX c #EBBDA4",
"sX c #EDC397",
"dX c #F8C699",
"fX c #F8CCA4",
"gX c #FCD2AD",
"hX c #FCD5AA",
"jX c #FAD5B3",
"kX c #E7C6AD",
"lX c #F5D8C4",
"zX c #FAF2F0",
"xX c None",
/* pixels */
"xXxXxXxXxXxXxXxXxXxXxXxXxXxXxXxXxXxXxXxXxXxXxXxXxXxXxXxXxXxXxXxXxXxXxXxXxXxXxXxXxXxXxXxXxXxXxXxXxXxXxXxXxXxXxXxXxXxXxXxX",
"xXxXxXxXxXxXxXxXxXxXxXxXxXxXxXxXxXxXxXxXxXxXxXxXxXxXxXxXxXxXxXxXxXxXxXxXxXxXxXxXxXxXxXxXxXxXxXxXxXxXxXxXxXxXxXxXxXxXxXxX",
"xXxXxXxXxXxXxXxXxXxXxXxXxXxXxXxXxXxXxXxXxX& & & & xXxXxXxXxXxXxXxXxXxXxXxXxXxXxXxXxXxXxXxXxXxXxXxXxXxXxXxXxXxXxXxXxXxXxX",
"xXxXxXxXxXxXxXxXxXxXxXxXxXxXxXxXxXxXxXxXxXo & & 8 t t w t t t t 3 xXxXxXxXxXxXxXxXxXxXxXxXxXxXxXxXxXxXxXxXxXxXxXxXxXxXxX",
"xXxXxXxXxXxXxXxXxXxXxXxXxXxXxXxXxXxXxXxXxXxXo o 0 t p a a p p a 0 8 ; xXxXxXxXxXxXxXxXxXxXxXxXxXxXxXxXxXxXxXxXxXxXxXxXxX",
"xXxXxXxXxXxXxXxXxXxXxXxXxXxXxXxXxXxXxXxXX X     o & 4 0 0 7 0 0 p d 8 * $ xX& * & & xXxXxXxXxXxXxXxXxXxXxXxXxXxXxXxXxXxX",
"xXxXxXxXxXxXxXxXxXxXxXxXxX& & & & & & & $ $ .   . * * * * * 4 w 0 t t s 8 @ * @ & xXxXxXxXxXxXxXxXxXxXxXxXxXxXxXxXxXxXxX",
"xXxXxXxXxXxXxXxXxXxXxX$ - 6 0 t w w w w 8 6 & o & & & & 4 t 3 3 8 0 f { 8 @ * @ xXxXxXxXxXxXxXxXxXxXxXxXxXxXxXxXxXxXxXxX",
"xXxXxXxXxXxXxXxXxXxX* - 0 i i a s { a p i t 3 = * % - = w a q 6 5 3 t a w 5 5 8 xXxXxXxXxXxXxXxXxXxXxXxXxXxXxXxXxXxXxXxX",
"xXxXxXxXxXxXxXxXxX& 3 0 i s w q i a i w i a i w 3 & 4 8 0 q p s 0 * 8 8 u { a a 0 - xXxXxXxXxXxXxXxXxXxXxXxXxXxXxXxXxXxX",
"xXxXxXxXxXxXxXxXxXxXxXxXxXw 0 0 q w p a 0 * t a t 8 3 & 6 0 p { { a 8 * 3 * 8 w p p 8 xXxXxXxXxXxXxXxXxXxXxXxXxXxXxXxXxX",
"xXxXxXxXxXxXxXxXxXxXxXxXxXxX* - 3 = w t q 3 3 8 t a 3 % 6 w p d { { 8 @ @ % 4 w a d 8 & xXxXxXxXxXxXxXxXxXxXxXxXxXxXxXxX",
"xXxXxXxXxXxXxXxXxXxXxXxXxXxXxX@ $ $ = 6 0 0 - @ 8 t 8 - 6 6 w p a p 6 @ & & 3 4 q t - & @ @ xXxXxXxXxXxXxXxXxXxXxXxXxXxX",
"xXxXxXxXxXxXxXxXxXxXxXxXxXxXxX. $ $ * * 8 e 8 - * & 3 0 3 = 8 q 0 8 3 * * * & & * * * - - = * * * * @ xXxXxXxXxXxXxXxXxX",
"xXxXxXxXxXxXxXxXxXxXxXxXxXxX@ $ & & 6 0 p s s s 8 & * * w s s s 0 * 6 0 3 @ @ & 3 8 p a a d t 8 0 0 = $ & & : xXxXxXxXxX",
"xXxXxXxXxXxXxXxXxXxXxXxXxX@ & & 3 8 t p a d d { f t 5 & w d d s p t 8 * * & 3 8 t f p t t t 3 = = = $ X X # o xXxXxXxXxX",
"xXxXxXxXxXxXxXxXxXxXxXxXxXo & 3 3 - w a s s a p t w - & 0 p s d d d t 0 - & 0 t p p 0 3 6 q 7 8 6 7 * X X X o xXxXxXxXxX",
"xXxXxXxXxXxXxXxXxXxXxXxXxXxX; 0 = & 4 t g f g w e 1 , & 6 0 i f f s s s 8 & w p t 8 - * 6 w i a a a 6 : : & : xXxXxXxXxX",
"xXxXxXxXxXxXxXxXxXxXxXxXxXxXxXxXxX. t { g 9 G Y H.!.G + 6 7 4 * t d s s 8 & ; ; * * 3 q p { t q - * = & : xXxXxXxXxXxXxX",
"xXxXxXxXxXxXxXxXxXxXxXxXxXxXxXxXxXo = 8 u L G.R._.%X^ = - ; & @ w d t q H G G H , : w p p t 3 - * xXxXxXxXxXxXxXxXxXxXxX",
"xXxXxXxXxXxXxXxXxXxXxXxXxXxXxXxXxXxXxXxX .F.%X2XQ.| o.7X} 2 K P L w  .X.F.H.I.U._ 2 r w 3 4 3 xXxXxXxXxXxXxXxXxXxXxXxXxX",
"xXxXxXxXxXxXxXxXxXxXxXxXxXxXxXxXxXxXxXxX=X%XtXgX..- 9XzX8X] R.^.| K =XtX:X~.,XtXI./ 1 : $ & xXxXxXxXxXxXxXxXxXxXxXxXxXxX",
"xXxXxXxXxXxXxXxXxXxXxXxXxXxXxXxXxXxX/.(.1X5XyXgX.., 0XzXkX4X;X^.1X4X4X4X:XW.1XrXL./ 1 % # xXxXxXxXxXxXxXxXxXxXxXxXxXxXxX",
"xXxXxXxXxXxXxXxXxXxXxXxXxXxXxXxXxXxXxXxX&X:X5XtXeXqXkXlXgXdXsXuX6X6X,X-XK.] G.G.K , , & % xXxXxXxXxXxXxXxXxXxXxXxXxXxXxX",
"xXxXxXxXxXxXxXxXxXxXxXxXxXxXxXxXxXxXxXxXxX^.:X>XuXhXjXgXgXhXdXdX:XE.P.H.J 2 r r 1 : & xXxXxXxXxXxXxXxXxXxXxXxXxXxXxXxXxX",
"xXxXxXxXxXxXxXxXxXxXxXxXxXxXxXxXxXxXxXxXxXxX/.(.wXsXuXuXpXyX6X,XE.i.' T l , + : @ xXxXxXxXxXxXxXxXxXxXxXxXxXxXxXxXxXxXxX",
"xXxXxXxXxXxXxXxXxXxXxXxXxXxXxXxXxXxXxXxXxXxXxXxXxX(.~.$X~.~.~.$X1XrXJ.Z x l > + xXxXxXxXxXxXxXxXxXxXxXxXxXxXxXxXxXxXxXxX",
"xXxXxXxXxXxXxXxXxXxXxXxXxXxXxXxXxXxXxXxXxXxXxXxXxXxX/.~.,X5XtXsXdXdXR.N B B j l xXxXxXxXxXxXxXxXxXxXxXxXxXxXxXxXxXxXxXxX",
"xXxXxXxXxXxXxXxXxXxXxXxXxXxXxXxXxXxXxXxXxXxXxXxXxXJ *XwXyXaXfXhX5X;XS.e.e.e.+.z xXxXxXxXxXxXxXxXxXxXxXxXxXxXxXxXxXxXxXxX",
"xXxXxXxXxXxXxXxXxXxXxXxXxXxXxXxXxXxXxXxXxXxXxXxXxXY &XwXrXrXrXrX).-.Z.XX}.OX6.z xXxXxXxXxXxXxXxXxXxXxXxXxXxXxXxXxXxXxXxX",
"xXxXxXxXxXxXxXxXxXxXxXxXxXxXxXxXxXxXxXxXxXxXxXxXT S #.#.p.f.V.g.1.$.<.w.n.+X5.k xXxXxXxXxXxXxXxXxXxXxXxXxXxXxXxXxXxXxXxX",
"xXxXxXxXxXxXxXxXxXxXxXxXxXxXxXxXxXxXxXxXxXxXT C :.2.2.2.Z.XXw.=.<.<.&.+.=.5.M n xXxXxXxXxXxXxXxXxXxXxXxXxXxXxXxXxXxXxXxX",
"xXxXxXxXxXxXxXxXxXxXxXxXxXxXxXxXxXxXxXxXxXxXS B w.n.n.n.v.v.8.B @.$.R.:X_.W.] F xXxXxXxXxXxXxXxXxXxXxXxXxXxXxXxXxXxXxXxX",
"xXxXxXxXxXxXxXxXxXxXxXxXxXxXxXxXxXxXxXxXxXxXS N b.|.`.[.m.B.*.+.Z n &XkXrX1XL.E xXxXxXxXxXxXxXxXxXxXxXxXxXxXxXxXxXxXxXxX",
"xXxXxXxXxXxXxXxXxXxXxXxXxXxXxXxXxXxXxXxXxXxXR C j. X X X X.X6.B T ! P.-X~.^.G.W xXxXxXxXxXxXxXxXxXxXxXxXxXxXxXxXxXxXxXxX",
"xXxXxXxXxXxXxXxXxXxXxXxXxXxXxXxXxXxXxXxXxXxXY Q Y ~ ~ ~ m m < + m Y ^.2X-XW.F.W xXxXxXxXxXxXxXxXxXxXxXxXxXxXxXxXxXxXxXxX",
"xXxXxXxXxXxXxXxXxXxXxXxXxXxXxXxXxXxXxXxXxXE i.U.) A 6.k.t.R n l ) K.3XfX1X^.T.xXxXxXxXxXxXxXxXxXxXxXxXxXxXxXxXxXxXxXxXxX",
"xXxXxXxXxXxXxXxXxXxXxXxXxXxXxXxXxXxXxXxXE E P.^.t.B b.OXv.d.:.Z ^.1XtXfX:XL.U.xXxXxXxXxXxXxXxXxXxXxXxXxXxXxXxXxXxXxXxXxX",
"xXxXxXxXxXxXxXxXxXxXxXxXxXxXxXxXxXxXxXxX` ) P.^.y.+.b.].v.p.u.' <XfX4X3XL.E xXxXxXxXxXxXxXxXxXxXxXxXxXxXxXxXxXxXxXxXxXxX",
"xXxXxXxXxXxXxXxXxXxXxXxXxXxXxXxXxXxXxX^ T.!.u.>.9.0.m.oXr.T <XaX>X:XF.' K xXxXxXxXxXxXxXxXxXxXxXxXxXxXxXxXxXxXxXxXxXxXxX",
"xXxXxXxXxXxXxXxXxXxXxXxXxXxXxXxXxXxX` Q ] i.>.C <.0.B.C.t.Y qXjXsXtXU.P L xXxXxXxXxXxXxXxXxXxXxXxXxXxXxXxXxXxXxXxXxXxXxX",
"xXxXxXxXxXxXxXxXxXxXxXxXxXxXxXxXxXxXxXW J U Z @.-.M.B.v.p.t.^.<X<XqXG.F K xXxXxXxXxXxXxXxXxXxXxXxXxXxXxXxXxXxXxXxXxXxXxX",
"xXxXxXxXxXxXxXxXxXxXxXxXxXxXxXxXxXxXxXxXb b @.#.-.0.n.OXv.f.y.R ) ' V k U W I xXxXxXxXxXxXxXxXxXxXxXxXxXxXxXxXxXxXxXxXxX",
"xXxXxXxXxXxXxXxXxXxXxXxXxXxXxXxXxXxXl k %.s.2.d.$.v c.{.`.XXc.9.A.+X5.k j x z xXxXxXxXxXxXxXxXxXxXxXxXxXxXxXxXxXxXxXxXxX",
"xXxXxXxXxXxXxXxXxXxXxXxXxXxXxXxXxXz V Z <.N.N.2.$.v e.oX`.`.'.'.v.c.*.M M Z j l xXxXxXxXxXxXxXxXxXxXxXxXxXxXxXxXxXxXxXxX",
"xXxXxXxXxXxXxXxXxXxXxXxXxXxXxXh Z $.$.$.<.g.2.-.@.v 6.b.'.].].].n.c.w.q.*.O.4.4.A > xXxXxXxXxXxXxXxXxXxXxXxXxXxXxXxXxXxX",
"xXxXxXxXxXxXxXxXxXxXxXxXxXxXl c :.g.&.O.1.g.-.$.#.#.C B e.'.}.|.`.|.|.oXq.+.C.+Xq.B > xXxXxXxXxXxXxXxXxXxXxXxXxXxXxXxXxX",
"xXxXxXxXxXxXxXxXxXxXxXxXxXxXxXc :.g.&.@.@.@.1.g.d.s.C j M M j.oX].`.`.oX8.O.-.f.n.XX[ > xXxXxXxXxXxXxXxXxXxXxXxXxXxXxXxX",
"xXxXxXxXxXxXxXxXxXxXxXxXxXxXxXxXR ;.1.<.<.<.1.&.*.*.V c h < S q.z.Z.c.x.0.-.2.l.m.{.5.l xXxXxXxXxXxXxXxXxXxXxXxXxXxXxXxX",
"xXxXxXxXxXxXxXxXxXxXxXxXxXxXxXxXn V 1.N.N.N.&.N C C b b l xXxXV &.:.s.M.N.M.x.v.}.{.8.j xXxXxXxXxXxXxXxXxXxXxXxXxXxXxXxX",
"xXxXxXxXxXxXxXxXxXxXxXxXxXxXxXxX2 h >.<.s.2.%.Z C Z V z xXxXxXxXZ +.0.z.z.B.D.'.}.XXq.T xXxXxXxXxXxXxXxXxXxXxXxXxXxXxXxX",
"xXxXxXxXxXxXxXxXxXxXxXxXxX^ _ _ 2 O F ! U v b k x z xXxXxXxXxXxXA N C.@X'.{.v.l.l.M.y.Q xXxXxXxXxXxXxXxXxXxXxXxXxXxXxXxX",
"xXxXxXxXxXxXxXxXxXxXxXxXxX^ G.Q.' F J Y i.R.>.Q F xXxXxXxXxXxXxXxXxX4.6.8.8.s.M.M.a.h.U.] P xXxXxXxXxXxXxXxXxXxXxXxXxXxX",
"xXxXxXxXxXxXxXxXxXxXxXxXxXI | L.I.!.K.i.R.^.G.W ^ xXxXxXxXxXxXxXxXxXxXn v h R y._._.,XwXK.J xXxXxXxXxXxXxXxXxXxXxXxXxXxX",
"xXxXxXxXxXxXxXxXxXxXxXxXxXxXxXP !.1X-X-X:X_.F.J ^ xXxXxXxXxXxXxXxXxXxXxXO + D Y &XuXdXjXY.K xXxXxXxXxXxXxXxXxXxXxXxXxXxX",
"xXxXxXxXxXxXxXxXxXxXxXxXxXxXxXxX^ ` &XrX5X5XL.J xXxXxXxXxXxXxXxXxXxXxXxXG E E ( <XjXhXjXxXxXxXxXxXxXxXxXxXxXxXxXxXxXxXxX",
"xXxXxXxXxXxXxXxXxXxXxXxXxXxXxXxXxXr H G H H 2 xXxXxXxXxXxXxXxXxXxXxXxXP G.Q.&X>XuXjXjXxXxXxXxXxXxXxXxXxXxXxXxXxXxXxXxXxX",
"xXxXxXxXxXxXxXxXxXxXxXxXxXxXxXxXxXxXxXxX    xXxXxXxXxXxXxXxXxXxXxXxXxXxXxXxXxXuXkXlXxXxXxXxXxXxXxXxXxXxXxXxXxXxXxXxXxXxX",
"xXxXxXxXxXxXxXxXxXxXxXxXxXxXxXxXxXxXxXxXxXxXxXxXxXxXxXxXxXxXxXxXxXxXxXxXxXxXxXxXxXxXxXxXxXxXxXxXxXxXxXxXxXxXxXxXxXxXxXxX",
"xXxXxXxXxXxXxXxXxXxXxXxXxXxXxXxXxXxXxXxXxXxXxXxXxXxXxXxXxXxXxXxXxXxXxXxXxXxXxXxXxXxXxXxXxXxXxXxXxXxXxXxXxXxXxXxXxXxXxXxX"
};
