/* XPM */
static char *result[] = {
/* columns rows colors chars-per-pixel */
"60 60 239 2 ",
"   c #030305",
".  c #0A0A0D",
"X  c #06080B",
"o  c #150809",
"O  c #17120C",
"+  c #0D0E11",
"@  c #0F0E1B",
"#  c #130E14",
"$  c #160E1A",
"%  c #0E1115",
"&  c #0E1519",
"*  c #111215",
"=  c #131519",
"-  c #16191C",
";  c #191A1E",
":  c #1B1617",
">  c #0C130E",
",  c #240D08",
"<  c #28140D",
"1  c #36180D",
"2  c #261A18",
"3  c #381715",
"4  c #2F0F0F",
"5  c #2B221D",
"6  c #39261C",
"7  c #1C1D22",
"8  c #181723",
"9  c #211F24",
"0  c #311821",
"q  c #1E2125",
"w  c #1C212B",
"e  c #222326",
"r  c #24252A",
"t  c #26292C",
"y  c #2A2A2E",
"u  c #2B2325",
"i  c #392A27",
"p  c #2E302E",
"a  c #272B30",
"s  c #2C2E32",
"d  c #222733",
"f  c #2D3134",
"g  c #2E3439",
"h  c #313236",
"j  c #34353A",
"k  c #36393C",
"l  c #393A3D",
"z  c #39383A",
"x  c #47150D",
"c  c #5A1608",
"v  c #481A13",
"b  c #541B15",
"n  c #581A16",
"m  c #671908",
"M  c #621612",
"N  c #661713",
"B  c #75190B",
"V  c #46271A",
"C  c #5A251A",
"Z  c #553616",
"A  c #78260A",
"S  c #682717",
"D  c #7B2313",
"F  c #762915",
"G  c #6A361D",
"H  c #79351A",
"J  c #6D2B0A",
"K  c #441B22",
"L  c #452F26",
"P  c #4A362A",
"I  c #55332C",
"U  c #5D3C2C",
"Y  c #443334",
"T  c #5C3D31",
"R  c #5A3C38",
"E  c #5B2E2A",
"W  c #6A2D26",
"Q  c #623D2C",
"!  c #693628",
"~  c #763823",
"^  c #633E35",
"/  c #683B36",
"(  c #5A4718",
")  c #6E461E",
"_  c #594339",
"`  c #59402F",
"'  c #6C412E",
"]  c #694528",
"[  c #77452B",
"{  c #6D4433",
"}  c #644438",
"|  c #764936",
" . c #7D553E",
".. c #383742",
"X. c #7A5846",
"o. c #664C48",
"O. c #716158",
"+. c #5C5858",
"@. c #8A2D0C",
"#. c #89390C",
"$. c #98380A",
"%. c #8D2C1A",
"&. c #862916",
"*. c #942C17",
"=. c #883714",
"-. c #983817",
";. c #A53A1B",
":. c #A32F1E",
">. c #8E3525",
",. c #9B3522",
"<. c #8D2E22",
"1. c #A43A29",
"2. c #BA3F28",
"3. c #A63B30",
"4. c #954415",
"5. c #AD4C15",
"6. c #BA4719",
"7. c #A95916",
"8. c #B65516",
"9. c #BE500A",
"0. c #BB661A",
"q. c #A7631F",
"w. c #914526",
"e. c #844837",
"r. c #89573A",
"t. c #985B3E",
"y. c #8A452A",
"u. c #AB432B",
"i. c #BC432B",
"p. c #B8452A",
"a. c #B84633",
"s. c #A95332",
"d. c #B65537",
"f. c #AB4930",
"g. c #BA6822",
"h. c #AF6B26",
"j. c #86662B",
"k. c #C34A1C",
"l. c #C74A16",
"z. c #C75715",
"x. c #D25C1A",
"c. c #C7540F",
"v. c #CF651B",
"b. c #D7691A",
"n. c #CC741C",
"m. c #D8751B",
"M. c #DC720C",
"N. c #E47C18",
"B. c #C24327",
"V. c #C95821",
"C. c #C85532",
"Z. c #D67528",
"A. c #D06925",
"S. c #E67B23",
"D. c #895B44",
"F. c #965B46",
"G. c #A35C40",
"H. c #886248",
"J. c #976549",
"K. c #896853",
"L. c #986B53",
"P. c #9C7057",
"I. c #9D704E",
"U. c #A86745",
"Y. c #AB734B",
"T. c #B6794D",
"R. c #A76C54",
"E. c #A87457",
"W. c #BC7C5B",
"Q. c #B87956",
"!. c #B7674A",
"~. c #957A67",
"^. c #A57A63",
"/. c #B27E61",
"(. c #CD7B4E",
"). c #C87C60",
"_. c #DD8212",
"`. c #F79C0C",
"'. c #F89C0C",
"]. c #E4981D",
"[. c #F89A18",
"{. c #EA8514",
"}. c #DB8C2D",
"|. c #E68525",
" X c #E99527",
".X c #F69A26",
"XX c #EE8B2E",
"oX c #FEA225",
"OX c #F7A435",
"+X c #F9A40E",
"@X c #B98157",
"#X c #A5835C",
"$X c #A68366",
"%X c #BA8667",
"&X c #B98C76",
"*X c #BB9578",
"=X c #C48857",
"-X c #CB8B66",
";X c #C68966",
":X c #DD8C6A",
">X c #CD946C",
",X c #C8966B",
"<X c #D59568",
"1X c #C99974",
"2X c #D79A74",
"3X c #C88D71",
"4X c #E28669",
"5X c #DCA37B",
"6X c #DFA36E",
"7X c #E5AA7B",
"8X c #E5A475",
"9X c #E7AB74",
"0X c #A09FA4",
"qX c #A7A6A9",
"wX c #CE9E83",
"eX c #D4A889",
"rX c #CEAA94",
"tX c #D2B08E",
"yX c #E3A883",
"uX c #E9B588",
"iX c #F2B685",
"pX c #E8BD93",
"aX c #F3BD96",
"sX c #E8AB92",
"dX c #F8C79A",
"fX c #FDD29D",
"gX c #D8C1B1",
"hX c #FCCCA2",
"jX c #F8CAA8",
"kX c #FED1A4",
"lX c #FED5AB",
"zX c #F8CDB2",
"xX c #FCDBBC",
"cX c #FDD8B3",
"vX c #EBC4A4",
"bX c #EDD7C6",
"nX c #FFE7D4",
"mX c #F7F8FE",
"MX c None",
/* pixels */
"MXMXMXMXMXMXMXMXMXMXMXMXMXMXMXMXMXX MXMXMXMXMXMXMXMXMXMXMXMXMXMXMXMXMXMXMXMXMXMXMXMXMXMXMXMXMXMXMXMXMXMXMXMXMXMXMXMXMXMX",
"MXMXMXMXMXMXMXMXMXMXMXMXMXMXMXMX* % * * * * % % * * * * * * MXMXMXMXMXMXMXMXMXMXMXMXMXMXMXMXMXMXMXMXMXMXMXMXMXMXMXMXMXMX",
"MXMXMXMXMXMXMXMXMXMXMXMXMXMXMXMXMX. * * 7 s a a a d a a a a * * % MXMXMXMXMXMXMXMXMXMXMXMXMXMXMXMXMXMXMXMXMXMXMXMXMXMXMX",
"MXMXMXMXMXMXMXMXMXMXMXMXMXMXMXMXMXMXMX. e g g j k k j j j j e 7 ; * * MXMXMXMXMXMXMXMXMXMXMXMXMXMXMXMXMXMXMXMXMXMXMXMXMX",
"MXMXMXMXMXMXMXMXMXMXMXMXMXMXMXMXMXMXMXMX* * - r t t r t t y j l r * * * * MXMXMXMXMX* = * * MXMXMXMXMXMXMXMXMXMXMXMXMXMX",
"MXMXMXMXMXMXMXMX* * * * * * * * * * * . X X X * - q t w t t a a f h y = * + MXMXMX+ . X . MXMXMXMXMXMXMXMXMXMXMXMXMXMXMX",
"MXMXMXMXMXMX; ; 7 e e e e e r e e e ; ; * X X & & - q q 7 q r r s h h r e = . MX* % MXMXMXMXMXMXMXMXMXMXMXMXMXMXMXMXMXMX",
"MXMXMXMX; - e y s l l l l l l l l k s y e = = * & & - = = ; q r r r y ..j q = = = = X MXMXMXMXMXMXMXMXMXMXMXMXMXMXMXMXMX",
"MXMX* ; h z j z z l l l ..l l ..l l l l g e e * = p j j k h - = 7 r s l l y w e r w * * X MXMXMXMXMXMXMXMXMXMXMXMXMXMXMX",
"MXMXMXMXr e t e r p s f s g f s f s ......g f 9 q e e y f f y t r - 7 e e 7 7 q t e 7 7 * + MXMXMXMXMXMXMXMXMXMXMXMXMXMX",
"MXMXMXMXMXMXMXMX; q e q e 7 e e t t h j h f s y r - % - r t l l y ; - * % * & 7 s t y r 7 * . MXMXMXMXMXMXMXMXMXMXMXMXMX",
"MXMXMXMXMXMXMXMXMXMXMX* * * * : t 9 t t 9 = - r r ; * ; r y j l l l f * * * * e l j t r ; * X             MX* MXMXMXMXMX",
"MXMXMXMXMXMXMXMXMXMXMXMXMX% = = $ ; e y 7 @ * - - 7 e 7 = ; r y y f e * * * * 9 s s h j 7 % * + # % % % . % * * MXMXMXMX",
"MXMXMXMXMXMXMXMXMXMXMXMXMXMX= = 8 8 y s t e 7 * * 7 q e e e y s e q q ; 7 * * 7 r t l l y q e q q 7 7 - - - * * MXMXMXMX",
"MXMXMXMXMXMXMXMXMXMXMXMXMX* = ; y y j l l l h 8 - * * q l l l l r = 8 r r - % 7 r y l l l l l l k t w r t q % * MXMXMXMX",
"MXMXMXMXMXMXMXMXMXMXMXMX* ; r y j j ..l l z l k ..7 % q l l l ..j j y - * @ # r l l z z s t t t r 8 & = & & X MXMXMXMXMX",
"MXMXMXMXMXMXMXMXMXMX# ; 9 ; ; e s a ....z y p e e - # ; f f z z Y ..l y r - & 7 r t p p f g a r r 7 7 q 7 - + MXMXMXMXMX",
"MXMXMXMXMXMXMXMXMXMX* e e ; * ; y a g j p y i i i 3 2 5 r y p h ......l k 7 & & % = q q g ..g a y t r t r e ; ; % MXMXMX",
"MXMXMXMXMXMXMXMXMXMXMX* = * * ; z z y 5 L Q { P.E. .U Y y q & > a ..k k z ; > & * * * = w d a z k t e t r r r r = * MXMX",
"MXMXMXMXMXMXMXMXMXMXMXMXMXo O = 7 r Y P e.R.h.)././ 3 5 : - > * - 7 t h z ; > 5 P V 5 e 8 8 q s a 7 ; e MXMXMXMXMXMXMXMX",
"MXMXMXMXMXMXMXMXMXMXMXMXMXMXMXMXMXMXo.X.R.2X3XD.O.O.O.l O < L U ` } _ p t 7 > ` K.H.P i ; * : 9 7 MXMXMXMXMXMXMXMXMXMXMX",
"MXMXMXMXMXMXMXMXMXMXMXMXMXMXMXMXMXMX#X@X7XcXtX6 5 qXmX0X5 1 R.@X<XdX#X2 $ ; < X.pX1X{ _ u = # = MXMXMXMXMXMXMXMXMXMXMXMX",
"MXMXMXMXMXMXMXMXMXMXMXMXMXMXMXMX$X@X<X6XiXcXrX6 : qXmXbX*X3XQ.!.<X7X#X< , X.P.%XiX2X| _ 5 $ # MXMXMXMXMXMXMXMXMXMXMXMXMX",
"MXMXMXMXMXMXMXMXMXMXMXMXMXMXMXMX$XW.,X<X5XhXtX$X$XgXnXxXdXdXyX7X7XuX,X| { D.F.J.E.L.L 6 2 $ @ MXMXMXMXMXMXMXMXMXMXMXMXMX",
"MXMXMXMXMXMXMXMXMXMXMXMXMXMXMXMXMXMX$XE.;X7X7XhXlXlXjXlXkXfXfXfXuX,X,XY.P.} I I I L O > % * MXMXMXMXMXMXMXMXMXMXMXMXMXMX",
"MXMXMXMXMXMXMXMXMXMXMXMXMXMXMXMXMXMXMXMX/.Q.-XdXlXjXkXlXkXdXiXyXY.G ) ] } 3 , : : - = % MXMXMXMXMXMXMXMXMXMXMXMXMXMXMXMX",
"MXMXMXMXMXMXMXMXMXMXMXMXMXMXMXMXMXMXMXMXMXMXMX1X,X1X2X>X>X>X-X-X;X;XY.H W b x x 3 0 # MXMXMXMXMXMXMXMXMXMXMXMXMXMXMXMXMX",
"MXMXMXMXMXMXMXMXMXMXMXMXMXMXMXMXMXMXMXMXMXMXMXMXE.W.T.T.=X=X>X>X7XdX2X>.-.4.4.J n b 4 v MXMXMXMXMXMXMXMXMXMXMXMXMXMXMXMX",
"MXMXMXMXMXMXMXMXMXMXMXMXMXMXMXMXMXMXMXMXMXMXMXMXMXE.).-X9XuXhXhXhXhXyXs.5.|.OX0.N N N n MXMXMXMXMXMXMXMXMXMXMXMXMXMXMXMX",
"MXMXMXMXMXMXMXMXMXMXMXMXMXMXMXMXMXMXMXMXMXMXMXMX' wXvXjXhXkXlXlX<XC.C.*.$.|..Xb.;.1.B n MXMXMXMXMXMXMXMXMXMXMXMXMXMXMXMX",
"MXMXMXMXMXMXMXMXMXMXMXMXMXMXMXMXMXMXMXMXMXMXMX! G P.%X;X:X:X:X4X(.Z.8.A J 7.0.9.k.1.B W MXMXMXMXMXMXMXMXMXMXMXMXMXMXMXMX",
"MXMXMXMXMXMXMXMXMXMXMXMXMXMXMXMXMXMXMXMXMXMXMX%.*.%.@.;.k.z.c.c.m.}.0.H G >.w.s.!.d.H G MXMXMXMXMXMXMXMXMXMXMXMXMXMXMXMX",
"MXMXMXMXMXMXMXMXMXMXMXMXMXMXMXMXMXMXMXMX! F %.u.i.i.6.x.XX[. XXX7.m w.<X5XdXvXdXhXsX~ ^ MXMXMXMXMXMXMXMXMXMXMXMXMXMXMXMX",
"MXMXMXMXMXMXMXMXMXMXMXMXMXMXMXMXMXMXMXMXH &.$.Z._._.N.Z.v.v.b.A.#.c S J.I.pXlXdXaXwX| T MXMXMXMXMXMXMXMXMXMXMXMXMXMXMXMX",
"MXMXMXMXMXMXMXMXMXMXMXMXMXMXMXMXMXMXMXMXW A 4.].+X'.'.{.x.x.l.B.%.N S ! ' *XdX9X8X;X{ ' MXMXMXMXMXMXMXMXMXMXMXMXMXMXMXMX",
"MXMXMXMXMXMXMXMXMXMXMXMXMXMXMXMXMXMXR } ~ F 4.}.].].]. XXXXX8.u.<.F G ! ' I.@X@X).U.[ ` MXMXMXMXMXMXMXMXMXMXMXMXMXMXMXMX",
"MXMXMXMXMXMXMXMXMXMXMXMXMXMXMXMXMXMXT T e.T.J.[ ] ( ( ( ( Z 1 4 4 o 1 Q { ;X5X-XQ.E./ } MXMXMXMXMXMXMXMXMXMXMXMXMXMXMXMX",
"MXMXMXMXMXMXMXMXMXMXMXMXMXMXMXMXMXMXX.r.t.J.r.L V ) j.) V V 1 3 4 , 3 ! | 1XdX5XQ.E.' MXMXMXMXMXMXMXMXMXMXMXMXMXMXMXMXMX",
"MXMXMXMXMXMXMXMXMXMXMXMXMXMXMXMX| | R.W.H.! W n J g.OXn.@.@.%.<.F c C / { tXlX5XE.^.MXMXMXMXMXMXMXMXMXMXMXMXMXMXMXMXMXMX",
"MXMXMXMXMXMXMXMXMXMXMXMXMXMXR  .E.Y.T.W.r.b n M m 0.oX{.6.p.2.p.&.c C ! { eXxX1X/ } MXMXMXMXMXMXMXMXMXMXMXMXMXMXMXMXMXMX",
"MXMXMXMXMXMXMXMXMXMXMXMXMXMX^ { X.r.T.).y.M N <.;.m..XN.k.B.B.p.>.S | wX1X1X1XP.Q _ MXMXMXMXMXMXMXMXMXMXMXMXMXMXMXMXMXMX",
"MXMXMXMXMXMXMXMXMXMXMXMXMXMX_ T / ! F.R.>.M D u.c.N.[.{.x.A.x.V.w.E K.zXzXyX3XL.Q _ MXMXMXMXMXMXMXMXMXMXMXMXMXMXMXMXMXMX",
"MXMXMXMXMXMXMXMXMXMXMXMXMXMXMXMX_ / Q Q W N D 3.6._.[.[.[.[.[..Xq.Z L.vXzXzXzX&X` _ MXMXMXMXMXMXMXMXMXMXMXMXMXMXMXMXMXMX",
"MXMXMXMXMXMXMXMXMXMXMXMXMXMXMXMXMXMXC C ~ 3.,.,.$.m.[.`.`.`.`.[.q.G ~ t.H.D.K.X.MXMXMXMXMXMXMXMXMXMXMXMXMXMXMXMXMXMXMXMX",
"MXMXMXMXMXMXMXMXMXMXMXMXMXMXMXMXMXb n A *.a.1.&.A n.[.`.'.'.'.[.8.A H J S I MXMXMXMXMXMXMXMXMXMXMXMXMXMXMXMXMXMXMXMXMXMX",
"MXMXMXMXMXMXMXMXMXMXMXMXMXMXMXMXn M F @.;.2.1.m m 0. X[.'.'.'.[.7.A F c V K MXMXMXMXMXMXMXMXMXMXMXMXMXMXMXMXMXMXMXMXMXMX",
"MXMXMXMXMXMXMXMXMXMXMXMXMXMXMXMXn M 3.2.1.&.&.N M 5.k.m.[.[.[..X7.A F m b x MXMXMXMXMXMXMXMXMXMXMXMXMXMXMXMXMXMXMXMXMXMX",
"MXMXMXMXMXMXMXMXMXMXMXMXMXMXMXMXn N 3.C.-.@.D M n ,.i.k.b.M.[.[.0.A -.q.q.J x MXMXMXMXMXMXMXMXMXMXMXMXMXMXMXMXMXMXMXMXMX",
"MXMXMXMXMXMXMXMXMXMXMXMXMXMXMXMXb M >.u.-.*.=.A &.*.2.2.p.l.S.XX8.@.5..X XH c Q D. .{ T MXMXMXMXMXMXMXMXMXMXMXMXMXMXMXMX",
"MXMXMXMXMXMXMXMXMXMXMXMXMXMXMXMXMXMXC M &.f.f.2.a.:.*.:.6.6.B.k.i.6.x..X X#.c F.sX<X[ ] MXMXMXMXMXMXMXMXMXMXMXMXMXMXMXMX",
"MXMXMXMXMXMXMXMXMXMXMXMXMXMXMXMXMXMXMXMXn F F D D F &.5.|.S.l.B.k.2.c..X X#.m s.iX8XY.P.MXMXMXMXMXMXMXMXMXMXMXMXMXMXMXMX",
"MXMXMXMXMXMXMXMXMXMXMXMXMXMXMXMXMXMXMXMXMXV v v v C S -.S.N.b.b.v.b.M.N.Z.@.c F.9X9X@XE.MXMXMXMXMXMXMXMXMXMXMXMXMXMXMXMX",
"MXMXMXMXMXMXMXMXMXMXMXMXMXMXMXMXMXMXMXMXMXMXMXMXMXMXv H 5.c.|. X]. XS.6.u.S x r.7X2X=X@XMXMXMXMXMXMXMXMXMXMXMXMXMXMXMXMX",
"MXMXMXMXMXMXMXMXMXMXMXMXMXMXMXMXMXMXMXMXMXMXMXMXMXMXMXMXH =.=.#.#.#.@.B n 1 o E  .r.2XyXJ.T MXMXMXMXMXMXMXMXMXMXMXMXMXMX",
"MXMXMXMXMXMXMXMXMXMXMXMXMXMXMXMXMXMXMXMXMXMXMXMXMXMXMXMXMXC ! G t.-XR.W E 6 MXMXMX{ P.R.| _ MXMXMXMXMXMXMXMXMXMXMXMXMXMX",
"MXMXMXMXMXMXMXMXMXMXMXMXMXMXMXMXMXMXMXMXMXMXMXMXMXMXMXMXMX< R T *XxXrX} / T MXMXMXMXU ` T } MXMXMXMXMXMXMXMXMXMXMXMXMXMX",
"MXMXMXMXMXMXMXMXMXMXMXMXMXMXMXMXMXMXMXMXMXMXMXMXMXMXMXMX^ T ^ Q 1XcXeX{ R MXMXMXMXMXMXMXMXMXMXMXMXMXMXMXMXMXMXMXMXMXMXMX",
"MXMXMXMXMXMXMXMXMXMXMXMXMXMXMXMXMXMXMXMXMXMXMXMXMXMXMX~.rXtXeXeXuXpX,X' ^ MXMXMXMXMXMXMXMXMXMXMXMXMXMXMXMXMXMXMXMXMXMXMX",
"MXMXMXMXMXMXMXMXMXMXMXMXMXMXMXMXMXMXMXMXMXMXMXMXMXMXMX~.bXxXcXbXvXpX&X{ T MXMXMXMXMXMXMXMXMXMXMXMXMXMXMXMXMXMXMXMXMXMXMX",
"MXMXMXMXMXMXMXMXMXMXMXMXMXMXMXMXMXMXMXMXMXMXMXMXMXMXMXMXMXMXMXMXMXMXMXMXMXMXMXMXMXMXMXMXMXMXMXMXMXMXMXMXMXMXMXMXMXMXMXMX"
};
