/* XPM */
static char *result[] = {
/* columns rows colors chars-per-pixel */
"60 60 232 2 ",
"   c #0A0B0D",
".  c #05090B",
"X  c #0B0D10",
"o  c #120E10",
"O  c #0E1216",
"+  c #0E1319",
"@  c #111216",
"#  c #131519",
"$  c #16191C",
"%  c #191A1E",
"&  c #1D1416",
"*  c #1A0D09",
"=  c #3C0F0C",
"-  c #27130C",
";  c #261918",
":  c #3A1C18",
">  c #3A1007",
",  c #3C2619",
"<  c #35281A",
"1  c #1C1D22",
"2  c #171B20",
"3  c #241D22",
"4  c #1E2125",
"5  c #1E242A",
"6  c #212226",
"7  c #24252A",
"8  c #27292D",
"9  c #292A2E",
"0  c #2F2727",
"q  c #3B2927",
"w  c #3E312C",
"e  c #2C2D32",
"r  c #262B32",
"t  c #2D3034",
"y  c #2E3239",
"u  c #323336",
"i  c #33353A",
"p  c #36393D",
"a  c #393A3E",
"s  c #3A373B",
"d  c #312E34",
"f  c #5B190E",
"g  c #5A160A",
"h  c #4C1C15",
"j  c #4A1C1A",
"k  c #5A1612",
"l  c #551A17",
"z  c #5B1A13",
"x  c #531C1A",
"c  c #5B1B19",
"v  c #481A0D",
"b  c #631A0B",
"n  c #68180B",
"m  c #711D0A",
"M  c #671813",
"N  c #751F15",
"B  c #48251C",
"V  c #56281C",
"C  c #6B240B",
"Z  c #7C2A0C",
"A  c #7A290A",
"S  c #612215",
"D  c #6A2315",
"F  c #632A19",
"G  c #7C2C12",
"H  c #7C2C1B",
"J  c #752716",
"K  c #69351A",
"L  c #763219",
"P  c #7C300A",
"I  c #452B24",
"U  c #4A3228",
"Y  c #5B3828",
"T  c #583C35",
"R  c #542B2A",
"E  c #642E23",
"W  c #732E24",
"Q  c #693B2B",
"!  c #673829",
"~  c #763727",
"^  c #643D33",
"/  c #6A3C34",
"(  c #773D33",
")  c #5A4236",
"_  c #59402F",
"`  c #6B422D",
"'  c #644234",
"]  c #6A4936",
"[  c #784935",
"{  c #795438",
"}  c #3A3B40",
"|  c #343A42",
" . c #5A5656",
".. c #795545",
"X. c #6A5049",
"o. c #7E6456",
"O. c #862A0D",
"+. c #883507",
"@. c #842C15",
"#. c #862A19",
"$. c #912B15",
"%. c #8B331D",
"&. c #863615",
"*. c #95341B",
"=. c #9D341B",
"-. c #9B3717",
";. c #92310A",
":. c #A4361A",
">. c #A02E1C",
",. c #883825",
"<. c #9B3925",
"1. c #AB3D23",
"2. c #A73B28",
"3. c #B83D25",
"4. c #C13E1D",
"5. c #95440D",
"6. c #8C4312",
"7. c #81421D",
"8. c #994915",
"9. c #8F4D17",
"0. c #B84918",
"q. c #A5561A",
"w. c #B9591C",
"e. c #A24914",
"r. c #B06218",
"t. c #8C442E",
"y. c #9B4727",
"u. c #985A25",
"i. c #894331",
"p. c #88563C",
"a. c #99553A",
"s. c #914F2A",
"d. c #A84028",
"f. c #BD4425",
"g. c #BD452A",
"h. c #B74626",
"j. c #B94932",
"k. c #AA512F",
"l. c #A86723",
"z. c #A27324",
"x. c #B66D3F",
"c. c #CC5E0E",
"v. c #C7481A",
"b. c #C65918",
"n. c #D15E1F",
"m. c #D46B1A",
"M. c #DA7419",
"N. c #CB6915",
"B. c #E77B18",
"V. c #C4442B",
"C. c #C24626",
"Z. c #C85323",
"A. c #CC4F28",
"S. c #D77723",
"D. c #D4712B",
"F. c #E47B28",
"G. c #865843",
"H. c #945E46",
"J. c #9A5B41",
"K. c #A85C43",
"L. c #8B644B",
"P. c #986648",
"I. c #976A54",
"U. c #9B7253",
"Y. c #886952",
"T. c #A76C4C",
"R. c #BA6442",
"E. c #A9734D",
"W. c #A26C52",
"Q. c #A9785A",
"!. c #BB7B5A",
"~. c #B37858",
"^. c #B6774A",
"/. c #957661",
"(. c #AA7D61",
"). c #B57A60",
"_. c #CA6744",
"`. c #C8784F",
"'. c #C17F67",
"]. c #E98918",
"[. c #F28D18",
"{. c #EC9513",
"}. c #F1941D",
"|. c #F69A15",
" X c #F69E0F",
".X c #F4A00C",
"XX c #EA8626",
"oX c #EB9624",
"OX c #F79728",
"+X c #EA8932",
"@X c #F2902F",
"#X c #F7A123",
"$X c #D78C39",
"%X c #BA835C",
"&X c #BE8561",
"*X c #B6896A",
"=X c #CA865A",
"-X c #D69340",
";X c #C68C64",
":X c #C88B68",
">X c #CD966D",
",X c #C99467",
"<X c #D4986A",
"1X c #C88F72",
"2X c #C59679",
"3X c #D49672",
"4X c #D89B73",
"5X c #DAA478",
"6X c #DDA06F",
"7X c #E5AA7C",
"8X c #E6A77A",
"9X c #EBB17C",
"0X c #F3B27C",
"qX c #B59D8B",
"wX c #DBA785",
"eX c #CDAB96",
"rX c #E6A985",
"tX c #ECB488",
"yX c #F1BC8A",
"uX c #EDBE95",
"iX c #F6C79B",
"pX c #FACCA3",
"aX c #F6CAA9",
"sX c #FCD4AC",
"dX c #FBD3A5",
"fX c #F9D4B3",
"gX c #E9C3A6",
"hX c #DAD6DA",
"jX c #F8E3CB",
"kX c #DCDFE4",
"lX c #F2F0F0",
"zX c None",
/* pixels */
"zXzXzXzXzXzXzXzXzXzXzXzXzXzXzXzXzXzXzXzXzXzXzXzXzXzXzXzXzXzXzXzXzXzXzXzXzXzXzXzXzXzXzXzXzXzXzXzXzXzXzXzXzXzXzXzXzXzXzXzX",
"zXzXzXzXzXzXzXzXzXzXzXzXzXzXzXzXzXzX@ @ o zXzXzXzXzXzXzXzXzXzXzXzXzXzXzXzXzXzXzXzXzXzXzXzXzXzXzXzXzXzXzXzXzXzXzXzXzXzXzX",
"zXzXzXzXzXzXzXzXzXzXzXzXzXzXzXzXzXzX@ @ @   zXzXzXzXzXzXzXzXzXzXzXzXzXzXzXzXzXzXzXzXzXzXzXzXzXzXzXzXzXzXzXzXzXzXzXzXzXzX",
"zXzXzXzXzXzXzXzXzXzXzXzXzXzXzXzXzXzX@ @ $ 2 1 zXzXzXzXzXzXzXzXzXzXzXzXzXzXzXzXzXzXzXzXzXzXzXzXzXzXzXzXzXzXzXzXzXzXzXzXzX",
"zXzXzXzXzXzXzXzXzXzXzXzXzXzXzXzXzXzX@ + 8 a d # @ + # @ @ zXzXzXzXzXzXzXzXzXzXzXzXzXzXzXzXzXzXzXzXzXzXzXzXzXzXzXzXzXzXzX",
"zXzXzXzXzXzXzXzXzXzXzXzXzXzXzXzXzXzX@ @ e } | e y y e e e e # zXzXzXzXzXzXzXzXzXzXzXzXzXzXzXzXzXzXzXzXzXzXzXzXzXzXzXzXzX",
"zXzXzXzXzXzXzXzXzXzXzXzXzXzXzXzXzXzX@ @ 3 9 e i y i y i u u 7 7 $ zXzXzXzXzXzXzXzXzXzXzXzXzXzXzXzXzXzXzXzXzXzXzXzXzXzXzX",
"zXzXzXzXzXzXzXzXzXzXzXzXzXzXzXzXzXzX@ @ + + # 5 6 5 6 7 7 e i i 1 @ @ zXzX@ @ @ zXzXzXzXzXzXzXzXzXzXzXzXzXzXzXzXzXzXzXzX",
"zXzXzXzXzXzXzX@ @ @ @ @ @ @ @ @ @ @ @ X + @ @ @ # # + 4 7 7 9 7 $ @ zXzXzX@ @ . zXzXzXzXzXzXzXzXzXzXzXzXzXzXzXzXzXzXzXzX",
"zXzXzXzX@   % 6 7 e e e e e e 8 1 5 # + @ + + + + 8 t 5 $ % 7 9 9 u 6 zXzXzX@ zXzXzXzXzXzXzXzXzXzXzXzXzXzXzXzXzXzXzXzXzX",
"zXzX    % % 7 u e i i a } i i d y e 1 2 # + @ 2 1 t i 9 6 4 4 4 e i 9 7 e 8 8 # zXzXzXzXzXzXzXzXzXzXzXzXzXzXzXzXzXzXzXzX",
"zXzX@ # 6 7 u s d 8 9 i s e 8 e i u e r 1 # 2 7 7 7 7 t a u % # 6 7 e u i s i 4 $ zXzXzXzXzXzXzXzXzXzXzXzXzXzXzXzXzXzXzX",
"zXzXzXzXzXzX8 9 9 7 8 8 8 d | e $ 2 i } e 7 6 @ @ 7 7 u a p i i 1 @ # $ 4 9 8 u p 7 @ zXzXzXzXzXzXzXzXzXzXzXzXzXzXzXzXzX",
"zXzXzXzXzXzXzXzX1 2 $ % 2 8 d e 1 3 6 1 e i e @ @ 7 7 u a a a i 1 @ @ @ + 7 7 p a 9 @ zXzXzXzXzXzXzXzXzXzXzXzXzXzXzXzXzX",
"zXzXzXzXzXzXzXzXzX@ @ @ @ 2 1 3 7 7 # + 6 e 7 % % 6 6 9 i u u u 1 @ @ O # 4 4 9 e 7 @ @ zXzXzXzXzXzXzXzXzXzXzXzXzXzXzXzX",
"zXzXzXzXzXzXzXzXzXzXzX@ @ # # 2 8 8 2 # # # % 7 7 % @ 6 9 7 7 7 # # @ + + + + # @ # @ @ @ @ zXzXzXzXzXzXzXzXzXzXzXzXzXzX",
"zXzXzXzXzXzXzX6 7 7 6 @ @ 2 6 e i } d i 4 @ @ $ $ e u i p 9 % @ 6 7 % @ O O @ 4 7 2 + + O + O O @ @ O @ @ @ @ zXzXzXzXzX",
"zXzXzXzXzXzXzXzX% % 1 4 1 e i y e d } } u e 7 + # u a a a i 9 9 4 % % @ # 1 4 e i 8 4 7 8 e 9 e 3 @ O X   zXzXzXzXzXzXzX",
"zXzXzXzXzXzXzXzXzXzX& % % 9 e e e e d s s i r O @ t p p } } U | 9 1 % O % 9 e u u e 1 7 u i p } r 2 $ .   zXzXzXzXzXzXzX",
"zXzXzXzXzXzXzXzXzXzXzX. . o @ 4 i u 9 6 9 0 ; ; & 6 0 u } | | | a a 7 @ 2 i i 9 5 1 + % 8 9 u p t 7 6 # @ zXzXzXzXzXzXzX",
"zXzXzXzXzXzXzXzXzXzXzX7 5 2 @ # % # # @ q T T Y T T _ U 0 e | p s s 0 o @ $ & # # 4 5 8 p y t 9 4 $ # @ @ zXzXzXzXzXzXzX",
"zXzXzXzXzXzXzXzXzXzXzXzXzXzXzX; I B ' [ G.I.G.B q w q I U w 6 7 s s w w I w q ; o 6 y y t t zXzXzXzXzXzXzXzXzXzXzXzXzXzX",
"zXzXzXzXzXzXzXzXzXzXzXzXzXzXzXzX..p.:X3XQ.L... . .q , T ..] ; 6 u u ) ....G...U ; 0 t e 5 4 zXzXzXzXzXzXzXzXzXzXzXzXzXzX",
"zXzXzXzXzXzXzXzXzXzXzXzXzXzXzXzX(.&XuXfXY.-  .kXhXo.Q H.!.T.] ' U < { Q.%XrXwXG.' < & O + zXzXzXzXzXzXzXzXzXzXzXzXzXzXzX",
"zXzXzXzXzXzXzXzXzXzXzXzXzXzX%X;X6X7XpXfXY.o  .lXlXeX<X=XD.`.3X3X<X>X%X^.=X0X5XG.^ I o X . zXzXzXzXzXzXzXzXzXzXzXzXzXzXzX",
"zXzXzXzXzXzXzXzXzXzXzXzXzXzXzX&X,X<XtXiXqX/.qXjXjXaXiXtXwX7XtXtX<X,X~.p.P.E.U.Y q 6 @ O   zXzXzXzXzXzXzXzXzXzXzXzXzXzXzX",
"zXzXzXzXzXzXzXzXzXzXzXzXzXzXzXzX(.~.<X5XyXdXsXsXdXdXdXiXpXuX,X;XE.W...R T R U ; X + + + zXzXzXzXzXzXzXzXzXzXzXzXzXzXzXzX",
"zXzXzXzXzXzXzXzXzXzXzXzXzXzXzXzXzXzX~.!.rXpXpXpXiXpXiXiX9X;X[ ( ( / B - & * & + + zXzXzXzXzXzXzXzXzXzXzXzXzXzXzXzXzXzXzX",
"zXzXzXzXzXzXzXzXzXzXzXzXzXzXzXzXzXzXzXzX1X1X;X1X:X:X=X=X=X=X>X>Xi.L V v j zXzXzXzXzXzXzXzXzXzXzXzXzXzXzXzXzXzXzXzXzXzXzX",
"zXzXzXzXzXzXzXzXzXzXzXzXzXzXzXzXzXzXzXzXzXzXQ.~.!.=X<X4X5X>X^.R.y.<.@.n V zXzXzXzXzXzXzXzXzXzXzXzXzXzXzXzXzXzXzXzXzXzXzX",
"zXzXzXzXzXzXzXzXzXzXzXzXzXzXzXzXzXzXzXzXzXzXzX1X;X8XyXiXfXwX&.;.w.n.w.5.&.g zXzXzXzXzXzXzXzXzXzXzXzXzXzXzXzXzXzXzXzXzXzX",
"zXzXzXzXzXzXzXzXzXzXzXzXzXzXzXzXzXzXzXzXzXY L.gXpXiXiXpXaXrXj.0.B.}.{.oXS.C j zXzXzXzXzXzXzXzXzXzXzXzXzXzXzXzXzXzXzXzXzX",
"zXzXzXzXzXzXzXzXzXzXzXzXzXzXzXzXzXzXzXzXzXK ,.a.a.A._.`._.D.+X+Xm.c.B.OXS.C j zXzXzXzXzXzXzXzXzXzXzXzXzXzXzXzXzXzXzXzXzX",
"zXzXzXzXzXzXzXzXzXzXzXzXzXzXzXzXzXzXzXzX,.<.>.>.:.n.m.w.-.e.k.w.0.C.n.F.b.n x zXzXzXzXzXzXzXzXzXzXzXzXzXzXzXzXzXzXzXzXzX",
"zXzXzXzXzXzXzXzXzXzXzXzXzXzXzXzXzXzXL Z <.V.C.A.n.F.@Xw.O.G b n 2.3.3.e.-.M x zXzXzXzXzXzXzXzXzXzXzXzXzXzXzXzXzXzXzXzXzX",
"zXzXzXzXzXzXzXzXzXzXzXzXzXzXzXzXzXzXJ @.e.0.N.}.[.b.C.V.g.d.( Q H &.O.&.G M j zXzXzXzXzXzXzXzXzXzXzXzXzXzXzXzXzXzXzXzXzX",
"zXzXzXzXzXzXzXzXzXzXzXzXzXzXzXzXzXzXW O.w.XX|. X|.b.C.V.V.R.5XwX,X=X:X1X).! Y zXzXzXzXzXzXzXzXzXzXzXzXzXzXzXzXzXzXzXzXzX",
"zXzXzXzXzXzXzXzXzXzXzXzXzXzXzXzXzXzX~ K u.z.z.z.l.7.~ W D H.aXsXyX0X,X&XQ.Q ) zXzXzXzXzXzXzXzXzXzXzXzXzXzXzXzXzXzXzXzXzX",
"zXzXzXzXzXzXzXzXzXzXzXzXzXzXzXzXzXzX^ ] U < U Y ! B , : - ' gXpX9X8XE.K ! ) ) zXzXzXzXzXzXzXzXzXzXzXzXzXzXzXzXzXzXzXzXzX",
"zXzXzXzXzXzXzXzXzXzXzXzXzXzXzXzXzXzX^ ` Q P 9.-X$Xl.y.K.E.;XrXrX=X!.H.! ^ zXzXzXzXzXzXzXzXzXzXzXzXzXzXzXzXzXzXzXzXzXzXzX",
"zXzXzXzXzXzXzXzXzXzXzXzXzXzXzXzX_ ] L.U.t.O.&.9.u.3XrX6X6X<X:X:Xa.p./ V V zXzXzXzXzXzXzXzXzXzXzXzXzXzXzXzXzXzXzXzXzXzXzX",
"zXzXzXzXzXzXzXzXzXzXzXzXzXzXzXzX^ ` p.a.i.W [ U.Q.wXrX6X6X;XK.H.Q F V l h zXzXzXzXzXzXzXzXzXzXzXzXzXzXzXzXzXzXzXzXzXzXzX",
"zXzXzXzXzXzXzXzXzXzXzXzXzXzXzXzX) Q z k E Y L.sXdX2X;X~.E.P.( ~ M b f z x zXzXzXzXzXzXzXzXzXzXzXzXzXzXzXzXzXzXzXzXzXzXzX",
"zXzXzXzXzXzXzXzXzXzXzXzXzXzXzXzX' Q c l E ! L.sXdXaXgX*X~ i.a.d.&.G m k V zXzXzXzXzXzXzXzXzXzXzXzXzXzXzXzXzXzXzXzXzXzXzX",
"zXzXzXzXzXzXzXzXzXzXzXzXzXzXzXzXV D D J ,.<.J.W.I.I.W.a.y.-.*.=.1.2.#.z x zXzXzXzXzXzXzXzXzXzXzXzXzXzXzXzXzXzXzXzXzXzXzX",
"zXzXzXzXzXzXzXzXzXzXzXzXzXzXzXzXc M %.-.<.<.<.,.,.u.q.w.f.3.*.=.:.2.H M l zXzXzXzXzXzXzXzXzXzXzXzXzXzXzXzXzXzXzXzXzXzXzX",
"zXzXzXzXzXzXzXzXzXzXzXzXzXzXzXzXx M 2.j.#.M O.w.w.XX@Xm.0.Z.V.g.=.O.N M c = zXzXzXzXzXzXzXzXzXzXzXzXzXzXzXzXzXzXzXzXzXzX",
"zXzXzXzXzXzXzXzXzXzXzXzXzXzXzXzXl M 2.V.#.g +.@XXXb.b.S.@XF.v.4.4.h.*.H J z j zXzXzXzXzXzXzXzXzXzXzXzXzXzXzXzXzXzXzXzXzX",
"zXzXzXzXzXzXzXzXzXzXzXzXzXzXzXzXF O.d.V.*.C Z 8.e.S.B.]. X{.].B.B.F.q.P A g l > > zXzXzXzXzXzXzXzXzXzXzXzXzXzXzXzXzXzXzX",
"zXzXzXzXzXzXzXzXzXzXzXzXzXzXzXH %.>.4.C.-.L G b C l.S.]. X.X X X XOXr.A P 6.6.6.6.K zXzXzXzXzXzXzXzXzXzXzXzXzXzXzXzXzXzX",
"zXzXzXzXzXzXzXzXzXzXzXzXzXB k N j.h.f.g.-.@.@.@.#.m m q.oX{.{.|.[.}.b.+.e.+X}.[.oXu.j j zXzXzXzXzXzXzXzXzXzXzXzXzXzXzXzX",
"zXzXzXzXzXzXzXzXzXzXzXzXzXx g #.j.h.$.$.2.3.h.h.h.3.d.*.A &.v.A.b.b.M.].].b.v.A.Z.y.Y Y ! T zXzXzXzXzXzXzXzXzXzXzXzXzXzX",
"zXzXzXzXzXzXzXzXzXzXzXzXzXh k N <.=.>.2.3.V.f.:.-.:.=.G g N j.V.V.0.B.OX].v.V.f.V.x.~.~.P.L.zXzXzXzXzXzXzXzXzXzXzXzXzXzX",
"zXzXzXzXzXzXzXzXzXzXzXzXzXzXz S C Z <.2.2.1.=.G L G G D g J 2.3.4.0.M.#X[.c.Z.0.:.`.0X9X3X2XzXzXzXzXzXzXzXzXzXzXzXzXzXzX",
"zXzXzXzXzXzXzXzXzXzXzXzXzXzXzXzXh f M M J %.&.L L G W J k M H $.1.v.M.oX{.}.+X8.Z T.5XtXaXfXzXzXzXzXzXzXzXzXzXzXzXzXzXzX",
"zXzXzXzXzXzXzXzXzXzXzXzXzXzXzXzXzXB ^ E J.E.H.~ ~ M c c zXzXzXJ W #.&.5.5.5.6.~ Q ` { U.iXsXzXzXzXzXzXzXzXzXzXzXzXzXzXzX",
"zXzXzXzXzXzXzXzXzXzXzXzXzXzXzXzXzXT T ! P.!.W.~ Q V I zXzXzXzXzXzX/ K F F F V I q U E p.tXgXzXzXzXzXzXzXzXzXzXzXzXzXzXzX",
"zXzXzXzXzXzXzXzXzXzXzXzXzXzXzXX.G.G.p.p.W.!.I.Q ' zXzXzXzXzXzXzXzXzXzXzXzXzXzXzX* U [ H.4X5XzXzXzXzXzXzXzXzXzXzXzXzXzXzX",
"zXzXzXzXzXzXzXzXzXzXzXzXzXzX^ I.eXtX5XrX,X~.U.' ) zXzXzXzXzXzXzXzXzXzXzXzXzXzXzXT G.(.(.&X(.zXzXzXzXzXzXzXzXzXzXzXzXzXzX",
"zXzXzXzXzXzXzXzXzXzXzXzXzXzXzXzXzXzXzXzXzXzXzXzXzXzXzXzXzXzXzXzXzXzXzXzXzXzXzXzXzXzXzXzXzXzXzXzXzXzXzXzXzXzXzXzXzXzXzXzX"
};
