/* XPM */
static char *c69ec173c4154e8aec9a51f53b445b16IXDKbLdmgSaqE2zP[] = {
/* columns rows colors chars-per-pixel */
"60 60 234 2 ",
"   c None",
".  c #0B0C0E",
"X  c #040506",
"o  c #190B06",
"O  c #19130C",
"+  c #0D0E11",
"@  c #0E1114",
"#  c #121315",
"$  c #15161A",
"%  c #16191A",
"&  c #1A1A1D",
"*  c #1B1516",
"=  c #330B02",
"-  c #261409",
";  c #251915",
":  c #2E1309",
">  c #1F221B",
",  c #2A231C",
"<  c #392419",
"1  c #1D1D21",
"2  c #251E23",
"3  c #3A1E22",
"4  c #1F2123",
"5  c #1F2428",
"6  c #222325",
"7  c #25262A",
"8  c #27282C",
"9  c #292A2C",
"0  c #2C2427",
"q  c #362A26",
"w  c #2C2D31",
"e  c #272B32",
"r  c #2E3133",
"t  c #333335",
"y  c #3B3434",
"u  c #35353A",
"i  c #39373C",
"p  c #37393C",
"a  c #393A3D",
"s  c #3B3B3C",
"d  c #383936",
"f  c #2F3131",
"g  c #460500",
"h  c #481505",
"j  c #5D1B00",
"k  c #571802",
"l  c #681C00",
"z  c #5C2508",
"x  c #442518",
"c  c #562915",
"v  c #5B3217",
"b  c #542B0F",
"n  c #6A2903",
"m  c #672806",
"M  c #742B01",
"N  c #752603",
"B  c #783506",
"V  c #642716",
"C  c #683618",
"Z  c #773819",
"A  c #6E3701",
"S  c #473329",
"D  c #593429",
"F  c #483936",
"G  c #573B37",
"H  c #4D2B23",
"J  c #693C29",
"K  c #793D22",
"L  c #712F23",
"P  c #7B4114",
"I  c #69431F",
"U  c #59443A",
"Y  c #694229",
"T  c #774627",
"R  c #664838",
"E  c #724737",
"W  c #76543A",
"Q  c #6C523B",
"!  c #3C3C41",
"~  c #563D42",
"^  c #3F4143",
"/  c #424243",
"(  c #48494A",
")  c #545355",
"_  c #565559",
"`  c #5C5C5D",
"'  c #544A47",
"]  c #775948",
"[  c #624F41",
"{  c #79614E",
"}  c #796559",
"|  c #5E5E60",
" . c #686869",
".. c #767678",
"X. c #70726F",
"o. c #843505",
"O. c #993906",
"+. c #873816",
"@. c #852E0A",
"#. c #AA3E00",
"$. c #A33D24",
"%. c #923A26",
"&. c #864517",
"*. c #985414",
"=. c #904410",
"-. c #B75300",
";. c #A6451C",
":. c #B44B16",
">. c #BC5518",
",. c #AD4C0F",
"<. c #B76416",
"1. c #854426",
"2. c #984B2A",
"3. c #955428",
"4. c #8A4B35",
"5. c #9B5A3B",
"6. c #8B5036",
"7. c #A74826",
"8. c #B24D25",
"9. c #A55228",
"0. c #B65627",
"q. c #A34E35",
"w. c #B85A39",
"e. c #AF5A33",
"r. c #BB682A",
"t. c #A6653A",
"y. c #B9683D",
"u. c #C35110",
"i. c #CB6615",
"p. c #D97416",
"a. c #D06B13",
"s. c #C45B28",
"d. c #C86629",
"f. c #D56A27",
"g. c #D47429",
"h. c #D87A39",
"j. c #CA6F38",
"k. c #E87834",
"l. c #8B594A",
"z. c #876249",
"x. c #986448",
"c. c #876858",
"v. c #986955",
"b. c #9E7454",
"n. c #AA6946",
"m. c #A26A57",
"M. c #A9755C",
"N. c #B87958",
"B. c #BF7A43",
"V. c #866B65",
"C. c #897465",
"Z. c #9A7968",
"A. c #977F73",
"S. c #A87C68",
"D. c #AA7A6E",
"F. c #CB754A",
"G. c #CD764C",
"H. c #E97E4A",
"J. c #DC841A",
"K. c #DD8D38",
"L. c #EB8536",
"P. c #EE9534",
"I. c #B6875A",
"U. c #9D8272",
"Y. c #8F827A",
"T. c #AB8469",
"R. c #B5866A",
"E. c #AA8975",
"W. c #B38B78",
"Q. c #B9957C",
"!. c #AB9072",
"~. c #D88848",
"^. c #D6924F",
"/. c #C88559",
"(. c #D88454",
"). c #DF985A",
"_. c #E79549",
"`. c #F79847",
"'. c #E69756",
"]. c #F69556",
"[. c #EB8C52",
"{. c #C58865",
"}. c #C79566",
"|. c #C6977A",
" X c #D89B7D",
".X c #D2936D",
"XX c #E49B69",
"oX c #DFB17D",
"OX c #EEA77D",
"+X c #F1A350",
"@X c #7C7E80",
"#X c #878788",
"$X c #9B938F",
"%X c #A68C85",
"&X c #B89789",
"*X c #B79D92",
"=X c #AE918B",
"-X c #B6A497",
";X c #B8ADA6",
":X c #BEB9B6",
">X c #C69A82",
",X c #C8A188",
"<X c #D5A887",
"1X c #C8A996",
"2X c #D6AC95",
"3X c #D9B399",
"4X c #CAB19C",
"5X c #E0B387",
"6X c #E7AC92",
"7X c #E8B899",
"8X c #F7B697",
"9X c #F3AE87",
"0X c #CAB4A5",
"qX c #D9B4A4",
"wX c #C9B5B1",
"eX c #E2BDAD",
"rX c #FCC79A",
"tX c #ECC491",
"yX c #DAC5B6",
"uX c #ECC8A8",
"iX c #F9C8AB",
"pX c #FCD1AA",
"aX c #E7CAB6",
"sX c #F3D4BB",
"dX c #F7D6B7",
"fX c #F0CEB7",
"gX c #D8D6D1",
"hX c #D4CAC7",
"jX c #EED8C6",
"kX c #FAE9DB",
"lX c #FBE7CF",
"zX c #FFF6E9",
"xX c #FFFEF4",
"cX c #FDECE4",
/* pixels */
"                                                                                                                        ",
"                                                                                                                        ",
"                                  s X % 4 & 7 1 6 & & 4 6 s #X                                                          ",
"                                  X.& + 4 9 i i u t u ! ^ u 7 & w s                                                     ",
"                                      6 + 4 9 9 r t w 9 9 t t w w + $ `                                                 ",
"                                      w # . . % 1 4 6 6 6 6 w p w 6 & % s            ./ / )                             ",
"                ) ) _ _ ) ( ( ( / i 4 X . X X & % 6 8 7 7 9 7 1 9 u w 7 `         9 &                                   ",
"          X.u 1 9 9 w t t w w 9 w 9 r 6 1 # + + $ + # & & # & w 9 7 w t u |     ` . /                                   ",
"        s 6 7 u u t ! s i s u i ^ t t t 7 1 & & + & 1 1 6 8 6 & 1 8 7 9 ! u 6 7 1 $ 7 ..                                ",
"        ` _ / 9 s t s u t u u i u u s s t w 7 & $ 7 u s ! u 8 1 1 6 7 r ! t 6 7 9 7 & % (                               ",
"              w 6 9 9 7 t i 7 7 9 w p s p s u 7 4 1 & & 6 e w t e 1 # % & & % & 1 9 w 6 # s @X                          ",
"                    ../ % % # 1 7 6 9 r w w w 7 9 1 + + 1 e u ! / w 6 & + # % + 1 u 6 w r $ 6                           ",
"                        _ 9 + & 7 & 6 9 1 # # % 7 6 1 1 6 6 8 r t u ! w # # & + 7 ! 7 8 t & 1                 `  .      ",
"                          #X% # & # 1 9 6 $ # # # 1 4 1 & $ 1 w 6 8 e 1 + # % . 6 7 u / 9 % &  .      X.) s 7 X %       ",
"                            % % & & 8 t r w 8 1 + % 1 6 7 8 w u t 7 & & 1 1 1 & 6 & 7 ! u i 9 6 t 7 % % 6 6 & % )       ",
"                          ..# 6 9 r s s i ! i 7 1 $ + & w ! s u i 6 & 6 w 1 # % 1 w r u p s t s u t 9 6 * 6 `           ",
"                      #Xu & 9 9 ! u ! i y y y d ^ 5 % @ r u s y ! i s 7 @ $ % + 9 ^ t u ! t % 9 7 7 % # . 6             ",
"                  #Xs 7 7 7 & # 5 8 t y y y q O * . # % 7 9 y y s u s u r 9 & $ % 6 6 9 9 u f 9 4 7 % 7 9 $ t  .        ",
"                              $Xp r d F q < H G G F q 0 ; 6 9 9 9 i ! u s r # . $ + $ 2 & w p w t w 9 9 6 w 7 & 6 _     ",
"                                $X( , - x R J c.D.V.~ ~ y f > X * y i t / s & O ; * * * $ 1 e e i u 9 % 7 ( s u i t ..  ",
"                                  ;X} S W T.Z.D.&Xc.3 3 o o O - o - ; , y q O o < F S ; 0 $ $ 7 w & s ..                ",
"                                  zX4X{ z.|.<Xv.R V.=X=XU o < R R { } U q , O o [ A.V.S F 2 + & 1 `                     ",
"                                  cX0XW.|.iXdXW o A.zXcXC.x E D.T.2X4X] o o < < U.0X&XR U 0 + # u                       ",
"                                wX-X*X3X3XpXiXW : C.cXzXaX1X>XM.I.<X3Xz.o x c.Z.&XqX&XR G ; O $                         ",
"                                  gX0XE.,X7X7X>XE.4XjXlXaXfX7X<X5X5X5XT.W Q ] c.c.c.] < ; O O # '                       ",
"                                    kX0X1X|.,XuXsXsXsXsXuXdXpXrXrX.X}.I.b.v.J x H H x : q ' X.                          ",
"                                      zXkX4X,XeXfXsXfXiXpXpXtXoX.X&.Z Z K J = = = G V.$X                                ",
"                                        xXzXjX1XQ.>X|.}.|.}.I.I.N.&.&.n k z h c D                                       ",
"                                          xXxXjXaX,XR.N.{./..XOX.X&.+.&.2.2.z k h V.                                    ",
"                                            xXzXkX3X X{. XOX9X9X9Xw.7.F.(.G.2.K v x [                                   ",
"                                              hX*XQ.7X8XiXrXOXF.w.e.8.0.s.j.(./.6.h G                                   ",
"                                              %XE T {./.(.(.G.7.7.7.O.;.O.O.j.G.Z v R                                   ",
"                                            eXl.Z +.o.o.:.r.>.0.0.@.N @.2.2.2.5.1.C ]                                   ",
"                                          U.J 4.9.;.,.:.h.[.[.].G.@.n n.8X9X.XN.6.J c.                                  ",
"                                          ] b t.F.h.h.h.h.f.s.s.y.N l N.pX8X X.Xl.Y C.                                  ",
"                                          Q T t.~.[.].L.d.d.0.0.q.N l n.8X8X6X6Xv.J c.                                  ",
"                                          ] b 1.3.r._.'.'.XXF.2.2.Z m 5.N.M.M.S.l.D V.                                  ",
"                                            b m A B =.o.B +.B k j g g 5. X<XR.S.] R %X                                  ",
"                                          0Xv z n A *.*.n j k g g g g x.6X<Xv.Z.&X*X                                    ",
"                                          D c m B *.^.'.9.M B K L V h x.7X,XW c.                                        ",
"                                          c z +.=.d.].[.d.;.7.q.4.V h M.iX3XR c.                                        ",
"                                          z m 9.~.g.f.d.0.8.7.%.4.m.m.|.2X,XR C.                                        ",
"                                        R.m M r.`.g.i.u.:.;.$.+.1.6XiX<XR.S.U C.                                        ",
"                                      D C /.'.+X`.P.P.L.d.8.;.@.1. X7XiXiX1X{ $X                                        ",
"                                    -Xv P ^.K.K.P.J.a.a.g.h.0.M +.t.5.n.m.E.-X                                          ",
"                                      b A ~._.P.J.p.a.a.g.h.r.o.n B B C J W.                                            ",
"                                    *XC 3.)._.<.-.a.L.k.>.O.o.o.o.B B Z J Z.                                            ",
"                                      c I /.XX<.O.,.i.f.:.#.>.h.h.(./.N.v.Z.                                            ",
"                                      %XE.b.n.&.N O.d.d.i.f.f.k.k.H.(.N.m.                                              ",
"                                          c.v z j =.[.].`.`.p.u.u.u.8.5.6.                                              ",
"                                              C k &.'._.`.P.p.-.>.:.9.1.E                                               ",
"                                              Y z B B.h.K.`.L.g.f.8.n.K Z.                                              ",
"                                              E.z.T 3.t.y.~.~.~.G.e.n.v.                                                ",
"                                                  E.J V m M M N M l z E.                                                ",
"                                                    qX2Xl.m j m m z c                                                   ",
"                                                        v.C T x.6.J R                                                   ",
"                                                  ;XV.Q Y I b.5X2XE ]                                                   ",
"                                              hX;XY.} C.!.Q.<XuX1XC.%X                                                  ",
"                                              gX:X;X;XyXsXsXdXsXjXyX                                                    ",
"                                                                                                                        "
};
