/* XPM */
static char *_d5eede79a334494f382d8c7d2b64cf5RM2f1mhq7GtmEtn7[] = {
/* columns rows colors chars-per-pixel */
"60 60 205 2 ",
"   c #18100D",
".  c #1C130E",
"X  c #1D140F",
"o  c #1C150F",
"O  c #1D1610",
"+  c #1F1611",
"@  c #1E1613",
"#  c #1F1812",
"$  c #1F1A14",
"%  c #201712",
"&  c #211715",
"*  c #211811",
"=  c #211813",
"-  c #201913",
";  c #231A13",
":  c #221B13",
">  c #201815",
",  c #231814",
"<  c #221914",
"1  c #211A14",
"2  c #231A15",
"3  c #221B15",
"4  c #211916",
"5  c #221816",
"6  c #221A17",
"7  c #241B14",
"8  c #251A16",
"9  c #241B16",
"0  c #231C14",
"q  c #231C16",
"w  c #251C15",
"e  c #251C17",
"r  c #241D17",
"t  c #261D16",
"y  c #251E16",
"u  c #271E17",
"i  c #261F17",
"p  c #231B18",
"a  c #251B19",
"s  c #231E18",
"d  c #241C19",
"f  c #271C18",
"g  c #261D18",
"h  c #251E18",
"j  c #241F19",
"k  c #271E19",
"l  c #261F19",
"z  c #251D1A",
"x  c #261C1A",
"c  c #271D1B",
"v  c #261E1B",
"b  c #271F1C",
"n  c #281D19",
"m  c #281F18",
"M  c #291E1A",
"N  c #281F1A",
"B  c #2A1F1B",
"V  c #281E1C",
"C  c #291F1D",
"Z  c #272018",
"A  c #27201A",
"S  c #26211B",
"D  c #26211D",
"F  c #27221C",
"G  c #27221E",
"H  c #292019",
"J  c #29201B",
"K  c #28211B",
"L  c #2A211A",
"P  c #29221A",
"I  c #2B221B",
"U  c #2A231B",
"Y  c #28201D",
"T  c #2B201C",
"R  c #2A211C",
"E  c #29221C",
"W  c #28231D",
"Q  c #2B221D",
"!  c #2A231D",
"~  c #29211E",
"^  c #2B211F",
"/  c #2A221F",
"(  c #2C211D",
")  c #2C231C",
"_  c #2D221E",
"`  c #2C231E",
"'  c #2E231F",
"]  c #2B241C",
"[  c #29241E",
"{  c #2B241E",
"}  c #2A251F",
"|  c #2D241D",
" . c #2C251D",
".. c #2D241F",
"X. c #2C251F",
"o. c #2E251E",
"O. c #2D261E",
"+. c #2F261F",
"@. c #2E271F",
"#. c #30251F",
"$. c #31271E",
"%. c #32281F",
"&. c #2B2320",
"*. c #2C2220",
"=. c #2D2321",
"-. c #292420",
";. c #2A2521",
":. c #2B2620",
">. c #2B2622",
",. c #2C2421",
"<. c #2F2420",
"1. c #2E2520",
"2. c #2D2620",
"3. c #2C2721",
"4. c #2F2621",
"5. c #2E2721",
"6. c #2D2522",
"7. c #2E2422",
"8. c #2F2523",
"9. c #2E2623",
"0. c #2F2724",
"q. c #2F2820",
"w. c #2D2822",
"e. c #2F2822",
"r. c #2F2A24",
"t. c #302521",
"y. c #312620",
"u. c #302720",
"i. c #322721",
"p. c #312622",
"a. c #302722",
"s. c #322723",
"d. c #302624",
"f. c #312725",
"g. c #312821",
"h. c #302921",
"j. c #312823",
"k. c #302923",
"l. c #332822",
"z. c #322922",
"x. c #332A23",
"c. c #322B23",
"v. c #302825",
"b. c #332824",
"n. c #322924",
"m. c #312A24",
"M. c #302B25",
"N. c #332A25",
"B. c #322B25",
"V. c #312926",
"C. c #322826",
"Z. c #322A27",
"A. c #342925",
"S. c #352A24",
"D. c #342B24",
"F. c #352A26",
"G. c #342B26",
"H. c #362B27",
"J. c #332C24",
"K. c #332C26",
"L. c #352C25",
"P. c #342D25",
"I. c #352C27",
"U. c #342D27",
"Y. c #362D26",
"T. c #372E27",
"R. c #332B28",
"E. c #342A28",
"W. c #352B29",
"Q. c #322D29",
"!. c #332E28",
"~. c #342C29",
"^. c #372C28",
"/. c #362D28",
"(. c #352E28",
"). c #342F29",
"_. c #372E29",
"`. c #362F29",
"'. c #352D2A",
"]. c #362C2A",
"[. c #372D2B",
"{. c #362E2B",
"}. c #372F2C",
"|. c #382D29",
" X c #382F28",
".X c #392E2A",
"XX c #382F2A",
"oX c #3A2F2B",
"OX c #382E2C",
"+X c #392F2D",
"@X c #37302A",
"#X c #393029",
"$X c #39302B",
"%X c #38312B",
"&X c #38302D",
"*X c #3A312C",
"=X c #39322C",
"-X c #3B322D",
";X c #3A332D",
":X c #39312E",
">X c #3A322F",
",X c #3B342E",
"<X c #3B3330",
"1X c #3F3430",
"2X c #3D3532",
/* pixels */
"t.( k r r $ [ r.2.w.d.`.OXV 0.`.Q.:.2X*X*XR.W k , k W W k ,   , k 2.N.K.R.N.k , , p b b W [ k O V W B , & W k = = r W `.",
"oXH.N.k.k.W w.N.N.N.E.`.`.V 2.N.2.F N.R.}.N.2.N.N.N.N.N.N.N.W N.`.X.U 2.2.2.k &.N.N.*X}.K.I.k.W `.E.N.N.E.OXt.X.N.X.S w.",
"oXH.N.N.N.S F S W S k B W = X.I.[ X.w.w.I.k.2.I.k.N.N.k.N.N.U k.`.B 9 W W k , 2.*X}.<X*XN.N.k.( N.N.k.I.oX`.X.N.`.X.q W ",
"t.t.t.N.k.k k s q r U W 2., W 2.W k.`.`.`.N.X.2.W 2.N.t.2.[ k w.2.B W H.0.2.W W R.0.0.2.W ( W W N.N.2.N.N.2.k 2.w.W k 2.",
"t.2.t.N.N.W 2.2.W X.N.H.`.W ( t.2.X.w.N.2.X.t.N.2.k.k.2.2.2.W I.t.X.k.oX`.R.W k &.W k k W W k ( I.D.X.#.H.k.W k.k.t.2.$X",
"( ( t.N.N.[ N.`.2.2.H.k.N.W 2.I.2.= q S 9 , W I.N.k.t.k.N.k.B t.k.X.2.N.0.0.W &.0.W b W N.t.B W t.t.( X.k.k.W 2.t.X.U N.",
"t.t.k.k.k.U N.`.W ( H.t.N.B ( t.w.S N.H.I.X.W k.t.2.2.N.N.2.9 W 9 , , k k k k N.}.2.2.I.`.N.X.( H.D.k.k.t.X.r r B r , B ",
"H.k.k.t.X.S X.k.B B 2.W ( B X.N.W W `.2.I.2., r k 9 r B B 9 . B 2.( W X.X.X.b 0.`.b 2.`.N.t.2.W  Xk.#.k.k.k.U r W ( W t.",
"t.#.k.X.X.U U U B k W B W , ( N.W W k.X.t.( k ( t.t.( N.N.2.W t.H.I.H.H.N.N.&.2.0.W ( k.k.X.W ( $Xk.#.k.X.t.U X.H.k.H.H.",
"t.t.k.X.k.X.2.2.t.2.t.2.2.B k.`.2.W N.2.k.2.W `.H.oX`.*X`.N.k.`.k.N.N.N.N.`.&.k W p k B U B B ( oXD.k.k.X.t.( k.k.k.k.N.",
"H.t.k.k.K.2.N.`.`.`.`.`.H.X.2.N.S S N.k.N.X.U N.t.I.H.N.t.2.( t.2.2.2.k.N.N.U k W k S U B U B U k.k.k.X.X.t.U t.k.X.X.X.",
"t.2.t.I.I.W [ K.X.2.2.t.2.W U k , k H.N.N.k.X.N.N.H.t.2.2.2.W X.N.2.t.`.K.2.S 2.*X`.@X@XoX$XI.N.k.k.#.#.k.k.U X.H.k.t.#.",
"t.H.oX*X@XW [ w.2.k.2.2.t.N.H.k.w.W N.k.t.2.2.$X`.H.k.t.t.t.W t.N.k.N.`.N.X.k 2.K.2.2.2.t.N.t.( H.k.k.N.H.N.B 2.I.k.k.k.",
"B N.N.X.W k :.:.N.K.N.N.H.N.I.N.w., S S k = 9 H.H.N.N.k.2.2.B N.N.H.I.H.k.w.U W N.2.w.w.k.H.X.k ( ( X.X.W W B N.I.k.k.k.",
"W N.2.k k k r.N.N.N.E.E.`.*.2.2.X., 2.k.2.W ( $XH.N.N.N.k.t.W H.H.`.`.K.k.N.[ W N.w.N.I.`.K.W , k V W V , B U N.I.D.k.k.",
"( N.2.W W s 2.w.2.W d.N.E.k 2.R.2.W @X`.N.t.2.I.2.X.2.2.2.t.k X.t.N.k.w.[ 2.W X.`.N.K.`.`.K.( k ( 2.d.W r X.X.t.t.X.2.X.",
"`.oX2.2.@XS q [ W S W [ B , ( H.2.W k.k.N.2.S U W [ k k S , q U 2.W r k W S S 2.w.2.I.I.I.w.X.X.`.H.I.t.2.$X2.k k k k k ",
"( t.W W k.k U w.N.N.2.U 2.r B W B S 2.2.[ U r X.[ k.k r X.k , W K.[ r U k.w.S k 2.2.k.X.X.U X.w.N.X.t.2.2.H.W U W b k , ",
"( t.W r S q 2.I.I.$XK.[ *XW k 9 k k k k r k k `.I.@X[ W `.I.N.*X@Xk.W 2.`.N.U k W U W , = q r r N.X.k.t.U W k w.*XR.2.2.",
"t.H.X.k k k w.K.K.`.w.k I.( ( k.H.N.N.N.K.k.U I.N.2.W [ N.K.`.`.K.w.X.w.K.w.W W `.K.N.[ X.w.X.U N.t.I.N.U W S k.R.0.&.W ",
"t.t.( ( w.X.N.w.w.2.W U N.X.k.`.H.N.H.N.`.t.B t.N.2.2.k.N.N.2.2.t.W k W N.t.W X.I.H.H.( 2.N.t.U k.t.I.N.X.N.W [ 2.2.:.F ",
"k.t.( 2.I.k.K.k.N.2.[ N.`.2.2.t.t.2.N.2.N.X.W N.X.X.W U 2.( k 2.N.2.W X.H.N.X.2.t.k.k.U W 2.k.X.H.N.I.2.W N.X.[ k.k.:.F ",
"k.N.( W k.X.k.k.`.k.2.2.N.W X.k.2.t.`.N.2.W r U B k 9 9 W B 9 2.H.k.2.t.H.k.2.N.N.t.k.W X.t.k.2.H.N.H.X.k 2.W 2.N.w.:.W ",
"W k.W k W k W W W W [ U N.k X.H.I.H.I.N.( X.k U W , B ( W U k W 2.W k W t.2.2.I.I.k.k.( N.H.2.k 2.U X.( U 2.k U 2.W S W ",
". B B k U = q S k W W q , % ( `.`.N.2.N.N.( ( I.N.2.H.`.`.I.r , 9 B W B U k k 2.k.t.N.( N.K.W # , o 9 U k k O , k S [ k.",
"k N.H.N.K.X.N.I.N.I.`.`.N.B 2.I.H.H.N.N.N.2.2.I.2.X.t.2.2.N.W N.`.I.N.N.oXoX2.( N.2.N.W [ k.2.U I.W 2.I.N.k.S 2.N.I.@X@X",
"k N.@X$X`.2.N.k.N.N.N.N.N.X.N.@Xt.N.k.t.t.2.2.H.2.t.N.k.2.2.k k.k.t.N.I.`.`.t.2.H.2.N.[ [ N.N.2.N.W w.`.I.N.U w.`.@X$X`.",
"k 2.N.K.N.[ k.w.W 2.2.X.w.X.2.[ U U B W W B W I.N.t.N.N.t.N.W N.X.X.H.I.k.W W k.N.t.N.X.N.`.N.X.k.W 2.k.2.k.[ N.N.N.k.w.",
"2.I.`.`.K.2.N.k.2.N.k.2.k.[ [ S k , , W X.k U `.N.W k.K.2.K.w.N.k.X.D.D.k.X.W W 2.2.2.W K.I.[ W N.2.N.N.X.k.2.I.`.N.t.k.",
"W k.2.X.2.W k.N.K.N.w.N.`.w.N.I.K.X.X.`.*X2.X.$XN.[ N.`.2.N.2.K.k.H.I.k.H.H.W 9 k S S , W W , k `.[ 2.k.2.w.2.$X`.k.2.t.",
"k [ S q k q 2.H.t.2.w.I.$Xw.k.I.k.X.W k.I.[ k [ k , k k r S , 2.I.I.I.k.k.t.U S K.w.K.w.r.r.:.[ N.q , r r W U N.I.N.t.t.",
"W `.oXK.N.k 9 r k k q r U r W k.2.2.W 2.N.w.W W k W W X.k.2.# W U B r 9 r = , 2.$Xw.@X@X`.Q.N.U N.W 2.K.`.*XX.W 9 9 9 9 ",
"t.I.N.k.H.( ( ( X.( ( X.2.k W k.W 2.W 2.I.I.W k.w.2.N.N.I.K.q 2.k.X.( U X.U B ( k.H.k.k.H.k.U B t.( H.2.2.*X2.U X.X.X.[ ",
"( H.t.( t.( N.`.oXI.N.N.H.( t.H.N.X.S N.@XK.[ `.N.`.`.N.N.I.U w.I.I.H.k.H.k.X.t.k.I.I.D.k.X.U U H.B 2.t.t.N.k X.K.K.K.k.",
"r t.N.k.2.B 2.N.k.t.t.N.H.( ( 2.w.W U N.I.2.k w.2.k.2.X.X.2.U w.k.k.k.X.k.k.X.X.I.D.k.t.#.X.t.t.H.k ( N.k.t.U `.K.N.k.w.",
"9 2.N.N.k.W N.H.t.t.t.k.k.k k k r r S k r , o , q , = k U k r 2.k.t.t.X.t.t.X.t. Xk.#.#.k.k.#.U 2.B 2.N.2.2.B t.N.w.X.X.",
"V d.N.N.H.t.I.N.H.N.k.2.X.r U X.N.N.K.W W 2.X.w.W U U N.K.w.X.I.H.k.k.t.t.X.W X.`.N.k.N.H.k.W , , , X.N.N.I.2.N.N.N.k.k.",
"a *.d.2.X.U N.N.k.N.k.t.k.U t.H.N.w.k.S 2.N.2.N.2.2.k.`.`.K.X.k.N.2.t.k.k.X.B W N.t.k.N.2.X.( k H.( 2.k.X.X.S 2.N.N.N.N.",
", W &.b k k I.*Xk.N.k.k.H.X.t.k.N.2.k.W N.N.[ I.2.X.N.@XI.N.U 2.N.k.N.N.H.N.( X.N.2.t.t.( X.t.2.*XX.U [ U S r X.N.N.k.k.",
"p W 2.&.&.W K.k.t.2.X.X.k.( t.k.2.X.w.r W S q N.X.k 2.`.N.2.r k.k.t.t.X.2.2.U U N.2.N.N.2.t.k.X.`.[ U 2.X.[ S X.w.2.2.2.",
"W N.`.N.}.N.S U W W r r U = X.oXoXk.2.r k q # [ r k 2.2.S S 9 U W W B 9 X.k , W I.t.H.t.N.N.k.N.$XX.w.`.K.`.X.k k 2.X.k ",
"b 2.N.0.N.W S W N.U = U U 9 X.I.I.N.N.W N.k.k W S 2.k.X.W W = k ( W U k t.( k W H.2.H.t.k.k.2.2.K.W 2.N.2.2.k k U 2.W , ",
", k W &.X.r [ k.*Xw.X.$XI.t.H.H.2.2.2.r 2.k.W k.`.*X@XK.`.I.W N.`.I.H.N.*X`.2.X.N.2.H.t.N.N.t.2.k.[ w.K.k.w.W k.*X,XI.W ",
"k W 2.2.X.k k.K.K.k.W H.k.k.I.I.N.H.I.W N.k.W I.`.N.w.w.N.2.B I.N.k.N.t.`.N.B 9 k r W 9 k W k = , , k W k k , 2.`.`.2.r ",
"N.`.oX`.N.W N.k.2.t.S w.k.2.[ X.W W W , U S r N.$Xw.2.N.2.X.U N.k.k.N.2.H.k.W B X.( t.B ( N.X., ( ( 2.t.2.W k N.K.I.2.p ",
"N.`.oX`.N.W 2.X.t.2.W I.$XW , r k 9 U r S k U *XK.2.N.N.2.t.W ( k.t.2.W t.2.W X.I.H.`.2.N.`.N.B `.I.`.`.I.K.[ K.N.N.W p ",
"X.2.N.t.2.B U W W k r 2.w.q S X.W U I.H.N.[ [ @Xw.w.k.N.k.N.B U k.X.B , X.W B 2.H.t.I.2.k.N.2.W H.t.2.k.N.N.U W W W k , ",
"2.2.N.t.2.k 9 U , 9 W k.X., k.I.k.W H.N.N.w.2.I.N.N.w.N.I.k., W 2.W , % 2.2.U k.t.W k.2.t.2.2.2.H.2.X.t.N.I.U k S U p O ",
"H.k.t.#.( ( 2.oX2.N.,X$X$X2.2.w.W W N.0.N.X.B B W W k B U k B *X2XH.W N.@X`.X.2.N.2.N.W k , r k.H.N.k.N.K.I.2.2.`.N.:.:.",
"#.%.t.#.X.X.t.H.W 2.I.w.k.U X.k.0.2.`.N.N.2.k k W 2.B 9 k X.X.$X`.t.X.t.N.k.W 2.`.r.k.U ( 2.2.t.I.H.N.`.@X`.2.K.R.N.:.:.",
"t.k.k.t.k.X.K.N.W 2.N.X.2.U 2.N.2.W 2.W W U B 2.N.`.2.U 2.I.2.k.t.( B U N.k.W W N.w.k.U t.`.k.U X.W ( k.2.W r 2.w.2.:.F ",
"t.t.t.X.X.r k.2.W 2.I.w.N.X.k.N.W k W W B 9 B oXI.I.2.X.k.N.W X.t.( ( ( N.w.W 2.K.N.K.W 2.H.X., U k k W U k , [ 2.2.:.F ",
"r r B U ( , w.k.W X.N.2.N.X.2.2.W W `.`.N.W U N.t.t.W ( 2.2.U N.I.2.W X.K.k.W [ I.2.2.S W k.X.k k.t.2.t.k.k.[ k.N.w.2.W ",
"r = U X.2.k k.N.X.2.N.w.K.2.w.N.2.0.}.N.H.N.2.k.k.N.( ( k.N.U X.N.X.U X.2.k.W [ k # k q r k k k `.`.N.N.N.K.W [ w.2.&.W ",
"k.X.N.`.N.( W U q r W k W p W 0.k.w.N.[ 2.t.t.I.t.N.2.2.N.N.9 9 = k k U O k r W 2.k N.N.t.W W W k.k.2.2.t.2.r r , r k U ",
"k.( t.I.k.t.W 9 k k [ W 2.k 2.}.N.2.K.k.k.W W H.2.N.k.N.N.2.k 2.N.N.2.N.W $XN.2.N.S k.I.I.N.k.t.k.t.X.2.k.N.W W w.N.`.$X",
"w.k X.H.N.2.N.k.k.k.N.H.K.X.2.2.W S K.N.t.2.( N.t.H.H.t.N.t.( H.I.H.k.N.2.`.N.2.w.W N.N.N.t.k.N.k.k.t.t.#.#.B k.I.`.@X@X",
"w.U t.`.N.X.N.N.I.H.H.H.K.X.2.2.U k N.N.k.2.2.`.N.I.t.( t.t.( H.k.t.2.N.W 2.[ X.N.[ N.N.N.N.N.N.k.k.k.k.k.#.U k.N.N.N.k.",
"w.W N.`.N.W t.k.k.t.t.t.k.[ 2.0.X.k k.k.2.( X.I.`.I.t.2.N.t.( H.t.2.k.K.S S k X.N.W 2.X.2.k.2.( k.k.k.k.k.k.U D.I.k.t.X.",
"2.W N.`.t.W t.k.t.t.t.t.N.w.`.`.2.q W W B 9 r k.I.H.t.t.H.t.B N.N.k.K.`.k q q [ t.B W k U X.W r k.k.k.k.k.k.U D.$XI.k.t."
};
