/* XPM */
static char *d050b5f5efa24905ed9f18d8f56f96a1HCXT1IPH7wGks3pF[] = {
/* columns rows colors chars-per-pixel */
"60 60 151 2 ",
"   c #3683CB",
".  c #3583D3",
"X  c #3C8AD4",
"o  c #3C8CDA",
"O  c #3F90DE",
"+  c #3D90E0",
"@  c #418ED6",
"#  c #418FDC",
"$  c #4190D5",
"%  c #4493DD",
"&  c #4997DE",
"*  c #4A99DE",
"=  c #5FA8DD",
"-  c #6CABD6",
";  c #66AEDE",
":  c #6CAEDD",
">  c #72B1DC",
",  c #4594E2",
"<  c #4997E2",
"1  c #469AE4",
"2  c #4C9CE3",
"3  c #4A96E9",
"4  c #469BE9",
"5  c #4C9BEB",
"6  c #519FE5",
"7  c #519FEA",
"8  c #4EA1E5",
"9  c #4DA3E9",
"0  c #4FA8EA",
"q  c #53A2E6",
"w  c #5CABE5",
"e  c #54A4EA",
"r  c #59A6EC",
"t  c #56AAEC",
"y  c #5BABED",
"u  c #57B1EF",
"i  c #5EB1ED",
"p  c #5DADF0",
"a  c #5BB1F1",
"s  c #62ADE4",
"d  c #69AEE1",
"f  c #61AEED",
"g  c #65B1E6",
"h  c #6BB3E5",
"j  c #63B3ED",
"k  c #6AB6EC",
"l  c #6DB9EC",
"z  c #73B5E5",
"x  c #79B7E4",
"c  c #73B9E6",
"v  c #7ABAE6",
"b  c #70B6E9",
"n  c #73BBEC",
"m  c #7BBDEB",
"M  c #60AEF0",
"N  c #63B4F0",
"B  c #6CB9F1",
"V  c #74BCF0",
"C  c #79BFF0",
"Z  c #7EC1ED",
"A  c #82BDE5",
"S  c #80BBE3",
"D  c #80BDE9",
"F  c #81BFE8",
"G  c #80BFEA",
"H  c #81BEEB",
"J  c #82BFEB",
"K  c #84BFE9",
"L  c #84BFEB",
"P  c #82BFEC",
"I  c #81BFEE",
"U  c #83C1E8",
"Y  c #81C0EB",
"T  c #80C1EB",
"R  c #83C1EA",
"E  c #83C2EB",
"W  c #85C0E8",
"Q  c #86C1E9",
"!  c #86C1EB",
"~  c #84C2EB",
"^  c #87C2EA",
"/  c #86C4EB",
"(  c #81C1ED",
")  c #82C1EC",
"_  c #83C0ED",
"`  c #83C1ED",
"'  c #83C2ED",
"]  c #82C3ED",
"[  c #80C0EE",
"{  c #81C1EF",
"}  c #80C3EE",
"|  c #82C2EE",
" . c #84C1ED",
".. c #85C0EC",
"X. c #86C1ED",
"o. c #85C3EC",
"O. c #87C2EC",
"+. c #85C2EE",
"@. c #84C3EE",
"#. c #86C3EF",
"$. c #83C4EE",
"%. c #86C4ED",
"&. c #87C5EC",
"*. c #84C5EF",
"=. c #85C4EF",
"-. c #87C5EE",
";. c #89C3E9",
":. c #88C3EB",
">. c #89C3EB",
",. c #89C5EA",
"<. c #8BC5EB",
"1. c #8AC6EB",
"2. c #8CC6EB",
"3. c #8FC7EA",
"4. c #88C3ED",
"5. c #8AC3EE",
"6. c #89C4EC",
"7. c #8AC5ED",
"8. c #8BC7EC",
"9. c #89C4EE",
"0. c #88C6EF",
"q. c #8BC6EE",
"w. c #8DC7ED",
"e. c #8DC7EC",
"r. c #8CC6EE",
"t. c #8CC7EF",
"y. c #8DC9EE",
"u. c #91C7ED",
"i. c #90C8ED",
"p. c #92C8EC",
"a. c #91C9EE",
"s. c #91C8EF",
"d. c #92C8EE",
"f. c #93C9EF",
"g. c #92CAEF",
"h. c #97C9EC",
"j. c #96CBED",
"k. c #94CAEE",
"l. c #95CBEF",
"z. c #98CAED",
"x. c #81C1F1",
"c. c #81C3F3",
"v. c #84C2F1",
"b. c #84C4F0",
"n. c #87C4F0",
"m. c #87C6F1",
"M. c #88C5F1",
"N. c #89C6F2",
"B. c #8BC9F2",
"V. c #8DC8F0",
"C. c #95CBF1",
/* pixels */
"m m z z z m I m x.z z c c z > Y q.y.q.y.q.! ! :.! ,.,.2.2.s.s.s.k.s.k.z.k.k.s.,.L G A ! ! :.! :.! B.v x : - G Y x m m G ",
"x m n m n m m m m m m x m m Y o.*.Y S t.q.t.V.q.q.q.,.t.s.s.:.:.:.u.u.C.s.s.t.q.4.*.q.q.q.*.4.*.! G z m v.m ] Y m G ] o.",
"m m m m m m m Z Z m m ] ] *.*.G *.x v m ! / q.*.o.q.t.t.4.o.m m x v o.4.o.o.*.*.q.q.q.q.o.Y o.] m x m m m x m ] ] Z m x ",
"m n m m m m m Z Z ] ] ] $.*.G m G G m m o.G v x v L 4.4.v z m z z h m v z z z x m Y Y Y m m G m m m m m m m Z Z ] ] m m ",
"n ; z m m m Z Z Z Z Z Z Z ] o.o.! q.m.M.m.o.] I ] o.o.] m m m b b h h d d h h n n n n m m m m m m m m m m b h b C n n x.",
"h g h n m c m c c h n Z Z Z m.m.M.M.m x m m m ] ] m ] m m n n b l h h h d h h l b b b b n n m m n n m m n h h l h ; z Z ",
"k l l n n l l s s = h n n l V n m m h h b b l b n n n n n n n n l h l l h l l l l b l l b n n n n n m m m n b n b h Z Z ",
"B B l l k g g s s w w k k s g h l l k l l l l V n n n n n n n n n l l l l l l l l l l l l b b b n n n n b n n n n n m m ",
"g g k k k g g j j g s k j w s k k k k k k g k k k l l n V l l l B l l l l l n l l n n n b b n n n n n b n n n n n n n m ",
"w w w w g k j j j N j k g g k w k k k k j j f s j k k l B l l l l g k l l l l h n n n n n n n n n n n l n b n n n n n b ",
"w j w w w j k k j k j j j j j k k k j j j w s s g j k k l l B k k g g g g g g k l l l l l l l l l l l l k k n n n n V n ",
"j w j j y j j g g g j j i g g B j w j j f w f j g j k k B l l g g k g k g k k l k l l l l l l l l l k k k k l l l l n n ",
"k g j j j j j j g j j N j j k k j f y w w f g j g j j j k k k k k k k k k k k k k k k k k k l l k g k k k k k k l l n n ",
"N j i i j y f w j j N N N j j g y y y y f f j j j j j j k k g k j j k k k g k k k k k k k k g k k k k k k k k k l l l l ",
"f w y y N y j j j j N i j i i y M f y y y y i j j j j k j j k j k k k k j j j j j j k j k g j j g j j j k k k k l l l l ",
"f y y y y w j j j i j N i i p y y M p y y e y i j j j j i i N N y y N j j j j j j j j j j j j j j j j j k k k k k k k k ",
"f f f y y y j j g j j j y M y y y f f M y e j j j j j k w w N q * q j j i N j f q t y j f j j j j j j g k k k k k k k k ",
"y y f y N j j j k j j y y y M y f j y M y r w y N j k y e e y 6 & 2 q e y y q q * q q t y y j j j j j j k k k k k l k k ",
"y y y f j i j j j N j y y y y y f f r M y q 6 e y N j e 6 q 6 q * & * 6 e q * * * q 6 q w t s s j j g k k k k k k k k k ",
"y y y y i i i j i j y y y y y p y y q y y q 6 q e t w * 2 6 * 2 < % 2 q q 2 * & * q 6 6 t w f w j j k k k k k l k k k k ",
"y y y y i i i j y t e e e t t y e t q q e 2 6 6 e r q 2 2 q 2 2 2 & * q 6 q 2 6 2 * 2 2 q q s g g k k k k k k k k l k k ",
"y j y y i j i i t e q q q e q 6 q q q 2 6 < 2 2 q e 2 q 2 e r q 6 2 6 q q e 6 r e q * 2 2 e j f g k k k k B l l l l l l ",
"y y y j i i i w r e q 2 q q q 2 2 2 6 & q e 2 < & 2 2 6 2 q q 6 6 q e e e q 6 q e q q q q t y j j j j k k k k k l l n n ",
"y y y y i i y y t r q 2 q q 2 2 2 < e 2 2 y 2 & < < 2 2 < 2 2 2 2 q q q 2 & * * q q q q q r w j i j j k j k k k l l l n ",
"t y y a i i y y y y e q e e q 2 6 2 r e 6 y 2 q 6 * * 2 & 2 2 2 * 6 e 6 < @ 2 2 2 q q q e r y f y i j j g g j k k k k k ",
"y y y y y y y y y y y e r r e e e q e e r t q y t 6 * 6 < < & 2 q q y r < & e y q t e q e y y y y f f f g g g g j k k k ",
"y y y y y y p y y y y y r t r y e e r q r y t y t e * 2 2 2 < 2 e q t y q 2 r y t y t e t y y y y f f f f j j j j j k k ",
"y y y y y y y y y y y y y y y y r e y e e y y y y y t 2 2 q 2 6 q q t y r q e t t y t r y t y w y y y y f f j s j j g j ",
"y a y y y y p r q p y y y y y y y r r y r y y y M j p q 2 e q q e e t y r e e r t t t y y y f y t y y y y w j j j g g j ",
"y y y p a t y q 2 y y y y y y r r r r y p y y y y j j y y y y y y t y y y t t y t y y y y y y y y y y w y y f s g k k j ",
"y y p y y 8 e 2 2 y y y r y y r r r r y y y y y y y y y a y y y y w y p y y y y t y y y f y y y y y y y w f j f g g j j ",
"p q t t q 2 2 < % 6 e r 6 r r r r y y y y y y M j y y y y y y y y i y y y y y y y y y y y y y y y y y y f j j j j j j j ",
"y t 2 2 2 < < < # & 2 q & 6 e q r y y y y y y y y y y y i i y y y y y y y y y y y y y y y y y r y f y f j j g g j f f j ",
"y t q < 6 6 & 2 % % & < % 6 6 6 q r e r y t t r t f y y i i y y y y y y y y y y y y y y y y y y y y f f j j j j f f j j ",
"y t t q e e < 5 < % < < % 7 6 2 2 q 6 q y t 2 2 y y y y y y p y y y y y y y y y y y y y y y y y y y y y j f j y y a y j ",
"y y r e t r 6 q 7 & < & < 2 2 & < 2 2 e y r & % y q y y y y y y y y y y y t t t y y y y y y y y y t y y y y p y y y y y ",
"y y r e t r q e 7 6 2 & 6 q 2 & 2 < < 2 6 e % @ e & e e q * e e e y y y y y y y y y y y t t y y y q y y y p p y y y y i ",
"y y r r y e e e e e 6 2 e e 6 % q 2 & < & < X @ & % 2 2 & & q q q r e y y y y y y y y y y t y y y q t e r y y y y y y j ",
"t t t y t y y e q 7 6 2 e q q & q q 2 2 % < % % % % < & % & < < 2 2 2 t y y y y y y y r r r e q t q q q r y y e y y N N ",
"y t t y t p y q q q 6 2 q q e < 2 e q 2 % % % % % % < < < < 2 < < 2 e y y y y y y y y y r r 6 2 q 2 < 2 8 r q 2 e e q y ",
"t t p y y r r e e q 6 2 q q 7 2 q e q 2 & & & % @ @ % , 2 2 q 2 2 r y y y y y y y y t y t r 2 2 e 2 < 2 < 2 2 * 2 q & $ ",
"t t y y y r r r r e r r r r e q r q q q 2 q e < 2 2 < 2 6 e q q e t t y y y y y y t r r r r q 6 e q 2 2 * * 2 * & 2 &   ",
"y y y y r r r r p y y p y t y y y t e y e 6 e q e r e r q e r r e e r y y y y y y y r r r e e e e q 6 q < < < * & < % X ",
"e r y y r r r r y r r y y y y y y y t e q 2 7 2 2 e e e e q e e t t t y y y y y t y y t y y t r q 2 2 2 < & < < & & % % ",
"2 r r r r r r f y y y y y y y y y y y q e 2 2 7 2 q q 2 9 8 y y y y y y y y y y y y y y y y y y y 2 2 2 < , < & < & % & ",
"2 e e r r r r y y y y y y y y y t y y q q 2 < q 2 q < * 2 q y y r r e e y y y r y y y y y y y e y q 2 q q 1 2 2 < < < < ",
"2 e q e e e r y y y y y y y y t q t e q 2 2 < q 2 2 2 & 2 q e 2 q q q e y y y r y y y y y y y e r e q q e 2 8 q 2 2 2 2 ",
"7 e q e e r y y y y y y y y y y q q q 2 2 8 < q 2 2 < 2 2 2 2 < q e e r r r y y t y y y y y y r r r r q y q e e q e 8 q ",
"q e q r r y y y y y y r t y t y y q t t 8 t 8 8 8 < 2 2 2 2 2 2 q t y y p r y y y y y r t y y t r t y e t y r y y y e e ",
"q q q r t y t t e r e t t t y y y y y a t t t t p q t e e q q r t t y r p p r y y y e q e y y y r y y y y y y y y y y t ",
"y e e t y y y r y t t t t t t t a t t u u u a a y t t y y r t t t t y e r r r y y e e e y y y y y y y y y t y y y t y y ",
"M p y y y y t r t t t t t t t t t t t t u u u t y t t t t t r r t t y y r r r p r q r y y y y y y y y p y q q y y q y t ",
"y y y y y t e t t t t t t 0 9 9 t t t t u a q 8 t t y t r e e r e e r r e r e e q q r r p y p y y p p y y e 6 y e 8 y 6 ",
"p y y y y r e t t t t t t t 9 9 9 t 9 9 a t 1 1 e e q 9 5 5 3 2 7 9 e 7 5 5 5 5 5 5 5 e r e e e r r p e e y q q q q e * ",
"y y y y e y t t t t t q t 8 8 2 8 q 2 % 9 < & 1 9 e 2 2 5 3 , , 5 5 5 5 7 5 5 5 5 5 7 e 9 2 7 5 7 7 q 2 2 6 2 2 6 q < & ",
"y t r r e e t e t t t q t 2 8 2 1 2 1 O % % , % , 2 , 3 5 , , 5 5 5 5 5 5 5 5 5 5 3 5 7 2 < 4 4 2 < < < < & 2 2 7 2 & < ",
"r r r r t e e e e t 9 2 q 2 9 2 1 % , % # % % o % , # % , , , 5 5 5 5 5 5 5 3 3 5 , 3 7 2 1 3 3 5 , 2 2 < < 2 2 7 q , < ",
"r y r r t t e e e 0 9 2 2 4 9 2 1 % % % o % O o # , . X , o , 5 5 5 5 5 5 5 3 3 3 3 3 5 2 2 3 4 1 3 1 1 , < < 2 5 5 < & ",
"t t r e e t e e 0 9 0 2 1 9 9 2 , O o % O , O o + X . o o X , 5 5 5 5 5 5 3 3 5 3 5 5 3 2 2 4 4 4 1 1 1 1 2 5 5 5 5 < 2 ",
"t t q e q q e 9 9 1 9 9 1 4 2 1 % O o % O , + o , X o o o o , 3 5 5 5 5 5 5 5 5 5 5 2 < 2 2 1 5 1 3 4 3 2 1 5 5 5 5 2 < "
};
