/* XPM */
static char *result[] = {
/* columns rows colors chars-per-pixel */
"50 60 107 2 ",
"   c #E62F0B",
".  c #E6310B",
"X  c #E8360B",
"o  c #E83B0B",
"O  c #EA440B",
"+  c #EB4B0C",
"@  c #ED560C",
"#  c #EE5C0B",
"$  c #EF630C",
"%  c #F16B0C",
"&  c #F2730C",
"*  c #F47D0C",
"=  c #F5820C",
"-  c #F7880F",
";  c #F68510",
":  c #F78A11",
">  c #F88D13",
",  c #F68D1B",
"<  c #F98F1B",
"1  c #F99215",
"2  c #FA9619",
"3  c #FB9C1C",
"4  c #FDA21F",
"5  c #F69222",
"6  c #FB9D23",
"7  c #F79628",
"8  c #F89C2C",
"9  c #FEA621",
"0  c #FFA924",
"q  c #FFAD2A",
"w  c #FFB02F",
"e  c #F9A237",
"r  c #FCAF3C",
"t  c #FFB333",
"y  c #FFB539",
"u  c #FFB93D",
"i  c #FAAC43",
"p  c #FAAE48",
"a  c #FFBC43",
"s  c #FCB54B",
"d  c #FFBC4C",
"f  c #FBB550",
"g  c #FDBB53",
"h  c #FEBE5B",
"j  c #FFC147",
"k  c #FFC34C",
"l  c #FFC253",
"z  c #FFCA55",
"x  c #FEC35E",
"c  c #FFCE5B",
"v  c #FFD05F",
"b  c #FEC465",
"n  c #FFCA63",
"m  c #FDC668",
"M  c #FFCD6A",
"N  c #FFD363",
"B  c #FFD669",
"V  c #FFDA6E",
"C  c #FECD73",
"Z  c #FFCC7B",
"A  c #FFD173",
"S  c #FFDE73",
"D  c #FFD67C",
"F  c #FEDD7B",
"G  c #FFE076",
"H  c #FFE27A",
"J  c #FFD683",
"K  c #FFD983",
"L  c #FFD68B",
"P  c #FFDC8D",
"I  c #FFD797",
"U  c #FFDF96",
"Y  c #FFDF98",
"T  c #FFE683",
"R  c #FFE98D",
"E  c #FFE295",
"W  c #FEE990",
"Q  c #FFE39C",
"!  c #FFED9D",
"~  c #FFDEA3",
"^  c #FFE4A4",
"/  c #FFEDA3",
"(  c #FFE4AD",
")  c #FFECAB",
"_  c #FFF1AE",
"`  c #FFE5B3",
"'  c #FFE9B2",
"]  c #FFE5BB",
"[  c #FFEABD",
"{  c #FFF2B7",
"}  c #FFF5BD",
"|  c #FFF8BE",
" . c #FFE6C2",
".. c #FFEAC4",
"X. c #FFEDCB",
"o. c #FFF6C3",
"O. c #FFF8C1",
"+. c #FFF5CB",
"@. c #FFEFD4",
"#. c #FFF4D3",
"$. c #FFF4DB",
"%. c #FFF5E4",
"&. c #FFF8E7",
"*. c #FFF6EA",
"=. c #FFF8ED",
"-. c #FFFAF3",
";. c None",
/* pixels */
";.;.;.;.;.;.;.;.;.;.;.;.;.;.;.;.;.;.;.;.;.;.;.;.;.;.;.;.;.;.;.;.;.;.;.;.;.;.;.;.;.;.;.;.;.;.;.;.;.;.",
";.;.;.;.;.;.;.;.;.;.;.;.;.;.;.;.;.;.;.;.O.o.o.o.+.+.o.o.o.O.O.;.;.;.;.;.;.;.;.;.;.;.;.;.;.;.;.;.;.;.",
";.;.;.;.;.;.;.;.;.;.;.;.;.;.;.;.;.| o.+.+.#.$.#.#.$.#.$.#.#.+.+.O.O.;.;.;.;.;.;.;.;.;.;.;.;.;.;.;.;.",
";.;.;.;.;.;.;.;.;.;.;.;.;.;.;.O.o.+.#.#.+.o.o...+.#.#.X.#.$.$.#.#.+.O.O.;.;.;.;.;.;.;.;.;.;.;.;.;.;.",
";.;.;.;.;.;.;.;.;.;.;.;.;.} o.#.+.o.) Q Q Q ^ ^ ^ ^ ( ` [ [ +.#.$.$.#.+.O.;.;.;.;.;.;.;.;.;.;.;.;.;.",
";.;.;.;.;.;.;.;.;.;.;.;.{ +.o.[ E D n x N D D J K D K L E ^ ( ` ..X.#.$.#.+.| ;.;.;.;.;.;.;.;.;.;.;.",
";.;.;.;.;.;.;.;.;.;.;.{ o.{ E B l a a u a s s i i i p f h C K E ( ]  .#.#.$.+.} ;.;.;.;.;.;.;.;.;.;.",
";.;.;.;.;.;.;.;.;.;./ { ) D l u t t 0 5 1 , , , ; , , 5 7 e f m P E ]  .+.#.$.+.O.;.;.;.;.;.;.;.;.;.",
";.;.;.;.;.;.;.;.;.W ! W n a y q 0 2 = = = = = = = = = = ; , 5 e g D U ( ] X.#.#.+.O.;.;.;.;.;.;.;.;.",
";.;.;.;.;.;.;.;.T T F l y t q 3 : = = = = = = = = = = = = 1 4 q y k C P (  .X.#.#.+.O.;.;.;.;.;.;.;.",
";.;.;.;.;.;.;.H H V u w q 9 1 = = = = = = = = = = = = - 3 0 0 0 q t d M ( &.=.%.$.#.O.;.;.;.;.;.;.;.",
";.;.;.;.;.;.H H V y 0 q 4 - = = = = = = = = = = = = - 9 0 0 0 0 0 q w d ] =.-.-.-.&.#.o.;.;.;.;.;.;.",
";.;.;.;.;.;.H G u 0 0 4 - = = = = = = = = = = = = = 4 0 0 0 0 0 0 0 0 y ] *.=.-.-.-.%.+.O.;.;.;.;.;.",
";.;.;.;.;.H H k 0 0 4 - = = = = = = = = = = = = = 1 0 0 0 0 0 0 0 0 0 q ~ %.%.-.-.-.=.$.o.;.;.;.;.;.",
";.;.;.;.;.H B w 0 9 1 = = = = = = = = = = = = = = 4 0 0 0 0 0 0 0 0 0 0 Z $.%.&.-.-.-.&.#.O.;.;.;.;.",
";.;.;.;.H G a 4 0 2 = = = = = = = = = = = = = = = 9 0 0 0 0 0 0 0 0 0 4 s X.$.%.-.-.-.-.$.+.| ;.;.;.",
";.;.;.;.H N 0 0 4 = = = = = = = = = = = = = = = - 4 0 0 0 0 0 0 0 0 0 9 q I %.$.%.-.-.*.#.#.o.;.;.;.",
";.;.;.H G u 0 0 1 = = = = = = = * = = = = = = * - 0 0 0 0 0 0 0 0 0 0 0 9 g X.$.%.*.-.*.@.#.+.;.;.;.",
";.;.;.H N q 0 4 = = = = = = = = = = = = = = = = : 0 0 0 0 0 0 0 0 0 0 0 9 0 L $.%.*.-.-.#.#.+.o.;.;.",
";.;.H H k 9 0 1 = = = = = = = = = = = = = = = = : 0 0 0 0 0 0 0 0 0 0 0 0 9 y ` %.%.*.-.X.X.#.o.;.;.",
";.;.H G w 0 4 - = = = = = = = = = = * = = = = * - 0 0 0 0 0 0 0 0 0 0 0 0 0 9 g  .%.=.%.....#.+.;.;.",
";.;.H v 0 0 3 = = = = = 1 1 = = = = = = = = = = = 4 0 0 0 0 0 0 0 0 0 0 0 0 9 q g ~ ..` ]  .#.+.| ;.",
";.;.H k 0 0 1 = = = = : 4 : = = = = = = = = = = = 4 0 0 0 0 0 0 0 0 0 0 0 0 0 w r m Q ^ ]  .X.#.O.;.",
";.H H u 0 0 : = = = = 4 9 : = = = = = = = = = = = 1 0 0 0 0 0 0 0 0 0 9 q 9 9 q y C Y ] ]  .X.#.+.;.",
";.H V w 0 4 - = = = 1 0 9 = = = = = = = = = = = = : 4 0 0 0 0 0 0 0 0 0 0 0 0 0 d X.` ^ ]  . .#.+.;.",
";.H B q 0 4 = = = = 3 0 4 - = = = = = = = = = = % = 4 0 0 0 0 0 0 0 0 0 0 0 0 9 b $.#.Q `  . .#.+.;.",
";.H N 0 0 3 = = = : 9 0 9 - = = = = = = = = = = + % > 4 0 0 0 0 0 0 0 0 0 0 0 9 h $.$.U ^  . .#.+.;.",
";.H v 0 0 3 = = = 1 0 0 4 = = = = = = = = = - & X $ - 3 0 0 0 0 0 0 0 0 0 0 0 9 r  . .A U ]  .#.#.O.",
";.H z 0 0 3 = = = 3 0 0 9 = = = = = = = & & & @ . O % * 2 0 0 0 0 0 0 0 0 0 0 0 9 h m l J ]  .@.#.O.",
";.H z 4 0 3 = = = 9 0 0 9 - = = = = = = % o . .   . . . # 3 0 0 0 0 0 0 0 0 0 0 0 9 q d C `  .X.#.O.",
";.H z 0 0 3 = = = 9 0 0 9 : = = = = = = = % o       . @ = = 3 0 0 0 0 0 0 0 0 0 0 0 q y m ^  .+.#.O.",
";.H z 0 0 3 = = = 9 0 0 0 1 * = = = = = = ; $       + = = = = 2 9 0 0 0 0 0 0 0 0 0 9 8 h Q  .#.#.O.",
";.H v 0 0 4 = = - 4 0 0 0 3 = = = = = = = = # . X   O = = = = = = 1 4 0 0 0 0 0 0 4 > 5 h U ] @.#.| ",
";.H v 0 0 4 - = : 4 0 0 0 4 - = = = = = = = O O % @ o & = = = = = = = 1 3 3 3 1 > = = 5 f P ] +.+.O.",
";.H B w 0 0 - = : 0 0 0 0 0 1 = = = = = = * # & = = # % = = = = = = = = = = = = = = = 5 f P ] #.+.;.",
";.H V w 4 0 1 = : 4 0 0 0 4 4 = = = = = = = = = = = = * = = = = = = = = = = = = = = = , f P [ #.O.;.",
";.H H u 0 0 2 = - 0 0 0 0 0 0 1 = = = = = = = = = = = = = = = = = = = = = 3 = = = = = , f P [ +.} ;.",
";.H H k 0 0 4 = - 4 0 0 0 0 0 4 - = = = = = = = = = = = = = = = = = = = > 9 > = = = = 5 g L ..} _ ;.",
";.;.H N 0 0 0 > = 3 0 0 0 0 0 0 4 - = = = = = = = = = = = = = = = = = - 4 0 1 = = = = 6 d J } _ ;.;.",
";.;.H V w 0 0 3 = 1 0 0 0 0 0 0 0 4 - = = = = = = = = = = = = = = = - 4 0 0 1 = = = ; 9 a A / ! ;.;.",
";.;.H H j 4 0 4 - - 0 0 0 0 0 0 0 0 0 1 = = = = = = = = = = = = = : 4 0 0 0 1 = = = : q t B W R ;.;.",
";.;.H H v q 0 q 2 - 4 0 0 0 0 0 0 0 0 0 3 > = = = = = = = = = 1 3 4 0 0 0 4 : = = = 3 0 t V T T ;.;.",
";.;.;.H H u 4 0 4 1 1 0 0 0 0 0 0 0 0 0 0 0 4 2 - - 1 1 1 1 4 4 0 0 0 0 0 4 - = = > 0 0 a H H ;.;.;.",
";.;.;.H H c 0 0 0 4 > 4 0 0 0 0 0 0 0 0 0 0 0 0 0 4 4 0 0 4 0 0 0 0 0 0 0 4 = = = 3 0 0 N H H ;.;.;.",
";.;.;.;.H H u 4 0 0 2 3 0 0 0 0 0 0 0 0 0 0 0 0 0 0 0 0 0 0 0 0 0 0 0 0 0 1 = = 1 0 0 a H H ;.;.;.;.",
";.;.;.;.H H N q 4 0 4 3 0 0 0 0 0 0 0 0 0 0 0 0 0 0 0 0 0 0 0 0 0 0 0 0 4 - * : 9 0 q B H H ;.;.;.;.",
";.;.;.;.;.H H k 0 0 0 0 4 0 0 0 0 0 0 0 0 0 0 0 0 0 0 0 0 0 0 0 0 0 0 0 2 = - 0 0 0 z H H ;.;.;.;.;.",
";.;.;.;.;.H H G u 4 0 0 0 0 0 0 0 0 0 0 0 0 0 0 0 0 0 0 0 0 0 0 0 0 0 4 = 1 4 0 4 a S H H ;.;.;.;.;.",
";.;.;.;.;.;.H H B w 0 0 0 0 0 0 0 0 0 0 0 0 0 0 0 0 0 0 q 0 0 0 0 0 4 1 1 4 0 4 t S H H ;.;.;.;.;.;.",
";.;.;.;.;.;.;.H H v w 4 0 0 0 0 0 0 0 0 0 0 0 0 0 0 0 0 0 0 0 0 0 4 3 4 4 0 0 t V H H ;.;.;.;.;.;.;.",
";.;.;.;.;.;.;.H H H v w 0 0 0 0 0 0 0 0 0 0 0 0 0 0 0 0 0 0 0 0 4 4 4 4 0 4 t B H H H ;.;.;.;.;.;.;.",
";.;.;.;.;.;.;.;.H H H B t 4 0 0 0 0 q 0 0 0 0 0 0 0 0 0 0 4 4 4 4 0 0 0 0 u V H H H ;.;.;.;.;.;.;.;.",
";.;.;.;.;.;.;.;.;.H H H V j 0 0 0 q 0 0 0 0 0 0 0 0 0 0 0 0 0 0 0 0 4 q j S H H H ;.;.;.;.;.;.;.;.;.",
";.;.;.;.;.;.;.;.;.;.H H G G v t 0 4 0 q 0 0 0 0 0 0 0 0 0 0 0 0 0 0 y v G H H H ;.;.;.;.;.;.;.;.;.;.",
";.;.;.;.;.;.;.;.;.;.;.H H H H S z t 0 4 0 4 0 0 0 0 0 0 4 4 0 0 t v G H H H H ;.;.;.;.;.;.;.;.;.;.;.",
";.;.;.;.;.;.;.;.;.;.;.;.;.H H H G S v j y w 0 0 0 0 0 0 w y j v G G H H H ;.;.;.;.;.;.;.;.;.;.;.;.;.",
";.;.;.;.;.;.;.;.;.;.;.;.;.;.H H H H H H G B v v v v v v B G H H H H G H ;.;.;.;.;.;.;.;.;.;.;.;.;.;.",
";.;.;.;.;.;.;.;.;.;.;.;.;.;.;.;.G H H H H H H H H H H H H H H H G H ;.;.;.;.;.;.;.;.;.;.;.;.;.;.;.;.",
";.;.;.;.;.;.;.;.;.;.;.;.;.;.;.;.;.;.;.H H H H H H H H H H H H ;.;.;.;.;.;.;.;.;.;.;.;.;.;.;.;.;.;.;.",
";.;.;.;.;.;.;.;.;.;.;.;.;.;.;.;.;.;.;.;.;.;.;.;.;.;.;.;.;.;.;.;.;.;.;.;.;.;.;.;.;.;.;.;.;.;.;.;.;.;."
};
