/* XPM */
static char *result[] = {
/* columns rows colors chars-per-pixel */
"49 60 117 2 ",
"   c #E62E0B",
".  c #E6320B",
"X  c #E7380B",
"o  c #E83C0B",
"O  c #E9420B",
"+  c #EC4D0B",
"@  c #ED530B",
"#  c #EF5C0C",
"$  c #EF610D",
"%  c #F16C0C",
"&  c #F3740C",
"*  c #F47D0C",
"=  c #F5830C",
"-  c #F7880F",
";  c #F68612",
":  c #F78A13",
">  c #F88D13",
",  c #F68D1C",
"<  c #F99216",
"1  c #FA9619",
"2  c #FC9C1C",
"3  c #FDA21F",
"4  c #F68F21",
"5  c #F69326",
"6  c #FA9B23",
"7  c #F7962B",
"8  c #F7982D",
"9  c #F79D34",
"0  c #F79F38",
"q  c #FEA621",
"w  c #FFA924",
"e  c #FFAC2A",
"r  c #FFB02F",
"t  c #F9A434",
"y  c #FEAE33",
"u  c #F7A13A",
"i  c #FFB133",
"p  c #FFB53A",
"a  c #FFBB3F",
"s  c #F8A641",
"d  c #FAAD41",
"f  c #F8AD4B",
"g  c #FFB543",
"h  c #FFBD44",
"j  c #FBB34A",
"k  c #FFBD4C",
"l  c #F9B354",
"z  c #FEBC52",
"x  c #F9B85D",
"c  c #FABD63",
"v  c #FABF68",
"b  c #FFC24C",
"n  c #FFC352",
"m  c #FFCA56",
"M  c #FFC55B",
"N  c #FFCE5C",
"B  c #FEC362",
"V  c #FFC963",
"C  c #FBC36B",
"Z  c #FDCA6B",
"A  c #FFD364",
"S  c #FFD669",
"D  c #FFDA6D",
"F  c #FBC773",
"G  c #FBCA75",
"H  c #FBCC7C",
"J  c #FFD274",
"K  c #FFDD73",
"L  c #FFD57C",
"P  c #FFE077",
"I  c #FFE37B",
"U  c #FDCF84",
"Y  c #FCD284",
"T  c #FFDB83",
"R  c #FDD38A",
"E  c #FFDC8B",
"W  c #FDD692",
"Q  c #FFDE93",
"!  c #FCD79E",
"~  c #FDD99C",
"^  c #FFE583",
"/  c #FFE68A",
"(  c #FFE98D",
")  c #FFE497",
"_  c #FFEB95",
"`  c #FFE19C",
"'  c #FFEC9C",
"]  c #FDDAA4",
"[  c #FDDBAB",
"{  c #FDDAB6",
"}  c #FDDBBA",
"|  c #FFE4A6",
" . c #FFEDA3",
".. c #FFE3AB",
"X. c #FFEDAE",
"o. c #FFF0AA",
"O. c #FFE4B4",
"+. c #FFEEB1",
"@. c #FFE3BE",
"#. c #FFEABD",
"$. c #FFF3B5",
"%. c #FFF4BB",
"&. c #FFE6C1",
"*. c #FFE9C5",
"=. c #FFEDCC",
"-. c #FFF5C3",
";. c #FFF4CC",
":. c #FFEDD6",
">. c #FFEFD9",
",. c #FFF4D3",
"<. c #FFF3DC",
"1. c #FFF4E3",
"2. c #FFF8E5",
"3. c #FFF7E9",
"4. c #FFF8EC",
"5. c #FEF9F1",
"6. c None",
/* pixels */
"6.6.6.6.6.6.6.6.6.6.6.6.6.6.6.6.6.6.6.6.6.6.6.6.6.6.6.6.6.6.6.6.6.6.6.6.6.6.6.6.6.6.6.6.6.6.6.6.6.",
"6.6.6.6.6.6.6.6.6.6.6.6.6.6.6.6.6.6.6.6.%.%.%.%.%.%.%.%.$.$.6.6.6.6.6.6.6.6.6.6.6.6.6.6.6.6.6.6.6.",
"6.6.6.6.6.6.6.6.6.6.6.6.6.6.6.6.6.%.%.-.;.;.;.,.,.,.,.,.;.-.-.%.$.6.6.6.6.6.6.6.6.6.6.6.6.6.6.6.6.",
"6.6.6.6.6.6.6.6.6.6.6.6.6.6.6.%.-.;.,.,.,.,.,.:.,.;.,.,.,.<.,.;.-.%.6.6.6.6.6.6.6.6.6.6.6.6.6.6.6.",
"6.6.6.6.6.6.6.6.6.6.6.6.6.%.-.,.,.,.,.*.&.&.&.@.@.@.@.&.*.=.,.,.,.;.-.$.6.6.6.6.6.6.6.6.6.6.6.6.6.",
"6.6.6.6.6.6.6.6.6.6.6.$.%.;.,.:.=.*.#.@.@.&.@.&.@.@.@.@.#.@.@.*.=.,.,.-.o.' 6.6.6.6.6.6.6.6.6.6.6.",
"6.6.6.6.6.6.6.6.6.6.$.%.;.,.=.&.@.@.@.@.@.} @.} } } } @.@.@.@.@.@.*.;.;.o._ _ 6.6.6.6.6.6.6.6.6.6.",
"6.6.6.6.6.6.6.6.6.%.-.,.,.*.@.&.@.@.@.} } } } } } } { [ ] ] ] ....O.@.| ) ' '  .6.6.6.6.6.6.6.6.6.",
"6.6.6.6.6.6.6.6.%.-.,.;.&.@.@.@.} } { } } { } { { ! W Y H G G G Y E Q L V T +.-.%.6.6.6.6.6.6.6.6.",
"6.6.6.6.6.6.6.%.-.,.;.@.@.@.@.} } { } } } { { ! R H C l j j k k n M M k k M ` ,.;.%.6.6.6.6.6.6.6.",
"6.6.6.6.6.6.%.-.,.*.&.@.@.@.} { } } } } } [ W H c f u t i i r i i p i p R &.#.;.<.;.%.6.6.6.6.6.6.",
"6.6.6.6.6.6.%.,.=.&.@.@.} } } } } } { { ] Y C f 9 5 6 e e w w w w e w k =.1.1.3.2.,.-.%.6.6.6.6.6.",
"6.6.6.6.6.%.;.=.&.&.@.} } } { { } } { ] Y c u 5 : 1 q w w w w w w w q B >.>.>.1.4.4.,.-.6.6.6.6.6.",
"6.6.6.6.6.-.,.*.@.@.@.} } } } } } } ] U x u , ; ; 2 e w w w w w w w 3 n :.>.>.1.4.5.2.;.%.6.6.6.6.",
"6.6.6.6.-.,.*.@.@.@.} } } } } } } ] Y x u , = = : q w w w w w w w w q i @.:.>.>.4.5.4.,.-.6.6.6.6.",
"6.6.6.%.-.,.&.@.&.} } } } } } { { W c 9 , = = = 1 e w w w w w w w w w w R >.:.,.2.4.4.<.-.%.6.6.6.",
"6.6.6.-.,.*.@.&.} } } } } { } { ~ F u 5 ; = = = 1 w w w w w w w w w w 3 z =.>.>.<.3.4.1.,.-.6.6.6.",
"6.6.$.-.=.&.@.@.} } } } } { } [ Y l 5 : = = = = 2 w w w w w w w w w w w w ] >.:.>.1.3.<.=.-.$.6.6.",
"6.6.%.,.=.@.&.} } { { } } { { W C 0 , ; = = = = 2 w w w w w w w w w w w 3 z =.>.>.<.3.1.=.;.$.6.6.",
"6.6.-.=.&.@.&.} { } { } } } [ U f 5 ; = = = = = 2 w w w w w w w w w w w w w Y >.>.>.4.1.*.-.%.6.6.",
"6.$.;.=.*.&.} } } } } } } { ! C 9 , = = = = = * 1 w w w w w w w w w w w w w e W >.1.4.:.@.-.%.$.6.",
"6.-.,.*.} @.} } } } } } } [ R l 5 ; = = = = = = 1 w w w w w w w w w w w w w w e Z [ | ` @.*.-.$.6.",
"6.-.,.*.&.@.} } } } } } @.] G s , = = = = = = = - w e w w w w w w w w w w w w w w i M E O.*.;.$.6.",
"6.-.;.@.} } } } } } } } @.~ C 9 : = = = = = = = - 3 w w w w w w w w w w w w w w e i n R ..&.,.-.6.",
"%.-.;.&.@.} } } { } } &.} W x 8 ; = = = = = = = = 2 w w w w w w w w w w w w w 3 Z ~ M L ..O.-.;.%.",
"%.;.*.@.@.} } } } } &.&.{ R l 5 = = = = = = = * * > w w w w w w w w w w w w w e ] 1.R V ....+.-.%.",
"%.;.*.@.@.} } } { @.&.&.O.R l 5 - = = = = = = % # = 2 w w w w w w w w w w w q e [ 1.] z L E | ;.%.",
"%.,.*.&.@.} } } { @.@.@.{ W x 7 : = = = = = : @ O * > w w w w w w w w w w w w q U 1.~ a k V T -.$.",
"-.,.&.@.&.} } } } &.@.@.} ] v 9 ; = = = = = * O . % * 1 w w w w w w w w w w w w g W z e e k J $.%.",
"-.,.&.@.&.} } } { @.@.@.} ] v 9 , = = * @ O X . . X O + ; w w w w w w w w w w w q e w 1 2 p V X.$.",
"-.,.&.&.&.} } } { &.@.@.&.] v 9 : = = = % o   . .   . # = 1 w w w w w w w w w w w w w > 1 i n  .o.",
"%.,.&.&.&.} } } @.@.@.&.} ] x 9 ; = = = = & X   . . $ = = = , q w w w w w w w w w w 2 - 1 e h / ' ",
"%.,.*.@.&.} } } @.@.@.O...G s 5 - = = = = * O .   . % = = = = - 1 3 w w q e w w w 2 - = 1 w a ^ ( ",
"%.;.*.@.@.} } } @.@.O.) L j 7 , = = = = = & . O @ . # = = = = = = - > 3 q q 3 2 1 = = = 2 3 a I ( ",
"%.-.*.@.@.} } { { | E Z n y , - = = = = = # + * = # + * = = = = = = = = = - = = = = = = 3 w h I ^ ",
"$.-.*.@.@.@.{ [ ) L V h p e > = = = = = = * = = = = & = = = = = = = = = = = = = = = = = 3 w b I I ",
"$.-.=.&.@.O.~ U Z n a y e w 2 = = = = = = = = = = = = = = = = = = = = = - > = = = = = - w w N I 6.",
"6.$.-.@...~ G l d p e e q w w > = = = = = = = = = = = = = = = = = = = = 2 2 = = = = = 1 3 r D I 6.",
"6. .%.| / J l 8 6 e w w w w w q > = = = = = = = = = = = = = = = = = = > q 3 = = = = = 3 w i P I 6.",
"6.'  .T V z y > : 3 w w w w w w 3 - = = = = = = = = = = = = = = = = - 3 e 3 - = = = - w 3 b I I 6.",
"6.6./ K g i e < - 2 w w w w w w w w < = = = = = = = = = = = = = = > 3 w w 3 = = = = 1 3 w A I 6.6.",
"6.6.^ P p w w 3 - 1 w w w w w w w w 3 2 - = = = = = = = = = = - < q w w w 2 = = = = 3 w p P I 6.6.",
"6.6.I I b w w w < : q w w w w w w w w w 3 2 > - = = = = = - 2 3 q w w w w 1 = = = < q w m I I 6.6.",
"6.6.P I S r w w 3 : 2 w w w w w w w w w w w w 3 3 1 2 3 3 w w w w w w w w < = = - 3 w r K I I 6.6.",
"6.6.6.I I b w w w 1 < q w w w w w w w w w w w w 3 w w w w w w w w w w w 3 - = = 1 w w b I I 6.6.6.",
"6.6.6.I I D r q w w 1 3 w w w w w w w w w w w w w w w w w w w w w w w w 1 = = > w 3 p P I I 6.6.6.",
"6.6.6.6.I I m w w w q 3 w w w w w w w w w w w w w w w w w w w w w w w q < = - 3 w w N I I 6.6.6.6.",
"6.6.6.6.I I P h w w w w w w w w w w w w w w w w w w w w w w w w w w w 2 = > 3 w 3 b I I I 6.6.6.6.",
"6.6.6.6.6.I I K p 3 w w w w w w w w w w w w w w w w w w w w w w w w q : > q w q p K I I 6.6.6.6.6.",
"6.6.6.6.6.6.I I A i 3 w w w w w w w w w w w w w w w w w w w w w w w 1 < 3 w q i D I I 6.6.6.6.6.6.",
"6.6.6.6.6.6.I I I N e q w w w w w w w w w w w w w w w w w w w w q 1 3 w w w i A I I I 6.6.6.6.6.6.",
"6.6.6.6.6.6.6.I I I N i w w w w w w w w w w w w w w w w w w w 3 2 q w w q i S I I I 6.6.6.6.6.6.6.",
"6.6.6.6.6.6.6.6.I I I S p w q w w w w w w w w w w w w w w 3 w 3 w w w w a S I I I 6.6.6.6.6.6.6.6.",
"6.6.6.6.6.6.6.6.6.I I I K b e w w w w w w w w w w w w w w w w w w w e n K I I I 6.6.6.6.6.6.6.6.6.",
"6.6.6.6.6.6.6.6.6.6.I I P I A h w w w w w w w w w w w w w w 3 w w h D I I I I 6.6.6.6.6.6.6.6.6.6.",
"6.6.6.6.6.6.6.6.6.6.6.6.P I I P A b r w w 3 w 3 3 w 3 w 3 w r b A P I I I I 6.6.6.6.6.6.6.6.6.6.6.",
"6.6.6.6.6.6.6.6.6.6.6.6.6.I I I I I D N b a p i i i p a b A K I I P I I 6.6.6.6.6.6.6.6.6.6.6.6.6.",
"6.6.6.6.6.6.6.6.6.6.6.6.6.6.I I I I I I I P P D K D P P I I I I I I I 6.6.6.6.6.6.6.6.6.6.6.6.6.6.",
"6.6.6.6.6.6.6.6.6.6.6.6.6.6.6.6.6.I I I P I I I I I I P I I P P 6.6.6.6.6.6.6.6.6.6.6.6.6.6.6.6.6.",
"6.6.6.6.6.6.6.6.6.6.6.6.6.6.6.6.6.6.6.6.I P I I I I I I I 6.6.6.6.6.6.6.6.6.6.6.6.6.6.6.6.6.6.6.6."
};
