/* XPM */
static char *result[] = {
/* columns rows colors chars-per-pixel */
"54 60 114 2 ",
"   c #E62E0B",
".  c #E6320B",
"X  c #E93C0C",
"o  c #EA430B",
"O  c #EC4E0B",
"+  c #ED550B",
"@  c #EE5D0B",
"#  c #EF620C",
"$  c #F0650B",
"%  c #F16C0C",
"&  c #F2730C",
"*  c #F47C0C",
"=  c #F5820C",
"-  c #F7880F",
";  c #F68613",
":  c #F78A11",
">  c #F88E13",
",  c #F68C1A",
"<  c #F99316",
"1  c #FA9518",
"2  c #FB9B1B",
"3  c #FDA11F",
"4  c #F69223",
"5  c #FB9D22",
"6  c #F79E34",
"7  c #FEA621",
"8  c #FFA924",
"9  c #FFAD2B",
"0  c #FFB02F",
"q  c #FAA333",
"w  c #F8A43C",
"e  c #FAA83D",
"r  c #FFB233",
"t  c #FFB63A",
"y  c #FFBA3E",
"u  c #F9AC45",
"i  c #F9AE4B",
"p  c #FEB744",
"a  c #FFBC44",
"s  c #FCB549",
"d  c #FFBD4B",
"f  c #FAB251",
"g  c #FFBF52",
"h  c #FABB5E",
"j  c #FFC046",
"k  c #FFC34B",
"l  c #FFC552",
"z  c #FFCA56",
"x  c #FFC55B",
"c  c #FFCD5C",
"v  c #FFD05F",
"b  c #FCC363",
"n  c #FFC963",
"m  c #FBC46C",
"M  c #FFCD6C",
"N  c #FFD363",
"B  c #FFD66A",
"V  c #FFDA6C",
"C  c #FCCB74",
"Z  c #FCCD7A",
"A  c #FFD275",
"S  c #FFDD72",
"D  c #FFD47C",
"F  c #FFD97D",
"G  c #FFE076",
"H  c #FFE27A",
"J  c #FED584",
"K  c #FFDA84",
"L  c #FCD68C",
"P  c #FFDC8C",
"I  c #FCD593",
"U  c #FFDC92",
"Y  c #FCD69C",
"T  c #FDDA9B",
"R  c #FFE482",
"E  c #FFE78A",
"W  c #FFE88C",
"Q  c #FFE194",
"!  c #FFEA93",
"~  c #FFE29A",
"^  c #FFEB9B",
"/  c #FCD7A1",
"(  c #FDDDA4",
")  c #FCD9AC",
"_  c #FDDCB5",
"`  c #FCDBB9",
"'  c #FFE3A4",
"]  c #FFEDA5",
"[  c #FFE4AB",
"{  c #FFE9AF",
"}  c #FFF0AB",
"|  c #FFE4B3",
" . c #FFEDB6",
".. c #FFE4BD",
"X. c #FFEBBB",
"o. c #FFF2B3",
"O. c #FFF5BD",
"+. c #FFF8BE",
"@. c #FFE6C1",
"#. c #FFEBC4",
"$. c #FFEBCB",
"%. c #FFF6C3",
"&. c #FFF5CC",
"*. c #FFEDD3",
"=. c #FFEFDA",
"-. c #FFF5D3",
";. c #FFF4DC",
":. c #FFF6E7",
">. c #FFF8E3",
",. c #FFF7EC",
"<. c #FFF9ED",
"1. c #FFF7F0",
"2. c #FFF9F5",
"3. c None",
/* pixels */
"3.3.3.3.3.3.3.3.3.3.3.3.3.3.3.3.3.3.3.3.3.H H H H H H H H G H G H 3.3.3.3.3.3.3.3.3.3.3.3.3.3.3.3.3.3.3.3.3.",
"3.3.3.3.3.3.3.3.3.3.3.3.3.3.3.3.3.H H H H H H H G G S S G G H H H G H H H 3.3.3.3.3.3.3.3.3.3.3.3.3.3.3.3.3.",
"3.3.3.3.3.3.3.3.3.3.3.3.3.3.3.3.G H H H G v z j y 0 r r r r j z B G H H H R 3.3.3.3.3.3.3.3.3.3.3.3.3.3.3.3.",
"3.3.3.3.3.3.3.3.3.3.3.3.3.3.H H H H B z r 8 3 8 8 8 8 8 9 8 8 8 8 t z V H H H W 3.3.3.3.3.3.3.3.3.3.3.3.3.3.",
"3.3.3.3.3.3.3.3.3.3.3.3.3.H H H B j 9 3 8 8 3 8 3 3 3 2 3 3 3 3 8 7 7 0 k S E W ^ 3.3.3.3.3.3.3.3.3.3.3.3.3.",
"3.3.3.3.3.3.3.3.3.3.3.3.H H G k 0 3 8 3 8 3 1 > - - = = - - - > 1 7 8 8 8 j F } } } 3.3.3.3.3.3.3.3.3.3.3.3.",
"3.3.3.3.3.3.3.3.3.3.3.G H S j 8 8 9 8 3 2 - = = = = = = = = = = * - 1 7 r a M [ %.O. .3.3.3.3.3.3.3.3.3.3.3.",
"3.3.3.3.3.3.3.3.3.3.H H V r 3 8 8 3 2 - = = = = = = = = = = = = - ; < 7 t l K [ #.&.%. .3.3.3.3.3.3.3.3.3.3.",
"3.3.3.3.3.3.3.3.3.H H B 0 8 8 8 2 = = = = = = = = = = = = = = < 2 8 9 0 d M U @.$.$.-.%.o.3.3.3.3.3.3.3.3.3.",
"3.3.3.3.3.3.3.3.H H N 0 3 9 3 1 = = = = = = = = = = = = = - 3 3 8 9 r a n P ' ;.2.2.:.;.&.o.3.3.3.3.3.3.3.3.",
"3.3.3.3.3.3.3.H H V r 7 8 3 : = = = = = = = = = = = = = < 3 8 8 9 0 a n P ' @.1.2.2.2.2.;.%.o.3.3.3.3.3.3.3.",
"3.3.3.3.3.3.3.H H y 7 8 3 - = = = = = = = = = = = = = - 3 8 8 8 0 a n P [ ..$.2.2.2.2.2.2.-.O.o.3.3.3.3.3.3.",
"3.3.3.3.3.3.H H z 7 8 3 < = = = = = = = = = = = = = = < 3 8 8 9 t x K [ ....$.1.2.2.2.2.2.2.&. .3.3.3.3.3.3.",
"3.3.3.3.3.H H B 0 7 7 1 = = = = = = = = = = = = = = = 3 8 8 8 9 t M ( ....@.@.:.2.2.2.2.2.2.>.+.o.3.3.3.3.3.",
"3.3.3.3.3.H H a 3 8 3 - = = = = = = = = = = = = = = > 3 8 8 8 9 a C _ @.....@.=.2.2.2.2.2.2.,.&.O.3.3.3.3.3.",
"3.3.3.3.H H N 8 8 8 - = = = = = = = = = = = = = = = > 3 8 8 8 9 s B T ........$.2.2.2.2.2.2.,.-.%.o.3.3.3.3.",
"3.3.3.3.H H j 8 8 1 = = = = = = = = = = = = = = = * > 3 8 8 8 9 t M U ......@.@.;.2.2.2.2.2.<.-.&.o.3.3.3.3.",
"3.3.3.3.H N 9 3 3 - * = = = = = = = = = = = = = = = > 8 8 8 8 8 t x P | ........$.,.2.2.2.2.2.*.&.o.} 3.3.3.",
"3.3.3.H H j 3 9 2 = = = = = = = = = = = = = = = = = - 3 8 8 8 8 r x K | @.........*.2.2.2.2.2.*.X.} ^ 3.3.3.",
"3.3.3.H S 0 8 7 > = = = = = = = = = = = = = = = = = - 3 8 8 8 9 9 l J | X.@.......@.=.2.2.2.2...Q ^ ! 3.3.3.",
"3.3.3.H v 8 8 3 - = = = = = > - = = = = = = = = = = - 3 8 8 8 8 9 l D | ........@...@.=.,.,.*.Q A K W 3.3.3.",
"3.3.H H k 7 8 1 = = = = = < 2 = = = = = = = = = = = = 3 8 8 8 8 9 k D | ......@.@.......@.@.[ F x B E ! 3.3.",
"3.3.H H t 7 7 > = = = = > 8 < = = = = = = = = = = = = 3 8 8 8 8 9 d D [ @.@.@...@.......@...T A g c E ^ 3.3.",
"3.3.H S 0 7 7 - = = = = 7 8 < = = = = = * = = = = = = < 8 8 8 8 9 d D ' ..@...........@.=.@.P n d x ^ } 3.3.",
"3.3.H N 8 8 3 - = = = > 7 7 > = = = = = = = = = = = = = 3 8 8 8 9 d A [ ............` *.2.-.P x d n ] %.o.3.",
"3.3.H z 8 8 3 - = = = 2 8 7 > = = = = = = = = = = = $ * 1 3 8 8 9 d A ' ............@.=.1.:.P x l M  .&.+.3.",
"3.H H z 7 8 2 = = * : 7 8 8 > = = = = = = = = = = * o % > 3 3 9 9 d D [ ..@.........@.*.2.,.J l x D X.-.%.3.",
"3.H H k 3 8 1 = = = > 7 8 8 > = = = = = = = = - = & . @ - < 8 8 9 d D [ ..X.@.....@...$.:.;.Z g x P $.-.%.3.",
"3.G G j 3 8 3 = = = < 8 7 7 > = = = = = = = & & % O   X % % - 3 0 d D | ..@...............~ M d x P #.-.%.3.",
"3.H H j 8 8 1 = = = 2 8 8 7 1 = = = = = = = @ . .   .   . . O < 0 d D | ................' W m u x K X.-.%.3.",
"3.H H j 3 8 1 = = = 3 8 8 8 1 = = = = = = = = @ .       . O * = 2 s A ' ............X.....' Z f n J  .-.%.3.",
"3.H H k 3 8 2 = = - 7 8 8 8 2 = = = = * = = = = @ .     o = = = - q n ~ ....@...@...@.......I b M K  .-.%.3.",
"3.H H k 8 8 3 - = - 3 9 8 8 3 - = = = = = = = = +       o * = = = , i K | @.@.@.....@.....` Y J K Q o.-.%.3.",
"3.H H k 3 8 3 - = - 3 3 8 8 8 > = = = = = = = = o X # o . & = = = , w m / ` ` ....` ` ` ` ` ) T ~ ~  .&.%.3.",
"3.3.H v 8 8 3 - = - 3 8 8 8 8 3 = = = = = = = & O & = * O # = = = ; 6 h I ) ` ` ` ` ` ` ` ` ` _ | '  .-.%.3.",
"3.3.H v 9 3 8 > = = 3 8 8 8 3 3 - = = = = = = * * = = = = & = = = ; 4 f L ) ` ` ` ` ` ` ` ` ` ....| #.-.%.3.",
"3.3.H V 0 3 8 2 = - 3 8 8 8 8 8 3 = = = = = = = = = = = = = = = = = 4 u C ) ` ` ` ` ` ` ` ` ` ` ..#.-.-.%.3.",
"3.3.H G t 8 3 3 = - 3 8 8 8 8 8 3 < = = = = = = = = = = = = = = = = , w m Y ` ..` ` ` ` ` ` ` ....$.-.&.+.3.",
"3.3.H H k 8 8 8 - = 3 3 8 8 8 8 8 3 - = = = = = = = = = = = = = = = , 6 b Y ` ....` ` ` ` ` ` ..@.&.-.&.3.3.",
"3.3.H H v 3 8 8 < = 1 8 8 8 8 8 8 3 3 - = = = = = = = = = = = = = = ; w h / ......` ` ` ` ` ....@.-.-.%.3.3.",
"3.3.3.H S 0 8 8 3 = - 3 8 8 8 8 8 8 8 3 < - = = = = = = = = = = = = , 6 m ' @.....` ` ` ` ` ....&.-.-.+.3.3.",
"3.3.3.H H j 3 8 3 > = 3 8 8 8 8 8 8 8 8 3 1 - - = = = = = = = = = = , e Z [ ......` ` ` ` ` ....-.-.&.+.3.3.",
"3.3.3.H H v 9 8 8 3 - 2 8 8 8 8 8 8 8 8 8 8 3 < - = = = = = = = = : q d P | ......` ` ` ` ....#.-.-.%.3.3.3.",
"3.3.3.3.H H y 3 8 8 < > 8 8 8 8 8 8 8 8 8 8 8 8 3 3 < > > > < 3 3 8 r l K ......` ` ` ` ......$.-.-.%.3.3.3.",
"3.3.3.3.H H v 8 3 8 3 < 3 8 8 8 8 8 8 8 8 8 8 8 3 8 8 8 8 8 8 8 8 8 r l L ......` ` ` ` ....@.*.-.&.%.3.3.3.",
"3.3.3.3.3.H H y 8 8 8 3 < 3 8 8 8 8 8 8 8 8 8 8 8 8 8 8 8 8 8 8 8 8 0 d M U ~ ~ I ) ` ......$.-.-.%.3.3.3.3.",
"3.3.3.3.3.H H V 9 3 8 8 3 3 8 8 8 8 8 8 8 8 8 8 8 8 8 8 8 8 8 8 8 8 9 t a x B m C L ' ....#.-.;.%.%.3.3.3.3.",
"3.3.3.3.3.3.H H k 8 8 8 3 3 8 8 8 8 8 8 8 8 8 8 8 8 8 8 8 8 8 8 8 8 9 9 r t s w i C Q | @.$.-.-.%.3.3.3.3.3.",
"3.3.3.3.3.3.H H G y 3 8 9 8 3 8 8 8 8 8 8 8 8 8 8 8 8 8 8 8 8 8 8 8 8 9 9 9 5 , q n P [ $.-.-.%.%.3.3.3.3.3.",
"3.3.3.3.3.3.3.H H B 0 3 8 8 8 8 8 8 8 8 8 8 8 8 8 8 8 8 8 8 8 8 8 8 8 8 8 3 : 1 r n P | -.-.%.%.3.3.3.3.3.3.",
"3.3.3.3.3.3.3.3.H H v 0 3 8 8 8 8 8 8 8 8 8 8 8 8 8 8 8 8 8 8 8 8 8 8 7 3 < 2 0 t n ~ &.-.-.%.3.3.3.3.3.3.3.",
"3.3.3.3.3.3.3.3.H G H v 0 8 8 8 8 8 8 8 8 8 8 8 8 8 8 8 8 8 8 8 8 7 7 7 2 3 8 0 d A o.;.-.%.3.3.3.3.3.3.3.3.",
"3.3.3.3.3.3.3.3.3.H H H v 0 3 8 8 8 8 8 8 8 8 8 8 8 8 8 8 8 8 8 9 3 3 3 8 8 8 0 z ] -.&.%.+.3.3.3.3.3.3.3.3.",
"3.3.3.3.3.3.3.3.3.3.H H H V y 8 3 8 8 8 8 8 8 8 8 8 8 8 8 8 8 3 8 3 3 9 8 8 8 j H ] O.o.+.3.3.3.3.3.3.3.3.3.",
"3.3.3.3.3.3.3.3.3.3.3.H H H S k 9 8 8 8 8 8 8 8 8 8 8 8 8 8 8 8 8 8 8 3 3 0 z G W ! ^ 3.3.3.3.3.3.3.3.3.3.3.",
"3.3.3.3.3.3.3.3.3.3.3.3.H H H H V y 9 8 3 8 8 8 8 8 8 8 8 8 8 8 8 8 3 9 j B H H H ! 3.3.3.3.3.3.3.3.3.3.3.3.",
"3.3.3.3.3.3.3.3.3.3.3.3.3.3.H H G G V j 0 9 3 3 8 8 8 8 8 8 3 8 8 0 j V H H H H R 3.3.3.3.3.3.3.3.3.3.3.3.3.",
"3.3.3.3.3.3.3.3.3.3.3.3.3.3.3.H G H H G V v z y r 0 9 9 0 0 y z v S H H H H H 3.3.3.3.3.3.3.3.3.3.3.3.3.3.3.",
"3.3.3.3.3.3.3.3.3.3.3.3.3.3.3.3.H H G H H H H H S V V V S S G H H H G H H H 3.3.3.3.3.3.3.3.3.3.3.3.3.3.3.3.",
"3.3.3.3.3.3.3.3.3.3.3.3.3.3.3.3.3.3.H H H H H H H H H G H H H G H H G H 3.3.3.3.3.3.3.3.3.3.3.3.3.3.3.3.3.3."
};
