/* XPM */
static char *result[] = {
/* columns rows colors chars-per-pixel */
"50 60 133 2 ",
"   c #E62F0B",
".  c #E7340C",
"X  c #E83B0C",
"o  c #EA460C",
"O  c #EB4C0D",
"+  c #EC520D",
"@  c #ED590D",
"#  c #EB4B13",
"$  c #EA4D1D",
"%  c #EC561B",
"&  c #EF620D",
"*  c #F0660D",
"=  c #F3740D",
"-  c #F47A0D",
";  c #F47815",
":  c #EE5F21",
">  c #F17222",
",  c #F5820C",
"<  c #F68611",
"1  c #F68913",
"2  c #F88E13",
"3  c #F68D1C",
"4  c #F99216",
"5  c #FA9619",
"6  c #FB9C1C",
"7  c #FDA31F",
"8  c #F68C21",
"9  c #F69224",
"0  c #FA9D25",
"q  c #F5902B",
"w  c #F7982D",
"e  c #F89A2E",
"r  c #F59037",
"t  c #F79D34",
"y  c #FEA621",
"u  c #FFA924",
"i  c #FBA32D",
"p  c #FFAD2B",
"a  c #FFB02D",
"s  c #F9A132",
"d  c #FFAE31",
"f  c #F7A039",
"g  c #F8A23B",
"h  c #FCAD3D",
"j  c #FFB234",
"k  c #FFB53C",
"l  c #FFB93D",
"z  c #F7A245",
"x  c #F8A743",
"c  c #F8A944",
"v  c #F8AC4A",
"b  c #FEB643",
"n  c #FFBC44",
"m  c #FAB14E",
"M  c #FFBD4C",
"N  c #F7A250",
"B  c #FAB354",
"V  c #FEBD54",
"C  c #FAB75A",
"Z  c #FBBB5D",
"A  c #FABD62",
"S  c #FFC14B",
"D  c #FFC355",
"F  c #FFC956",
"G  c #FFC55B",
"H  c #FFCC5D",
"J  c #FFD05F",
"K  c #FDC363",
"L  c #FFCA63",
"P  c #FCC36C",
"I  c #FECC6B",
"U  c #FFD365",
"Y  c #FFD46C",
"T  c #FFD96C",
"R  c #FBC571",
"E  c #FDCA74",
"W  c #FBCD7C",
"Q  c #FFD375",
"!  c #FFDD74",
"~  c #FFD47B",
"^  c #FFDD79",
"/  c #FFE27A",
"(  c #FDCE81",
")  c #FDD285",
"_  c #FFD983",
"`  c #FCD38A",
"'  c #FEDB8C",
"]  c #FCD593",
"[  c #FEDC94",
"{  c #FCD69C",
"}  c #FDDA9C",
"|  c #FFE582",
" . c #FFE689",
".. c #FFE88B",
"X. c #FFE493",
"o. c #FFEA94",
"O. c #FFE39C",
"+. c #FFEB9A",
"@. c #FCD7A2",
"#. c #FDDBA4",
"$. c #FCDAAC",
"%. c #FCDAB5",
"&. c #FCDAB8",
"*. c #FFE3A3",
"=. c #FFEDA4",
"-. c #FFE4AC",
";. c #FFEDAC",
":. c #FFF0AD",
">. c #FFE3B4",
",. c #FFEEB3",
"<. c #FFE5BE",
"1. c #FFECBC",
"2. c #FFF1B3",
"3. c #FFF4BD",
"4. c #FFF9BF",
"5. c #FFE7C1",
"6. c #FFEAC3",
"7. c #FFEDCB",
"8. c #FFF5C4",
"9. c #FFF8C4",
"0. c #FFF5CD",
"q. c #FFF8CA",
"w. c #FFEED6",
"e. c #FFEFDA",
"r. c #FFF5D4",
"t. c #FFF8D0",
"y. c #FFF5DA",
"u. c #FFF4E3",
"i. c #FFF8E7",
"p. c #FFF7EA",
"a. c #FFF8EF",
"s. c #FFF9F2",
"d. c None",
/* pixels */
"d.d.d.d.d.d.d.d.d.d.d.d.d.d.d.d.d.d.4.8.q.r.r.r.r.y.y.r.t.9.d.d.d.d.d.d.d.d.d.d.d.d.d.d.d.d.d.d.d.d.",
"d.d.d.d.d.d.d.d.d.d.d.d.d.d.d.d.8.9.t.r.r.y.y.y.y.y.y.y.t.2.o. .d.d.d.d.d.d.d.d.d.d.d.d.d.d.d.d.d.d.",
"d.d.d.d.d.d.d.d.d.d.d.d.d.d.8.q.r.y.y.r.r.7.7.7.8.7.0.6.2.+...| / / / d.d.d.d.d.d.d.d.d.d.d.d.d.d.d.",
"d.d.d.d.d.d.d.d.d.d.d.d.4.8.0.r.r.r.7.6.5.6.5.<.6.>.O.' Q H H T / / / / d.d.d.d.d.d.d.d.d.d.d.d.d.d.",
"d.d.d.d.d.d.d.d.d.d.d.9.0.r.r.r.7.5.6.<.<.<.<.5.>.*._ L b j p p l J / / / / d.d.d.d.d.d.d.d.d.d.d.d.",
"d.d.d.d.d.d.d.d.d.d.8.0.y.r.7.5.<.<.<.<.<.<.&.%.#.W B s 0 y u u 7 u l U / / / d.d.d.d.d.d.d.d.d.d.d.",
"d.d.d.d.d.d.d.d.d.2.8.r.7.6.<.<.<.<.&.&.&.&.&.%.` B w 3 , , 1 6 7 u u a F / / / d.d.d.d.d.d.d.d.d.d.",
"d.d.d.d.d.d.d.d.=.2.8.6.5.5.5.<.<.&.&.&.&.&.%.{ P f 3 , , , , < 5 u u 7 u n ! / / d.d.d.d.d.d.d.d.d.",
"d.d.d.d.d.d.d.+.=.3.6.<.<.<.<.&.&.&.&.&.&.@.] R x 9 < , , 5 6 y u u u u u j D !  ...d.d.d.d.d.d.d.d.",
"d.d.d.d.d.d.d.o.2.1.<.<.5.&.&.&.&.&.&.&.$.` K x 9 < , 1 y u u u u u u u P >.-.#.=.+.+.d.d.d.d.d.d.d.",
"d.d.d.d.d.d.o.=.,.<.<.<.&.&.&.&.&.&.%.@.) A g 9 1 , 2 u u u u u u u u d >.u.e.u.y.3.=.d.d.d.d.d.d.d.",
"d.d.d.d.d...+.;.>.5.<.&.&.&.&.&.&.&.$.` A t 3 < , 1 y u u u u u u u 7 k 5.e.e.u.i.u.8.=.d.d.d.d.d.d.",
"d.d.d.d.d...=.-.<.<.&.%.%.&.&.&.&.%.] A f 3 1 , , 6 u u u u u u u u u p <.e.e.e.u.s.i.3.=.d.d.d.d.d.",
"d.d.d.d. .o.O.>.<.>.@.%.&.&.&.&.%.@.( v 9 1 , , 1 y u u u u u u u u u u ] e.e.e.u.p.s.0.=.d.d.d.d.d.",
"d.d.d.d. .X.O.<.>.#.$.&.&.%.&.&.%.] A t 3 , , , 4 u u u u u u u u u u 7 Z w.w.e.y.u.p.y.;.o.d.d.d.d.",
"d.d.d.|  .~ O.>.*.@.%.%.&.&.&.&.$.( v 8 , , , - 4 y u u u u u u u u u y d >.e.e.e.u.i.u.;.o.d.d.d.d.",
"d.d.d./ ^ E -.-.{ $.&.&.&.&.&.%.{ R f 3 , , , , 4 y u u u u u u u u u u 7 I w.w.e.y.u.e.X.+.o.d.d.d.",
"d.d./ / J I -.} @.%.&.&.&.&.&.%.] C w < , , , - 5 u u u u u u u u u u u u p $.e.w.e.e.e.~ ..+.d.d.d.",
"d.d./ ! n K X.[ @.&.&.%.&.&.&.%.) B 9 , , , , , 4 u u u u u u u u u u u u 7 D 7.e.e.e.e.I ~ ;.:.d.d.",
"d.d./ J j D E [ %.&.&.&.&.&.&.$.( v 9 , , , , , 4 u u u u u u u u u u u u u u P 7.e.u.5.D I :.4.d.d.",
"d./ / n a C E { %.&.&.&.&.&.&.$.W v 3 , , , , , 4 y u u u u u u u u u u u u u u V { { V j G ;.8.4.d.",
"d./ T a a M E #.&.&.&.&.5.&.&.$.W c 3 , , , , , < y u u u u u u u u u u u u u u u u u u j G *.0.4.d.",
"d./ U u j C W $.&.&.&.5.&.&.&.$.) m q < , , , , , 7 u u u u u u u u u u u u u u u p y u d V X.0.8.d.",
"d./ H u j C ` %.&.&.&.5.&.&.%.$.] A f 3 , , , , , 5 u u u u u u u u u u u u u u b { M y j D ' 0.8.d.",
"d./ n u k G ] &.&.&.5.<.&.&.&.&.{ W v 9 < , , , - < 7 u u u u u u u u u u u u 7 R y.$.d j D ' 0.8.d.",
"/ / l p b K ] &.&.>.5.5.&.&.&.&.%.{ C w 1 , , - @ , 6 u u u u u u u u u u u u u E e.6.b k H ' 0.0.d.",
"../ k a M A { &.&.<.5.<.<.&.&.&.&.$.R g 8 , < * X = 1 7 u u u u u u u u u u u 7 Z y.5.b b Q X.6.0.d.",
"../ n k M P @.&.&.<.<.<.&.&.&.&.&.$.W v 9 , , +   & , 4 u u u u u u u u u u u u p ] ( j V ' O.8.r.d.",
"o. .G M V P @.%.&.<.<.<.&.&.&.%.&.%.` B > O o .   X o o ; u u u u u u u u u u u y p p h C } O.1.0.4.",
"+.O.' G V Z ] } %.5.<.5.&.&.&.&.&.&.@.A r #           O - 5 u u u u u u u u u u u u u h Z *.*.8.0.4.",
"=.=.*.Y G B R { >.5.5.<.5.&.&.&.&.&.%.( m 8 o       + , , , 4 y u u u y u u u u u u p s A *.-.8.r.4.",
"=.,.-._ G m P ] &.<.<.5.<.&.&.&.&.&.%.@.K f %       & < , , , < 5 y u p u u u u u y 6 w K *.>.6.0.3.",
"=.;.1.[ I B Z ` &.6.<.<.<.&.&.&.&.&.&.%.W z $ X O . o , , , , , , , 4 7 7 u 7 7 6 2 < t P *.<.0.0.d.",
":.2.6.*.~ V C ` >.<.6.<.<.<.%.&.%.%.&.%.` N : = < & o - , , , , , , , , 2 2 2 , , , < t P -.5.r.0.d.",
"=.:.6.>.[ P Z ) %.<.<.<.5.<.&.&.&.&.&.&.{ N r < , , = - , , , , , , , , , , , , , , 1 t R -.5.y.0.d.",
"d.:.6.<.*.~ P ) >.<.<.<.<.<.<.&.&.&.&.&.{ A t 3 , , , , , , , , , , , , , 2 , , , , 1 g W -.7.r.0.d.",
"d.:.1.6.>.[ W ` $.<.6.<.<.<.<.&.&.&.&.&.@.P t 1 , , , , , , , , , , , , 2 7 , , , , 3 c ) -.7.r.8.d.",
"d.:.4.6.>.*.[ ' #.<.<.<.5.<.6.5.&.&.&.&.@.R g 1 , , , , , , , , , - , , 7 7 2 , , , 3 m ' 1.r.r.8.d.",
"d.=.3.6.6.>.*.[ } >.<.<.<.5.<.<.<.&.&.&.%.P f 3 , , , , , , , , , , , 6 7 u 4 , , < 8 A X.<.r.r.9.d.",
"d.:.:.3.5.5.>.} [ -.<.6.<.<.<.<.<.<.&.%.{ C w 1 , , , , , , , , , , 4 7 u u 4 , , , t I *.7.r.0.4.d.",
"d.d.,.3.6.<.<.%.] -.5.5.5.<.5.<.<.<.>.[ P g 8 < , , , , , , , , 2 5 u u u 7 2 , , 3 x ~ -.7.y.8.d.d.",
"d.d.2.8.8.<.<.<.$.$.>.<.5.<.5.<.<.>.O.~ V i 4 , , , , , , , 2 5 7 u u u u 7 , , , 3 V _ ,.y.r.8.d.d.",
"d.d.2.8.8.<.6.5.<.&.<.<.6.<.<.<.6.-.~ G l p u y 6 5 5 5 6 7 u u u u u u u 7 , , , 0 G [ 0.y.r.9.d.d.",
"d.d.d.8.0.1.>.5.<.&.<.<.<.<.<.5.>.[ U b p u u u u u u u u u u u u u u u u 4 - , 1 d L O.r.y.9.d.d.d.",
"d.d.d.4.0.0.>.<.<.<.&.<.<.<.<.<.-._ G j u u u u u u u u u u u u u u u u y 1 , , 6 k L ,.r.r.8.d.d.d.",
"d.d.d.d.8.r.6.>.5.<.<.<.<.<.<.<.-.~ S d u u u u u u u u u u u u u u u u 5 , , 5 p k ~ 3.r.8.d.d.d.d.",
"d.d.d.d.8.0.r.6.<.<.<.<.<.<.5.<.-.Q M p u u u u u u u u u u u u u u u y 2 , 5 u a M O.9.r.9.d.d.d.d.",
"d.d.d.d.9.r.y.r.6.<.6.<.<.<.6.<.-.~ n a u u u u u u u u u u u u u u u 6 , 5 u u j Q :.8.8.d.d.d.d.d.",
"d.d.d.d.d.q.r.r.0.5.5.<.5.<.<.<.-.~ M p u u u u u u u u u u u u u u 7 1 6 u u u F o.:.8.d.d.d.d.d.d.",
"d.d.d.d.d.9.q.y.y.0.5.5.5.<.5.<.>.~ M p u u u u u u u u u u u u y 7 5 7 u y u S | o.:.d.d.d.d.d.d.d.",
"d.d.d.d.d.d.9.r.r.y.0.6.<.<.5.<.>.' D j u u u u u u u u u u u 7 7 6 u u u u S / | ..d.d.d.d.d.d.d.d.",
"d.d.d.d.d.d.d.9.r.y.y.0.5.5.<.<.>.[ L l p u u u u u u u u u 7 7 y y u y u S T / / d.d.d.d.d.d.d.d.d.",
"d.d.d.d.d.d.d.d.q.r.y.y.r.7.6.5.<.*.~ M j u u u u u u u u u u u u u 7 a H / / / d.d.d.d.d.d.d.d.d.d.",
"d.d.d.d.d.d.d.d.9.9.t.y.y.r.7.6.<.>.' H k p u u u u u u u u u 7 7 u S T / / / d.d.d.d.d.d.d.d.d.d.d.",
"d.d.d.d.d.d.d.d.d.d.9.r.y.y.y.r.7.6.*.Q M d u u u u u 7 7 7 u a S U / / / / d.d.d.d.d.d.d.d.d.d.d.d.",
"d.d.d.d.d.d.d.d.d.d.d.9.q.r.y.y.y.r.6.+.Q S j p u u u a j S F U / / / / / d.d.d.d.d.d.d.d.d.d.d.d.d.",
"d.d.d.d.d.d.d.d.d.d.d.d.4.9.q.r.y.y.y.t.2.X.^ U J J U T ! / / / / / / d.d.d.d.d.d.d.d.d.d.d.d.d.d.d.",
"d.d.d.d.d.d.d.d.d.d.d.d.d.4.9.q.t.r.r.y.0.3.+. ./ / / / / / / / / / d.d.d.d.d.d.d.d.d.d.d.d.d.d.d.d.",
"d.d.d.d.d.d.d.d.d.d.d.d.d.d.d.9.9.9.q.t.r.9.=.../ / / / / / / d.d.d.d.d.d.d.d.d.d.d.d.d.d.d.d.d.d.d.",
"d.d.d.d.d.d.d.d.d.d.d.d.d.d.d.d.d.d.d.9.9.d.d.d.d.d.d.d.d.d.d.d.d.d.d.d.d.d.d.d.d.d.d.d.d.d.d.d.d.d."
};
