/* XPM */
static char *result[] = {
/* columns rows colors chars-per-pixel */
"51 60 127 2 ",
"   c #F1792A",
".  c #F5820C",
"X  c #F6880F",
"o  c #F68611",
"O  c #F68A13",
"+  c #F88E15",
"@  c #F68D1B",
"#  c #F99116",
"$  c #F7911D",
"%  c #FA9419",
"&  c #FB9B1C",
"*  c #FEA31E",
"=  c #F79223",
"-  c #F89626",
";  c #FB9C23",
":  c #F79629",
">  c #F7982D",
",  c #F99B2A",
"<  c #F79C32",
"1  c #F89D33",
"2  c #FEA622",
"3  c #FFA924",
"4  c #FCA42C",
"5  c #FFAC2B",
"6  c #FFB12D",
"7  c #FAA432",
"8  c #FFAF31",
"9  c #F8A33C",
"0  c #FBAB3D",
"q  c #FFB235",
"w  c #FFB53C",
"e  c #FFB93D",
"r  c #F59444",
"t  c #F28952",
"y  c #F8A742",
"u  c #F9AA44",
"i  c #F9AD4B",
"p  c #FEB642",
"a  c #FFBB45",
"s  c #FFBD4B",
"d  c #F9B253",
"f  c #FFBE51",
"g  c #F9B458",
"h  c #FCBC5C",
"j  c #FABB63",
"k  c #F9BD78",
"l  c #FFC047",
"z  c #FFC14B",
"x  c #FFC353",
"c  c #FFC955",
"v  c #FFC55C",
"b  c #FFCD5C",
"n  c #FFD05F",
"m  c #FEC265",
"M  c #FFCA64",
"N  c #FCC46B",
"B  c #FFCE6D",
"V  c #FFD464",
"C  c #FFD06F",
"Z  c #FFD96D",
"A  c #FBC572",
"S  c #FDCD73",
"D  c #FDCC7D",
"F  c #FFD275",
"G  c #FFDD73",
"H  c #FFD57C",
"J  c #FFDD79",
"K  c #FFE176",
"L  c #FFE37A",
"P  c #F7B888",
"I  c #F9C381",
"U  c #FDCE83",
"Y  c #FED085",
"T  c #FFDA84",
"R  c #FED38D",
"E  c #FFDD8C",
"W  c #FACF9D",
"Q  c #FDD794",
"!  c #FEDD93",
"~  c #FDDC9C",
"^  c #FFE482",
"/  c #FFE68B",
"(  c #FFE88D",
")  c #FFE294",
"_  c #FFEA95",
"`  c #FFE39A",
"'  c #FFEC9D",
"]  c #FACCA1",
"[  c #FCD5A1",
"{  c #FEDCA4",
"}  c #FEDEAA",
"|  c #FBD5B4",
" . c #FAD4BB",
".. c #FBD9BF",
"X. c #FFE5A2",
"o. c #FFEBA4",
"O. c #FEE4AC",
"+. c #FFEBAC",
"@. c #FFF2AE",
"#. c #FEE4B3",
"$. c #FFECB3",
"%. c #FEE5BB",
"&. c #FFECBC",
"*. c #FFF1B3",
"=. c #FFF5BB",
"-. c #FFF8BF",
";. c #FAD6CD",
":. c #FBDCCD",
">. c #FEE6C3",
",. c #FFECC4",
"<. c #FDE3CD",
"1. c #FFEDCC",
"2. c #FFF5C4",
"3. c #FFF8C4",
"4. c #FFF4CB",
"5. c #FFF8CC",
"6. c #FDE4D0",
"7. c #FFEDD5",
"8. c #FFEFD8",
"9. c #FFF5D2",
"0. c #FFF8D4",
"q. c #FFF2DC",
"w. c #FFF8DC",
"e. c #FFF6E3",
"r. c #FFF8E5",
"t. c #FFF8E8",
"y. c None",
/* pixels */
"y.y.y.y.y.y.y.y.y.y.y.y.y.y.y.y.y.y.3.3.0.w.t.t.t.t.t.t.t.t.t.w.5.3.y.y.y.y.y.y.y.y.y.y.y.y.y.y.y.y.y.",
"y.y.y.y.y.y.y.y.y.y.y.y.y.y.y.y.2.3.0.w.e.e.e.e.e.e.e.e.e.e.t.e.w.0.4.-.y.y.y.y.y.y.y.y.y.y.y.y.y.y.y.",
"y.y.y.y.y.y.y.y.y.y.y.y.y.y.=.2.5.e.t.e.e.8.8.8.7.9.8.8.8.q.q.e.e.t.w.4.-.y.y.y.y.y.y.y.y.y.y.y.y.y.y.",
"y.y.y.y.y.y.y.y.y.y.y.y.y.=.2.w.e.q.q.7.8.7.7.7.7.7.7.7.7.7.7.7.q.q.e.e.9.*.@.y.y.y.y.y.y.y.y.y.y.y.y.",
"y.y.y.y.y.y.y.y.y.y.y.y.*.2.w.q.8.7.7.7.7.7.7.7.7.6.7.6.7.7.7.7.7.7.q.q.q.0.*.o.y.y.y.y.y.y.y.y.y.y.y.",
"y.y.y.y.y.y.y.y.y.y.y.*.2.w.8.7.7.7.7.7.7.6.6.6.6.6.<.6.<.6.6.6.6.7.7.7.8.w.3.' ( y.y.y.y.y.y.y.y.y.y.",
"y.y.y.y.y.y.y.y.y.y.+.2.w.1.,.&.7.7.7.6.6.6.6.6.6.6.6.6.6.6.6.6.6.7.7.7.7.8.4.X./ ^ y.y.y.y.y.y.y.y.y.",
"y.y.y.y.y.y.y.y.y.' *.9.1.+.+.,.7.<.<.6.6.6.6.6.6.6.6.6.6.6.6.6.7.7.7.7.7.1.~ F L L K y.y.y.y.y.y.y.y.",
"y.y.y.y.y.y.y.y.( ' &.,.+.o.$.1.6.6.6.6.6.6.6.6.6.6.6.6.6.6.7.7.7.7.7.7.&.+.O.~ F L K L y.y.y.y.y.y.y.",
"y.y.y.y.y.y.y.^ ( _ O.` ` +.>.<.6.6.6.6.6.6.6.6.6.6.6.6.7.7.7.7.7.7.7.1.X.+.q.8.1.#.^ K L y.y.y.y.y.y.",
"y.y.y.y.y.y.K L J M F H ) #.<.6.6.6.6.6.6.6.6.6.6.6.6.6.7.7.8.7.7.7.1.+.T %.q.8.7.8.&.^ K y.y.y.y.y.y.",
"y.y.y.y.y.y.L K s p x S ! %.<.6.6.6.6.6.6.6.6.6.6.6.6.7.7.7.7.7.7.7.,.) M O.8.7.7.7.7.&.L K y.y.y.y.y.",
"y.y.y.y.y.L L c 5 q a N ~ <.6.6.6.6.6.6.6.6.6.6.6.6.7.7.9.7.7.8.7.1.+.F p U 8.7.7.8.7.8.X.K L y.y.y.y.",
"y.y.y.y.L L V 6 3 8 u A #.<.6.6.6.6.6.6.6.6.6.6.6.6.7.7.8.7.7.7.9.,.! M q f 1.8.7.9.7.8.,.^ K y.y.y.y.",
"y.y.y.y.L K a * 3 4 u Y %.<.6.6.6.6.6.<.6.6.6.6.6.6.7.7.8.7.7.7.7.%.T s 8 5 { q.7.7.7.8.1./ K L y.y.y.",
"y.y.y.L L V 5 3 3 , g ~ <.<.6.6.6.6.6.6.6.6.6.6.6.6.7.7.7.7.7.7.2.O.M p 5 2 m 7.8.7.7.7.7.T J L y.y.y.",
"y.y.y.L K a * 3 & 1 A } <.6.6.6.6.6.6.6.6.6.6.6.6.6.8.7.7.7.1.&.` F s q 3 3 6 { q.7.7.7.8.Y b L L y.y.",
"y.y.y.L V 6 3 * $ y D %.6.6.6.6.6.6.6.6.6.6.6.6.6.6.7.7.7.1.O./ F f q 5 3 3 * h 1.q.7.7.q.R l L L y.y.",
"y.y.K L c * 3 & = d ! >.6.6.6.6.6.6.6.6.6.6.6.6.6.6.7.7.1.$.) M a q 5 3 3 3 3 3 D 8.q.7.q.R 6 Z L y.y.",
"y.y.K K e * * + > g { <.6.6.6.6.6.6.6.6.6.6.6.6.6.6.7.7.,.` B p 5 5 3 3 3 3 3 2 3 U 1.8.>.x * b L L y.",
"y.y.L V 5 3 * @ < N } <.6.6.6.6.6.6.6.6.:.6.6.6.6.6.6.7.$.T f q 5 2 3 3 3 3 3 3 3 3 s N a 3 * l L L y.",
"y.y.L b * 5 & O 9 D #.6.7.6.6.6.6.6.6.6.6.6.6.6.6.<.7.1.o.B p 3 3 3 3 3 3 3 3 3 3 3 * * 3 3 3 q Z L y.",
"y.K L l * 3 # @ u U %.7.7.6.6.6.6.6.6.6.6.6.6.6.6.6.7.,.` v q 5 3 3 3 3 3 3 3 3 3 3 p 0 2 3 3 3 V L y.",
"y.K K q 3 3 @ @ i Y >.7.7.7.6.6.6.6.6.6.6.6.6.6.6.6.<.&.E x q 3 3 3 3 3 3 3 3 3 3 5 { } 8 3 3 3 b L y.",
"y.L Z 6 3 3 + @ i Q >.7.7.7.6.6.6.6.6.6.6.6.6.6.6.<.<.%.T s 8 3 3 3 3 3 3 3 3 3 2 w >.8.M * 3 3 c L L ",
"y.L V 5 * * o = d Q 1.7.7.6.6.6.6.6.6.6.6.6.6.6.6.:.6.#.H s 5 3 3 3 3 3 3 3 3 3 3 0 >.e.U * 3 3 s ^ _ ",
"y.L V 3 3 & X = d ~ 1.7.7.6.6.6.6.6.6.6.6.6.6.6.:.;.<.O.S a 5 3 3 3 3 3 3 3 3 3 2 5 ~ 8.N * 3 5 z / ' ",
"y.L n 5 3 * o : g ~ 7.7.7.7.6.6.6.6.6.6.6.6.6.<.:.;.:.} j 0 5 3 3 3 3 3 3 3 3 3 3 * p B 6 & ; 8 x _ +.",
"y.L b 3 3 * . = g ~ 7.7.7.7.6.6.6.6.6.6.6.:.;.;.;.;.;.] t   , 5 3 3 3 3 3 5 3 3 3 3 3 3 2 + & q v o.*.",
"y.L b 3 3 * o : g ~ 9.7.7.6.6.6.:.6.6.6.6.6.:.;.;.;. .P r @ + ; 3 3 3 3 3 3 3 3 3 3 3 3 2 o ; w M *.=.",
"y.L b 3 3 * o = d ~ 7.7.7.6.6.6.6.6.6.6.6.6.6.:.;. .W k y = . o & * 3 3 3 3 3 3 3 3 3 3 % . ; a F 2.5.",
"y.L n 3 3 2 o $ d ! 1.7.8.7.6.6.6.6.6.6.6.6.6.;.;.| W I d > @ . . X & * 3 3 3 3 3 3 * % o . 4 z T 9.5.",
"y.L V 3 3 2 + @ i E 1.7.9.7.6.6.6.6.6.6.6.6.:.;.:.<.| W j y = o . . . o # & * * & & . . . X 5 c ! w.0.",
"y.L Z 6 3 3 + O y T ,.8.7.7.7.6.6.6.6.6.6.6.6.;.6.6.<.;.[ j 1 @ . . . . . . . . . . .   . X 0 B O.w.5.",
"y.L G q 3 3 % O 1 H %.7.7.7.7.6.6.6.6.6.6.6.6.6.6.6.<.<.>.U y = . . . . . . . . . . . . . # p J 2.w.5.",
"y.L K a 3 3 & O < S +.7.7.7.7.7.6.6.6.6.6.6.6.6.6.6.6.<.<.Q g = . . . . . . % X . . . . . ; x E 9.w.3.",
"y.L L c 2 3 * o = m X.1.7.7.7.7.7.<.6.6.6.6.6.6.6.6.6.6.<.{ j , O . . . . o 2 O   . . . o 4 B X.w.w.3.",
"y.y.L V 3 3 3 + @ d ! ,.8.7.8.9.7.7.6.6.6.6.6.6.6.6.6.6.<.{ j < o . . . . % 3 & . . . . O p H #.w.w.3.",
"y.y.L G q 3 3 * + 0 H &.7.1.7.7.7.7.6.6.6.6.6.6.6.6.6.6.<.#.A 9 @ . . . % 3 3 & . . . . - x E 4.e.5.y.",
"y.y.L L l * 3 * # > m ! &.+.&.7.7.8.7.6.6.6.6.6.6.6.6.6.<.#.D u @ . . % 3 3 3 & . . . O 0 B O.9.e.5.y.",
"y.y.L L n 5 3 3 ; @ p M H ) o.%.7.7.7.7.7.6.6.6.6.<.6.6.6.>.Q i = O & 3 3 3 3 & . . . = f T =.e.w.5.y.",
"y.y.y.L K e * 3 3 # , a s M / $.7.9.7.7.7.7.7.6.6.6.6.<.6.>.{ N u 3 3 3 3 3 2 + . . o 4 M O.0.e.0.3.y.",
"y.y.y.L L b 3 3 3 2 + 5 q z F O.1.7.7.7.7.7.7.8.7.7.7.7.7.7.&.` M w 5 5 3 3 2 o . . # p H &.t.e.5.y.y.",
"y.y.y.y.L Z e * 3 3 % % 5 p F O.7.7.8.7.7.7.7.9.7.7.7.7.7.7.4.#.T x e 5 5 3 & . . . * c ! 4.t.0.3.y.y.",
"y.y.y.y.L L n 5 3 3 2 % 5 a F #.7.7.7.7.7.7.7.7.7.7.7.8.7.7.7.1.+.T v a w q % . . % q v X.w.e.5.y.y.y.",
"y.y.y.y.y.L L l 3 3 3 * 4 p F &.8.9.7.7.7.7.7.8.7.7.7.7.7.8.7.7.,.+.E B v p = + # 5 p B &.t.0.3.y.y.y.",
"y.y.y.y.y.^ ^ J e 5 5 3 5 p B %.7.,.1.7.8.7.7.7.8.9.7.7.7.7.7.7.7.7.%.X.! N y , 3 5 a E 9.w.5.y.y.y.y.",
"y.y.y.y.y.y./ _ J a q 5 5 w x H ) X.+.$.,.1.7.7.7.7.7.7.7.8.9.7.7.7.7.4.>.[ N a q 5 b +.0.0.3.y.y.y.y.",
"y.y.y.y.y.y.o.@.o.T x w q q w z M S H T ` +.&.4.7.7.7.7.9.8.7.7.9.7.7.7.6.<.) v q e ^ +.5.5.y.y.y.y.y.",
"y.y.y.y.y.y.y.3.4.=.E v s e w w e p a x M H ` +.,.7.7.7.7.7.7.7.7.7.7.7.7.1.O.F x G ( ' =.y.y.y.y.y.y.",
"y.y.y.y.y.y.y.3.0.e.4.` B v s p q q q w p f B E +.,.7.9.7.7.8.7.7.6.7.7.7.7.&._ _ ( / _ y.y.y.y.y.y.y.",
"y.y.y.y.y.y.y.y.3.w.t.0.#.T V v s a w w w a x F ` +.,.7.7.7.7.7.7.7.7.7.7.8.9.2.*._ / y.y.y.y.y.y.y.y.",
"y.y.y.y.y.y.y.y.-.5.w.t.w.4.o.E F B M x v v M H ` o.&.7.7.7.7.7.7.7.7.7.8.e.e.e.5.@.y.y.y.y.y.y.y.y.y.",
"y.y.y.y.y.y.y.y.y.-.5.w.e.t.w.2.+.X.` ) E E ! ` +.&.1.7.7.7.7.8.7.7.q.w.e.t.t.e.0.y.y.y.y.y.y.y.y.y.y.",
"y.y.y.y.y.y.y.y.y.y.-.3.w.t.t.t.e.9.4.1.>.1.,.,.1.7.7.7.7.8.9.8.8.q.e.e.t.t.w.9.3.y.y.y.y.y.y.y.y.y.y.",
"y.y.y.y.y.y.y.y.y.y.y.-.3.5.w.t.t.t.t.e.e.q.q.q.8.8.7.8.q.8.w.e.e.t.t.t.e.0.5.-.y.y.y.y.y.y.y.y.y.y.y.",
"y.y.y.y.y.y.y.y.y.y.y.y.y.3.3.0.e.t.t.e.r.r.t.t.e.w.w.e.r.r.t.r.t.t.t.e.0.3.-.y.y.y.y.y.y.y.y.y.y.y.y.",
"y.y.y.y.y.y.y.y.y.y.y.y.y.y.-.3.4.0.w.e.r.r.r.t.t.t.t.e.r.r.r.t.t.t.w.0.3.y.y.y.y.y.y.y.y.y.y.y.y.y.y.",
"y.y.y.y.y.y.y.y.y.y.y.y.y.y.y.y.-.3.3.5.0.w.w.e.e.t.e.e.r.r.t.r.r.0.3.-.y.y.y.y.y.y.y.y.y.y.y.y.y.y.y.",
"y.y.y.y.y.y.y.y.y.y.y.y.y.y.y.y.y.y.-.3.3.3.3.3.5.5.5.5.0.5.0.5.-.3.y.y.y.y.y.y.y.y.y.y.y.y.y.y.y.y.y."
};
