/* XPM */
static char *f3c4199df0ad477baf866ec5daedaab0Ni7y0d7Qpe6T0GuB[] = {
/* columns rows colors chars-per-pixel */
"60 60 68 1 ",
"  c black",
". c black",
"X c black",
"o c black",
"O c black",
"+ c black",
"@ c None",
"# c black",
"$ c #16191A",
"% c #2E3437",
"& c #2D3235",
"* c #4C555A",
"= c #9DB0BA",
"- c #99ABB5",
"; c #4E575C",
": c #A0B3BD",
"> c #9BAEB8",
", c #4B5459",
"< c #A0B2BD",
"1 c #9BADB7",
"2 c #98AAB5",
"3 c #98ABB5",
"4 c #748289",
"5 c #9CAEB7",
"6 c #BFCAD1",
"7 c #CFD7DC",
"8 c #CDD6DB",
"9 c #9CAEB8",
"0 c #E4E9EC",
"q c white",
"w c #E2E7EA",
"e c #98AAB4",
"r c #9AACB7",
"t c #E1E6E9",
"y c #FEFEFE",
"u c #242A2E",
"i c #79919D",
"p c #7B93A0",
"a c #7A929F",
"s c #8BA0AB",
"d c #B0BEC6",
"f c #B9C6CD",
"g c #B8C5CC",
"h c #1F272B",
"j c #6B8593",
"k c #6D8795",
"l c #6B8694",
"z c #849AA6",
"x c #97AAB4",
"c c #20272B",
"v c #6D8694",
"b c #6E8896",
"n c #859BA7",
"m c #9DAFB9",
"M c #8298A5",
"N c #96A9B3",
"B c #718A98",
"V c #738C9A",
"C c #21292D",
"Z c #708A98",
"A c #728C9B",
"S c #718C9B",
"D c #101416",
"F c #36434A",
"G c #37444B",
"H c #354249",
"J c #536671",
"K c white",
/* pixels */
"   .X##################################################X.   ",
"   .X##################################################X.   ",
"   oO##################################################Oo   ",
"..o+@##$%&&&&&&&&&&&&&&&&&&&&&&&&&&&&&&&&&&&&&&&&&&%$##@+o..",
"XXO@###*=------------------------------------------=*###@OXX",
"#######;:>>>>>>>>>>>>>>>>>>>>>>>>>>>>>>>>>>>>>>>>>>:;#######",
"#######,<11-233333333333333333333333333333333332-11<,#######",
"###$*;,4=156788888888888888888888888888888888887651=4,;*$###",
"###%=:<=1190qqqqqqqqqqqqqqqqqqqqqqqqqqqqqqqqqqqq0911=<:=%###",
"###&->11119wqqqqqqqqqqqqqqqqqqqqqqqqqqqqqqqqqqqqw91111>-&###",
"###&->11119wqqqqqqqqqqqqqqqqqqqqqqqqqqqqqqqqqqqqw91111>-&###",
"###&->11119wqqqqqqqqqqqqqqqqqqqqqqqqqqqqqqqqqqqqw91111>-&###",
"###&->11119wqqqqqqqqqqqqqqqqqqqqqqqqqqqqqqqqqqqqw91111>-&###",
"###&->11119wqqqqqqqqqqqqqqqqqqqqqqqqqqqqqqqqqqqqw91111>-&###",
"###&->11119wqqqqqqqqqqqqqqqqqqqqqqqqqqqqqqqqqqqqw91111>-&###",
"###&->11119wqqqqqqqqqqqqqqqqqqqqqqqqqqqqqqqqqqqqw91111>-&###",
"###&->11119wqqqqqqqqqqqqqqqqqqqqqqqqqqqqqqqqqqqqw91111>-&###",
"###&->11119wqqqqqqqqqqqqqqqqqqqqqqqqqqqqqqqqqqqqw91111>-&###",
"###&->11119wqqqqqqqqqqqqqqqqqqqqqqqqqqqqqqqqqqqqw91111>-&###",
"###&->11119wqqqqqqqqqqqqqqqqqqqqqqqqqqqqqqqqqqqqw91111>-&###",
"###&->11119wqqqqqqqqqqqqqqqqqqqqqqqqqqqqqqqqqqqqw91111>-&###",
"###&->11119wqqqqqqqqqqqqqqqqqqqqqqqqqqqqqqqqqqqqw91111>-&###",
"###&->11119wqqqqqqqqqqqqqqqqqqqqqqqqqqqqqqqqqqqqw91111>-&###",
"###&->11119wqqqqqqqqqqqqqqqqqqqqqqqqqqqqqqqqqqqqw91111>-&###",
"###&->11119wqqqqqqqqqqqqqqqqqqqqqqqqqqqqqqqqqqqqw91111>-&###",
"###&->11119wqqqqqqqqqqqqqqqqqqqqqqqqqqqqqqqqqqqqw91111>-&###",
"###&->11119wqqqqqqqqqqqqqqqqqqqqqqqqqqqqqqqqqqqqw91111>-&###",
"###&->11119wqqqqqqqqqqqqqqqqqqqqqqqqqqqqqqqqqqqqw91111>-&###",
"###&->11119wqqqqqqqqqqqqqqqqqqqqqqqqqqqqqqqqqqqqw91111>-&###",
"###&->11119wqqqqqqqqqqqqqqqqqqqqqqqqqqqqqqqqqqqqw91111>-&###",
"###&->11119wqqqqqqqqqqqqqqqqqqqqqqqqqqqqqqqqqqqqw91111>-&###",
"###&->11119wqqqqqqqqqqqqqqqqqqqqqqqqqqqqqqqqqqqqw91111>-&###",
"###&->11119wqqqqqqqqqqqqqqqqqqqqqqqqqqqqqqqqqqqqw91111>-&###",
"###&->11119wqqqqqqqqqqqqqqqqqqqqqqqqqqqqqqqqqqqqw91111>-&###",
"###&->11119wqqqqqqqqqqqqqqqqqqqqqqqqqqqqqqqqqqqqw91111>-&###",
"###&->11119wqqqqqqqqqqqqqqqqqqqqqqqqqqqqqqqqqqqqw91111>-&###",
"###&->11119wqqqqqqqqqqqqqqqqqqqqqqqqqqqqqqqqqqqqw91111>-&###",
"###&->11119wqqqqqqqqqqqqqqqqqqqqqqqqqqqqqqqqqqqqw91111>-&###",
"###&->11119wqqqqqqqqqqqqqqqqqqqqqqqqqqqqqqqqqqqqw91111>-&###",
"###&-911119wqqqqqqqqqqqqqqqqqqqqqqqqqqqqqqqqqqqqw911119-&###",
"###&e1r1119tqyyyyyyyyyyyyyyyyyyyyyyyyyyyyyyyyyyqt9111r1e&###",
"###uipas911dfggggggggggggggggggggggggggggggggggfd119sapiu###",
"###hjklz911-x2222222222222222222222222222222222x-119zlkjh###",
"###cvbknm999999999999999999999999999999999999999999mnkbvc###",
"###cvbkMxNNNNNNNNNNNNNNNNNNNNNNNNNNNNNNNNNNNNNNNNNNxMkbvc###",
"###cvbbBVVVVVVVVVVVVVVVVVVVVVVVVVVVVVVVVVVVVVVVVVVVVBbbvc###",
"###cvbbbkkkkkkkkkkkkkkkkkkkkkkkkkkkkkkkkkkkkkkkkkkkkbbbvc###",
"###cvbbbbbbbbbbbbbbbbbbbbbbbbbbbbbbbbbbbbbbbbbbbbbbbbbbvc###",
"###cvbbbbbbbbbbbbbbbbbbbbbbbbbbbbbbbbbbbbbbbbbbbbbbbbbbvc###",
"###cvbbbbbbbbbbbbbbbbbbbbbbbbbbbbbbbbbbbbbbbbbbbbbbbbbbvc###",
"###cvbbbbbbbbbbbbbbbbbbbbbbbbbbbbbbbbbbbbbbbbbbbbbbbbbbvc###",
"###CZASZbbbbbbbbbbbbbbbbbbbbbbbbbbbbbbbbbbbbbbbbbbbbZSAZC###",
"###DFGHJZbbbbbbbbbbbbbbbbbbbbbbbbbbbbbbbbbbbbbbbbbbZJHGFD###",
"#######HSbbbbbbbbbbbbbbbbbbbbbbbbbbbbbbbbbbbbbbbbbbSH#######",
"#######GAbbbbbbbbbbbbbbbbbbbbbbbbbbbbbbbbbbbbbbbbbbAG#######",
"XXO@###FZvvvvvvvvvvvvvvvvvvvvvvvvvvvvvvvvvvvvvvvvvvZF###@OXX",
"..o+@##DCccccccccccccccccccccccccccccccccccccccccccCD##@+o..",
"   oO##################################################Oo   ",
"   .X##################################################X.   ",
"   .X##################################################X.   "
};
